<svg width="84" height="84" viewBox="0 0 84 84" fill="none" xmlns="http://www.w3.org/2000/svg">
<path d="M25.951 9.42987H8.88721V27.216H25.951V9.42987Z" fill="#E0E0E0"/>
<path d="M24.7952 9.42987H7.73145V27.216H24.7952V9.42987Z" fill="#FAFAFA"/>
<path d="M24.8002 27.216H7.72803V9.4248H24.8002V27.216ZM7.73643 27.216H24.7901V9.43656H7.73643V27.216Z" fill="#E0E0E0"/>
<path d="M22.5002 11.8222H10.0245V24.8271H22.5002V11.8222Z" fill="#FAFAFA"/>
<path d="M10.0246 24.9127C9.93688 25.0439 9.83365 25.1641 9.71713 25.2706C9.51889 25.4806 9.23833 25.7746 8.92417 26.0753C8.61001 26.376 8.32273 26.6599 8.10937 26.8548C8.00089 26.9685 7.87969 27.0695 7.74817 27.1555C7.83881 27.0246 7.94485 26.905 8.06401 26.7994C8.26225 26.5894 8.54281 26.2954 8.85865 25.993C9.17449 25.6906 9.46177 25.4066 9.67513 25.2118C9.77987 25.0991 9.89711 24.9988 10.0246 24.9127Z" fill="#E0E0E0"/>
<path d="M22.5002 24.8808C22.631 24.9692 22.751 25.0723 22.8581 25.1882C23.0698 25.3882 23.3537 25.6687 23.6628 25.9812C23.9719 26.2937 24.2474 26.5843 24.4423 26.7977C24.557 26.9047 24.658 27.0254 24.743 27.1572C24.6127 27.0696 24.4932 26.967 24.3869 26.8514C24.1769 26.6515 23.8913 26.371 23.5805 26.0568C23.2697 25.7426 22.9958 25.452 22.7993 25.2403C22.6858 25.1326 22.5855 25.012 22.5002 24.8808Z" fill="#E0E0E0"/>
<path d="M22.4667 11.8558C22.555 11.7251 22.6582 11.605 22.7741 11.498C22.974 11.288 23.2546 11.004 23.5671 10.6949C23.8796 10.3858 24.1702 10.1103 24.3836 9.91372C24.4908 9.79982 24.6115 9.6994 24.7431 9.61469C24.6555 9.74502 24.5529 9.86457 24.4373 9.97084C24.2374 10.1808 23.9568 10.4664 23.6427 10.7756C23.3285 11.0847 23.0379 11.3619 22.8262 11.5584C22.7188 11.6717 22.5981 11.7716 22.4667 11.8558Z" fill="#E0E0E0"/>
<path d="M9.99097 11.8877C9.85974 11.8 9.73959 11.6968 9.63313 11.5803C9.42313 11.382 9.13921 11.1015 8.83009 10.7873C8.52097 10.4732 8.24545 10.1859 8.04889 9.97253C7.93514 9.86405 7.83424 9.74285 7.74817 9.61133C7.87864 9.69744 7.99872 9.79835 8.10601 9.91205C8.31601 10.1103 8.61001 10.3908 8.91073 10.7067C9.21145 11.0225 9.49705 11.3098 9.69193 11.5232C9.80659 11.6316 9.90707 11.7541 9.99097 11.8877Z" fill="#E0E0E0"/>
<path d="M22.4667 24.827C22.4667 24.827 22.4667 24.8035 22.4667 24.7632C22.4667 24.7229 22.4667 24.6591 22.4667 24.5818C22.4667 24.4138 22.4667 24.1836 22.4667 23.8795C22.4667 23.263 22.4667 22.3675 22.4532 21.2285C22.4532 18.9521 22.4398 15.7063 22.428 11.8205L22.4767 11.8675H10.0447L10.0985 11.8121C10.0985 16.585 10.0985 21.0521 10.0985 24.817L10.0515 24.7682L19.0596 24.7935L21.5897 24.8052H22.2617H22.4297H22.4902H22.4347H22.2667H21.6065L19.0865 24.817L10.0481 24.8422H9.99939V24.7951C9.99939 21.0286 9.99939 16.5631 9.99939 11.7902V11.76H10.0548H22.4868H22.512V11.8087C22.5019 15.7063 22.4935 18.9622 22.4868 21.247C22.4868 22.3793 22.4767 23.273 22.4751 23.8862C22.4751 24.187 22.4751 24.4188 22.4751 24.5784C22.4751 24.654 22.4751 24.7128 22.4751 24.7548C22.4746 24.7791 22.4718 24.8033 22.4667 24.827Z" fill="#E0E0E0"/>
<path d="M18.3439 16.2422H14.1809V20.4053H18.3439V16.2422Z" fill="#EBEBEB"/>
<path d="M67.1544 9.74835L65.5063 9.75726L65.5507 17.9606L67.1988 17.9517L67.1544 9.74835Z" fill="#E0E0E0"/>
<path d="M55.4922 9.77115L51.2234 9.79425L51.2479 14.3235L55.5167 14.3004L55.4922 9.77115Z" fill="#EBEBEB"/>
<path d="M59.744 9.7482L55.4735 9.7713L55.498 14.3005L59.7685 14.2774L59.744 9.7482Z" fill="#F5F5F5"/>
<path d="M51.2299 11.0477C54.0669 11.0712 56.9066 11.0583 59.7492 11.0091C59.7612 11.0091 59.7728 11.0043 59.7813 10.9958C59.7898 10.9873 59.7946 10.9757 59.7946 10.9637C59.7946 10.9517 59.7898 10.9401 59.7813 10.9316C59.7728 10.9231 59.7612 10.9183 59.7492 10.9183C56.9117 10.9032 54.0658 10.9184 51.2299 10.9704C51.2197 10.9704 51.2099 10.9745 51.2026 10.9817C51.1954 10.989 51.1913 10.9988 51.1913 11.0091C51.1913 11.0193 51.1954 11.0291 51.2026 11.0364C51.2099 11.0436 51.2197 11.0477 51.2299 11.0477Z" fill="#E0E0E0"/>
<path d="M56.3176 14.2254L48.5612 14.2673L48.5811 17.9582L56.3376 17.9163L56.3176 14.2254Z" fill="#EBEBEB"/>
<path d="M64.0385 14.1836L56.2821 14.2256L56.3021 17.9165L64.0585 17.8745L64.0385 14.1836Z" fill="#F5F5F5"/>
<path d="M48.5671 15.2964C53.7196 15.3552 58.8907 15.2964 64.0449 15.2192C64.057 15.2192 64.0685 15.2144 64.077 15.2059C64.0855 15.1974 64.0903 15.1858 64.0903 15.1738C64.0903 15.1618 64.0855 15.1502 64.077 15.1417C64.0685 15.1332 64.057 15.1284 64.0449 15.1284C58.8924 15.1016 53.7196 15.1049 48.5671 15.2192C48.5568 15.2192 48.547 15.2232 48.5398 15.2305C48.5325 15.2377 48.5284 15.2476 48.5284 15.2578C48.5284 15.2681 48.5325 15.2779 48.5398 15.2851C48.547 15.2924 48.5568 15.2964 48.5671 15.2964Z" fill="#E0E0E0"/>
<path d="M75.7193 17.9609H45.6658V19.283H75.7193V17.9609Z" fill="#E0E0E0"/>
<path d="M51.8062 18.5959H50.5865V21.2503H51.8062V18.5959Z" fill="#E0E0E0"/>
<path d="M70.0191 18.5959H68.7994V21.2503H70.0191V18.5959Z" fill="#E0E0E0"/>
<path d="M68.764 6.69042L67.116 6.69934L67.177 17.9821L68.8251 17.9731L68.764 6.69042Z" fill="#EBEBEB"/>
<path d="M71.3408 8.79162L68.7788 8.80548L68.8283 17.9496L71.3902 17.9357L71.3408 8.79162Z" fill="#F5F5F5"/>
<path d="M71.3227 10.5555C70.8976 10.6008 70.4698 10.616 70.0426 10.6008C69.6148 10.616 69.1864 10.6008 68.7607 10.5555C69.6137 10.4972 70.4697 10.4972 71.3227 10.5555Z" fill="#E0E0E0"/>
<path d="M71.3227 10.1724C70.8975 10.2157 70.4698 10.2303 70.0426 10.2161C69.6148 10.2302 69.1866 10.2156 68.7607 10.1724C69.6137 10.112 70.4698 10.112 71.3227 10.1724Z" fill="#E0E0E0"/>
<path d="M71.3227 16.5631C70.4697 16.6214 69.6137 16.6214 68.7607 16.5631C69.6137 16.5026 70.4698 16.5026 71.3227 16.5631Z" fill="#E0E0E0"/>
<path d="M71.3227 16.1784C70.4697 16.2367 69.6137 16.2367 68.7607 16.1784C69.6137 16.1202 70.4697 16.1202 71.3227 16.1784Z" fill="#E0E0E0"/>
<path d="M70.0845 15.3401C70.0593 15.3401 70.0392 14.4178 70.0392 13.2804C70.0392 12.1431 70.0593 11.2191 70.0845 11.2191C70.1097 11.2191 70.1282 12.1414 70.1282 13.2804C70.1282 14.4195 70.1081 15.3401 70.0845 15.3401Z" fill="#E0E0E0"/>
<path d="M74.1401 11.0393H71.3513V17.9407H74.1401V11.0393Z" fill="#EBEBEB"/>
<path d="M68.3894 8.62012C68.3894 8.71382 68.3616 8.80542 68.3096 8.88333C68.2575 8.96124 68.1835 9.02196 68.097 9.05782C68.0104 9.09368 67.9151 9.10306 67.8232 9.08478C67.7313 9.0665 67.6469 9.02138 67.5807 8.95512C67.5144 8.88886 67.4693 8.80445 67.451 8.71255C67.4327 8.62065 67.4421 8.52539 67.478 8.43882C67.5138 8.35225 67.5745 8.27826 67.6525 8.2262C67.7304 8.17415 67.822 8.14636 67.9157 8.14636C68.0413 8.14636 68.1618 8.19628 68.2507 8.28512C68.3395 8.37397 68.3894 8.49447 68.3894 8.62012Z" fill="#E0E0E0"/>
<path d="M68.0618 9.92377H67.7695V16.6354H68.0618V9.92377Z" fill="#E0E0E0"/>
<path d="M67.5579 25.5192C67.8957 25.2228 68.2714 24.9725 68.6751 24.775L68.7103 23.5318L70.7263 23.1336L71.2303 24.271C71.6792 24.2999 72.1221 24.3886 72.5475 24.5347L73.4513 23.6796L75.1615 24.827L74.713 25.9879C75.0102 26.3252 75.2605 26.701 75.4572 27.1051L76.7021 27.1404L77.1003 29.1564L75.9612 29.6604C75.9329 30.1086 75.8447 30.551 75.6991 30.9758L76.5526 31.8797L75.4119 33.6L74.256 33.1481C73.918 33.445 73.5416 33.6953 73.1371 33.8923L73.1035 35.1355L71.0875 35.5337L70.5835 34.3963C70.1347 34.3674 69.6918 34.2787 69.2664 34.1326L68.3626 34.9877L66.6523 33.8402L67.1009 32.6794C66.8037 32.3421 66.5534 31.9663 66.3567 31.5622L65.1118 31.5269L64.7136 29.5109L65.851 29.0069C65.8807 28.5587 65.9694 28.1164 66.1147 27.6914L65.2613 26.7876L66.4071 25.0774L67.5679 25.5242L67.5579 25.5192ZM69.1219 28.0258C68.8785 28.3887 68.7482 28.8156 68.7475 29.2526C68.7467 29.6896 68.8756 30.117 69.1178 30.4807C69.36 30.8445 69.7046 31.1282 70.1081 31.2961C70.5115 31.4639 70.9557 31.5084 71.3844 31.4237C71.8132 31.3391 72.2072 31.1293 72.5166 30.8207C72.826 30.5122 73.037 30.1188 73.1228 29.6903C73.2087 29.2618 73.1655 28.8175 72.9988 28.4135C72.8321 28.0096 72.5493 27.6642 72.1863 27.421C71.6997 27.095 71.1035 26.9756 70.5289 27.089C69.9543 27.2024 69.4482 27.5393 69.1219 28.0258Z" fill="#368268"/>
<path d="M58.2758 24.7145C58.4656 24.5993 58.6702 24.5105 58.884 24.4507L59.0083 23.8493L60.0247 23.8308L60.1709 24.4272C60.3865 24.4802 60.5939 24.5621 60.7874 24.6708L61.3015 24.3348L62.034 25.0421L61.7148 25.5662C61.8297 25.7562 61.9185 25.9607 61.9786 26.1744L62.58 26.3004L62.5985 27.3168L62.0021 27.463C61.9478 27.6781 61.8659 27.8854 61.7585 28.0795L62.0945 28.5936L61.3872 29.3244L60.863 29.0052C60.6729 29.12 60.4684 29.2092 60.2549 29.2706L60.1289 29.8721L59.1125 29.8889L58.9663 29.2925C58.751 29.2395 58.5437 29.1582 58.3498 29.0506L57.8357 29.3866L57.1049 28.681L57.4241 28.1551C57.3083 27.9654 57.219 27.7608 57.1586 27.547L56.5572 27.4226L56.5404 26.4062L57.1368 26.2601C57.1892 26.0446 57.2706 25.8372 57.3787 25.6435L57.0427 25.1294L57.7483 24.397L58.2742 24.7162L58.2758 24.7145ZM58.8168 26.0686C58.6671 26.2237 58.5667 26.4198 58.5284 26.632C58.4901 26.8441 58.5155 27.0629 58.6015 27.2606C58.6875 27.4583 58.8302 27.6261 59.0116 27.7428C59.1929 27.8594 59.4048 27.9196 59.6204 27.9159C59.8359 27.9121 60.0456 27.8445 60.2227 27.7216C60.3999 27.5988 60.5367 27.4261 60.6157 27.2255C60.6948 27.0249 60.7126 26.8054 60.6669 26.5947C60.6212 26.384 60.5141 26.1915 60.359 26.0417C60.256 25.9421 60.1344 25.8639 60.0012 25.8113C59.8679 25.7588 59.7256 25.7331 59.5824 25.7356C59.4391 25.7381 59.2978 25.7688 59.1664 25.8259C59.0351 25.883 58.9163 25.9655 58.8168 26.0686Z" fill="#455A64"/>
<path d="M58.8169 26.0686C58.8743 25.9983 58.943 25.9382 59.0202 25.8905C59.2311 25.754 59.4828 25.6946 59.7325 25.7225C59.9048 25.7396 60.0705 25.7972 60.2164 25.8905C60.3831 26 60.5176 26.1519 60.6061 26.3306C60.6553 26.4266 60.6888 26.5298 60.7052 26.6364C60.7237 26.7476 60.7237 26.8612 60.7052 26.9724C60.6745 27.2094 60.5685 27.4302 60.4028 27.6024C60.2363 27.7732 60.0198 27.8867 59.7846 27.9266C59.6733 27.9451 59.5598 27.9451 59.4486 27.9266C59.3417 27.9134 59.2375 27.884 59.1395 27.8393C58.957 27.7571 58.8003 27.6271 58.6859 27.463C58.5634 27.2897 58.4939 27.0845 58.4859 26.8725C58.4778 26.6604 58.5316 26.4506 58.6405 26.2685C58.6852 26.1907 58.7419 26.1204 58.8085 26.0602C58.8085 26.0602 58.743 26.1324 58.659 26.2819C58.5424 26.4945 58.4999 26.7397 58.538 26.9791C58.5667 27.1548 58.6387 27.3205 58.7475 27.4613C58.8563 27.6021 58.9986 27.7135 59.1613 27.7855C59.2546 27.8277 59.3537 27.8555 59.4553 27.8678C59.5604 27.8855 59.6677 27.8855 59.7728 27.8678C59.9953 27.8303 60.1998 27.7224 60.3565 27.56C60.5131 27.3976 60.6135 27.1893 60.6431 26.9657C60.6598 26.8605 60.6598 26.7533 60.6431 26.6482C60.6279 26.5472 60.5973 26.4492 60.5524 26.3575C60.4865 26.2238 60.3936 26.1051 60.2795 26.0091C60.1654 25.913 60.0327 25.8416 59.8897 25.7995C59.7466 25.7573 59.5964 25.7453 59.4485 25.7642C59.3006 25.783 59.1582 25.8323 59.0303 25.909C58.8875 25.9997 58.8236 26.0736 58.8169 26.0686Z" fill="#455A64"/>
<path d="M58.2758 24.7145L58.2422 24.696L58.1414 24.6389L57.745 24.4037H57.7567L57.0562 25.1379V25.1194L57.3922 25.6234V25.6318V25.6419C57.2853 25.8346 57.2051 26.0408 57.1536 26.2551V26.2668H57.1418L56.5454 26.4164L56.5622 26.3928C56.569 26.7132 56.5757 27.0519 56.5824 27.4092L56.5622 27.3857L57.1654 27.51H57.1805V27.5251C57.2437 27.7418 57.3364 27.9487 57.456 28.14L57.4644 28.1535L57.456 28.1669L57.1385 28.6927V28.6591L57.8693 29.3647H57.834L58.3481 29.0287L58.3615 29.0187L58.3783 29.0271C58.5701 29.1336 58.7752 29.2144 58.9882 29.2673H59.005V29.2858L59.1511 29.8822L59.1209 29.8587L60.1373 29.8402L60.107 29.8654C60.1474 29.6756 60.1894 29.4706 60.233 29.2639V29.2455H60.2515C60.4619 29.1851 60.6635 29.0975 60.8513 28.9851H60.8681H60.8832L61.409 29.3043H61.3704L62.076 28.5735V28.6121L61.74 28.098L61.7299 28.0812L61.7383 28.0661C61.8456 27.8746 61.9264 27.6695 61.9786 27.4563V27.4395H61.9954L62.5934 27.2933L62.5699 27.3235C62.5699 26.9758 62.5582 26.6381 62.5531 26.3071L62.5766 26.334L61.9752 26.208H61.9584V26.1929C61.899 25.9811 61.8114 25.7782 61.698 25.5898V25.5764V25.5629L62.0172 25.0387V25.0707L61.2864 24.3617H61.3166L60.8026 24.6977H60.7908H60.779C60.5868 24.5904 60.3812 24.509 60.1675 24.4558H60.1558V24.444C60.1037 24.2273 60.0566 24.0324 60.013 23.8476L60.0298 23.8611L59.0134 23.8745L59.0268 23.8627C58.9764 24.103 58.9344 24.2995 58.8991 24.4642C58.739 24.5088 58.5837 24.569 58.4354 24.644L58.3262 24.7011L58.2893 24.7195C58.2999 24.7109 58.3111 24.7031 58.3229 24.696L58.4304 24.6339C58.5783 24.5558 58.7336 24.4928 58.8941 24.4457C58.9277 24.2777 58.9663 24.0845 59.015 23.8443V23.8325H59.0268L60.0432 23.8107H60.0583V23.8241C60.1037 24.0089 60.1524 24.2038 60.2062 24.4205L60.191 24.4054C60.4088 24.4583 60.6184 24.5403 60.8143 24.649H60.7908L61.3032 24.313L61.32 24.3029L61.3334 24.3164L62.0659 25.0203L62.081 25.0354L62.071 25.0539C61.9668 25.2219 61.8626 25.3983 61.7534 25.578V25.5511C61.8693 25.7428 61.9592 25.949 62.0206 26.1644L62.0004 26.1459L62.6018 26.2702H62.6237V26.292C62.6304 26.628 62.6371 26.9668 62.6438 27.3084V27.3319H62.6203L62.0239 27.4781L62.0458 27.4563C61.9927 27.6747 61.9102 27.885 61.8005 28.0812V28.056L62.1365 28.5684L62.1499 28.5903L62.1331 28.6071L61.4275 29.3395L61.409 29.3564L61.3889 29.3446L60.863 29.0254H60.895C60.7033 29.1424 60.4964 29.2323 60.2801 29.2925L60.3019 29.269C60.2599 29.4756 60.2162 29.6806 60.1776 29.8704V29.8956H60.1524L59.136 29.9124H59.1108V29.8889C59.0604 29.6823 59.01 29.479 58.9646 29.2908L58.9865 29.3127C58.7687 29.259 58.5591 29.1765 58.3632 29.0674H58.3934L57.8794 29.4034L57.8592 29.4168L57.8424 29.4L57.1133 28.6944L57.0965 28.6776L57.1082 28.6591L57.4274 28.135V28.1619C57.3031 27.9729 57.2053 27.7677 57.1368 27.552L57.1553 27.5705L56.5538 27.4445H56.5354V27.4244C56.5354 27.0682 56.5236 26.7271 56.5186 26.4079V26.3895H56.537L57.1334 26.245L57.1183 26.2601C57.1726 26.0429 57.2557 25.8338 57.3653 25.6385V25.6587L57.0293 25.1429V25.1328L57.0377 25.1227L57.7483 24.3953L58.1364 24.6372L58.2355 24.6994C58.2493 24.7034 58.2628 24.7085 58.2758 24.7145Z" fill="#455A64"/>
<path d="M61.8022 55.1208L58.3347 54.5882L58.1852 52.4765C57.4856 52.1729 56.8297 51.7774 56.2347 51.3005L54.2926 52.1405L52.2161 49.3114L53.6021 47.7137C53.3233 47.0025 53.1408 46.2573 53.0595 45.4978L51.0872 44.7216L51.6197 41.2541L53.7298 41.1046C54.0339 40.4053 54.4293 39.7494 54.9058 39.1541L54.0658 37.212L56.8949 35.1355L58.4909 36.5215C59.2023 36.2435 59.9475 36.061 60.7068 35.9789L61.488 33.9982L64.9556 34.5307L65.1051 36.6408C65.8044 36.9447 66.4603 37.3402 67.0556 37.8168L68.9993 36.9768L71.0842 39.816L69.6982 41.412C69.9763 42.1233 70.1582 42.8685 70.2392 43.6279L72.2115 44.4041L71.6772 47.88L69.5655 48.0278C69.2616 48.7272 68.8662 49.3831 68.3895 49.9783L69.2295 51.9221L66.3936 53.9952L64.796 52.6092C64.0847 52.8875 63.3395 53.0694 62.58 53.1502L61.8022 55.1208ZM58.3397 54.5798L61.7972 55.1124L62.5733 53.1418C63.3341 53.0612 64.0805 52.8787 64.7926 52.5991L66.3903 53.9851L69.216 51.912L68.376 49.9716C68.8532 49.3762 69.2487 48.7196 69.552 48.0194L71.6621 47.8716L72.193 44.4142L70.224 43.6347C70.1433 42.8745 69.9608 42.1286 69.6814 41.417L71.0674 39.821L68.9976 37.0003L67.0572 37.8403C66.4621 37.3604 65.8056 36.9621 65.1051 36.6559L64.9572 34.5459L61.4981 34.015L60.7236 35.9856C59.9637 36.0677 59.218 36.2502 58.506 36.5282L56.91 35.1422L54.0893 37.212L54.9293 39.1524C54.4486 39.7476 54.0502 40.4047 53.7449 41.1062L51.6348 41.2558L51.104 44.7132L53.0746 45.4894C53.1531 46.2507 53.3328 46.9982 53.6088 47.712L52.2228 49.308L54.2926 52.127L56.233 51.287C56.829 51.7644 57.4861 52.1599 58.1868 52.463L58.3397 54.5798ZM61.7804 48.2294C61.588 48.2291 61.396 48.2145 61.2058 48.1858C60.6575 48.1007 60.1349 47.8955 59.6752 47.5848C59.2156 47.2741 58.8303 46.8656 58.547 46.3886C58.2637 45.9115 58.0894 45.3777 58.0366 44.8255C57.9838 44.2732 58.0537 43.716 58.2414 43.1939C58.4291 42.6718 58.7299 42.1977 59.1223 41.8055C59.5147 41.4132 59.989 41.1126 60.5112 40.9252C61.0333 40.7377 61.5905 40.668 62.1428 40.7211C62.695 40.7742 63.2287 40.9487 63.7056 41.2322C64.3492 41.6156 64.8636 42.1825 65.1827 42.8602C65.5018 43.5379 65.6111 44.2955 65.4965 45.0358C65.3828 45.777 65.0502 46.4674 64.5413 47.0182C64.0324 47.569 63.3705 47.9551 62.6405 48.127C62.3588 48.1948 62.0701 48.2292 61.7804 48.2294ZM59.5527 41.4338C58.9586 41.8721 58.5068 42.4756 58.2534 43.169C58.0001 43.8624 57.9565 44.6151 58.128 45.3331C58.359 46.3023 58.9652 47.1403 59.8134 47.6628C60.6617 48.1854 61.6828 48.3499 62.6523 48.1202C63.1938 47.9916 63.6999 47.7442 64.1341 47.3959C64.5683 47.0477 64.9196 46.6073 65.1628 46.1067C65.4059 45.606 65.5348 45.0576 65.5401 44.501C65.5453 43.9445 65.4268 43.3937 65.1932 42.8885C64.9595 42.3834 64.6165 41.9365 64.189 41.5801C63.7615 41.2237 63.2601 40.9668 62.7211 40.8279C62.1822 40.689 61.6191 40.6716 61.0726 40.777C60.526 40.8824 60.0098 41.1079 59.5611 41.4372L59.5527 41.4338Z" fill="#E0E0E0"/>
<path d="M59.5527 41.4338C59.7882 41.2287 60.0562 41.0641 60.3456 40.9466C61.0195 40.6629 61.7609 40.5797 62.4808 40.7069C63.2008 40.8341 63.8688 41.1665 64.4045 41.664C64.9096 42.1329 65.2798 42.7287 65.4763 43.3893C65.6947 44.1213 65.6889 44.9019 65.4596 45.6305C65.2169 46.4169 64.7278 47.1045 64.0643 47.5916C63.4009 48.0787 62.5983 48.3394 61.7753 48.3353C61.387 48.3376 61.0008 48.2781 60.6312 48.1589C60.2751 48.0508 59.9379 47.8881 59.6316 47.6767C59.0605 47.2916 58.6033 46.7601 58.3078 46.1378C58.0521 45.5971 57.9278 45.0036 57.9449 44.4058C57.9662 43.541 58.2854 42.7102 58.8488 42.0538C59.0485 41.8129 59.2862 41.6063 59.5527 41.4422C59.5695 41.4624 59.2872 41.6472 58.9143 42.1142C58.3927 42.7693 58.1053 43.5801 58.0978 44.4175C58.0907 45.031 58.2375 45.6365 58.5248 46.1785C58.8121 46.7206 59.2308 47.182 59.7425 47.5205C60.3453 47.921 61.0533 48.1338 61.777 48.132C62.554 48.1335 63.3111 47.8863 63.9375 47.4265C64.5638 46.9667 65.0266 46.3185 65.258 45.5767C65.3721 45.2275 65.4289 44.8621 65.426 44.4948C65.4309 44.1424 65.3828 43.7912 65.2832 43.4532C65.0997 42.823 64.7518 42.253 64.2752 41.8018C63.8606 41.4082 63.3594 41.1176 62.8119 40.9534C62.0113 40.709 61.1519 40.7397 60.3708 41.0407C60.0917 41.158 59.8186 41.2892 59.5527 41.4338Z" fill="#263238"/>
<path d="M58.501 36.5165C58.4632 36.4931 58.4277 36.4661 58.3952 36.4359L58.0877 36.1788L56.8781 35.154H56.9218L54.1078 37.2456L54.1263 37.1801L54.9781 39.1188L54.9932 39.1524L54.9697 39.1827C54.4955 39.7756 54.1029 40.4293 53.8021 41.1264L53.7836 41.1651H53.7416L51.6281 41.3196L51.6987 41.2558C51.5307 42.3461 51.3627 43.5036 51.1745 44.7199L51.1225 44.6292L53.0881 45.4037L53.1385 45.4239V45.4776C53.2208 46.2303 53.4027 46.9686 53.6794 47.6734L53.7013 47.7255L53.6643 47.7675L52.2783 49.3685V49.2492L54.3716 52.08L54.2506 52.0481L56.191 51.2081L56.2481 51.1829L56.2969 51.2215C56.8857 51.6978 57.5354 52.0933 58.2289 52.3975L58.286 52.4227V52.4849C58.333 53.1468 58.3834 53.8692 58.4355 54.5983L58.3465 54.5009L61.8241 55.0099L61.7081 55.0771C61.9534 54.4539 62.2121 53.7819 62.4843 53.1065L62.5078 53.0443H62.5733C63.3219 52.9634 64.0563 52.7832 64.7573 52.5084L64.8195 52.4849L64.8682 52.5269L66.4659 53.9163H66.3332L69.1589 51.8448L69.1237 51.9725L68.2837 50.0304L68.2585 49.9716L68.2988 49.9212C68.7749 49.3336 69.1704 48.685 69.4748 47.9926L69.5 47.9338H69.5621L71.6756 47.7859L71.5815 47.8733C71.7652 46.6906 71.9438 45.5359 72.1174 44.4091L72.1779 44.5167L70.2089 43.7371L70.1535 43.717V43.6582C70.0733 42.9059 69.8937 42.1675 69.6193 41.4624L69.5991 41.4103L69.6361 41.3667L71.0271 39.7707V39.8832L68.959 37.0524L69.0581 37.0793L67.1144 37.9193L67.0724 37.9378L67.0354 37.9092C66.4461 37.4329 65.7958 37.0374 65.1017 36.7332L65.0614 36.7147V36.6727C65.0093 35.905 64.9623 35.2128 64.9186 34.5593L64.9724 34.6181L61.4881 34.0503L61.5401 34.02C61.2243 34.8046 60.9656 35.4497 60.7505 35.9856L60.7421 36.0058H60.722C60.1524 36.0627 59.5897 36.1753 59.042 36.3418L58.6371 36.4711C58.5935 36.4889 58.5486 36.5029 58.5027 36.5131C58.5441 36.4905 58.5874 36.4713 58.6321 36.456C58.7194 36.4207 58.8521 36.3687 59.0319 36.3082C59.5804 36.1264 60.1462 36.002 60.7203 35.9369L60.6917 35.9587C60.9001 35.4195 61.1504 34.7727 61.4545 33.9831L61.4679 33.9461H61.5065L64.9741 34.4635H65.0228V34.5139C65.0715 35.1675 65.1219 35.8579 65.179 36.6274L65.137 36.5669C65.8448 36.8741 66.5086 37.2741 67.111 37.7563L67.0321 37.7446L68.9708 36.9046L69.0313 36.8777L69.0699 36.9315L71.1497 39.7522L71.1917 39.811L71.1447 39.8647L69.7604 41.4658L69.7755 41.37C70.0586 42.0903 70.2444 42.8451 70.3282 43.6145L70.2677 43.5339L72.2401 44.3151L72.314 44.3436L72.3005 44.4226C72.1292 45.5493 71.9533 46.704 71.773 47.8867L71.7613 47.9691H71.6789L69.5655 48.1203L69.6529 48.0581C69.3443 48.7677 68.942 49.4328 68.4567 50.0355L68.4718 49.9279C68.7507 50.5675 69.0307 51.2143 69.3118 51.8683L69.3454 51.9473L69.2765 51.9977L66.4508 54.0725L66.3819 54.1229L66.3181 54.0658C65.7883 53.6066 65.2552 53.144 64.7187 52.6781L64.8279 52.6966C64.109 52.9818 63.3554 53.17 62.5868 53.256L62.6758 53.1871C62.4087 53.8591 62.1449 54.5311 61.8997 55.1595L61.8677 55.2384L61.7837 55.225L58.3196 54.6924L58.2356 54.679V54.595C58.1835 53.8659 58.1331 53.1435 58.0877 52.4815L58.1499 52.5689C57.4401 52.2593 56.7751 51.8558 56.1725 51.3694L56.2784 51.3845L54.3346 52.2245L54.2641 52.248L54.2153 52.1842C53.498 51.2014 52.7957 50.2438 52.1456 49.3551L52.1002 49.2929L52.1506 49.2358L53.5417 47.6398L53.5249 47.7339C53.2446 47.0132 53.0616 46.2584 52.9805 45.4894L53.036 45.5633L51.067 44.7838L51.0032 44.7586L51.0133 44.6914C51.2031 43.4767 51.3845 42.3192 51.5542 41.2289L51.5626 41.1667H51.6248L53.7382 41.0239L53.6777 41.0659C53.9887 40.3605 54.3921 39.6995 54.8773 39.1003L54.8689 39.1659L54.0289 37.2204L54.0121 37.1801L54.0473 37.1549L56.8849 35.0969L56.9067 35.0801L56.9269 35.0986L58.1029 36.1419L58.4053 36.4157C58.4392 36.4473 58.4712 36.481 58.501 36.5165Z" fill="#263238"/>
<path d="M75.5278 61.5602C75.7566 60.4373 75.8586 59.2922 75.8319 58.1465C75.81 57.0108 75.5614 55.86 74.965 54.8957C74.3004 55.9417 73.9982 57.1772 74.1048 58.4119C74.1821 59.6017 74.6661 60.7287 75.4757 61.6039" fill="#368268"/>
<path d="M74.0644 64.5977C74.0796 63.3763 74.0645 62.1415 73.7805 60.9554C73.4966 59.7693 72.8969 58.6202 71.9325 57.876C71.5787 59.1304 71.6144 60.4627 72.035 61.6963C72.4567 62.921 73.0212 63.8349 74.0678 64.5977" fill="#368268"/>
<path d="M72.2131 68.208C72.3811 67.116 72.5121 66.0105 72.3945 64.9135C72.2769 63.8164 71.8905 62.7194 71.1059 61.9365C70.6395 63.0173 70.5124 64.2142 70.7414 65.3688C70.9732 66.5128 71.368 67.3999 72.2131 68.208Z" fill="#368268"/>
<path d="M70.8675 70.7885C70.8087 69.5486 70.7213 68.2987 70.3551 67.1143C69.9888 65.9299 69.3151 64.801 68.287 64.1071C68.0037 65.3993 68.1209 66.7472 68.623 67.9711C69.127 69.1858 69.7553 70.0778 70.8607 70.7868" fill="#368268"/>
<path d="M68.8649 73.8326C68.9036 72.6953 68.9204 71.5461 68.6751 70.4357C68.4298 69.3252 67.9006 68.2433 67.0136 67.5309C66.6592 68.6915 66.6657 69.9323 67.032 71.0892C67.4 72.2383 67.9073 73.1052 68.8649 73.8326Z" fill="#368268"/>
<path d="M67.2 76.44C67.2404 75.3026 67.2555 74.1535 67.0119 73.043C66.7683 71.9325 66.3617 70.9565 65.4764 70.2441C65.1202 71.3949 65.0009 72.5491 65.3688 73.6965C65.7368 74.844 66.2424 75.7125 67.2 76.44Z" fill="#368268"/>
<path d="M74.0695 64.5641C74.8374 64.0473 75.6635 63.6227 76.5307 63.299C77.209 63.0303 77.9158 62.8398 78.6374 62.7312C79.3629 62.6231 80.1043 62.7221 80.776 63.0168C79.93 63.8994 78.8448 64.5159 77.6535 64.7907C76.4622 65.0656 75.2166 64.9868 74.0695 64.5641Z" fill="#368268"/>
<path d="M68.8616 73.8528C69.4864 73.4322 70.1585 73.0865 70.8641 72.823C71.4159 72.6042 71.9908 72.4492 72.5777 72.361C73.1676 72.2732 73.7703 72.3535 74.3165 72.5928C73.6283 73.3106 72.7458 73.8121 71.7769 74.0359C70.808 74.2597 69.7948 74.1961 68.8616 73.8528Z" fill="#368268"/>
<path d="M67.5562 75.9209C68.2282 75.6588 69.1303 75.1178 69.846 75.0271C70.4322 74.9366 71.0268 74.9129 71.6184 74.9566C72.2135 75.0029 72.7835 75.216 73.2631 75.5714C72.4312 76.1153 71.4598 76.407 70.4659 76.4114C69.4781 76.4114 68.3827 76.4585 67.5562 75.9192" fill="#368268"/>
<path d="M72.4869 67.9829C73.2551 67.4654 74.0818 67.0408 74.9498 66.7178C75.6275 66.4485 76.3338 66.2574 77.0549 66.1483C77.7806 66.0415 78.5217 66.141 79.1935 66.4356C78.3469 67.3173 77.2617 67.9332 76.0706 68.2079C74.8796 68.4827 73.6343 68.4045 72.4869 67.9829Z" fill="#368268"/>
<path d="M70.3567 71.6654C71.0535 71.0556 71.8198 70.5301 72.6398 70.0997C73.2779 69.7475 73.9543 69.4696 74.6558 69.2714C75.3617 69.0725 76.1095 69.0772 76.8129 69.2849C76.0849 70.2671 75.0861 71.0155 73.939 71.4384C72.7919 71.8612 71.5463 71.9401 70.355 71.6654" fill="#368268"/>
<path d="M75.3699 61.9399C76.6229 61.8417 77.8341 61.4442 78.9017 60.7809C79.9692 60.1176 80.8621 59.2078 81.5052 58.128C80.5829 58.2439 79.6572 58.464 78.8542 58.9226C77.5102 59.7005 76.6114 61.0109 75.3699 61.9466" fill="#368268"/>
<path d="M76.776 59.0839C77.6947 58.6436 78.419 57.8802 78.8104 56.9396C79.2019 55.999 79.233 54.9472 78.8978 53.9851C78.0868 54.5492 77.4553 55.3349 77.079 56.2483C76.7028 57.1618 76.5975 58.1643 76.776 59.136" fill="#368268"/>
<path d="M67.0437 76.65C67.0533 76.632 67.0639 76.6146 67.0756 76.5979C67.0991 76.5593 67.1327 76.5105 67.1731 76.4484C67.2655 76.314 67.3948 76.1225 67.5595 75.8789C67.7241 75.6353 67.9341 75.3312 68.1626 74.975C68.3911 74.6189 68.6666 74.219 68.9421 73.7638C69.2176 73.3085 69.5368 72.8179 69.856 72.2786C70.1752 71.7394 70.5163 71.1614 70.864 70.5499C71.5595 69.3235 72.3071 67.9644 73.048 66.5179C74.5466 63.6249 75.8032 60.9571 76.7054 59.0234L77.7839 56.7319C77.9099 56.4665 78.0074 56.2565 78.0763 56.1103C78.1082 56.0431 78.1334 55.9893 78.1535 55.9423C78.1737 55.8953 78.1821 55.8885 78.1821 55.8885C78.1776 55.9083 78.1709 55.9275 78.1619 55.9457C78.1451 55.9877 78.1216 56.0414 78.0914 56.1137L77.8159 56.7437C77.5739 57.288 77.2211 58.0776 76.7759 59.0469C75.8889 60.989 74.639 63.6619 73.1404 66.5566C72.3928 68.003 71.6435 69.3622 70.9413 70.5886C70.5868 71.1984 70.2508 71.7797 69.9215 72.3139C69.5923 72.8482 69.2848 73.3454 68.9975 73.7957C68.7103 74.2459 68.4415 74.6474 68.2063 75.0002C67.9711 75.353 67.7644 75.6537 67.5897 75.8973L67.1915 76.4568L67.0857 76.6013C67.0588 76.6349 67.0454 76.6517 67.0437 76.65Z" fill="#263238"/>
<path d="M9.10889 65.4377C8.66874 64.4564 8.33911 63.4292 8.12609 62.375C7.8849 61.3308 7.92666 60.2411 8.24705 59.2183C9.07144 60.039 9.60278 61.1081 9.75905 62.2608C9.93061 63.3619 9.71952 64.4885 9.16097 65.4528" fill="#368268"/>
<path d="M11.0778 67.9174C10.8107 66.8018 10.5738 65.6695 10.5839 64.5221C10.594 63.3746 10.9199 62.202 11.644 61.32C12.2285 62.3981 12.4705 63.6288 12.3378 64.848C12.2051 66.0559 11.8775 67.0102 11.0778 67.9258" fill="#368268"/>
<path d="M13.519 70.8439C13.1477 69.8779 12.7915 68.8934 12.679 67.8652C12.5664 66.8371 12.6941 65.7501 13.2434 64.8732C13.8923 65.7668 14.2539 66.8368 14.28 67.9409C14.3052 69.0362 14.1254 69.93 13.519 70.8439Z" fill="#368268"/>
<path d="M15.288 72.9238C15.0864 71.778 14.9083 70.6138 14.999 69.4529C15.0898 68.292 15.4728 67.121 16.2708 66.2726C16.7941 67.4011 16.9617 68.662 16.7513 69.888C16.5413 71.1026 16.1498 72.0502 15.283 72.9271" fill="#368268"/>
<path d="M17.7475 75.2976C17.4754 74.2644 17.2234 73.2144 17.2183 72.1476C17.2133 71.0808 17.4754 69.9804 18.139 69.1454C18.7043 70.1348 18.955 71.2727 18.858 72.408C18.7589 73.5336 18.4716 74.424 17.7475 75.2976Z" fill="#368268"/>
<path d="M11.0662 67.8871C10.2548 67.5718 9.40891 67.3535 8.5462 67.237C7.86962 67.1305 7.18308 67.1017 6.49996 67.1513C5.81359 67.2029 5.15564 67.4468 4.60156 67.8552C5.55834 68.4886 6.67917 68.829 7.8266 68.8347C8.97403 68.8404 10.0982 68.511 11.0612 67.8871" fill="#368268"/>
<path d="M17.7542 75.3144C17.0953 75.0585 16.4084 74.8814 15.7079 74.7869C15.1575 74.6997 14.5989 74.676 14.0431 74.7163C13.4846 74.7572 12.9492 74.9559 12.4991 75.2892C13.2776 75.8043 14.1895 76.0811 15.1229 76.0855C16.0564 76.09 16.9708 75.822 17.7542 75.3144Z" fill="#368268"/>
<path d="M13.2216 70.6894C12.4101 70.3747 11.5642 70.157 10.7016 70.0409C10.0256 69.9344 9.33962 69.9056 8.65707 69.9552C7.97084 70.0062 7.31289 70.2496 6.75867 70.6574C7.71545 71.2908 8.83628 71.6312 9.98371 71.6369C11.1311 71.6426 12.2553 71.3133 13.2183 70.6894" fill="#368268"/>
<path d="M15.9314 73.6209C15.1679 73.2068 14.3581 72.8843 13.519 72.66C12.8617 72.4725 12.1855 72.3598 11.503 72.324C10.8155 72.2887 10.132 72.4477 9.53064 72.7826C10.4007 73.5304 11.47 74.0082 12.6075 74.1574C13.745 74.3066 14.9013 74.1208 15.9348 73.6226" fill="#368268"/>
<path d="M9.33406 65.7535C8.16625 65.9221 6.97505 65.8081 5.86042 65.421C4.74579 65.034 3.74026 64.3852 2.92822 63.5292C3.79509 63.4159 4.67587 63.477 5.51878 63.709C6.90982 64.1424 8.0035 65.1571 9.33406 65.7535Z" fill="#368268"/>
<path d="M7.46083 63.4267C6.52849 63.2141 5.70727 62.6652 5.1543 61.8851C4.60133 61.1049 4.35545 60.1482 4.46371 59.1981C5.32121 59.547 6.06012 60.1354 6.59219 60.893C7.12426 61.6506 7.42698 62.5453 7.46419 63.4704" fill="#368268"/>
<path d="M18.3406 75.9612C18.3259 75.9515 18.3124 75.9402 18.3003 75.9276L18.1894 75.8251L17.7711 75.432C17.5896 75.264 17.3679 75.0422 17.1175 74.7869C16.8672 74.5315 16.5766 74.2476 16.2775 73.92C15.0276 72.6247 13.3611 70.7784 11.6122 68.6616C9.8633 66.5448 8.3429 64.5758 7.25594 63.1428C6.71162 62.4254 6.2765 61.8425 5.97746 61.4393L5.64146 60.9722L5.5541 60.8496C5.54306 60.8364 5.53401 60.8217 5.52722 60.8059L5.56082 60.8429L5.6549 60.9605L6.01106 61.4174C6.32186 61.8206 6.76538 62.3969 7.31306 63.0974C8.41178 64.5221 9.93722 66.4843 11.6811 68.5977C13.4249 70.7112 15.0864 72.5659 16.3229 73.8713C16.6287 74.2073 16.9159 74.4895 17.1629 74.7465C17.4099 75.0036 17.6266 75.222 17.8047 75.4001L18.2129 75.8133L18.3171 75.9209L18.3406 75.9612Z" fill="#263238"/>
<path d="M67.8081 76.65L69.9367 54.1128C69.9778 53.6925 69.9315 53.2683 69.8007 52.8667C69.67 52.4651 69.4576 52.0949 69.1769 51.7794C68.8963 51.4639 68.5534 51.2098 68.1698 51.0331C67.7862 50.8564 67.3702 50.761 66.948 50.7528L43.2449 50.2824C42.4642 50.2666 41.707 50.5494 41.1279 51.073C40.5487 51.5966 40.1912 52.3215 40.1285 53.0998L38.3124 76.64L67.8081 76.65Z" fill="#455A64"/>
<path d="M64.4448 76.645C64.4517 76.6191 64.4562 76.5927 64.4583 76.566C64.4583 76.5089 64.4734 76.4316 64.4851 76.3308C64.507 76.1208 64.5406 75.8184 64.5809 75.4303C64.6599 74.6441 64.7741 73.5135 64.9169 72.1174C65.1907 69.3135 65.5687 65.4495 65.9854 61.1806C66.3029 57.8542 66.5986 54.7747 66.8371 52.2682C66.8371 52.1427 66.8338 52.0184 66.8271 51.8952C66.8293 51.772 66.8163 51.649 66.7884 51.529C66.7249 51.2954 66.5876 51.0886 66.397 50.9393C66.2155 50.7984 65.9948 50.7174 65.7653 50.7075L65.142 50.6957L63.0639 50.6638L61.735 50.647H61.3872C61.3083 50.647 61.2679 50.647 61.2679 50.647C61.2679 50.647 61.3083 50.647 61.3872 50.6554L61.735 50.6688L63.0639 50.7058L65.1403 50.7562L65.7619 50.773C65.9826 50.7833 66.1942 50.8639 66.3658 51.0029C66.5375 51.1419 66.6602 51.3321 66.7162 51.5458C66.7426 51.6609 66.7545 51.7788 66.7515 51.8969C66.7515 52.0179 66.7515 52.1405 66.7599 52.2648C66.5163 54.7714 66.2155 57.8508 65.8913 61.1772C65.4847 65.4461 65.1168 69.3118 64.8514 72.1157C64.722 73.5135 64.6179 74.6357 64.5456 75.432C64.512 75.8201 64.4868 76.1242 64.4683 76.3342C64.4599 76.435 64.4549 76.5123 64.4499 76.5694C64.4465 76.5944 64.4449 76.6197 64.4448 76.645Z" fill="#263238"/>
<path d="M37.5733 37.1684C37.4493 37.0419 37.2966 36.9473 37.1281 36.8928H37.16C37.1295 36.8866 37.0986 36.8821 37.0676 36.8794C37.0112 36.8644 36.9524 36.861 36.8946 36.8693C36.8369 36.8777 36.7814 36.8977 36.7316 36.9281C36.5446 36.9997 36.3912 37.1388 36.3015 37.3179C36.2327 37.4767 36.2087 37.6513 36.2321 37.8228C36.2555 37.9942 36.3254 38.156 36.4342 38.2906C36.5138 38.4132 36.6286 38.509 36.7635 38.5651C36.8985 38.6213 37.0473 38.6353 37.1904 38.6053C37.3335 38.5753 37.4641 38.5027 37.5651 38.3971C37.6662 38.2914 37.7328 38.1577 37.7564 38.0134C37.7991 37.8685 37.8047 37.7151 37.7727 37.5675C37.7407 37.4199 37.6721 37.2826 37.5733 37.1684Z" fill="#455A64"/>
<path d="M36.2259 33.0826C35.6634 32.9286 35.1464 32.6412 34.7186 32.245C34.2907 31.8487 33.9647 31.3552 33.7681 30.8062C33.5794 30.2521 33.5251 29.6612 33.6095 29.082C33.6939 28.5028 33.9146 27.9519 34.2536 27.4747C33.5581 27.6528 32.8659 27.006 32.7231 26.2987C32.5803 25.5915 32.8323 24.859 33.1011 24.1853C33.716 22.6481 34.4854 21.1059 35.7672 20.0727C37.0491 19.0395 38.9593 18.6463 40.3436 19.5351C40.3553 18.9319 41.0626 18.6295 41.6506 18.5271C44.2143 18.1037 46.9594 18.7757 48.9788 20.4288C50.9981 22.0819 52.2329 24.7111 52.112 27.3387C52.9822 28.7028 52.4244 30.7759 50.9914 31.5084C51.246 33.0905 50.9494 34.712 50.1514 36.1015C49.3484 37.4779 48.0916 38.5322 46.5965 39.0835" fill="#368268"/>
<path d="M36.9869 31.6025C37.1432 29.3563 38.6501 26.6112 40.8862 26.8632L47.8616 28.6776C48.1904 28.7133 48.4939 28.8713 48.7117 29.1203C48.9295 29.3692 49.0458 29.6909 49.0376 30.0216L48.1673 46.872L48.2161 46.8821C48.2161 46.8821 46.6016 51.6197 42.0001 50.148C41.0845 49.8557 40.6712 48.8527 40.4881 47.8212H40.441C40.441 47.6986 40.441 47.586 40.441 47.4684C40.3547 46.7 40.349 45.9246 40.4242 45.1551C40.4242 43.7942 40.4242 43.2365 40.4242 43.2499C40.4242 43.2634 37.5581 42.7459 36.9886 39.0062C36.698 37.1482 36.8122 34.104 36.9869 31.6025Z" fill="#B78876"/>
<path d="M38.2318 33.9847C38.2295 34.11 38.2764 34.2312 38.3625 34.3223C38.4485 34.4134 38.5669 34.4671 38.6921 34.4719C38.7537 34.4782 38.8159 34.4718 38.875 34.4534C38.9341 34.4349 38.9888 34.4047 39.0359 34.3645C39.083 34.3243 39.1215 34.275 39.149 34.2196C39.1765 34.1641 39.1925 34.1037 39.1961 34.0419C39.198 33.917 39.1511 33.7962 39.0655 33.7053C38.9799 33.6143 38.8622 33.5603 38.7374 33.5547C38.6758 33.5487 38.6136 33.5551 38.5545 33.5737C38.4954 33.5922 38.4407 33.6224 38.3935 33.6626C38.3463 33.7027 38.3077 33.7519 38.2799 33.8072C38.2521 33.8626 38.2358 33.9229 38.2318 33.9847Z" fill="#263238"/>
<path d="M37.6321 33.1935C37.6909 33.2573 38.0572 32.9902 38.5746 32.9952C39.092 33.0002 39.4667 33.2607 39.5238 33.1985C39.5507 33.1699 39.4919 33.0574 39.3272 32.9364C39.1052 32.7794 38.8398 32.6954 38.5679 32.6962C38.2988 32.6935 38.0358 32.7764 37.8169 32.9331C37.6624 33.0523 37.6086 33.1666 37.6321 33.1935Z" fill="#263238"/>
<path d="M43.2147 34.0704C43.2124 34.1957 43.2593 34.3169 43.3454 34.408C43.4314 34.4991 43.5498 34.5528 43.675 34.5576C43.7366 34.5638 43.7988 34.5575 43.8579 34.5391C43.917 34.5206 43.9717 34.4904 44.0188 34.4502C44.0659 34.41 44.1044 34.3607 44.1319 34.3052C44.1594 34.2498 44.1755 34.1893 44.179 34.1275C44.1805 34.0028 44.1335 33.8823 44.0479 33.7914C43.9624 33.7006 43.845 33.6464 43.7204 33.6403C43.6587 33.6341 43.5964 33.6404 43.5372 33.6588C43.478 33.6773 43.4231 33.7075 43.3759 33.7477C43.3287 33.7878 43.2901 33.8371 43.2624 33.8926C43.2347 33.948 43.2184 34.0085 43.2147 34.0704Z" fill="#263238"/>
<path d="M42.7141 33.3245C42.7746 33.3883 43.1408 33.1212 43.6566 33.1263C44.1723 33.1313 44.5503 33.3917 44.6058 33.3295C44.6343 33.301 44.5739 33.1884 44.4092 33.0675C44.1873 32.9102 43.9218 32.8262 43.6499 32.8272C43.3813 32.8245 43.1188 32.9075 42.9006 33.0641C42.741 33.1834 42.6855 33.2976 42.7141 33.3245Z" fill="#263238"/>
<path d="M40.8139 37.1431C40.8139 37.1146 40.4964 37.0574 39.9739 36.9869C39.8429 36.9718 39.7169 36.9449 39.6967 36.8542C39.6855 36.718 39.7172 36.5816 39.7875 36.4644C39.9135 36.1452 40.0445 35.8126 40.1839 35.4564C40.735 34.0301 41.1348 32.8558 41.0777 32.8339C41.0206 32.8121 40.5267 33.9511 39.9756 35.3774C39.8429 35.7302 39.7152 36.0646 39.5943 36.3854C39.5106 36.5442 39.485 36.7273 39.522 36.9029C39.5412 36.9496 39.5706 36.9913 39.6082 37.025C39.6457 37.0588 39.6903 37.0836 39.7387 37.0978C39.8116 37.1178 39.8867 37.1285 39.9622 37.1297C40.488 37.1683 40.8123 37.1734 40.8139 37.1431Z" fill="#263238"/>
<path d="M40.4158 43.255C42.1781 43.2939 43.9165 42.8426 45.4373 41.9513C45.4373 41.9513 44.2042 44.515 40.4595 44.1353L40.4158 43.255Z" fill="#AA6550"/>
<path d="M41.024 38.3897C41.124 38.267 41.2535 38.1718 41.4005 38.113C41.5474 38.0542 41.7069 38.0338 41.864 38.0537C41.978 38.0643 42.0887 38.098 42.1893 38.1529C42.2898 38.2078 42.3781 38.2827 42.4486 38.3729C42.5168 38.4594 42.5569 38.5646 42.5635 38.6746C42.5701 38.7845 42.5429 38.8938 42.4856 38.9878C42.4024 39.0786 42.2943 39.1429 42.1748 39.1728C42.0553 39.2026 41.9297 39.1967 41.8136 39.1558C41.5705 39.067 41.3472 38.9311 41.1567 38.756C41.0989 38.7145 41.0493 38.6627 41.0105 38.6031C40.9907 38.5748 40.98 38.5411 40.98 38.5065C40.98 38.4719 40.9907 38.4382 41.0105 38.4099" fill="#AA6550"/>
<path d="M42.336 37.511C42.252 37.511 42.247 38.0671 41.7632 38.4619C41.2793 38.8567 40.6846 38.7979 40.6796 38.8685C40.6712 38.9038 40.8123 38.9794 41.0643 38.9878C41.3926 38.9945 41.7127 38.885 41.9681 38.6786C42.2143 38.4813 42.3735 38.1955 42.4116 37.8823C42.4318 37.6471 42.3696 37.5077 42.336 37.511Z" fill="#263238"/>
<path d="M42.4889 32.424C42.5393 32.5652 43.055 32.5013 43.6649 32.5786C44.2747 32.6559 44.7602 32.8256 44.8409 32.6996C44.8778 32.6391 44.7938 32.5064 44.5973 32.3636C44.3356 32.1931 44.0375 32.0866 43.727 32.0528C43.4169 32.0131 43.1018 32.0482 42.8081 32.1552C42.5796 32.2426 42.467 32.3518 42.4889 32.424Z" fill="#263238"/>
<path d="M37.837 31.6999C37.9278 31.8175 38.2839 31.6999 38.7123 31.6999C39.1407 31.6999 39.5019 31.7839 39.5859 31.6613C39.6229 31.6025 39.5674 31.4849 39.4179 31.3723C39.2083 31.2335 38.9601 31.1647 38.709 31.1758C38.4572 31.1776 38.2122 31.2581 38.0084 31.4059C37.8488 31.5219 37.8001 31.6428 37.837 31.6999Z" fill="#263238"/>
<path d="M46.6805 33.5547C46.663 33.333 46.6293 33.1129 46.5797 32.8961C46.5152 32.6448 46.4133 32.4047 46.2773 32.1838C46.0994 31.8897 45.8667 31.6325 45.5919 31.4261C45.2359 31.1562 44.8178 30.9801 44.376 30.9141C43.9342 30.848 43.4828 30.8941 43.0635 31.0481C42.8224 31.1344 42.5958 31.2567 42.3915 31.411C42.1742 31.5683 41.9841 31.7601 41.8287 31.9788C41.4916 32.4348 41.3097 32.9868 41.3097 33.5538C41.3097 34.1208 41.4916 34.6729 41.8287 35.1288C41.9841 35.3475 42.1742 35.5393 42.3915 35.6967C42.5958 35.8509 42.8224 35.9733 43.0635 36.0595C43.5117 36.2229 43.9952 36.2641 44.4646 36.1788C44.8748 36.1018 45.261 35.9292 45.5919 35.6748C45.8667 35.4684 46.0994 35.2112 46.2773 34.9171C46.4136 34.6964 46.5155 34.4562 46.5797 34.2048C46.6291 33.9886 46.6628 33.769 46.6805 33.5479C46.6824 33.5624 46.6824 33.5771 46.6805 33.5916C46.6805 33.6252 46.6805 33.6672 46.6805 33.721C46.6806 33.7908 46.675 33.8604 46.6637 33.9293C46.6532 34.0249 46.6364 34.1198 46.6133 34.2132C46.5528 34.4697 46.4536 34.7156 46.3193 34.9423C46.1427 35.2455 45.9087 35.5114 45.6305 35.7252C45.267 36.0058 44.8384 36.19 44.3845 36.2604C43.9307 36.3309 43.4665 36.2855 43.0349 36.1284C42.7854 36.041 42.5508 35.9158 42.3394 35.7571C42.2295 35.6756 42.1251 35.587 42.0269 35.4917C41.9292 35.3926 41.8388 35.2864 41.7564 35.1742C41.4074 34.7035 41.219 34.1331 41.219 33.5471C41.219 32.9611 41.4074 32.3907 41.7564 31.92C41.8388 31.8078 41.9292 31.7016 42.0269 31.6025C42.1251 31.5072 42.2295 31.4186 42.3394 31.3371C42.5508 31.1784 42.7854 31.0532 43.0349 30.9658C43.4969 30.7987 43.9955 30.7592 44.478 30.8515C44.861 30.9238 45.2241 31.0772 45.5429 31.3015C45.8616 31.5258 46.1287 31.8158 46.326 32.1519C46.4604 32.3786 46.5595 32.6245 46.62 32.881C46.643 32.9744 46.6598 33.0693 46.6704 33.1649C46.6817 33.2338 46.6873 33.3034 46.6872 33.3732C46.6872 33.427 46.6872 33.469 46.6872 33.5026C46.6875 33.5202 46.6852 33.5377 46.6805 33.5547Z" fill="#263238"/>
<path d="M50.9747 31.705C50.9671 31.6885 50.962 31.6709 50.9595 31.6529C50.9495 31.6143 50.9377 31.5639 50.9243 31.5C50.9108 31.4362 50.8923 31.3472 50.8655 31.2497C50.8386 31.1523 50.8067 31.038 50.7731 30.9137C50.5555 30.2018 50.2406 29.5234 49.8373 28.8977C49.2391 27.9697 48.4714 27.1627 47.5743 26.5188C46.4683 25.7405 45.2135 25.1988 43.8884 24.9279C42.562 24.6528 41.1982 24.6073 39.8564 24.7935C38.7605 24.9249 37.691 25.2223 36.6846 25.6755C36.3005 25.8532 35.9314 26.0616 35.5808 26.2988C35.3173 26.4797 35.0664 26.6784 34.8299 26.8935L34.5745 27.1337L34.4065 27.3236L34.299 27.4378C34.287 27.4521 34.2735 27.4651 34.2587 27.4764C34.2682 27.4607 34.2794 27.446 34.2923 27.4328L34.3931 27.3118L34.5611 27.1169L34.8114 26.8683C35.0454 26.6477 35.2946 26.4439 35.5573 26.2584C35.9082 26.0157 36.2785 25.8022 36.6644 25.62C37.6748 25.1536 38.7518 24.8476 39.8564 24.7128C41.205 24.5215 42.5766 24.5653 43.9103 24.8422C45.2466 25.1163 46.5115 25.6649 47.6247 26.4533C48.528 27.1048 49.2989 27.9224 49.8961 28.8624C50.2981 29.4945 50.6065 30.1815 50.8117 30.902L50.8974 31.238C50.9226 31.3371 50.9343 31.4228 50.9478 31.4916C50.9612 31.5605 50.9679 31.6076 50.9747 31.6462C50.9778 31.6657 50.9778 31.6855 50.9747 31.705Z" fill="#263238"/>
<path d="M51.8834 28.093C51.8783 28.0807 51.8755 28.0677 51.875 28.0544C51.875 28.0225 51.875 27.9855 51.8599 27.9385C51.8498 27.8377 51.8263 27.6898 51.7877 27.5C51.6737 26.9672 51.48 26.4546 51.2131 25.9796C50.8157 25.2754 50.3002 24.6446 49.6894 24.1148C48.9373 23.4694 48.1144 22.9114 47.2366 22.4516C45.652 21.5932 44.0035 20.8585 42.3058 20.2541C41.6539 20.0223 41.1197 19.8509 40.7501 19.7367L40.32 19.6057L40.2108 19.5704C40.1856 19.5704 40.1722 19.5569 40.1738 19.5553C40.1755 19.5536 40.1873 19.5553 40.2125 19.5553L40.325 19.5821C40.4242 19.6073 40.5703 19.6443 40.7568 19.6981C41.1298 19.8022 41.6657 19.9635 42.3226 20.1886C44.0308 20.7788 45.6874 21.5093 47.2752 22.3726C48.1588 22.8357 48.9858 23.3995 49.7398 24.0526C50.3539 24.5909 50.8696 25.2322 51.2635 25.9476C51.5285 26.4299 51.7156 26.9509 51.8179 27.4916C51.8455 27.6382 51.8645 27.7863 51.875 27.9351C51.875 27.9821 51.875 28.0208 51.875 28.051C51.8803 28.0644 51.8831 28.0786 51.8834 28.093Z" fill="#263238"/>
<path d="M40.3771 27.93C40.3771 27.93 43.89 27.878 46.5495 31.8428C48.3017 34.4568 48.6713 37.7379 48.6713 37.7379L50.0271 31.4933L49.0191 28.6373L46.5915 27.2648L41.9849 27.006L40.2461 27.8662" fill="#368268"/>
<path d="M47.2601 28.2543C41.6657 26.9103 37.1919 28.7583 36.372 33.1481L34.8701 30.697L38.1444 26.7557L41.3364 25.9258L47.7524 26.9019L47.2601 28.2543Z" fill="#368268"/>
<path d="M50.8771 27.8746C50.8704 27.8573 50.8659 27.8392 50.8637 27.8208C50.8637 27.7805 50.8486 27.7284 50.8368 27.6629C50.8254 27.5768 50.8086 27.4915 50.7864 27.4075C50.7595 27.3067 50.7377 27.1908 50.6923 27.0715C50.5939 26.7614 50.4644 26.4619 50.3059 26.1778C50.0951 25.8025 49.8408 25.4535 49.5483 25.1378C49.1941 24.7542 48.7941 24.4156 48.3571 24.1298C47.8543 23.8053 47.3124 23.5456 46.7443 23.357C45.5448 22.9488 44.1403 22.8043 42.6804 22.8346C41.2205 22.8648 39.8244 23.0026 38.5963 23.3268C38.0175 23.4768 37.4548 23.6834 36.9163 23.9434C36.4472 24.1717 36.0044 24.4505 35.5959 24.775C34.9978 25.2403 34.4962 25.8178 34.1191 26.4751C34.0536 26.5927 33.9965 26.6969 33.9511 26.791C33.9058 26.885 33.8688 26.959 33.8436 27.0278C33.8184 27.0967 33.7983 27.1387 33.7815 27.1774C33.7647 27.216 33.7596 27.2278 33.7579 27.2261C33.8392 26.9591 33.949 26.7017 34.0855 26.4583C34.4545 25.7892 34.9538 25.2009 35.5539 24.7279C35.9635 24.3993 36.4087 24.1175 36.8811 23.8879C37.4233 23.6219 37.9905 23.4103 38.5745 23.2562C39.8093 22.9202 41.2121 22.7892 42.6787 22.7522C44.1454 22.7153 45.5599 22.8698 46.7695 23.2865C47.3437 23.4784 47.8908 23.7432 48.3975 24.0744C48.8375 24.3646 49.2394 24.7088 49.5936 25.0992C49.8868 25.4201 50.1405 25.7749 50.3496 26.1559C50.5057 26.4445 50.6312 26.7485 50.7243 27.0631C50.7597 27.1768 50.7888 27.2923 50.8116 27.4092C50.8323 27.4942 50.8463 27.5807 50.8536 27.6679C50.862 27.7351 50.8687 27.7872 50.8738 27.8359C50.8759 27.8487 50.877 27.8616 50.8771 27.8746Z" fill="#263238"/>
<path d="M36.7921 31.6546C36.7133 31.6488 36.6354 31.6336 36.5602 31.6092C36.3542 31.5434 36.1602 31.4447 35.9857 31.3169C35.73 31.1214 35.5124 30.8805 35.3439 30.6063C35.1393 30.2704 34.988 29.9049 34.8954 29.5227C34.7398 28.8276 34.7318 28.1076 34.8718 27.4092C34.9129 27.1977 34.9742 26.9907 35.055 26.791C35.0818 26.7204 35.1104 26.6683 35.1272 26.6331C35.144 26.5978 35.1574 26.5793 35.1591 26.581C35.0629 26.855 34.9871 27.1358 34.9323 27.421C34.8128 28.1114 34.8293 28.8185 34.981 29.5025C35.0721 29.8754 35.217 30.2331 35.4111 30.5643C35.5719 30.8326 35.7789 31.0704 36.0226 31.2665C36.2551 31.4389 36.5153 31.5701 36.7921 31.6546Z" fill="#FAFAFA"/>
<path d="M48.6293 28.1081L48.5924 28.0963L48.4882 28.051L48.3202 27.9771L48.085 27.888C47.5846 27.7032 47.0641 27.5781 46.5344 27.5151C45.7485 27.421 44.954 27.4243 44.1689 27.5251C43.7254 27.5772 43.2634 27.6612 42.7863 27.7587C42.3092 27.8561 41.8203 27.9754 41.328 28.1283C39.3423 28.7028 37.8118 29.9544 37.128 31.1086C36.8516 31.5645 36.6438 32.0587 36.5115 32.5752C36.4628 32.7583 36.4342 32.9011 36.414 33.0003C36.404 33.0439 36.3972 33.0809 36.3905 33.1111C36.388 33.1239 36.3841 33.1363 36.3788 33.1481C36.3762 33.1354 36.3762 33.1222 36.3788 33.1095C36.3788 33.0792 36.3888 33.0423 36.3956 32.9969C36.4153 32.8522 36.4428 32.7086 36.4779 32.5668C36.5972 32.0421 36.7979 31.5393 37.0726 31.0767C37.758 29.9007 39.3036 28.6239 41.3079 28.0527C41.8119 27.8998 42.2957 27.7822 42.7745 27.6831C43.2533 27.5839 43.717 27.5033 44.1639 27.4546C44.9553 27.3538 45.7564 27.3538 46.5478 27.4546C47.0805 27.5242 47.6025 27.6596 48.1018 27.8578L48.3353 27.9552L48.5033 28.0375L48.6041 28.0896C48.6192 28.0997 48.631 28.1064 48.6293 28.1081Z" fill="#263238"/>
<path d="M41.3079 28.1165C41.3486 28.112 41.3897 28.112 41.4305 28.1165C41.5466 28.1253 41.6621 28.1404 41.7766 28.1619C42.1988 28.2429 42.6084 28.3796 42.9946 28.5684C43.9757 29.0338 45.2004 29.9729 46.1765 31.3186C46.6284 31.9554 47.0246 32.6299 47.3609 33.3346C47.6468 33.902 47.8997 34.4853 48.1186 35.0818C48.268 35.4829 48.3876 35.8945 48.4764 36.3132C48.505 36.4627 48.5251 36.5787 48.5335 36.6576C48.5412 36.6975 48.5452 36.738 48.5453 36.7786C48.5312 36.7406 48.5216 36.7012 48.5167 36.661C48.5033 36.582 48.4781 36.4678 48.4428 36.325C48.3413 35.9109 48.2139 35.5035 48.0615 35.1053C47.8348 34.5152 47.5768 33.9376 47.2887 33.3749C46.9517 32.6792 46.5584 32.0123 46.1127 31.3807C45.2947 30.2338 44.22 29.2937 42.9744 28.6356C42.5943 28.444 42.192 28.3002 41.7766 28.2072C41.6287 28.177 41.5145 28.1551 41.4406 28.1451C41.3955 28.14 41.351 28.1305 41.3079 28.1165Z" fill="#263238"/>
<path d="M40.3386 33.5546C40.3221 33.3328 40.2884 33.1127 40.2378 32.8961C40.1733 32.6448 40.0714 32.4047 39.9354 32.1838C39.7575 31.8897 39.5248 31.6325 39.25 31.4261C38.9191 31.1717 38.5328 30.9991 38.1227 30.9221C37.6533 30.8368 37.1697 30.878 36.7216 31.0414C36.4805 31.1276 36.2539 31.25 36.0496 31.4042C35.8323 31.5616 35.6422 31.7534 35.4867 31.9721C35.1507 32.4284 34.9694 32.9803 34.9694 33.5471C34.9694 34.1138 35.1507 34.6657 35.4867 35.1221C35.6422 35.3407 35.8323 35.5326 36.0496 35.6899C36.2539 35.8442 36.4805 35.9665 36.7216 36.0528C37.1702 36.2165 37.6545 36.2577 38.1243 36.1721C38.4974 36.1017 38.8514 35.9536 39.1634 35.7374C39.4755 35.5212 39.7385 35.2417 39.9354 34.9171C40.0717 34.6963 40.1736 34.4562 40.2378 34.2048C40.2882 33.9888 40.3219 33.7691 40.3386 33.5479C40.3413 33.5624 40.3413 33.5772 40.3386 33.5916C40.3386 33.6252 40.3386 33.6672 40.3386 33.721C40.3385 33.793 40.3324 33.865 40.3201 33.936C40.3096 34.0317 40.2928 34.1265 40.2697 34.2199C40.2113 34.4742 40.115 34.7183 39.9841 34.944C39.8075 35.2472 39.5735 35.5131 39.2953 35.7269C38.9318 36.0075 38.5031 36.1916 38.0493 36.2621C37.5955 36.3326 37.1313 36.2872 36.6997 36.1301C36.4502 36.0427 36.2156 35.9175 36.0042 35.7588C35.8943 35.6773 35.7899 35.5886 35.6917 35.4934C35.594 35.3942 35.5036 35.2881 35.4212 35.1758C35.0722 34.7052 34.8838 34.1347 34.8838 33.5488C34.8838 32.9628 35.0722 32.3924 35.4212 31.9217C35.5036 31.8094 35.594 31.7033 35.6917 31.6042C35.7899 31.5089 35.8943 31.4202 36.0042 31.3387C36.2156 31.18 36.4502 31.0548 36.6997 30.9674C37.3 30.75 37.9575 30.7502 38.5577 30.9679C39.1579 31.1855 39.6627 31.6069 39.9841 32.1586C40.1184 32.3853 40.2176 32.6312 40.2781 32.8877C40.301 32.9811 40.3179 33.076 40.3285 33.1716C40.3398 33.2405 40.3454 33.3101 40.3453 33.3799C40.3453 33.4337 40.3453 33.4757 40.3453 33.5093C40.3457 33.5247 40.3434 33.54 40.3386 33.5546Z" fill="#263238"/>
<path d="M48.7855 36.96C48.6641 36.8337 48.5135 36.7391 48.347 36.6845H48.3806C48.3497 36.677 48.3183 36.672 48.2866 36.6694C48.2301 36.6542 48.1711 36.6509 48.1133 36.6595C48.0555 36.6682 48.0001 36.6887 47.9506 36.7198C47.7643 36.792 47.6116 36.931 47.5222 37.1095C47.453 37.2683 47.4287 37.443 47.4521 37.6145C47.4756 37.7861 47.5457 37.9479 47.6549 38.0823C47.7341 38.2051 47.8487 38.3011 47.9836 38.3574C48.1185 38.4138 48.2674 38.4279 48.4105 38.3978C48.5535 38.3678 48.6841 38.2951 48.785 38.1892C48.8859 38.0834 48.9522 37.9494 48.9754 37.8051C49.0176 37.6596 49.0224 37.5059 48.9892 37.3581C48.956 37.2104 48.8859 37.0734 48.7855 36.96Z" fill="#455A64"/>
<path d="M38.1495 29.9359C38.0903 29.915 38.0339 29.8867 37.9815 29.8519C37.9186 29.8173 37.858 29.7786 37.8001 29.736C37.7211 29.684 37.6448 29.6279 37.5716 29.568C37.3783 29.4158 37.1984 29.2471 37.034 29.064C36.8331 28.8378 36.6532 28.5937 36.4964 28.3349C36.3441 28.073 36.2153 27.7981 36.1117 27.5134C36.0291 27.2805 35.9661 27.0411 35.9235 26.7977C35.9017 26.6952 35.895 26.5995 35.8849 26.5171C35.8748 26.4465 35.8698 26.3752 35.8698 26.3038C35.8629 26.2429 35.8629 26.1815 35.8698 26.1207C35.8866 26.1207 35.8966 26.3794 35.9806 26.7927C36.0316 27.0307 36.0996 27.2648 36.1839 27.4932C36.2896 27.7712 36.4182 28.0398 36.5686 28.2963C36.7228 28.5504 36.8975 28.7915 37.0911 29.017C37.2506 29.2004 37.4229 29.3722 37.6069 29.5311C37.9345 29.7898 38.1579 29.9208 38.1495 29.9359Z" fill="#FAFAFA"/>
<path d="M38.3932 25.2101C38.4066 25.2101 38.2991 25.4554 38.1764 25.8586C38.0153 26.3822 37.9205 26.9241 37.8942 27.4714C37.8689 28.0194 37.9112 28.5684 38.0202 29.106C38.1059 29.5176 38.1882 29.7662 38.1764 29.778C38.1448 29.7256 38.1205 29.669 38.1042 29.61C38.0465 29.4524 37.9988 29.2914 37.9614 29.1278C37.7022 28.0414 37.7564 26.9037 38.1176 25.8468C38.1691 25.6833 38.2314 25.5233 38.3041 25.368C38.3274 25.312 38.3573 25.259 38.3932 25.2101Z" fill="#FAFAFA"/>
<path d="M42.1983 27.6713C42.1164 27.5158 42.0429 27.356 41.9782 27.1925C41.6303 26.4233 41.1694 25.7104 40.6107 25.0774C40.4884 24.9515 40.3729 24.8191 40.2646 24.6809C40.3061 24.7046 40.344 24.734 40.3772 24.7683C40.4478 24.8271 40.5452 24.9178 40.6561 25.0354C41.2471 25.6526 41.7152 26.3767 42.0354 27.169C42.0958 27.3202 42.1395 27.4445 42.1664 27.5319C42.1835 27.5766 42.1942 27.6236 42.1983 27.6713Z" fill="#FAFAFA"/>
<path d="M43.3071 24.9968C43.3604 25.1085 43.395 25.2283 43.4096 25.3512C43.5184 25.937 43.4989 26.5394 43.3525 27.1169C43.329 27.238 43.2871 27.3547 43.2281 27.463C43.31 27.0576 43.3661 26.6474 43.3961 26.2349C43.3925 25.8207 43.3627 25.4072 43.3071 24.9968Z" fill="#FAFAFA"/>
<path d="M45.192 25.6368C45.2496 25.9494 45.2357 26.2709 45.1513 26.5772C45.067 26.8836 44.9143 27.1669 44.7048 27.4059C44.8498 27.1328 44.9712 26.8478 45.0677 26.5541C45.1351 26.2524 45.1767 25.9456 45.192 25.6368Z" fill="#FAFAFA"/>
<path d="M46.8183 32.4728C46.8015 32.4728 46.8368 32.1821 46.8385 31.7151C46.8371 31.105 46.7644 30.4972 46.6218 29.904C46.4764 29.3135 46.2615 28.7422 45.9817 28.2022C45.765 27.7889 45.602 27.5487 45.6138 27.5403C45.6625 27.5909 45.7048 27.6473 45.7398 27.7083C45.8474 27.8597 45.9462 28.0174 46.0354 28.1804C46.3344 28.718 46.5604 29.2932 46.7074 29.8906C46.8529 30.488 46.9174 31.1022 46.899 31.7168C46.8946 31.9022 46.88 32.0873 46.8553 32.2712C46.8496 32.3394 46.8373 32.4069 46.8183 32.4728Z" fill="#455A64"/>
<path d="M50.2875 29.6537C50.3013 29.7302 50.3075 29.8078 50.306 29.8855C50.306 29.9611 50.306 30.0535 50.306 30.161C50.306 30.2686 50.306 30.3895 50.2875 30.5239C50.2624 30.8387 50.2158 31.1513 50.148 31.4597C49.9793 32.2153 49.6882 32.9383 49.2862 33.6C49.121 33.8691 48.9387 34.1272 48.7402 34.3728C48.6579 34.4786 48.5722 34.5677 48.5016 34.6466C48.4311 34.7256 48.3656 34.7928 48.3118 34.8449C48.2609 34.9017 48.2046 34.9534 48.1438 34.9994C48.1875 34.9352 48.2376 34.8756 48.2933 34.8214C48.3437 34.7659 48.4059 34.697 48.4714 34.6147C48.5369 34.5324 48.6192 34.4467 48.6982 34.3342C48.8891 34.0864 49.0647 33.8272 49.224 33.558C49.4153 33.2272 49.5837 32.8837 49.728 32.5298C49.8685 32.1737 49.9842 31.8083 50.0741 31.4362C50.1455 31.1317 50.1983 30.8231 50.232 30.5122C50.2505 30.3794 50.2539 30.2585 50.2623 30.1526C50.2707 30.0468 50.2757 29.9561 50.2757 29.8805C50.2729 29.8047 50.2769 29.7288 50.2875 29.6537Z" fill="#FAFAFA"/>
<path d="M46.0707 23.2142C46.0943 23.3306 46.0943 23.4506 46.0707 23.567C46.026 23.8504 45.9251 24.1219 45.7739 24.3657C45.6227 24.6095 45.4243 24.8206 45.1904 24.9866C45.0979 25.0631 44.9911 25.1202 44.8762 25.1546C44.8762 25.1429 44.9871 25.0774 45.1534 24.9446C45.5877 24.5944 45.8898 24.1068 46.0102 23.562C46.0244 23.4451 46.0446 23.329 46.0707 23.2142Z" fill="#FAFAFA"/>
<path d="M49.3451 24.9984C49.3688 25.1135 49.366 25.2324 49.3367 25.3462C49.2861 25.6238 49.171 25.8856 49.0007 26.1106C48.8287 26.3361 48.6052 26.517 48.3488 26.6381C48.2459 26.6963 48.1309 26.7296 48.0128 26.7355C48.0128 26.7221 48.1355 26.6835 48.3186 26.5827C48.5551 26.4502 48.7626 26.2713 48.9284 26.0568C49.0933 25.8417 49.2128 25.5954 49.2795 25.3327C49.3266 25.1311 49.3299 24.9984 49.3451 24.9984Z" fill="#FAFAFA"/>
<path d="M50.5211 26.4466C50.4763 26.5475 50.4118 26.6383 50.3312 26.7137C49.9661 27.1088 49.4635 27.3493 48.9268 27.3857C48.8178 27.4011 48.7068 27.3936 48.6008 27.3639C48.9644 27.3378 49.321 27.2509 49.6559 27.1068C49.9788 26.9362 50.2712 26.7131 50.5211 26.4466Z" fill="#FAFAFA"/>
<path d="M42.7493 24.6473C42.58 24.4067 42.4885 24.12 42.4872 23.8258C42.4553 23.5352 42.514 23.2418 42.6552 22.9858C42.596 23.2618 42.5667 23.5435 42.5679 23.8258C42.5999 24.1051 42.6607 24.3804 42.7493 24.6473Z" fill="#FAFAFA"/>
<path d="M42.237 24.78C42.237 24.7884 42.1345 24.7112 42.0068 24.56C41.6793 24.1587 41.4802 23.6681 41.4356 23.1521C41.419 23.0466 41.4225 22.9389 41.4457 22.8346C41.4928 23.1862 41.5767 23.532 41.696 23.8661C41.8429 24.1893 42.0243 24.4958 42.237 24.78Z" fill="#455A64"/>
<path d="M39.2818 23.2142C39.362 23.7957 39.2334 24.3868 38.9189 24.8825C38.8937 24.8707 39.0634 24.523 39.1625 24.061C39.2616 23.599 39.2549 23.2142 39.2818 23.2142Z" fill="#FAFAFA"/>
<path d="M36.7534 25.5814C36.7534 25.5914 36.6728 25.5662 36.5653 25.494C36.4288 25.3955 36.3143 25.2696 36.2293 25.1244C36.1403 24.9802 36.083 24.8187 36.0613 24.6506C36.0478 24.523 36.0613 24.4423 36.073 24.444C36.1207 24.6654 36.1975 24.8795 36.3015 25.0807C36.4289 25.2672 36.5809 25.4356 36.7534 25.5814Z" fill="#455A64"/>
<path d="M38.0738 19.0966C38.0856 19.1067 37.9058 19.2982 37.6807 19.6594C37.3937 20.1294 37.212 20.656 37.1482 21.2031C37.0844 21.7501 37.14 22.3044 37.3111 22.8279C37.4422 23.2311 37.5782 23.4578 37.5631 23.4662C37.5221 23.419 37.4876 23.3665 37.4606 23.31C37.3791 23.1618 37.3094 23.0073 37.2523 22.848C37.0616 22.3182 36.9967 21.7514 37.0626 21.1922C37.1285 20.633 37.3234 20.0967 37.632 19.6258C37.7245 19.4841 37.8278 19.3499 37.9411 19.2243C38.0201 19.1369 38.0688 19.0915 38.0738 19.0966Z" fill="#FAFAFA"/>
<path d="M34.6887 20.9883C34.7039 20.9883 34.6518 21.2033 34.6518 21.5494C34.6495 22.0003 34.7551 22.4452 34.9597 22.847C35.1642 23.2488 35.4619 23.5959 35.8278 23.8594C36.1083 24.0627 36.3099 24.1433 36.3032 24.1584C36.2527 24.1503 36.2039 24.1339 36.1587 24.1097C36.031 24.0541 35.9084 23.9872 35.7925 23.9098C35.4053 23.6529 35.0901 23.3013 34.8769 22.8884C34.667 22.4724 34.5658 22.01 34.5829 21.5444C34.5879 21.4052 34.6059 21.2669 34.6367 21.1311C34.6458 21.0809 34.6634 21.0326 34.6887 20.9883Z" fill="#455A64"/>
<path d="M41.1819 19.9618C41.2079 19.9962 41.2278 20.0349 41.2407 20.076C41.2878 20.1843 41.3243 20.2968 41.3499 20.412C41.4391 20.7876 41.4494 21.1776 41.38 21.5573C41.3105 21.937 41.163 22.2982 40.9467 22.6179C40.8823 22.7149 40.8086 22.8055 40.7267 22.8884C40.6695 22.9472 40.6359 22.9774 40.6309 22.9724C40.6259 22.9673 40.7435 22.8296 40.8947 22.5843C41.2916 21.9387 41.4324 21.168 41.2895 20.4238C41.2357 20.1365 41.1601 19.9685 41.1819 19.9618Z" fill="#FAFAFA"/>
<path d="M42.8653 20.5195C42.9093 20.637 42.9298 20.762 42.9258 20.8875C42.9447 21.5007 42.7359 22.0992 42.3395 22.5675C42.2632 22.6676 42.1692 22.753 42.0623 22.8195C42.1334 22.7187 42.2097 22.6217 42.2907 22.5288C42.6479 22.0553 42.8482 21.482 42.8636 20.8891C42.8687 20.664 42.8519 20.5212 42.8653 20.5195Z" fill="#455A64"/>
<path d="M45.5785 21.4788C45.5885 21.4788 45.6389 21.546 45.6843 21.6787C45.7416 21.8541 45.7622 22.0394 45.7448 22.2231C45.7251 22.4074 45.6679 22.5858 45.5768 22.7472C45.5062 22.8699 45.4441 22.9303 45.4357 22.9152C45.5407 22.6905 45.6126 22.4517 45.649 22.2063C45.6601 21.9617 45.6363 21.7167 45.5785 21.4788Z" fill="#FAFAFA"/>
<path d="M48.4547 23.3318C48.4698 23.3503 48.3371 23.4864 48.1187 23.5771C47.9967 23.6472 47.8547 23.6744 47.7155 23.6544C47.8328 23.5907 47.956 23.5384 48.0834 23.4982C48.2018 23.4316 48.3261 23.3759 48.4547 23.3318Z" fill="#FAFAFA"/>
<path d="M50.1547 24.6758C50.2618 24.8545 50.3056 25.064 50.2791 25.2706C50.2822 25.4785 50.2167 25.6816 50.0926 25.8485C50.0691 25.8367 50.1766 25.5898 50.1917 25.2655C50.2068 24.9413 50.1295 24.6842 50.1547 24.6758Z" fill="#455A64"/>
<path d="M47.5021 19.4326C47.5021 19.4326 47.5357 19.4645 47.576 19.5334C47.6334 19.631 47.6813 19.7339 47.7188 19.8408C47.8481 20.1957 47.883 20.5781 47.8203 20.9506C47.7576 21.3231 47.5993 21.6729 47.361 21.966C47.2901 22.0547 47.2108 22.1363 47.1241 22.2096C47.0636 22.2617 47.0267 22.2852 47.0216 22.2802C47.0166 22.2751 47.1459 22.1558 47.3123 21.929C47.529 21.6361 47.6735 21.2961 47.734 20.9367C47.7944 20.5773 47.7691 20.2087 47.66 19.861C47.5794 19.5922 47.4887 19.4393 47.5021 19.4326Z" fill="#455A64"/>
<path d="M49.6542 21.1966C49.6533 21.3219 49.6258 21.4456 49.5735 21.5595C49.4619 21.8409 49.2855 22.092 49.0587 22.2925C48.832 22.493 48.5611 22.6373 48.2682 22.7136C48.1489 22.7518 48.023 22.7644 47.8986 22.7506C47.8986 22.7355 48.038 22.722 48.2514 22.6548C48.5279 22.565 48.783 22.4192 49.0007 22.2264C49.2183 22.0336 49.3939 21.798 49.5164 21.5343C49.6105 21.336 49.639 21.1932 49.6542 21.1966Z" fill="#FAFAFA"/>
<path d="M51.2401 23.2142C51.247 23.2973 51.232 23.3808 51.1964 23.4562C51.1266 23.6431 51.0161 23.8122 50.8728 23.9511C50.7295 24.09 50.5572 24.1952 50.3681 24.2592C50.2918 24.2912 50.2087 24.3039 50.1262 24.2962C50.3774 24.2025 50.6097 24.0642 50.8117 23.8879C50.9952 23.692 51.1405 23.4635 51.2401 23.2142Z" fill="#455A64"/>
<path d="M36.0058 47.8632L40.1672 45.4608L48.3421 44.6544L48.3958 45.8523L46.1883 62.5531L47.9859 76.645H34.887L36.0058 47.8632Z" fill="#263238"/>
<path d="M39.8614 47.1677L39.6044 44.7636C39.5937 44.6631 39.6031 44.5615 39.6321 44.4647C39.6611 44.3678 39.709 44.2777 39.7731 44.1995C39.8372 44.1214 39.9161 44.0567 40.0054 44.0094C40.0947 43.962 40.1925 43.9329 40.2932 43.9236L47.917 43.2348C47.966 43.2305 48.0153 43.2361 48.0619 43.2515C48.1086 43.2668 48.1517 43.2915 48.1885 43.3241C48.2253 43.3566 48.255 43.3963 48.276 43.4408C48.2969 43.4852 48.3085 43.5335 48.3102 43.5826L48.3958 46.4386L46.1883 50.185L43.9186 50.904H41.145L39.549 49.2005L39.8614 47.1677Z" fill="#263238"/>
<path d="M47.2702 45.5281C47.1683 45.524 47.0668 45.5139 46.9661 45.4978C46.6897 45.4717 46.4117 45.4666 46.1345 45.4827C45.7236 45.5108 45.3153 45.5697 44.9132 45.6591C44.4579 45.7549 43.964 45.8893 43.4398 46.0169C42.9468 46.1444 42.4446 46.2337 41.9379 46.2841C41.5217 46.3226 41.1019 46.2942 40.6947 46.2001C40.4199 46.1344 40.1574 46.0256 39.9168 45.8775C39.8529 45.8361 39.7912 45.7912 39.732 45.7431C39.6917 45.7095 39.6716 45.6893 39.6749 45.6877C39.6783 45.686 39.7656 45.7481 39.937 45.8456C40.1793 45.9786 40.4396 46.0759 40.7098 46.1345C41.1113 46.218 41.5233 46.239 41.9312 46.1967C42.4322 46.1422 42.9285 46.0513 43.4163 45.9245C43.9388 45.7969 44.436 45.6641 44.8964 45.5734C45.3029 45.4868 45.7159 45.4339 46.1312 45.4155C46.412 45.4047 46.6932 45.4199 46.9712 45.4609C47.0703 45.4777 47.1392 45.4911 47.1963 45.5045C47.2216 45.5101 47.2463 45.518 47.2702 45.5281Z" fill="#455A64"/>
<g opacity="0.3">
<path d="M40.0429 45.9027C39.8379 46.4638 39.8329 47.1593 40.2462 47.5827C40.5822 47.9338 41.1265 48.0211 41.6036 47.9187C42.076 47.7972 42.5243 47.596 42.9291 47.3239C43.9791 46.699 45.0443 46.0522 46.2371 45.7884C46.3152 45.7784 46.389 45.747 46.4504 45.6977C46.4651 45.6852 46.4771 45.6698 46.4855 45.6525C46.494 45.6352 46.4988 45.6163 46.4995 45.597C46.5003 45.5778 46.4971 45.5586 46.4901 45.5406C46.4831 45.5227 46.4724 45.5064 46.4588 45.4927C46.4291 45.4742 46.3947 45.4643 46.3597 45.4642C45.3047 45.3583 44.2899 45.775 43.2567 46.0068C42.2235 46.2387 41.0358 46.4822 40.0899 45.9245" fill="black"/>
</g>
<path d="M41.4961 43.848C41.3878 43.9064 41.2973 43.9928 41.234 44.0983C41.1147 44.2915 41.1299 44.6191 41.1299 44.9736C41.15 45.6859 41.2676 46.2538 41.2391 46.2605C41.187 46.1436 41.1524 46.0196 41.1366 45.8926C41.0776 45.5907 41.0439 45.2845 41.0358 44.977C41.0282 44.8089 41.0316 44.6406 41.0459 44.473C41.056 44.3294 41.101 44.1904 41.1769 44.0681C41.2291 43.9853 41.3036 43.9189 41.3919 43.8766C41.4591 43.848 41.4961 43.848 41.4961 43.848Z" fill="#455A64"/>
<path d="M43.5121 45.9363C43.4819 45.9363 43.5507 45.4087 43.4567 44.7737C43.3626 44.1387 43.1576 43.6515 43.1862 43.6397C43.255 43.7334 43.3078 43.8379 43.3424 43.9488C43.4421 44.2106 43.512 44.4828 43.5507 44.7603C43.5917 45.0383 43.6002 45.3202 43.5759 45.6003C43.5737 45.7151 43.5521 45.8287 43.5121 45.9363Z" fill="#455A64"/>
<path d="M45.9682 43.4381C46.0362 43.5213 46.0854 43.6181 46.1127 43.722C46.2796 44.2168 46.2434 44.7576 46.0119 45.2256C45.9727 45.3259 45.9105 45.4157 45.8304 45.4877C45.982 45.1702 46.0792 44.8294 46.1177 44.4797C46.1614 43.8917 45.938 43.4482 45.9682 43.4381Z" fill="#455A64"/>
<path d="M30.4332 68.4416C30.4332 68.4416 32.2812 54.8336 32.8205 52.3657C33.0236 51.4397 33.4108 50.5641 33.9592 49.7909C34.5075 49.0177 35.2058 48.3627 36.0125 47.8649L36.5249 72.5206L34.272 75.3564L31.752 76.3208C31.1751 76.5425 30.5382 76.5526 29.9544 76.3493L27.5403 75.5093L27.3353 70.9095L29.3748 70.3198L30.4332 68.4416Z" fill="#263238"/>
<path d="M55.5475 47.6314C56.4723 47.9912 57.2944 48.5726 57.9418 49.3246C58.5892 50.0766 59.042 50.976 59.2603 51.944C60.7018 58.296 63.168 66.7481 63.2067 69.4748C63.2554 72.9473 61.7367 75.3245 59.7543 75.763C58.6203 76.0133 50.9074 75.8873 46.7191 75.7983C45.9714 75.7818 45.2545 75.497 44.6993 74.9958C44.1441 74.4946 43.7877 73.8105 43.6951 73.0683C43.5928 72.2585 43.8121 71.4409 44.3059 70.7911C44.7996 70.1412 45.5286 69.7108 46.3361 69.5924L54.8218 68.3441L53.2459 59.5392L54.805 47.3441L55.5475 47.6314Z" fill="#263238"/>
<path d="M48.1774 44.9064L51.5761 46.2958L54.8084 47.3441L54.8857 57.0159L52.9621 76.6198L46.2169 76.645L46.2303 67.8956C45.9796 63.6778 46.255 59.4453 47.0502 55.2956L48.0766 46.9779" fill="#263238"/>
<path d="M53.1502 58.6488C53.1624 58.6802 53.1709 58.7129 53.1754 58.7462C53.1905 58.8218 53.209 58.9142 53.2308 59.0285C53.2778 59.2872 53.3434 59.64 53.4206 60.0684C53.5769 60.9605 53.7869 62.1701 54.0204 63.5057C54.2539 64.8413 54.4438 66.0542 54.5933 66.9463C54.6605 67.3781 54.7159 67.7309 54.7613 67.9913C54.7781 68.1072 54.7915 68.2013 54.8016 68.2769C54.8064 68.3103 54.8064 68.3443 54.8016 68.3777C54.7893 68.3463 54.7809 68.3136 54.7764 68.2802C54.7596 68.2046 54.7411 68.1122 54.7176 67.998C54.6706 67.7393 54.605 67.3882 54.5244 66.9581C54.3665 66.0794 54.1531 64.8648 53.9246 63.5208C53.6962 62.1768 53.4929 60.9622 53.3534 60.0802C53.2862 59.6484 53.2325 59.2956 53.1854 59.0352C53.1703 58.9193 53.1586 58.8252 53.1485 58.7496C53.1442 58.7161 53.1448 58.6821 53.1502 58.6488Z" fill="#263238"/>
<path d="M56.3338 49.0056C56.2497 49.0443 56.1626 49.0763 56.0734 49.1014C55.8376 49.1875 55.6071 49.2873 55.383 49.4004C54.6462 49.7793 54.0073 50.3239 53.5165 50.9914C53.3764 51.1794 53.2532 51.3796 53.1486 51.5895C53.058 51.7878 52.9844 51.9935 52.9285 52.2043C52.8332 52.5641 52.7714 52.9319 52.7437 53.3031C52.7151 53.6189 52.7101 53.8776 52.7084 54.0557C52.7145 54.148 52.7145 54.2406 52.7084 54.3329C52.6877 54.242 52.6776 54.1489 52.6782 54.0557C52.6641 53.8033 52.6641 53.5504 52.6782 53.298C52.697 52.9215 52.7533 52.5478 52.8462 52.1825C52.9013 51.9652 52.9755 51.7533 53.0679 51.5491C53.1736 51.3336 53.2991 51.1284 53.4426 50.9359C53.9408 50.256 54.5977 49.7081 55.3561 49.3399C55.585 49.2305 55.822 49.1389 56.065 49.0661C56.1523 49.0365 56.2424 49.0162 56.3338 49.0056Z" fill="#263238"/>
<path d="M46.1412 69.6276C46.1806 69.6289 46.22 69.6261 46.2588 69.6192L46.5948 69.5772L47.8347 69.4092L51.9204 68.8027L54.8907 68.3458H54.8789C55.2575 68.4001 55.6138 68.5576 55.9088 68.8011C56.1396 68.9854 56.3315 69.2139 56.4732 69.4731C56.5927 69.7017 56.6777 69.9469 56.7252 70.2005C56.7279 70.1832 56.7279 70.1657 56.7252 70.1484C56.7252 70.1131 56.7252 70.0627 56.7051 69.9972C56.6696 69.8069 56.6062 69.6229 56.5169 69.4512C56.378 69.1815 56.186 68.9426 55.9524 68.749C55.6502 68.4924 55.2826 68.3249 54.8907 68.2651H54.8789L51.912 68.712L47.8313 69.3454L46.5965 69.547L46.2605 69.6075C46.2201 69.6098 46.1801 69.6166 46.1412 69.6276Z" fill="#263238"/>
<path d="M46.8233 75.8016C46.8514 75.7969 46.8786 75.7878 46.9039 75.7747C46.9809 75.747 47.0556 75.7133 47.1274 75.6739C47.3934 75.5323 47.631 75.3426 47.8279 75.1145C48.1198 74.7743 48.3368 74.3765 48.4647 73.9469C48.6232 73.4213 48.665 72.8674 48.5873 72.324C48.4988 71.7787 48.2669 71.2667 47.9153 70.8406C47.6337 70.4938 47.2844 70.208 46.8888 70.0006C46.6254 69.8597 46.3422 69.7595 46.0488 69.7032C45.9463 69.6814 45.8623 69.6814 45.8069 69.673C45.779 69.6692 45.7508 69.6692 45.7229 69.673C46.1217 69.7395 46.507 69.8706 46.8636 70.061C47.2454 70.2733 47.5817 70.5587 47.8531 70.901C48.1893 71.3174 48.4111 71.8142 48.4966 72.3425C48.5714 72.8703 48.533 73.4081 48.384 73.92C48.2633 74.3404 48.0574 74.7316 47.7792 75.0691C47.5901 75.2971 47.3627 75.4904 47.1072 75.6403C46.9291 75.7462 46.8199 75.7915 46.8233 75.8016Z" fill="#263238"/>
<g opacity="0.2">
<path d="M53.2762 59.2772L52.0095 68.7372L53.6139 68.3777L54.1112 64.25L53.2762 59.2772Z" fill="black"/>
</g>
<g opacity="0.3">
<path d="M27.3723 70.9111C28.1345 70.7734 28.9151 70.7734 29.6773 70.9111C30.0034 70.9842 30.3097 71.1272 30.5751 71.3302C30.8405 71.5333 31.0586 71.7915 31.2145 72.0871C31.5134 72.6426 31.6062 73.2859 31.4766 73.9032C31.3674 74.4358 31.2531 74.9868 30.8634 75.3648C30.2888 75.9226 29.7226 76.1023 28.9801 75.9713L27.5521 75.5076L27.3723 70.9111Z" fill="black"/>
</g>
<path d="M28.6021 75.8756C28.6323 75.8927 28.6645 75.9062 28.6978 75.9159C28.7912 75.9498 28.8873 75.9757 28.9851 75.9932C29.3464 76.0676 29.7206 76.0479 30.0721 75.9361C30.3149 75.8567 30.539 75.7287 30.7306 75.5597C30.9474 75.3637 31.1257 75.129 31.2565 74.8676C31.4006 74.5797 31.5019 74.2724 31.5572 73.9553C31.6308 73.6161 31.6388 73.266 31.5807 72.9238C31.5062 72.5861 31.3774 72.2627 31.1994 71.9662C31.0457 71.6984 30.8384 71.4652 30.5903 71.2813C30.3423 71.0974 30.0589 70.9668 29.7579 70.8977C29.511 70.8453 29.2594 70.8171 29.007 70.8137C28.644 70.8107 28.2812 70.8343 27.9217 70.8843L27.6294 70.9263C27.5948 70.9283 27.5608 70.9357 27.5286 70.9481C27.5626 70.9522 27.597 70.9522 27.631 70.9481L27.925 70.9246C28.2839 70.8886 28.6447 70.8751 29.0053 70.8843C29.2525 70.8919 29.4983 70.9234 29.7394 70.9784C30.0138 71.0447 30.2727 71.1634 30.5022 71.3278C30.9877 71.6638 31.3422 72.2804 31.4883 72.9457C31.5442 73.2761 31.5368 73.6142 31.4665 73.9419C31.4143 74.2505 31.3176 74.5499 31.1792 74.8306C31.0544 75.084 30.8835 75.3118 30.6752 75.5026C30.4927 75.6671 30.279 75.7934 30.0469 75.8739C29.7064 75.9886 29.3431 76.0186 28.9885 75.9613C28.7398 75.9176 28.6054 75.8672 28.6021 75.8756Z" fill="#263238"/>
<g opacity="0.3">
<path d="M45.933 69.683C46.605 69.8678 47.319 70.0762 47.781 70.6003C48.2508 71.1798 48.5249 71.8932 48.5638 72.6382C48.6028 73.3832 48.4046 74.1213 47.9977 74.7466C47.7867 75.0906 47.5036 75.3846 47.1678 75.6084C46.8228 75.7822 46.43 75.8371 46.0506 75.7646C45.0426 75.5966 44.1824 74.7835 43.8834 73.799C43.7366 73.2816 43.6996 72.7393 43.7745 72.2067C43.8494 71.6741 44.0347 71.163 44.3185 70.7062C44.5906 70.2979 45.4642 69.8309 45.9313 69.683" fill="black"/>
</g>
<path d="M58.2473 72.0267C58.2178 71.961 58.1936 71.893 58.175 71.8234C58.133 71.6923 58.0726 71.5025 57.9902 71.2707C57.7917 70.6642 57.4979 70.0931 57.12 69.5789C56.731 69.0703 56.2071 68.6809 55.608 68.455C55.3568 68.3729 55.0978 68.3166 54.8352 68.287C54.9066 68.2779 54.9789 68.2779 55.0502 68.287C55.2469 68.3 55.441 68.3378 55.6282 68.3995C56.2467 68.6142 56.788 69.007 57.1838 69.5285C57.5715 70.0487 57.8655 70.6326 58.0524 71.2539C58.128 71.4907 58.1801 71.6839 58.2204 71.8183C58.238 71.8864 58.2471 71.9564 58.2473 72.0267Z" fill="#455A64"/>
<path d="M52.416 54.6454C52.4335 54.6887 52.4465 54.7338 52.4547 54.7798C52.4765 54.8772 52.5084 55.0083 52.5471 55.1729C52.626 55.5089 52.7335 56.0129 52.8629 56.6194C53.1216 57.8424 53.4559 59.5392 53.7852 61.4191C54.1145 63.2991 54.3699 65.0076 54.5395 66.2475C54.6252 66.8657 54.6907 67.368 54.7327 67.7158C54.7512 67.8838 54.7663 68.0165 54.7781 68.1156C54.7899 68.2147 54.7899 68.2551 54.7882 68.2567C54.7742 68.2113 54.7646 68.1646 54.7596 68.1173C54.7445 68.0199 54.7243 67.8871 54.6975 67.7208C54.6454 67.3663 54.5715 66.8674 54.4791 66.2559C54.2926 65.0194 54.0255 63.3125 53.6979 61.4343C53.3703 59.556 53.046 57.8575 52.8024 56.6311C52.6815 56.0247 52.584 55.5307 52.5135 55.1796C52.4815 55.0116 52.4563 54.8823 52.4379 54.7848C52.4268 54.739 52.4194 54.6924 52.416 54.6454Z" fill="#455A64"/>
<path d="M55.2855 47.8431C55.2855 47.8565 55.099 47.9624 54.8117 48.169C54.4398 48.4379 54.1014 48.7504 53.8037 49.0997C53.5064 49.4506 53.2531 49.8365 53.0494 50.2488C52.8931 50.5664 52.8192 50.773 52.8058 50.768C52.8094 50.7158 52.8219 50.6647 52.8427 50.6168C52.8846 50.4821 52.9351 50.3502 52.9939 50.222C53.1846 49.7968 53.4346 49.4009 53.7365 49.046C54.0397 48.6905 54.3908 48.379 54.7798 48.1203C54.8972 48.042 55.0195 47.9713 55.146 47.9086C55.189 47.88 55.236 47.8579 55.2855 47.8431Z" fill="#455A64"/>
<path d="M35.0432 70.298C35.0411 70.2835 35.0411 70.2688 35.0432 70.2543C35.0432 70.2224 35.0432 70.1804 35.0432 70.13C35.0432 70.014 35.0432 69.8528 35.0432 69.6495C35.0348 69.2328 35.0331 68.6297 34.986 67.8872C34.9608 67.5159 34.9222 67.1093 34.8567 66.6776C34.7912 66.2458 34.6887 65.7888 34.5694 65.3117C34.3342 64.3575 33.9982 63.3125 33.9276 62.1668C33.8932 61.0911 34.0311 60.0169 34.3359 58.9848C34.5896 58.0306 34.8718 57.1872 35.0751 56.4648C35.242 55.901 35.3778 55.3284 35.4816 54.7496C35.522 54.5446 35.5371 54.3833 35.5556 54.2758C35.5556 54.2254 35.569 54.1851 35.574 54.1515C35.5791 54.1179 35.574 54.1095 35.5841 54.1112C35.5856 54.1251 35.5856 54.1392 35.5841 54.1532C35.5841 54.1868 35.5841 54.2271 35.574 54.2775C35.5623 54.3867 35.5522 54.5496 35.5169 54.7546C35.4183 55.3404 35.283 55.9195 35.112 56.4884C34.9172 57.2074 34.6417 58.0524 34.3913 59.0084C34.0963 60.0319 33.9636 61.0954 33.9982 62.16C34.0688 63.2924 34.398 64.3323 34.6316 65.2899C34.7485 65.7428 34.8416 66.2015 34.9105 66.6641C34.9743 67.0992 35.0096 67.5041 35.0297 67.8804C35.07 68.6264 35.0633 69.2244 35.06 69.6478C35.06 69.8511 35.06 70.0124 35.0516 70.1283V70.2526C35.0511 70.2681 35.0483 70.2834 35.0432 70.298Z" fill="#455A64"/>
<path d="M52.5219 50.8335L52.4682 50.82L52.317 50.773C52.122 50.7165 51.9224 50.6772 51.7206 50.6554C50.9748 50.587 50.2232 50.6899 49.5231 50.9561C49.039 51.1341 48.5718 51.3551 48.1271 51.6164C47.6432 51.8919 47.1443 52.2178 46.6151 52.5555C46.0652 52.9173 45.4909 53.2406 44.8964 53.5232C44.2541 53.8291 43.5623 54.018 42.8535 54.0809C42.1393 54.122 41.4259 53.9858 40.7771 53.6844C40.18 53.4053 39.6083 53.0748 39.0685 52.6966C38.5477 52.3472 38.0605 52.0095 37.5683 51.7407C37.1216 51.484 36.6424 51.2885 36.1436 51.1594C35.7309 51.0598 35.3042 51.0314 34.8819 51.0754C34.5634 51.1098 34.2525 51.1955 33.9613 51.3291C33.7148 51.4495 33.4882 51.607 33.2893 51.7961C33.2997 51.7815 33.3115 51.768 33.3246 51.7558C33.3498 51.7306 33.3867 51.6903 33.4371 51.6432C33.5897 51.5096 33.7591 51.3966 33.9411 51.3072C34.2341 51.1654 34.5487 51.0735 34.8719 51.0351C35.3001 50.9859 35.7337 51.0103 36.1537 51.1073C36.6592 51.2347 37.1451 51.4297 37.5985 51.6869C38.0907 51.954 38.5863 52.29 39.1105 52.6378C39.6481 53.0115 40.2169 53.3381 40.8107 53.6139C41.4458 53.9048 42.1427 54.0352 42.8401 53.9936C43.5393 53.9324 44.222 53.7469 44.8561 53.4459C45.4476 53.166 46.0191 52.8454 46.5663 52.4866C47.0972 52.1506 47.5979 51.828 48.0867 51.5525C48.5363 51.2918 49.0087 51.0725 49.4979 50.8973C50.2067 50.6335 50.9672 50.5392 51.7189 50.6218C51.922 50.6479 52.1223 50.6928 52.317 50.7562L52.4665 50.8116C52.486 50.816 52.5047 50.8233 52.5219 50.8335Z" fill="#FAFAFA"/>
<path d="M58.9428 52.6193C58.8927 52.6881 58.8365 52.7522 58.7748 52.8108C58.7073 52.8845 58.6349 52.9536 58.5581 53.0175C58.4616 53.1072 58.3601 53.1913 58.254 53.2695C58.1271 53.367 57.9947 53.4573 57.8576 53.54C57.7017 53.6376 57.5408 53.7267 57.3754 53.8071C56.9948 53.9886 56.5961 54.1293 56.1859 54.2271C55.7737 54.3177 55.3531 54.365 54.931 54.3682C54.7469 54.3675 54.5629 54.3568 54.3799 54.3363C54.2208 54.3221 54.0626 54.2986 53.9062 54.2657C53.76 54.2422 53.634 54.2002 53.5215 54.1716C53.425 54.1469 53.3301 54.116 53.2376 54.0792C53.1566 54.0542 53.0783 54.021 53.004 53.9801C53.004 53.9616 53.34 54.1028 53.9179 54.2036C54.0729 54.2329 54.2294 54.2531 54.3867 54.264C54.5547 54.2859 54.7395 54.2825 54.931 54.2876C55.3464 54.2792 55.7599 54.2303 56.1658 54.1414C56.5703 54.0453 56.9643 53.9091 57.3418 53.7348C57.5098 53.6475 57.6778 53.5668 57.8223 53.4778C57.9589 53.3985 58.0912 53.3122 58.2187 53.2191C58.6875 52.878 58.9277 52.6059 58.9428 52.6193Z" fill="#FAFAFA"/>
<path d="M34.9626 55.8264C34.8318 55.8509 34.6981 55.8549 34.5661 55.8382C34.2458 55.817 33.9295 55.7543 33.6253 55.6517C33.3214 55.5488 33.0317 55.4077 32.7635 55.2317C32.6479 55.1658 32.5435 55.0818 32.4543 54.983C32.8346 55.2157 33.2363 55.4115 33.6539 55.5677C34.0808 55.6959 34.519 55.7825 34.9626 55.8264Z" fill="#FAFAFA"/>
<path d="M52.7806 56.8764C52.5903 56.7374 52.3892 56.6138 52.1792 56.5068C51.5896 56.2479 50.947 56.1327 50.3043 56.1708C49.4878 56.1826 48.5352 56.3976 47.492 56.6748C46.4487 56.952 45.308 57.2947 44.0782 57.5249C43.4802 57.6411 42.8742 57.7107 42.2655 57.7332C41.6981 57.7512 41.1301 57.7243 40.567 57.6526C39.6156 57.5273 38.6761 57.3239 37.758 57.0444C36.9735 56.8126 36.3485 56.5942 35.91 56.443L35.4144 56.2666L35.2868 56.2179C35.2582 56.2061 35.2431 56.1994 35.2448 56.1977C35.2602 56.2002 35.2754 56.2041 35.2901 56.2095L35.4212 56.2498L35.9252 56.4178C36.3603 56.5589 36.9869 56.7672 37.7732 56.9923C38.6905 57.2612 39.6274 57.4578 40.5754 57.5803C41.1327 57.6477 41.6943 57.6724 42.2554 57.6543C42.8601 57.6299 43.4621 57.5603 44.0564 57.4459C45.2794 57.2158 46.4184 56.8714 47.4651 56.6059C48.5117 56.3405 49.471 56.1238 50.2959 56.1187C50.9475 56.0877 51.5969 56.2163 52.1876 56.4934L52.3304 56.569L52.4513 56.6463C52.5152 56.6838 52.5758 56.7265 52.6328 56.7739L52.7386 56.8613L52.7806 56.8764Z" fill="#FAFAFA"/>
<path d="M22.9942 75.7227C22.9942 75.7227 24.7498 75.9814 25.4218 76.2536C26.1509 76.5476 27.0514 76.3762 27.6629 75.9797C28.0106 75.7596 28.3359 75.5058 28.634 75.222L30.8785 75.2338C31.2099 74.8632 31.4324 74.4081 31.5213 73.9189C31.6102 73.4297 31.5622 72.9254 31.3825 72.4618C31.2659 72.1397 31.0955 71.8398 30.8785 71.5748C30.6181 71.2808 30.2065 71.0389 29.4773 70.9028L26.7994 71.4236C26.7994 71.4236 23.4041 71.3665 22.0349 71.3026C21.7058 71.2872 21.3803 71.3772 21.1059 71.5597C20.785 71.773 20.4221 72.0636 20.4507 72.2434C20.4709 72.3795 20.2491 73.2514 20.9093 73.8142C20.9093 73.8142 20.3146 74.2661 20.6221 74.6912L20.7699 74.8793C20.7699 74.8793 20.3667 75.3833 20.5633 75.6051C20.7598 75.8268 22.507 76.9054 23.1437 76.6702C23.7805 76.435 23.2714 75.8403 22.9942 75.7277" fill="#B78876"/>
<path d="M21.3696 72.912C21.4446 72.9333 21.5177 72.9608 21.588 72.9944C21.7258 73.0498 21.924 73.1288 22.1777 73.2161C22.3037 73.2581 22.4431 73.3035 22.5926 73.3455C22.7422 73.3875 22.9068 73.4261 23.0765 73.4849C23.2611 73.5393 23.4268 73.644 23.5553 73.7873C23.6255 73.867 23.6734 73.9638 23.694 74.068C23.7147 74.1722 23.7074 74.2799 23.6729 74.3804C23.6276 74.4808 23.5485 74.5622 23.4494 74.6105C23.3562 74.6531 23.256 74.6787 23.1538 74.6861C22.9657 74.693 22.7775 74.679 22.5926 74.6441C22.2831 74.5884 21.9798 74.5023 21.6871 74.3871C21.4368 74.293 21.2386 74.204 21.1025 74.1435C21.0301 74.1149 20.9604 74.0801 20.8942 74.0393C20.9695 74.059 21.0431 74.0849 21.1142 74.1166C21.2537 74.1704 21.4502 74.251 21.7039 74.3384C21.9964 74.4444 22.2978 74.5242 22.6044 74.5769C22.7833 74.6097 22.9653 74.6221 23.147 74.6139C23.2401 74.6073 23.3311 74.584 23.4158 74.545C23.5004 74.5054 23.5674 74.436 23.604 74.3501C23.6334 74.2623 23.6393 74.1683 23.621 74.0775C23.6028 73.9867 23.561 73.9023 23.4998 73.8327C23.3801 73.6993 23.2261 73.6011 23.0546 73.5488C22.8866 73.49 22.727 73.4513 22.5758 73.4043C22.4246 73.3572 22.2869 73.3102 22.1609 73.2648C21.9089 73.1724 21.7106 73.0851 21.5762 73.0196C21.5045 72.9895 21.4354 72.9536 21.3696 72.912Z" fill="#AA6550"/>
<path d="M21.5544 71.6403C21.6284 71.6635 21.7008 71.6916 21.7712 71.7243C21.9089 71.7814 22.1072 71.862 22.3575 71.9511C22.6078 72.0401 22.9085 72.1375 23.2462 72.2266C23.4334 72.2597 23.6105 72.3356 23.7636 72.4483C23.8445 72.5187 23.897 72.616 23.9115 72.7222C23.9246 72.8292 23.9065 72.9377 23.8594 73.0347C23.8119 73.1272 23.7457 73.2088 23.665 73.2744C23.5843 73.3401 23.4909 73.3883 23.3907 73.416C23.2089 73.4711 23.0166 73.4826 22.8296 73.4496C22.5228 73.3827 22.2226 73.2889 21.9324 73.1691L21.336 72.949C21.2624 72.925 21.191 72.8947 21.1227 72.8583C21.1988 72.8734 21.2735 72.8948 21.3461 72.9221L21.9425 73.1203C22.2319 73.2311 22.5297 73.3187 22.8329 73.3824C23.0096 73.4121 23.1907 73.4006 23.3621 73.3488C23.4526 73.3231 23.5368 73.2791 23.6096 73.2196C23.6824 73.1601 23.7423 73.0863 23.7855 73.0027C23.8311 72.9223 23.8483 72.8288 23.8343 72.7373C23.8203 72.6459 23.7758 72.5618 23.7082 72.4987C23.5644 72.3928 23.3984 72.321 23.2227 72.2887C22.8867 72.1947 22.5809 72.0922 22.3323 71.9964C22.0836 71.9007 21.8871 71.8116 21.7527 71.7478C21.6834 71.7182 21.617 71.6822 21.5544 71.6403Z" fill="#AA6550"/>
<path d="M28.602 72.2048L27.048 71.568C27.048 71.568 22.7355 69.4445 22.6599 69.552C22.5843 69.6596 22.3491 69.6444 22.3894 70.177C22.4297 70.7096 24.9447 71.8318 25.0219 72.025C25.0992 72.2182 24.9447 73.1372 25.8619 73.8226C26.7792 74.508 27.4613 74.5383 27.4613 74.5383" fill="#B78876"/>
<path d="M27.4664 74.5316H27.4278C27.3917 74.529 27.3558 74.5245 27.3202 74.5181C27.1824 74.4949 27.0469 74.4595 26.9154 74.4123C26.7065 74.3381 26.5046 74.2453 26.3122 74.1351C26.0553 73.9926 25.8167 73.8194 25.6016 73.6193C25.3438 73.3657 25.1647 73.0431 25.0858 72.6903C25.0451 72.497 25.0182 72.3011 25.0052 72.104C25.002 72.0808 24.9975 72.0578 24.9918 72.0351C24.9816 72.0182 24.9679 72.0039 24.9514 71.9931C24.911 71.9622 24.869 71.9336 24.8254 71.9074C24.7381 71.8536 24.6457 71.8016 24.5516 71.7478C24.1786 71.5395 23.7805 71.3278 23.3756 71.0859C23.1757 70.9649 22.9741 70.8372 22.7792 70.6928C22.6797 70.6194 22.5864 70.5379 22.5003 70.4492C22.4548 70.4027 22.4153 70.3508 22.3827 70.2946C22.3668 70.2639 22.3555 70.2311 22.3491 70.1972C22.3467 70.1647 22.3467 70.1322 22.3491 70.0997C22.3372 69.9696 22.3635 69.8388 22.4247 69.7234C22.4608 69.6679 22.5091 69.6214 22.5658 69.5873C22.5883 69.5735 22.6087 69.5565 22.6263 69.5369C22.6263 69.5369 22.6263 69.5369 22.6414 69.5218C22.6509 69.5155 22.662 69.512 22.6734 69.5117H22.7036L22.7506 69.5235C22.9858 69.6024 23.1992 69.7016 23.4226 69.7956C23.8494 69.9855 24.2626 70.177 24.644 70.3618C25.4185 70.7297 26.1123 71.0691 26.6936 71.358C26.8381 71.4286 26.9758 71.5008 27.1086 71.5596L27.4882 71.7192L28.0981 71.9746L28.4811 72.1426L28.5802 72.188L28.6122 72.2048L28.5769 72.1947L28.4761 72.1577L28.0863 72.0048L27.4714 71.7596L27.0884 71.6067C26.954 71.5479 26.8179 71.4773 26.6701 71.4068L24.6154 70.4256C24.2274 70.2442 23.8191 70.0527 23.3924 69.8645C23.1807 69.7721 22.9623 69.6713 22.7389 69.5974L22.6986 69.5873H22.6801C22.6801 69.5873 22.6801 69.5772 22.6801 69.5705C22.7288 69.6041 22.6918 69.5806 22.7019 69.589C22.6796 69.6151 22.6535 69.6377 22.6246 69.6562C22.5768 69.6848 22.536 69.7239 22.5054 69.7704C22.4532 69.8743 22.4305 69.9905 22.4398 70.1064C22.4363 70.1644 22.4479 70.2223 22.4734 70.2744C22.5027 70.3247 22.5383 70.371 22.5793 70.4122C22.6625 70.4976 22.7524 70.5763 22.8481 70.6474C23.0396 70.7902 23.2395 70.9179 23.4378 71.0372C23.8359 71.2791 24.2324 71.4924 24.6138 71.7092C24.7078 71.7629 24.8002 71.815 24.8893 71.8772C24.933 71.9057 24.9783 71.9326 25.0203 71.9662C25.047 71.984 25.0679 72.0091 25.0808 72.0384C25.0893 72.0646 25.0949 72.0917 25.0976 72.1191C25.1097 72.3149 25.1349 72.5096 25.1732 72.702C25.2486 73.0446 25.4199 73.3587 25.6671 73.6076C25.8772 73.8068 26.1101 73.9805 26.361 74.125C26.5503 74.2366 26.7487 74.3321 26.954 74.4106C27.0835 74.4604 27.2166 74.5003 27.3522 74.5299C27.3975 74.54 27.4345 74.545 27.458 74.5484L27.4664 74.5316Z" fill="#AA6550"/>
<path d="M22.6583 74.634C22.7164 74.6433 22.773 74.6609 22.8263 74.6861C22.9722 74.749 23.1085 74.8321 23.2311 74.9331C23.3172 75.0029 23.3955 75.0817 23.4647 75.1683C23.5077 75.2191 23.5402 75.2779 23.5604 75.3413C23.5806 75.4047 23.588 75.4716 23.5823 75.5379C23.5665 75.6116 23.5304 75.6794 23.4782 75.7337C23.4259 75.788 23.3596 75.8267 23.2866 75.8453C23.1353 75.8829 22.9762 75.8748 22.8296 75.8218C22.3342 75.6636 21.855 75.4589 21.3983 75.2103C21.2607 75.1354 21.1278 75.0524 21.0001 74.9616C20.9513 74.931 20.9057 74.8956 20.864 74.8558C20.9171 74.8781 20.9677 74.9056 21.0152 74.9381C21.111 74.9952 21.2504 75.0742 21.4251 75.1649C21.8839 75.3962 22.3596 75.5922 22.8481 75.7512C22.9805 75.7993 23.1241 75.808 23.2614 75.7764C23.3226 75.7624 23.3786 75.7315 23.4232 75.6873C23.4677 75.6431 23.499 75.5872 23.5134 75.5261C23.5183 75.4683 23.5118 75.41 23.4942 75.3546C23.4767 75.2993 23.4483 75.2479 23.4109 75.2036C23.3469 75.1189 23.2743 75.0412 23.1942 74.9717C23.0304 74.8371 22.8504 74.7236 22.6583 74.634Z" fill="#AA6550"/>
<path d="M47.3643 70.345L44.5957 70.4021C44.5957 70.4021 40.4461 68.9019 39.5927 69.0464C38.8232 69.174 36.0092 71.0439 35.4582 71.4152C35.3962 71.4549 35.349 71.5139 35.3238 71.5832C35.2694 71.7295 35.2741 71.8912 35.3368 72.0342C35.3995 72.1771 35.5153 72.2901 35.6598 72.3492L35.7186 72.3744L35.6934 72.4584C35.66 72.5672 35.6452 72.6808 35.6497 72.7944C35.6565 72.8804 35.6905 72.962 35.7467 73.0274C35.8029 73.0928 35.8784 73.1386 35.9624 73.1582C36.0464 73.1779 36.1344 73.1703 36.2138 73.1366C36.2932 73.1029 36.3598 73.0449 36.404 72.9708L36.2982 73.159C36.2548 73.2356 36.2344 73.3231 36.2394 73.411L36.2495 73.579C36.2544 73.6719 36.2874 73.7611 36.3441 73.8349C36.4008 73.9087 36.4785 73.9636 36.567 73.9923C36.6514 74.0197 36.7419 74.0223 36.8277 73.9996C36.9135 73.977 36.991 73.9301 37.0508 73.8646C37.407 73.4732 38.1781 72.6886 38.6989 72.5996C39.2646 72.5316 39.8344 72.503 40.4041 72.5139C40.52 72.5146 40.633 72.5503 40.7283 72.6162C40.8236 72.6822 40.8968 72.7753 40.9383 72.8835C40.6292 72.9053 38.4721 74.0292 37.7094 74.4324C37.5912 74.4914 37.4892 74.5782 37.4119 74.6853C37.3347 74.7924 37.2846 74.9166 37.2659 75.0473C37.2373 75.2859 37.3583 75.5362 37.8303 75.4253C38.8383 75.1884 40.6695 74.3501 40.6695 74.3501C40.6695 74.3501 41.612 74.0813 42.2219 74.5181C43.0787 75.1229 43.4718 75.3447 44.2093 75.1011C44.6568 74.9512 45.0862 74.7517 45.4895 74.5064L47.9994 74.75C47.9994 74.75 49.5349 72.24 47.3643 70.345Z" fill="#B78876"/>
<path d="M40.9551 71.1026C40.9551 71.1194 40.6594 71.0254 40.1755 70.9951C39.5424 70.9524 38.908 71.0598 38.3242 71.3086C37.7403 71.5573 37.2234 71.9403 36.8155 72.4265C36.5031 72.7978 36.3687 73.0733 36.3552 73.0649C36.3774 72.9967 36.4085 72.9318 36.4476 72.8717C36.5431 72.703 36.6521 72.5423 36.7735 72.3912C37.1765 71.887 37.6982 71.4905 38.2918 71.2372C38.8855 70.9839 39.5327 70.8817 40.1755 70.9397C40.3689 70.9559 40.5606 70.9885 40.7484 71.0371C40.8192 71.0523 40.8884 71.0743 40.9551 71.1026Z" fill="#AA6550"/>
<path d="M40.5149 70.0947C40.251 70.0154 39.9786 69.9681 39.7035 69.9536C39.0363 69.9504 38.3818 70.1356 37.8151 70.4878C37.2538 70.8484 36.742 71.2811 36.2931 71.7747L35.8764 72.2182C35.8283 72.2751 35.7754 72.3279 35.7185 72.3761C35.7569 72.3118 35.8026 72.252 35.8546 72.198C35.9453 72.0871 36.0814 71.9292 36.2527 71.7377C36.6943 71.228 37.2069 70.7844 37.7748 70.4206C38.3526 70.0598 39.0243 69.878 39.7051 69.8981C39.9103 69.9072 40.1133 69.9445 40.3083 70.009C40.361 70.0251 40.4127 70.0448 40.4628 70.0678C40.4816 70.0736 40.4993 70.0827 40.5149 70.0947Z" fill="#AA6550"/>
<path d="M28.9683 30.3374C28.0572 28.2195 26.4649 26.4666 24.4441 25.3568C22.4232 24.247 20.0896 23.8439 17.8136 24.2115C15.5375 24.5791 13.4494 25.6963 11.8807 27.3859C10.312 29.0754 9.35248 31.2405 9.15446 33.5375C8.95644 35.8346 9.53126 38.1319 10.7877 40.065C12.0441 41.9981 13.9102 43.4562 16.0897 44.2079C18.2693 44.9596 20.6375 44.9619 22.8184 44.2143C24.9994 43.4667 26.8682 42.0121 28.1283 40.0814L32.1267 40.0159L29.5194 36.876C30.0531 34.6947 29.8596 32.3987 28.9683 30.3374Z" fill="#FAFAFA"/>
<path d="M15.3603 24.9043C15.3026 24.9229 15.2464 24.9459 15.1923 24.9732L14.7152 25.2C14.6093 25.2521 14.49 25.3025 14.364 25.368L13.9608 25.6116L13.4921 25.8989L12.9881 26.2785C12.1317 26.9368 11.3893 27.7314 10.7907 28.6305C9.9883 29.8165 9.4361 31.1535 9.16779 32.5601C8.85877 34.2737 8.97413 36.037 9.50379 37.6958C9.65439 38.1465 9.83397 38.5871 10.0414 39.0146C10.1523 39.2297 10.2447 39.4565 10.3774 39.6648L10.7688 40.2948C11.3389 41.1484 12.0318 41.9132 12.8252 42.5645C13.6633 43.2403 14.5947 43.7914 15.5904 44.2008C16.6405 44.6082 17.7473 44.8508 18.8715 44.9198C20.0372 44.9986 21.2077 44.8706 22.3289 44.5418C22.6149 44.4665 22.8955 44.3722 23.1689 44.2596C23.4511 44.1634 23.7277 44.0512 23.9972 43.9236C24.5425 43.662 25.0646 43.3546 25.5579 43.0046C26.6199 42.248 27.5315 41.3 28.2459 40.2091L28.1518 40.2612L32.0729 40.1621H32.3048L32.1603 39.9806L29.6403 36.8289L29.6621 36.9247C30.0502 35.3311 30.0583 33.6685 29.6856 32.0712C29.5163 31.3264 29.2573 30.6049 28.9145 29.9225C28.7623 29.5883 28.5854 29.266 28.3853 28.9581L28.0997 28.5012C28.0006 28.3533 27.883 28.2189 27.7788 28.0778C26.272 26.1212 24.119 24.7637 21.704 24.2474C20.8119 24.0485 19.8966 23.9733 18.984 24.024L18.4061 24.0609L17.8803 24.1449L17.3981 24.2239C17.2486 24.2575 17.1075 24.3012 16.9731 24.3365C16.706 24.4137 16.4691 24.4641 16.2675 24.5397L15.7635 24.7346L15.456 24.864C15.4212 24.8755 15.3879 24.8913 15.3569 24.911C15.3939 24.9056 15.43 24.8954 15.4644 24.8808L15.7736 24.7766L16.2776 24.5985C16.4775 24.5313 16.7177 24.4843 16.9848 24.4137C18.934 23.9465 20.9769 24.0545 22.8659 24.7248C24.7549 25.3952 26.409 26.599 27.6276 28.1904C27.7301 28.3298 27.8444 28.4625 27.9401 28.607L28.219 29.0573C28.4144 29.3601 28.5862 29.6774 28.7331 30.0065C29.0671 30.677 29.3187 31.3855 29.4824 32.1165C29.8414 33.6826 29.8281 35.311 29.4437 36.8709L29.4303 36.923L29.4656 36.9667C30.2787 37.9848 31.1187 39.037 31.9856 40.1234L32.0729 39.9353L28.1501 40.0293H28.0896L28.0544 40.0814C27.0276 41.6475 25.592 42.903 23.9031 43.7119C23.6392 43.8393 23.3683 43.9514 23.0916 44.0479C22.8233 44.1585 22.5477 44.2506 22.2668 44.3234C21.1697 44.6428 20.0249 44.7662 18.8849 44.688C17.7853 44.6205 16.7026 44.3848 15.6744 43.9891C14.6969 43.5885 13.7825 43.0487 12.9596 42.3864C12.1827 41.7498 11.5034 41.0026 10.9436 40.1688C10.8125 39.9621 10.6848 39.7572 10.5572 39.5539C10.4295 39.3506 10.3388 39.1272 10.2212 38.9172C10.0155 38.4981 9.83757 38.066 9.68859 37.6236C9.20011 36.1403 9.05577 34.5652 9.26651 33.0178C9.47726 31.4704 10.0376 29.9914 10.9049 28.6927C11.4882 27.7979 12.2128 27.0036 13.0503 26.3407L13.5375 25.956L13.9961 25.662L14.3909 25.4083C14.5152 25.3377 14.6328 25.284 14.7269 25.2302L15.194 24.9866C15.2518 24.9643 15.3074 24.9367 15.3603 24.9043Z" fill="#263238"/>
<path d="M22.417 39.7225L23.0151 39.7213C23.3491 39.7207 23.6194 39.4494 23.6187 39.1154L23.6012 29.9795C23.6005 29.6455 23.3292 29.3753 22.9952 29.3759L22.3971 29.377C22.0631 29.3777 21.7929 29.649 21.7935 29.983L21.811 39.1188C21.8117 39.4528 22.083 39.7231 22.417 39.7225Z" fill="#E0E0E0"/>
<path d="M19.4569 39.7285L20.055 39.7274C20.389 39.7267 20.6593 39.4554 20.6586 39.1214L20.6411 29.9856C20.6404 29.6516 20.3692 29.3813 20.0351 29.3819L19.4371 29.3831C19.103 29.3837 18.8328 29.655 18.8334 29.989L18.851 39.1249C18.8516 39.4589 19.1229 39.7291 19.4569 39.7285Z" fill="#E0E0E0"/>
<path d="M16.1069 39.7339L16.705 39.7327C17.039 39.7321 17.3093 39.4608 17.3087 39.1268L17.2911 29.9909C17.2905 29.6569 17.0192 29.3867 16.6852 29.3873L16.0871 29.3885C15.7531 29.3891 15.4828 29.6604 15.4834 29.9944L15.501 39.1302C15.5016 39.4643 15.7729 39.7345 16.1069 39.7339Z" fill="#E0E0E0"/>
<path d="M22.6901 39.7219C22.6143 39.7121 22.5392 39.6981 22.465 39.6799C22.2531 39.6205 22.0725 39.4814 21.961 39.2918C21.8801 39.158 21.8372 39.0047 21.8366 38.8483C21.8366 38.6719 21.8366 38.4821 21.8366 38.2771C21.8366 37.8655 21.8366 37.4001 21.8366 36.8844C21.8366 35.8512 21.8366 34.6231 21.8366 33.2623C21.8366 32.5802 21.8366 31.8645 21.8366 31.122V30.5609C21.8234 30.3764 21.8353 30.1911 21.8719 30.0098C21.9318 29.8375 22.0449 29.6887 22.195 29.585C22.3451 29.4814 22.5243 29.4282 22.7067 29.4333C22.889 29.4383 23.065 29.5013 23.2092 29.6132C23.3533 29.725 23.458 29.8798 23.5082 30.0552C23.5344 30.2387 23.5434 30.4243 23.5351 30.6096C23.5351 30.7977 23.5351 30.9859 23.5351 31.1707C23.5351 31.9133 23.5351 32.6289 23.5351 33.311C23.5351 34.6735 23.5486 35.8999 23.5536 36.9348C23.5536 37.4489 23.5536 37.9159 23.5654 38.3258C23.5654 38.5308 23.5654 38.724 23.5654 38.8953C23.5583 39.0517 23.5077 39.203 23.4192 39.3321C23.2957 39.5134 23.1086 39.6417 22.895 39.6917C22.7472 39.7236 22.6666 39.7152 22.6666 39.7219C22.7443 39.7321 22.8232 39.7293 22.9001 39.7135C23.1241 39.6714 23.323 39.5436 23.4545 39.3573C23.5522 39.2232 23.6104 39.0643 23.6225 38.8987C23.6225 38.7206 23.6225 38.5325 23.6225 38.3258C23.6225 37.9159 23.6225 37.4489 23.6225 36.9348C23.6225 35.8999 23.6225 34.6735 23.6225 33.311C23.6225 32.6289 23.6225 31.9133 23.6225 31.1707V30.3307C23.6261 30.2308 23.6165 30.1308 23.5939 30.0333C23.543 29.8313 23.4262 29.652 23.2618 29.5238C23.0975 29.3957 22.8951 29.3261 22.6867 29.3261C22.4787 29.3169 22.2735 29.3759 22.1021 29.4941C21.9328 29.6134 21.8076 29.7852 21.7459 29.9829C21.717 30.0799 21.7028 30.1808 21.7039 30.282V30.5659C21.7039 30.7541 21.7039 30.9422 21.7039 31.127C21.7039 31.8696 21.7039 32.5853 21.7123 33.2673C21.7123 34.6281 21.7258 35.8562 21.7308 36.8911C21.7308 37.4052 21.7392 37.8705 21.7409 38.2821C21.7409 38.4871 21.7409 38.6769 21.7409 38.8533C21.743 39.019 21.7913 39.1807 21.8803 39.3204C22.0001 39.5149 22.1923 39.6539 22.4146 39.7068C22.5044 39.7308 22.5982 39.736 22.6901 39.7219Z" fill="#263238"/>
<path d="M19.7299 39.7269C19.6536 39.7174 19.5779 39.704 19.5031 39.6866C19.3213 39.6342 19.1616 39.5237 19.0485 39.372C18.9353 39.2203 18.8749 39.0358 18.8765 38.8466C18.8765 38.6702 18.8765 38.4804 18.8765 38.2754C18.8765 37.8655 18.8765 37.3984 18.8765 36.8844C18.8765 35.8495 18.8765 34.6231 18.8765 33.2606V30.5659C18.8623 30.382 18.8742 30.1971 18.9117 30.0165C18.9705 29.8432 19.0832 29.6933 19.2333 29.5887C19.3834 29.4841 19.5631 29.4303 19.746 29.4352C19.9289 29.4401 20.1054 29.5034 20.2498 29.6159C20.3941 29.7283 20.4986 29.884 20.5481 30.0602C20.5744 30.2437 20.5829 30.4294 20.5733 30.6146C20.5733 30.8044 20.5733 30.9909 20.5733 31.1774C20.5733 31.9183 20.5733 32.634 20.5733 33.316C20.5733 34.6785 20.5867 35.9066 20.5917 36.9398C20.5917 37.4556 20.5917 37.9209 20.6018 38.3325C20.6018 38.5358 20.6018 38.729 20.6018 38.902C20.5947 39.0584 20.5441 39.2097 20.4557 39.3388C20.3307 39.5194 20.1434 39.6475 19.9298 39.6984C19.7837 39.7286 19.7013 39.7202 19.703 39.7269C19.7798 39.7395 19.8581 39.7395 19.9349 39.7269C20.1592 39.6833 20.3583 39.5552 20.4909 39.3691C20.5892 39.2358 20.6475 39.0773 20.6589 38.9121C20.6673 38.7324 20.6589 38.5442 20.6589 38.3392C20.6589 37.9276 20.6589 37.4606 20.6589 36.9465C20.6589 35.9133 20.6589 34.6852 20.6589 33.3228C20.6589 32.6407 20.6589 31.925 20.6589 31.1824V30.6213C20.6589 30.5272 20.6589 30.4332 20.6589 30.3374C20.6634 30.2374 20.6538 30.1373 20.6304 30.04C20.5798 29.8381 20.4633 29.6588 20.2992 29.5307C20.1352 29.4026 19.933 29.3329 19.7249 29.3328C19.5172 29.3225 19.312 29.3814 19.1415 29.5003C18.9709 29.6191 18.8446 29.7913 18.7824 29.9896C18.7542 30.0868 18.7406 30.1875 18.7421 30.2887V30.5726C18.7421 30.7624 18.7421 30.9489 18.7421 31.1354C18.7421 31.8763 18.7421 32.592 18.7421 33.274C18.7421 34.6365 18.7555 35.8629 18.7622 36.8978C18.7622 37.4119 18.7622 37.8789 18.7723 38.2888C18.7723 38.4938 18.7723 38.6853 18.7723 38.86C18.7739 39.0255 18.8216 39.1872 18.9101 39.3271C19.0308 39.5214 19.2234 39.6603 19.446 39.7135C19.5383 39.7397 19.6355 39.7443 19.7299 39.7269Z" fill="#263238"/>
<path d="M16.38 39.7336C16.3037 39.724 16.2279 39.7099 16.1532 39.6916C15.9728 39.6396 15.8141 39.5304 15.7011 39.3804C15.5881 39.2304 15.5268 39.0478 15.5265 38.86C15.5265 38.6836 15.5265 38.4938 15.5265 38.2888C15.5265 37.8772 15.5265 37.4119 15.5265 36.8978C15.5265 35.8629 15.5265 34.6365 15.5265 33.274V30.576C15.5124 30.3921 15.5243 30.2072 15.5618 30.0266C15.6206 29.8533 15.7333 29.7034 15.8834 29.5988C16.0335 29.4942 16.2132 29.4404 16.3961 29.4453C16.579 29.4502 16.7555 29.5135 16.8998 29.626C17.0442 29.7384 17.1487 29.8941 17.1981 30.0703C17.2245 30.2538 17.233 30.4395 17.2233 30.6247C17.2233 30.8128 17.2233 31.001 17.2233 31.1858C17.2233 31.9284 17.2233 32.644 17.2233 33.3261C17.2233 34.6886 17.2368 35.9167 17.2418 36.9499C17.2418 37.464 17.2418 37.931 17.2519 38.3426C17.2519 38.5459 17.2519 38.7391 17.2519 38.9104C17.2448 39.0668 17.1942 39.2181 17.1057 39.3472C16.9812 39.5286 16.7939 39.6573 16.5799 39.7084C16.4337 39.7387 16.3514 39.7303 16.3531 39.737C16.4299 39.7496 16.5082 39.7496 16.5849 39.737C16.7781 39.6991 16.9534 39.5985 17.0837 39.4509C17.214 39.3033 17.292 39.1169 17.3057 38.9205C17.3057 38.7424 17.3057 38.5543 17.3057 38.3493C17.3057 37.9377 17.3057 37.4707 17.3057 36.9566C17.3057 35.9217 17.3057 34.6953 17.3057 33.3328C17.3057 32.6508 17.3057 31.9351 17.3057 31.1925V30.3525C17.3084 30.2526 17.2988 30.1527 17.2771 30.0552C17.226 29.8532 17.109 29.6741 16.9447 29.546C16.7805 29.4179 16.5782 29.3482 16.3699 29.3479C16.1623 29.3376 15.9571 29.3965 15.7865 29.5154C15.6159 29.6343 15.4897 29.8064 15.4274 30.0048C15.4 30.1021 15.3864 30.2027 15.3871 30.3038V30.576C15.3871 30.7658 15.3871 30.9523 15.3871 31.1371C15.3871 31.8796 15.3871 32.5953 15.3871 33.2774C15.3871 34.6399 15.4005 35.8663 15.4073 36.9012C15.4073 37.4152 15.4073 37.8823 15.4173 38.2922C15.4173 38.4972 15.4173 38.687 15.4173 38.8634C15.419 39.0289 15.4667 39.1906 15.5551 39.3304C15.6759 39.5248 15.8685 39.6637 16.091 39.7168C16.1847 39.745 16.2837 39.7507 16.38 39.7336Z" fill="#263238"/>
<path d="M21.0101 31.416C21.0108 31.6673 20.9369 31.9131 20.7978 32.1224C20.6588 32.3316 20.4607 32.4949 20.2288 32.5916C19.9969 32.6883 19.7415 32.7141 19.4949 32.6656C19.2484 32.6171 19.0218 32.4966 18.8438 32.3192C18.6657 32.1419 18.5443 31.9158 18.4948 31.6694C18.4454 31.4231 18.4701 31.1676 18.5658 30.9353C18.6616 30.703 18.8241 30.5043 19.0329 30.3644C19.2416 30.2245 19.4871 30.1496 19.7384 30.1493C20.0749 30.1488 20.3979 30.282 20.6363 30.5195C20.8748 30.757 21.0092 31.0795 21.0101 31.416Z" fill="#368268"/>
<path d="M17.6653 34.5592C17.6656 34.8104 17.5914 35.0561 17.4522 35.2651C17.3129 35.4742 17.1147 35.6372 16.8828 35.7337C16.6508 35.8301 16.3955 35.8556 16.1491 35.8069C15.9026 35.7582 15.6762 35.6376 15.4983 35.4602C15.3205 35.2828 15.1992 35.0566 15.1499 34.8103C15.1005 34.564 15.1253 34.3086 15.2212 34.0764C15.317 33.8442 15.4795 33.6456 15.6882 33.5058C15.8969 33.366 16.1423 33.2912 16.3935 33.2908C16.5603 33.2906 16.7255 33.3232 16.8797 33.3869C17.0339 33.4505 17.174 33.5439 17.2921 33.6616C17.4102 33.7794 17.5039 33.9193 17.568 34.0733C17.632 34.2273 17.6651 34.3924 17.6653 34.5592Z" fill="#368268"/>
<path d="M23.8354 36.9339C24.0931 36.2815 23.7733 35.5437 23.1209 35.2859C22.4685 35.0282 21.7307 35.3481 21.4729 36.0004C21.2152 36.6528 21.5351 37.3906 22.1874 37.6484C22.8398 37.9061 23.5776 37.5862 23.8354 36.9339Z" fill="#368268"/>
<path d="M13.3862 76.6618H38.7257L35.4564 58.8773C35.4002 58.5716 35.2387 58.2953 34.9999 58.0964C34.7611 57.8975 34.4601 57.7886 34.1493 57.7886H11.3803C11.1845 57.7886 10.9912 57.8318 10.8141 57.9152C10.637 57.9985 10.4805 58.12 10.3558 58.2709C10.2311 58.4217 10.1412 58.5983 10.0927 58.7879C10.0441 58.9776 10.0381 59.1756 10.0749 59.3678L13.3862 76.6618Z" fill="#455A64"/>
<path d="M38.7257 76.6617H48.337L48.2983 76.6332C47.4407 75.9913 46.4056 75.6304 45.3348 75.6L38.4619 75.3984L38.7257 76.6617Z" fill="#455A64"/>
<path d="M32.639 57.8122C32.639 57.8122 32.7096 57.8004 32.844 57.7987C33.0398 57.8014 33.2324 57.8491 33.4068 57.9382C33.6816 58.0796 33.9135 58.2919 34.0788 58.553C34.2883 58.9065 34.4291 59.2964 34.4938 59.7022C34.5761 60.1524 34.6483 60.6514 34.739 61.1839C34.8298 61.7165 34.9272 62.286 35.0398 62.8841C35.2615 64.0786 35.5219 65.389 35.8075 66.7632C36.3787 69.51 36.9079 71.993 37.2557 73.7974C37.4237 74.6995 37.5631 75.4303 37.6555 75.936C37.6992 76.1846 37.7345 76.3795 37.7614 76.519C37.7731 76.5811 37.7832 76.6298 37.7899 76.6702C37.793 76.6873 37.7975 76.7042 37.8034 76.7206C37.8063 76.7033 37.8063 76.6857 37.8034 76.6685C37.8034 76.6282 37.7916 76.5778 37.7832 76.5156C37.7614 76.3745 37.7328 76.1796 37.6942 75.931C37.6152 75.427 37.4909 74.6894 37.3246 73.7856C36.9886 71.9762 36.4745 69.4898 35.9033 66.743C35.6194 65.3705 35.3539 64.055 35.1288 62.8673C35.0146 62.2709 34.9138 61.703 34.8197 61.1705C34.7256 60.6379 34.6517 60.1423 34.5626 59.6887C34.4927 59.2766 34.345 58.8815 34.1275 58.5245C33.953 58.2582 33.7098 58.044 33.4236 57.9046C33.2436 57.8159 33.0445 57.7732 32.844 57.7802C32.7745 57.7815 32.7056 57.7923 32.639 57.8122Z" fill="#263238"/>
<path d="M24.0302 67.6914C24.5084 67.2131 24.5084 66.4377 24.0301 65.9594C23.5519 65.4811 22.7764 65.4811 22.2981 65.9594C21.8199 66.4377 21.8199 67.2131 22.2981 67.6914C22.7764 68.1697 23.5519 68.1697 24.0302 67.6914Z" fill="#F5F5F5"/>
<path d="M80.0033 76.6449C80.0033 76.6685 63.6166 76.6886 43.4079 76.6886C23.1992 76.6886 6.80908 76.6685 6.80908 76.6449C6.80908 76.6214 23.184 76.608 43.4079 76.608C63.6317 76.608 80.0033 76.6214 80.0033 76.6449Z" fill="#263238"/>
</svg>
