<svg width="84" height="84" viewBox="0 0 84 84" fill="none" xmlns="http://www.w3.org/2000/svg">
<path d="M74.4111 70.5968C72.7125 72.3644 71.1052 73.5044 69.8354 74.405C54.9084 84.9919 37.2458 81.9058 33.492 81.1522C27.9488 80.0393 17.234 77.8882 9.48734 68.8833C-2.23267 55.2596 -0.4077 33.7959 8.68314 19.6274C10.346 17.0358 19.1297 2.65148 36.9825 0.344701C47.7868 -1.05134 60.3812 1.76431 69.5017 9.3174C88.6465 25.1721 87.2836 57.2013 74.4111 70.5968Z" fill="url(#paint0_linear_3_1386)"/>
<path d="M74.79 4.89642C74.9719 4.50532 74.5322 4.1151 74.1549 4.33018C70.3244 6.51417 60.7107 13.4857 58.9657 29.1662C56.7762 48.8398 51.0865 54.8824 45.0574 57.974C45.0574 57.974 52.4234 57.5726 58.4418 51.498C73.2186 36.5835 71.5555 11.8504 74.79 4.89642Z" fill="#74B58D"/>
<path d="M70.9819 10.3155C70.0832 12.3534 69.2255 14.4079 68.4451 16.4904C67.6538 18.5684 66.9265 20.6693 66.2666 22.7895C65.6149 24.9121 65.0036 27.0464 64.485 29.2032C63.9565 31.3576 63.5223 33.532 63.094 35.7167C62.6536 37.8977 62.2226 40.0973 61.5624 42.2601C60.9056 44.4188 59.9775 46.5348 58.6858 48.4204C58.3633 48.8902 58.0308 49.3561 57.674 49.7979C57.3252 50.2464 56.9562 50.6798 56.5796 51.1065C55.8218 51.9564 55.0057 52.758 54.1332 53.4961C52.3839 54.9681 50.4093 56.1757 48.3298 57.1028C48.1109 57.2004 47.8535 57.1041 47.7547 56.8878C47.6578 56.6754 47.75 56.4261 47.9606 56.3248L47.9621 56.3241C48.4614 56.0844 48.9573 55.8394 49.4405 55.5734C49.6843 55.4442 49.9218 55.3046 50.1619 55.1694C50.3964 55.0254 50.6367 54.8904 50.8665 54.7394C51.7958 54.1509 52.6822 53.4987 53.5154 52.7849C55.1871 51.367 56.6531 49.6948 57.8902 47.8956C58.4987 46.9888 59.0386 46.0393 59.5026 45.052C59.966 44.0643 60.3532 43.0398 60.6816 41.9927C61.339 39.8974 61.7838 37.7237 62.24 35.5459C62.6992 33.3682 63.1757 31.183 63.7425 29.0206C64.0229 27.9388 64.3229 26.862 64.6423 25.7911C64.7988 25.2548 64.9659 24.7216 65.1319 24.1882C65.3032 23.6563 65.4774 23.1254 65.6559 22.5961C66.3739 20.4799 67.157 18.3864 68.0058 16.3203C68.8647 14.2582 69.7786 12.2193 70.7705 10.2187C70.7988 10.1615 70.8687 10.1379 70.9265 10.1659C70.9825 10.1931 71.0066 10.2593 70.9819 10.3155Z" fill="white"/>
<path d="M61.7101 64.6588C61.8493 65.4399 62.7503 65.8267 63.4284 65.4026C67.1701 63.0631 77.1441 55.5029 78.9497 40.5008C80.4745 27.8322 82.5193 21.106 83.6616 18.1161C83.9031 17.4839 83.1877 16.9143 82.6136 17.2812C76.2786 21.3287 56.6669 36.3543 61.7101 64.6588Z" fill="#8CCDA5"/>
<path d="M62.7792 64.85C62.7936 64.8635 62.8095 64.8758 62.827 64.8867C62.973 64.9785 63.1666 64.9358 63.2594 64.7915C63.3646 64.6279 73.8126 48.2283 76.7377 30.7081C76.7658 30.5395 76.6504 30.3802 76.4796 30.3521C76.3089 30.3243 76.1477 30.4385 76.1195 30.6073C73.2157 47.9999 62.8351 64.2967 62.7306 64.4593C62.6488 64.5864 62.6725 64.75 62.7792 64.85Z" fill="#BDD0FB"/>
<path d="M15.2113 9.27767L58.449 10.4101C60.8344 10.4726 62.7518 12.3719 62.81 14.7299L64.3406 76.7778C64.3862 78.623 62.877 80.1389 61.0097 80.1236L11.43 79.716C9.67545 79.7016 8.27409 78.2673 8.32058 76.5336L9.99216 14.1703C10.0665 11.3947 12.4032 9.2042 15.2113 9.27767Z" fill="#368268"/>
<path d="M18.7044 78.8345C18.7031 78.8345 18.7017 78.8345 18.7004 78.8344L13.1572 78.6183C11.3136 78.5465 9.85337 77.0047 9.90219 75.1815L10.124 66.906C10.1255 66.8511 10.1753 66.8057 10.2271 66.8094C10.2825 66.8109 10.3263 66.8565 10.3249 66.9113L10.103 75.1867C10.057 76.9019 11.4307 78.3523 13.1651 78.4199L18.7082 78.6361C18.7636 78.6382 18.8069 78.6844 18.8046 78.7392C18.8025 78.7926 18.7581 78.8345 18.7044 78.8345Z" fill="white"/>
<path d="M15.358 8.7788C21.2413 9.72491 41.4797 12.7046 58.3011 11.8705C59.0682 11.8324 59.7172 12.4232 59.7376 13.1821L61.4158 75.5102C61.4388 76.3648 60.76 77.0774 59.8956 77.1052C52.8242 77.3333 23.7046 78.1684 13.3621 76.823C12.7326 76.7411 12.2676 76.2033 12.2807 75.5758L13.6439 10.191C13.6624 9.30279 14.471 8.63616 15.358 8.7788Z" fill="#D0EBDA"/>
<path d="M16.9943 12.0364C22.4805 12.9187 41.3529 15.6973 57.0389 14.9194C57.7542 14.8839 58.3594 15.4348 58.3785 16.1425L59.9434 74.2638C59.9649 75.0607 59.3318 75.7251 58.5258 75.7511C51.9316 75.9638 24.7775 76.7425 15.133 75.4879C14.5461 75.4116 14.1125 74.91 14.1246 74.3249L15.3959 13.3532C15.4131 12.525 16.1671 11.9034 16.9943 12.0364Z" fill="#8CCDA5"/>
<path d="M39.7386 1.46556C38.2056 0.350702 36.847 0.336414 35.8835 0.590177C35.0046 0.821697 34.4171 1.63913 34.4761 2.53634L34.7691 6.99521L39.6634 7.55402C39.6634 7.55402 42.7451 3.65208 39.7386 1.46556ZM37.485 4.99758C36.8094 4.97987 36.2762 4.42418 36.2941 3.7564C36.312 3.08859 36.8742 2.56156 37.5498 2.57924C38.2254 2.59697 38.7586 3.15266 38.7406 3.82044C38.7227 4.48829 38.1606 5.01528 37.485 4.99758Z" fill="#368268"/>
<path d="M35.2231 5.24329C35.1386 5.21015 35.0763 5.1312 35.07 5.0354L35.0234 4.32522C35.0147 4.19283 35.1162 4.07865 35.2501 4.07002C35.3839 4.06118 35.4999 4.1614 35.5085 4.29426L35.5551 5.00441C35.5638 5.1368 35.4623 5.25101 35.3284 5.25955C35.2913 5.26197 35.2555 5.25602 35.2231 5.24329ZM35.1317 3.85172C35.0472 3.81858 34.9849 3.73969 34.9787 3.64383L34.9432 3.10467C34.8832 2.1914 35.486 1.35847 36.3766 1.12377C36.9861 0.963184 37.6104 0.954051 38.2319 1.09696C38.3605 1.12869 38.4441 1.2561 38.4135 1.38548C38.3831 1.51466 38.2525 1.5952 38.1217 1.56512C37.5788 1.44013 37.0337 1.44805 36.5018 1.58813C35.8348 1.7638 35.3833 2.38842 35.4283 3.0737L35.4638 3.61293C35.4724 3.74532 35.371 3.85947 35.2371 3.86807C35.1999 3.8704 35.1642 3.86445 35.1317 3.85172Z" fill="#BDD0FB"/>
<path d="M27.9963 9.69434L28.0563 7.45797C28.0769 6.68599 28.7408 6.08464 29.5207 6.13154L45.1049 7.06831C45.7966 7.10988 46.3427 7.66471 46.3658 8.34923L46.4386 10.5015L27.9963 9.69434Z" fill="#368268"/>
<path d="M28.773 9.12069C28.6809 9.08457 28.6169 8.99461 28.6197 8.89094L28.644 7.98622C28.6538 7.61476 28.8095 7.26941 29.0823 7.01365C29.3552 6.75791 29.7124 6.62234 30.0883 6.63215L32.5545 6.69684C32.688 6.70076 32.7946 6.81067 32.7909 6.94353C32.7874 7.07619 32.6757 7.18083 32.5415 7.17741L30.0753 7.11266C29.5675 7.09937 29.1433 7.49696 29.1299 7.99903L29.1056 8.90375C29.102 9.03641 28.9903 9.14105 28.8561 9.13763C28.8268 9.13675 28.7988 9.13083 28.773 9.12069Z" fill="#BDD0FB"/>
<path d="M23.1308 8.74795L50.4075 9.46163C51.3883 9.48726 52.2081 10.2069 52.3498 11.1666L52.3694 11.299C52.5246 12.3501 51.6839 13.2859 50.6096 13.2577L22.6253 12.5248C21.9824 12.508 21.4843 11.9632 21.5321 11.3292L21.6255 10.0927C21.6839 9.31929 22.3464 8.72748 23.1308 8.74795Z" fill="#368268"/>
<path d="M56.8649 68.3103C56.8604 68.7704 56.5428 69.1445 56.1551 69.1459L18.0367 69.2895C17.6104 69.2912 17.2651 68.9009 17.2657 68.4178L17.2659 68.3448C17.2666 67.8615 17.6131 67.4692 18.0395 67.4685L56.172 67.4085C56.5597 67.4079 56.8701 67.7805 56.8656 68.2407L56.8649 68.3103Z" fill="#368268"/>
<path d="M56.8649 72.2251C56.8604 72.6852 56.5428 73.0593 56.1551 73.0607L18.0367 73.2043C17.6104 73.206 17.2651 72.8157 17.2657 72.3326L17.2659 72.2595C17.2666 71.7763 17.6131 71.384 18.0395 71.3833L56.172 71.3233C56.5597 71.3227 56.8701 71.6953 56.8656 72.1555L56.8649 72.2251Z" fill="#368268"/>
<path d="M57.0109 44.0714C57.0064 44.5315 56.6888 44.9056 56.3011 44.9071L18.1827 45.0507C17.7564 45.0523 17.4111 44.6621 17.4117 44.1789L17.4119 44.1059C17.4125 43.6227 17.7591 43.2303 18.1855 43.2297L56.318 43.1697C56.7057 43.1691 57.0161 43.5417 57.0116 44.0019L57.0109 44.0714Z" fill="#368268"/>
<path d="M46.5113 17.927C46.4974 18.3869 46.3387 18.7595 46.1567 18.7593C40.7286 18.899 34.7438 18.7108 28.4381 18.3335C28.2378 18.3333 27.8978 18.3503 27.9105 17.8674L27.9124 17.7944C27.9251 17.3113 28.2494 16.5778 28.4497 16.5789C35.0767 17.2222 41.0444 17.4037 46.2089 17.0227C46.3911 17.0237 46.5273 17.3975 46.5134 17.8575L46.5113 17.927Z" fill="#368268"/>
<path d="M56.1979 53.8087C56.1933 54.2688 56.0422 54.6444 55.8601 54.6479L37.957 54.9861C37.7568 54.9899 37.5967 54.6014 37.5995 54.1183L37.5999 54.0453C37.6028 53.5621 37.7676 53.168 37.9679 53.1652L55.8771 52.9105C56.0592 52.9079 56.203 53.2789 56.1985 53.7391L56.1979 53.8087Z" fill="#368268"/>
<path d="M56.2286 57.6812C56.2241 58.1413 56.073 58.5169 55.8909 58.5204L37.9878 58.8586C37.7876 58.8624 37.6275 58.4739 37.6303 57.9908L37.6307 57.9178C37.6336 57.4346 37.7984 57.0405 37.9987 57.0376L55.9079 56.783C56.09 56.7804 56.2338 57.1514 56.2293 57.6116L56.2286 57.6812Z" fill="#368268"/>
<path d="M56.2081 61.2936C56.2036 61.7537 56.0524 62.1294 55.8704 62.1328L37.9673 62.471C37.7671 62.4748 37.6069 62.0863 37.6098 61.6033L37.6102 61.5302C37.6131 61.047 37.7779 60.6529 37.9782 60.6501L55.8874 60.3954C56.0695 60.3928 56.2133 60.7638 56.2088 61.224L56.2081 61.2936Z" fill="#368268"/>
<path d="M33.4426 64.0472H19.396C18.4531 64.0472 17.6887 63.2917 17.6887 62.3596V50.8685C17.6887 49.9365 18.4531 49.181 19.396 49.181H33.4426C34.3855 49.181 35.1499 49.9365 35.1499 50.8685V62.3596C35.1499 63.2917 34.3855 64.0472 33.4426 64.0472Z" fill="#368268"/>
<path opacity="0.57" d="M21.0053 38.0755C20.939 38.0754 20.8725 38.0522 20.8211 38.0057C20.7163 37.911 20.7138 37.7552 20.8156 37.658L29.463 29.3959C29.5513 29.3116 29.6926 29.302 29.7958 29.3732L34.2026 32.4193L42.1667 25.4239C42.2518 25.3491 42.3815 25.3443 42.4762 25.4123L46.7632 28.488L53.0875 21.9355C53.1753 21.8445 53.3239 21.8434 53.4193 21.9331C53.5146 22.0228 53.5208 22.1693 53.433 22.2603L46.9729 28.962C46.8907 29.0473 46.7547 29.0583 46.6559 28.9875L42.3546 25.906L34.3963 32.906C34.3087 32.9831 34.1754 32.99 34.0778 32.9226L29.6775 29.8856L21.1948 38.0012C21.1431 38.0507 21.0743 38.0755 21.0053 38.0755Z" fill="white"/>
<path d="M29.5541 28.6897C28.9875 28.7103 28.5527 29.1397 28.584 29.6486C28.6154 30.1575 29.1009 30.5518 29.6673 30.5293C30.2327 30.5069 30.6649 30.0778 30.6337 29.5707C30.6025 29.0637 30.1196 28.6692 29.5541 28.6897Z" fill="white"/>
<path d="M20.8825 36.9704C20.2977 36.9999 19.8487 37.4429 19.8808 37.9599C19.9129 38.4768 20.4136 38.8703 20.9982 38.8389C21.5816 38.8075 22.0279 38.3647 21.9959 37.8497C21.9641 37.3346 21.466 36.9409 20.8825 36.9704Z" fill="white"/>
<path d="M34.1321 31.8587C33.5746 31.8823 33.147 32.3107 33.178 32.8155C33.209 33.3203 33.6867 33.7088 34.2441 33.6833C34.8003 33.6579 35.2254 33.2296 35.1945 32.7267C35.1637 32.2237 34.6885 31.8351 34.1321 31.8587Z" fill="white"/>
<path d="M46.7054 27.7989C46.1731 27.818 45.7652 28.2333 45.7953 28.7266C45.8252 29.2198 46.2816 29.6027 46.8137 29.5818C47.3447 29.561 47.7503 29.1458 47.7204 28.6544C47.6906 28.1629 47.2365 27.7798 46.7054 27.7989Z" fill="white"/>
<path d="M54.1619 22.1161C54.1325 21.6305 53.6894 21.247 53.171 21.2595C52.6517 21.2719 52.2539 21.677 52.2834 22.1643C52.3129 22.6515 52.7584 23.0349 53.2775 23.0208C53.7957 23.0066 54.1912 22.6016 54.1619 22.1161Z" fill="white"/>
<path d="M42.2427 24.744C41.7018 24.7602 41.287 25.1765 41.3174 25.6738C41.3477 26.1711 41.8115 26.5596 42.3523 26.5416C42.892 26.5236 43.3043 26.1075 43.2741 25.612C43.244 25.1165 42.7826 24.7278 42.2427 24.744Z" fill="white"/>
<path opacity="0.74" d="M56.8781 40.5174H18.822C18.4459 40.5174 18.0943 40.3706 17.8321 40.104C17.57 39.8374 17.4314 39.4859 17.4421 39.1142L17.9118 22.7409C17.9166 22.5764 18.0569 22.4494 18.2215 22.4516C18.3878 22.4563 18.5188 22.5933 18.5141 22.7577L18.0445 39.1311C18.0384 39.3405 18.1164 39.5386 18.2642 39.6888C18.4119 39.8391 18.61 39.9218 18.822 39.9218H56.8781C57.0445 39.9218 57.1794 40.0551 57.1794 40.2196C57.1794 40.3841 57.0445 40.5174 56.8781 40.5174Z" fill="white"/>
<path d="M44.2026 42.5638C44.0144 49.207 43.4041 72.122 43.6954 80.2424C43.7263 81.1027 44.5143 81.7931 45.4974 81.8213C50.3592 81.9605 68.1826 82.3135 76.135 82.0215C77.7914 81.9606 79.1085 80.7866 79.1429 79.336C79.3082 72.3631 79.6728 52.751 78.8062 43.7666C78.7023 42.6902 77.7369 41.833 76.5086 41.7254C71.2138 41.2619 53.3137 40.1288 46.4434 40.519C45.2043 40.5893 44.2333 41.4775 44.2026 42.5638Z" fill="#368268"/>
<path d="M45.5991 45.4929V51.1227C45.5991 52.2023 46.4845 53.0776 47.5767 53.0776H74.7887C75.8809 53.0776 76.7663 52.2023 76.7663 51.1227V45.4929C76.7663 44.4132 75.8809 43.538 74.7887 43.538H47.5767C46.4845 43.538 45.5991 44.4133 45.5991 45.4929Z" fill="#8CCDA5"/>
<path opacity="0.2" d="M75.3783 45.4605C75.1377 45.2146 74.8081 45.0734 74.4621 45.068L48.9994 44.6681C48.3187 44.6574 47.7444 45.1663 47.6809 45.8363L47.1518 51.4202C47.1085 51.8774 47.8694 52.2623 48.8395 52.274L73.8729 52.5738C74.8415 52.5854 75.6423 52.2203 75.6503 51.7633L75.7447 46.3787C75.7507 46.0367 75.6189 45.7063 75.3783 45.4605Z" fill="#14552D"/>
<path d="M52.4021 58.7856C52.4021 59.7788 51.5875 60.584 50.5827 60.584H48.3677C47.3629 60.584 46.5483 59.7788 46.5483 58.7856C46.5483 57.7923 47.3629 56.9871 48.3677 56.9871H50.5827C51.5875 56.9871 52.4021 57.7923 52.4021 58.7856Z" fill="#8CCDA5"/>
<path d="M60.6288 58.7856C60.6288 59.7788 59.8142 60.584 58.8094 60.584H56.5944C55.5896 60.584 54.775 59.7788 54.775 58.7856C54.775 57.7923 55.5896 56.9871 56.5944 56.9871H58.8094C59.8142 56.9871 60.6288 57.7923 60.6288 58.7856Z" fill="#8CCDA5"/>
<path d="M68.5394 58.7856C68.5394 59.7788 67.7248 60.584 66.72 60.584H64.5051C63.5002 60.584 62.6857 59.7788 62.6857 58.7856C62.6857 57.7923 63.5003 56.9871 64.5051 56.9871H66.72C67.7248 56.9871 68.5394 57.7923 68.5394 58.7856Z" fill="#8CCDA5"/>
<path d="M76.5581 59.0496C76.5581 60.0589 75.7304 60.8772 74.7093 60.8772H72.5685C71.5474 60.8772 70.7196 60.0589 70.7196 59.0496C70.7196 58.0403 71.5474 57.222 72.5685 57.222H74.7093C75.7304 57.222 76.5581 58.0403 76.5581 59.0496Z" fill="url(#paint1_linear_3_1386)"/>
<path d="M52.4021 64.4155C52.4021 65.4087 51.5875 66.2139 50.5827 66.2139H48.3677C47.3629 66.2139 46.5483 65.4087 46.5483 64.4155C46.5483 63.4222 47.3629 62.6171 48.3677 62.6171H50.5827C51.5875 62.6171 52.4021 63.4222 52.4021 64.4155Z" fill="#8CCDA5"/>
<path d="M60.6288 64.4155C60.6288 65.4087 59.8142 66.2139 58.8094 66.2139H56.5944C55.5896 66.2139 54.775 65.4087 54.775 64.4155C54.775 63.4222 55.5896 62.6171 56.5944 62.6171H58.8094C59.8142 62.6171 60.6288 63.4222 60.6288 64.4155Z" fill="#8CCDA5"/>
<path d="M68.5394 64.4155C68.5394 65.4087 67.7248 66.2139 66.72 66.2139H64.5051C63.5002 66.2139 62.6857 65.4087 62.6857 64.4155C62.6857 63.4222 63.5003 62.6171 64.5051 62.6171H66.72C67.7248 62.6171 68.5394 63.4222 68.5394 64.4155Z" fill="#8CCDA5"/>
<path d="M76.7662 64.4155C76.7662 65.4087 75.9516 66.2139 74.9468 66.2139H72.7319C71.727 66.2139 70.9125 65.4087 70.9125 64.4155C70.9125 63.4222 71.7271 62.6171 72.7319 62.6171H74.9468C75.9516 62.6171 76.7662 63.4222 76.7662 64.4155Z" fill="#8CCDA5"/>
<path d="M52.4021 69.4015C52.4021 70.3947 51.5875 71.1999 50.5827 71.1999H48.3677C47.3629 71.1999 46.5483 70.3947 46.5483 69.4015C46.5483 68.4082 47.3629 67.603 48.3677 67.603H50.5827C51.5875 67.603 52.4021 68.4082 52.4021 69.4015Z" fill="#8CCDA5"/>
<path d="M60.6288 69.4015C60.6288 70.3947 59.8142 71.1999 58.8094 71.1999H56.5944C55.5896 71.1999 54.775 70.3947 54.775 69.4015C54.775 68.4082 55.5896 67.603 56.5944 67.603H58.8094C59.8142 67.603 60.6288 68.4082 60.6288 69.4015Z" fill="#8CCDA5"/>
<path d="M68.5394 69.4015C68.5394 70.3947 67.7248 71.1999 66.72 71.1999H64.5051C63.5002 71.1999 62.6857 70.3947 62.6857 69.4015C62.6857 68.4082 63.5003 67.603 64.5051 67.603H66.72C67.7248 67.603 68.5394 68.4082 68.5394 69.4015Z" fill="#8CCDA5"/>
<path d="M52.4021 74.875C52.4021 75.8682 51.5875 76.6734 50.5827 76.6734H48.3677C47.3629 76.6734 46.5483 75.8682 46.5483 74.875C46.5483 73.8817 47.3629 73.0765 48.3677 73.0765H50.5827C51.5875 73.0765 52.4021 73.8817 52.4021 74.875Z" fill="#8CCDA5"/>
<path d="M60.6288 74.875C60.6288 75.8682 59.8142 76.6734 58.8094 76.6734H56.5944C55.5896 76.6734 54.775 75.8682 54.775 74.875C54.775 73.8817 55.5896 73.0765 56.5944 73.0765H58.8094C59.8142 73.0765 60.6288 73.8817 60.6288 74.875Z" fill="#8CCDA5"/>
<path d="M68.5394 74.875C68.5394 75.8682 67.7248 76.6734 66.72 76.6734H64.5051C63.5002 76.6734 62.6857 75.8682 62.6857 74.875C62.6857 73.8817 63.5003 73.0765 64.5051 73.0765H66.72C67.7248 73.0765 68.5394 73.8817 68.5394 74.875Z" fill="#8CCDA5"/>
<path d="M75.9754 74.7281C75.9754 75.9854 74.9443 77.0045 73.6724 77.0045H73.5321C72.2602 77.0045 71.2291 75.9853 71.2291 74.7281V70.367C71.2291 69.1098 72.2602 68.0906 73.5321 68.0906H73.6724C74.9443 68.0906 75.9754 69.1098 75.9754 70.367V74.7281Z" fill="#8CCDA5"/>
<path d="M32.7657 82.4859C36.3866 82.4859 39.322 79.5844 39.322 76.0052C39.322 72.426 36.3866 69.5245 32.7657 69.5245C29.1448 69.5245 26.2095 72.426 26.2095 76.0052C26.2095 79.5844 29.1448 82.4859 32.7657 82.4859Z" fill="#368268"/>
<path d="M32.7658 82.2704C36.2663 82.2704 39.104 79.4654 39.104 76.0053C39.104 72.5451 36.2663 69.7401 32.7658 69.7401C29.2653 69.7401 26.4276 72.5451 26.4276 76.0053C26.4276 79.4654 29.2653 82.2704 32.7658 82.2704Z" fill="#8CCDA5"/>
<path opacity="0.66" d="M27.5392 73.502C27.524 73.502 27.5086 73.4986 27.4941 73.4913C27.4445 73.4667 27.4246 73.4069 27.4496 73.358C28.4687 71.3623 30.5058 70.1226 32.7657 70.1226C33.1264 70.1226 33.4875 70.1547 33.8393 70.218C33.8938 70.2278 33.93 70.2795 33.92 70.3335C33.9101 70.3875 33.8585 70.4231 33.8032 70.4133C33.4634 70.3521 33.1143 70.3211 32.7657 70.3211C30.582 70.3211 28.6136 71.519 27.6289 73.4474C27.6113 73.4821 27.5759 73.502 27.5392 73.502Z" fill="white"/>
<path opacity="0.59" d="M36.6962 79.891C38.7911 77.8202 38.7911 74.4628 36.6962 72.3919C34.6012 70.3211 31.2046 70.3211 29.1097 72.3919C27.0147 74.4628 27.0147 77.8202 29.1097 79.891C31.2046 81.9618 34.6012 81.9618 36.6962 79.891Z" fill="white"/>
<path d="M32.3775 80.0839V79.507C31.7691 79.4829 31.1673 79.341 30.7399 79.156C30.5872 79.09 30.5095 78.9207 30.5533 78.7618L30.7016 78.2244C30.756 78.0273 30.9728 77.9253 31.1635 78.0043C31.5874 78.18 32.111 78.319 32.6755 78.319C33.2615 78.319 33.6985 78.1226 33.6985 77.7201C33.6985 77.3568 33.3608 77.1408 32.5464 76.9249C31.3843 76.6107 30.5499 76.1099 30.5499 75.0987C30.5499 74.1856 31.2254 73.4885 32.3974 73.302V72.7251C32.3974 72.5394 32.5496 72.3889 32.7374 72.3889H33.0804C33.2681 72.3889 33.4204 72.5394 33.4204 72.7251V73.2431C33.9834 73.2653 34.3932 73.3605 34.7184 73.4735C34.8851 73.5314 34.9761 73.7088 34.9299 73.8773L34.7935 74.3743C34.741 74.5659 34.5337 74.6709 34.3459 74.6007C34.0464 74.4887 33.6231 74.3722 33.0728 74.3722C32.3775 74.3722 32.1789 74.6569 32.1789 74.9122C32.1789 75.2264 32.596 75.4423 33.4999 75.7173C34.7911 76.1002 35.3275 76.6303 35.3275 77.5827C35.3275 78.4565 34.6719 79.2419 33.4006 79.4383V80.0839C33.4006 80.2696 33.2483 80.4201 33.0605 80.4201H32.7175C32.5298 80.42 32.3775 80.2695 32.3775 80.0839Z" fill="#8CCDA5"/>
<path d="M25.7802 82.4859C29.4012 82.4859 32.3365 79.5844 32.3365 76.0052C32.3365 72.426 29.4012 69.5245 25.7802 69.5245C22.1593 69.5245 19.224 72.426 19.224 76.0052C19.224 79.5844 22.1593 82.4859 25.7802 82.4859Z" fill="#368268"/>
<path d="M25.7803 82.2704C29.2808 82.2704 32.1185 79.4654 32.1185 76.0053C32.1185 72.5451 29.2808 69.7401 25.7803 69.7401C22.2798 69.7401 19.4421 72.5451 19.4421 76.0053C19.4421 79.4654 22.2798 82.2704 25.7803 82.2704Z" fill="#8CCDA5"/>
<path opacity="0.66" d="M20.5537 73.502C20.5385 73.502 20.5231 73.4986 20.5086 73.4913C20.4591 73.4667 20.4392 73.4069 20.4642 73.358C21.4832 71.3623 23.5203 70.1226 25.7803 70.1226C26.1409 70.1226 26.502 70.1547 26.8538 70.218C26.9083 70.2278 26.9445 70.2795 26.9345 70.3335C26.9246 70.3875 26.8732 70.4231 26.8177 70.4133C26.4779 70.3521 26.1288 70.3211 25.7803 70.3211C23.5965 70.3211 21.6282 71.519 20.6434 73.4474C20.6258 73.4821 20.5904 73.502 20.5537 73.502Z" fill="white"/>
<path opacity="0.59" d="M29.7108 79.8909C31.8058 77.8201 31.8058 74.4626 29.7108 72.3918C27.6159 70.321 24.2193 70.321 22.1243 72.3918C20.0294 74.4626 20.0294 77.8201 22.1243 79.8909C24.2193 81.9617 27.6159 81.9617 29.7108 79.8909Z" fill="white"/>
<path d="M25.3921 80.0839V79.507C24.7837 79.4829 24.1819 79.341 23.7545 79.156C23.6019 79.09 23.5241 78.9207 23.5679 78.7618L23.7162 78.2244C23.7706 78.0273 23.9875 77.9253 24.1781 78.0043C24.6021 78.18 25.1256 78.319 25.6901 78.319C26.2761 78.319 26.7132 78.1226 26.7132 77.7201C26.7132 77.3568 26.3755 77.1408 25.561 76.9249C24.3989 76.6107 23.5646 76.1099 23.5646 75.0987C23.5646 74.1856 24.24 73.4885 25.412 73.302V72.7251C25.412 72.5394 25.5643 72.3889 25.7521 72.3889H26.095C26.2828 72.3889 26.435 72.5394 26.435 72.7251V73.2431C26.998 73.2653 27.4078 73.3605 27.7331 73.4735C27.8997 73.5314 27.9907 73.7088 27.9445 73.8773L27.8082 74.3743C27.7556 74.5659 27.5484 74.6709 27.3605 74.6007C27.0611 74.4887 26.6377 74.3722 26.0874 74.3722C25.3921 74.3722 25.1935 74.6569 25.1935 74.9122C25.1935 75.2264 25.6106 75.4423 26.5145 75.7173C27.8058 76.1002 28.3421 76.6303 28.3421 77.5827C28.3421 78.4565 27.6865 79.2419 26.4152 79.4383V80.0839C26.4152 80.2696 26.2629 80.4201 26.0751 80.4201H25.7322C25.5444 80.42 25.3921 80.2695 25.3921 80.0839Z" fill="#8CCDA5"/>
<path d="M18.7946 82.4859C22.4156 82.4859 25.3509 79.5844 25.3509 76.0052C25.3509 72.426 22.4156 69.5245 18.7946 69.5245C15.1737 69.5245 12.2384 72.426 12.2384 76.0052C12.2384 79.5844 15.1737 82.4859 18.7946 82.4859Z" fill="#368268"/>
<path d="M18.7949 82.2704C22.2954 82.2704 25.1331 79.4654 25.1331 76.0053C25.1331 72.5451 22.2954 69.7401 18.7949 69.7401C15.2944 69.7401 12.4567 72.5451 12.4567 76.0053C12.4567 79.4654 15.2944 82.2704 18.7949 82.2704Z" fill="#8CCDA5"/>
<path opacity="0.66" d="M13.5682 73.502C13.5531 73.502 13.5376 73.4986 13.5231 73.4913C13.4736 73.4667 13.4537 73.4069 13.4787 73.358C14.4978 71.3623 16.5348 70.1226 18.7947 70.1226C19.1554 70.1226 19.5165 70.1547 19.8683 70.218C19.9229 70.2278 19.9591 70.2795 19.949 70.3335C19.9391 70.3875 19.8877 70.4231 19.8322 70.4133C19.4924 70.3521 19.1434 70.3211 18.7947 70.3211C16.611 70.3211 14.6427 71.519 13.658 73.4474C13.6403 73.4821 13.6049 73.502 13.5682 73.502Z" fill="white"/>
<path opacity="0.59" d="M22.7252 79.8909C24.8202 77.8201 24.8202 74.4626 22.7252 72.3918C20.6303 70.321 17.2337 70.321 15.1387 72.3918C13.0438 74.4626 13.0438 77.8201 15.1387 79.8909C17.2337 81.9617 20.6303 81.9617 22.7252 79.8909Z" fill="white"/>
<path d="M18.4063 80.0838V79.5069C17.7979 79.4829 17.1961 79.3409 16.7687 79.1559C16.616 79.0899 16.5382 78.9206 16.5821 78.7617L16.7304 78.2244C16.7848 78.0272 17.0017 77.9253 17.1923 78.0042C17.6163 78.1799 18.1398 78.3189 18.7043 78.3189C19.2903 78.3189 19.7274 78.1225 19.7274 77.72C19.7274 77.3567 19.3897 77.1408 18.5752 76.9248C17.4131 76.6106 16.5788 76.1099 16.5788 75.0986C16.5788 74.1855 17.2542 73.4885 18.4262 73.3019V72.725C18.4262 72.5393 18.5785 72.3889 18.7663 72.3889H19.1092C19.297 72.3889 19.4493 72.5393 19.4493 72.725V73.243C20.0123 73.2653 20.4221 73.3605 20.7473 73.4734C20.9139 73.5313 21.005 73.7087 20.9587 73.8772L20.8224 74.3742C20.7698 74.5659 20.5626 74.6708 20.3747 74.6006C20.0753 74.4887 19.652 74.3721 19.1017 74.3721C18.4064 74.3721 18.2077 74.6568 18.2077 74.9121C18.2077 75.2263 18.6249 75.4423 19.5287 75.7173C20.82 76.1001 21.3563 76.6303 21.3563 77.5826C21.3563 78.4564 20.7008 79.2419 19.4295 79.4383V80.0839C19.4295 80.2695 19.2772 80.42 19.0894 80.42H18.7464C18.5586 80.42 18.4063 80.2695 18.4063 80.0838Z" fill="#8CCDA5"/>
<path d="M9.76809 82.4859C14.5163 82.4859 18.3655 78.6811 18.3655 73.9875C18.3655 69.294 14.5163 65.4892 9.76809 65.4892C5.01986 65.4892 1.17065 69.294 1.17065 73.9875C1.17065 78.6811 5.01986 82.4859 9.76809 82.4859Z" fill="#368268"/>
<path d="M9.76811 82.2034C14.3585 82.2034 18.0797 78.5251 18.0797 73.9876C18.0797 69.4502 14.3585 65.7719 9.76811 65.7719C5.17776 65.7719 1.45654 69.4502 1.45654 73.9876C1.45654 78.5251 5.17776 82.2034 9.76811 82.2034Z" fill="#8CCDA5"/>
<path opacity="0.66" d="M2.91456 70.6741C2.89936 70.6741 2.88395 70.6707 2.86944 70.6634C2.81991 70.6388 2.8 70.579 2.82501 70.5301C4.15605 67.9236 6.81657 66.3043 9.76827 66.3043C10.2393 66.3043 10.711 66.3462 11.1705 66.429C11.2251 66.4388 11.2612 66.4905 11.2512 66.5444C11.2413 66.5984 11.19 66.6339 11.1344 66.6243C10.6869 66.5437 10.2273 66.5028 9.76827 66.5028C6.89278 66.5028 4.30099 68.0803 3.00427 70.6196C2.98666 70.6542 2.95125 70.6741 2.91456 70.6741Z" fill="white"/>
<path opacity="0.78" d="M14.9228 79.0831C17.67 76.3676 17.67 71.9648 14.9228 69.2493C12.1756 66.5337 7.72146 66.5337 4.97425 69.2493C2.22705 71.9648 2.22705 76.3676 4.97425 79.0831C7.72146 81.7987 12.1756 81.7987 14.9228 79.0831Z" fill="white"/>
<path d="M9.25905 79.336V78.5796C8.46123 78.548 7.67205 78.3618 7.11155 78.1193C6.91143 78.0327 6.80938 77.8107 6.86687 77.6023L7.06133 76.8976C7.13265 76.6392 7.41706 76.5054 7.66707 76.609C8.22307 76.8394 8.90958 77.0217 9.64982 77.0217C10.4183 77.0217 10.9914 76.7641 10.9914 76.2363C10.9914 75.76 10.5485 75.4767 9.48051 75.1935C7.95664 74.7815 6.86249 74.1249 6.86249 72.7988C6.86249 71.6014 7.74823 70.6873 9.28512 70.4427V69.6861C9.28512 69.4427 9.48477 69.2453 9.73106 69.2453H10.1807C10.427 69.2453 10.6267 69.4426 10.6267 69.6861V70.3654C11.3649 70.3946 11.9023 70.5194 12.3288 70.6675C12.5473 70.7434 12.6667 70.9761 12.6061 71.1971L12.4273 71.8488C12.3584 72.1001 12.0866 72.2377 11.8403 72.1456C11.4476 71.9989 10.8924 71.8461 10.1708 71.8461C9.25904 71.8461 8.9986 72.2194 8.9986 72.5541C8.9986 72.9661 9.54563 73.2493 10.7309 73.6099C12.4241 74.112 13.1275 74.8072 13.1275 76.056C13.1275 77.2019 12.2678 78.2319 10.6007 78.4894V79.3361C10.6007 79.5795 10.401 79.7769 10.1547 79.7769H9.70498C9.45872 79.7769 9.25905 79.5795 9.25905 79.336Z" fill="#8CCDA5"/>
<path d="M36.0308 49.1807C36.0438 49.1757 43.0533 37.0419 44.0005 35.9C44.1599 35.7079 44.4065 35.6101 44.656 35.6395L46.6125 35.8699L48.9109 40.785L45.0818 38.5807C45.4607 41.1709 40.5416 45.0204 38.8546 46.425C38.6834 46.5675 38.6694 46.8229 38.824 46.9829L39.4975 47.6798C38.3918 48.7876 37.1158 49.499 35.6758 49.8281L36.0308 49.1807Z" fill="url(#paint2_linear_3_1386)"/>
<path d="M39.1082 47.3038C39.1082 47.3038 39.5381 47.441 39.6836 47.8195C39.7532 48.0005 39.6782 48.2056 39.5189 48.3184C38.8111 48.8196 36.4763 50.4379 35.3989 50.7549C35.3106 50.7808 35.2266 50.7019 35.2465 50.6129C35.3018 50.3655 35.4806 49.8715 36.0568 49.1482L36.0051 49.2516C35.9397 49.3824 36.0838 49.5186 36.2123 49.4468C36.9329 49.0447 38.4007 48.1646 39.1082 47.3038Z" fill="url(#paint3_linear_3_1386)"/>
<path d="M38.761 52.1588C38.7728 52.1513 39.8244 49.6467 39.8362 49.6393C40.8004 43.8362 43.153 38.8663 43.8468 37.5585C43.9635 37.3386 44.185 37.1935 44.4354 37.1723L46.3986 37.0067L49.6557 41.3602L45.4545 39.9675C46.3559 42.4284 42.3268 47.1822 40.9622 48.8952C40.8238 49.069 40.8622 49.3219 41.0464 49.4477L41.8487 49.9954C40.9927 51.3016 39.8888 52.2535 38.5459 52.8637L38.761 52.1588Z" fill="url(#paint4_linear_3_1386)"/>
<path d="M41.3901 49.705C41.3901 49.705 41.8392 49.7534 42.0592 50.0949C42.1644 50.2583 42.1329 50.4742 42 50.6165C41.4095 51.249 39.4544 53.3008 38.4641 53.8267C38.383 53.8699 38.2845 53.8093 38.2858 53.7183C38.2893 53.4649 38.3633 52.9453 38.7794 52.1218L38.75 52.2333C38.7127 52.3745 38.8817 52.479 38.9929 52.3831C39.6163 51.8451 40.8735 50.6896 41.3901 49.705Z" fill="url(#paint5_linear_3_1386)"/>
<path d="M55.5878 36.0897C55.5878 36.0897 57.3638 38.7008 57.5095 39.8918C57.6553 41.0828 57.0184 41.4948 55.1596 41.6466C49.6281 42.0986 46.9013 40.4599 46.9013 40.4599C46.5229 38.0751 46.2537 37.4684 43.0934 36.1717C43.0934 36.1717 47.0906 36.4854 47.895 36.1768C48.6995 35.8682 55.5878 36.0897 55.5878 36.0897Z" fill="url(#paint6_linear_3_1386)"/>
<path d="M48.5061 21.4611C48.5061 21.4611 49.743 20.0145 51.0581 21.7894C51.2962 22.1108 52.211 21.8456 52.5463 22.5185C52.7195 22.8659 53.0935 23.0632 53.4788 22.993C54.4384 22.818 56.0068 22.8033 56.7812 24.2897C57.3724 25.4243 56.916 26.0883 56.3251 26.4668C55.8911 26.7449 55.7362 27.3094 55.9987 27.7498C56.2504 28.1723 56.2977 28.7445 55.6478 29.433C54.1913 30.9761 51.3081 28.4538 51.3081 28.4538L49.0189 23.1067L48.5061 21.4611Z" fill="#368268"/>
<path d="M50.7852 35.7441C50.7852 35.7441 48.7171 33.7975 47.6991 32.5083C47.1488 31.8113 46.976 30.8939 47.2305 30.0463C47.6953 28.4985 48.5213 26.8954 48.5966 26.6459C48.7121 26.2635 51.0309 26.2794 51.0309 26.2794C51.0309 26.2794 55.594 29.2068 57.3869 34.1655L55.3734 34.7851C55.3734 34.7851 54.182 32.8093 53.0048 31.5531C53.0048 31.5531 55.0418 34.213 55.1135 35.3019L50.7852 35.7441Z" fill="url(#paint7_linear_3_1386)"/>
<path d="M46.8447 36.5123L48.3987 34.8411L50.1934 35.3187C50.1934 35.3187 52.2857 35.6392 53.4832 35.3187C54.6807 34.9983 54.6807 34.9983 54.6807 34.9983L57.3868 34.1655L57.8118 35.3528C57.9197 35.6543 57.8112 35.9889 57.5476 36.1741C57.3134 36.3386 57.039 36.5193 56.8641 36.595C56.5077 36.7491 48.6548 36.6437 48.6548 36.6437L46.8447 36.5123Z" fill="url(#paint8_linear_3_1386)"/>
<path d="M49.437 23.5234L50.9955 26.3881C50.8926 27.0135 49.2993 27.0311 49.0531 26.6577C49.0281 26.6197 49.0138 26.5757 49.0042 26.5314L48.0719 24.6172C48.0319 24.4306 48.5495 23.8016 48.7199 23.712L49.3394 23.3861C49.578 23.2606 48.5827 23.2507 49.437 23.5234Z" fill="url(#paint9_linear_3_1386)"/>
<path d="M46.2831 22.8511C46.2831 22.8511 46.1071 23.819 46.8767 25.0495C47.6463 26.2801 48.4127 26.2245 48.802 25.7857C49.1914 25.3468 49.6577 24.6159 49.4455 23.3885C49.2333 22.1612 46.5489 21.6169 46.2831 22.8511Z" fill="url(#paint10_linear_3_1386)"/>
<path d="M48.5138 23.522C48.5138 23.522 47.2677 21.904 46.3109 23.3145L46.3271 23.8017C46.3271 23.8017 45.083 23.7442 45.2179 22.6107C45.3528 21.4772 46.3685 20.7029 47.7766 21.0902C49.1847 21.4774 50.0075 21.9185 50.1665 22.8848C50.3255 23.8512 49.5272 23.6933 49.5272 23.6933C49.5272 23.6933 49.2223 23.0265 48.8541 22.981C48.4859 22.9354 48.619 23.4629 48.619 23.4629L48.5138 23.522Z" fill="#368268"/>
<path d="M48.7999 23.4789C48.7999 23.4789 48.1543 22.6509 48.7419 22.479C49.3295 22.3072 49.3076 23.2903 49.2693 23.6561L48.7999 23.4789Z" fill="url(#paint11_linear_3_1386)"/>
<path d="M51.9885 37.1737C51.9831 37.174 51.9776 37.1741 51.9721 37.1741L44.8245 37.1664C44.6478 37.1662 44.5047 37.0245 44.5049 36.8498C44.5051 36.6751 44.649 36.5308 44.8252 36.5339L51.9728 36.5416C52.1495 36.5418 52.2926 36.6835 52.2924 36.8582C52.2922 37.0274 52.1576 37.1654 51.9885 37.1737Z" fill="#368268"/>
<path d="M38.3993 30.759H44.3518C44.7909 30.759 45.1906 31.0095 45.3779 31.4021L48.1298 37.17H40.7324C40.4494 37.17 40.1952 36.9991 40.0911 36.7389L37.9572 31.4016C37.8339 31.0932 38.0638 30.759 38.3993 30.759Z" fill="#368268"/>
<path d="M42.5929 33.7164C42.7219 34.1125 42.6266 34.4972 42.3801 34.5757C42.1335 34.6541 41.8291 34.3966 41.7001 34.0004C41.5711 33.6043 41.6664 33.2196 41.9129 33.1412C42.1595 33.0627 42.4639 33.3202 42.5929 33.7164Z" fill="url(#paint12_linear_3_1386)"/>
<defs>
<linearGradient id="paint0_linear_3_1386" x1="94.7559" y1="106.399" x2="21.8409" y2="14.7878" gradientUnits="userSpaceOnUse">
<stop stop-color="#DAE3FE"/>
<stop offset="1" stop-color="#E9EFFD"/>
</linearGradient>
<linearGradient id="paint1_linear_3_1386" x1="80.9696" y1="47.5811" x2="72.607" y2="60.9708" gradientUnits="userSpaceOnUse">
<stop stop-color="#FF928E"/>
<stop offset="1" stop-color="#FE7062"/>
</linearGradient>
<linearGradient id="paint2_linear_3_1386" x1="34.3506" y1="39.0161" x2="45.3383" y2="45.3608" gradientUnits="userSpaceOnUse">
<stop stop-color="#FEBBBA"/>
<stop offset="1" stop-color="#FF928E"/>
</linearGradient>
<linearGradient id="paint3_linear_3_1386" x1="35.7956" y1="45.2504" x2="40.6756" y2="57.1991" gradientUnits="userSpaceOnUse">
<stop stop-color="#09005D"/>
<stop offset="1" stop-color="#1A0F91"/>
</linearGradient>
<linearGradient id="paint4_linear_3_1386" x1="35.4197" y1="40.5711" x2="-2.14323" y2="16.782" gradientUnits="userSpaceOnUse">
<stop stop-color="#FEBBBA"/>
<stop offset="1" stop-color="#FF928E"/>
</linearGradient>
<linearGradient id="paint5_linear_3_1386" x1="37.7257" y1="48.3572" x2="44.9227" y2="59.1" gradientUnits="userSpaceOnUse">
<stop stop-color="#09005D"/>
<stop offset="1" stop-color="#1A0F91"/>
</linearGradient>
<linearGradient id="paint6_linear_3_1386" x1="53.8932" y1="30.9139" x2="48.7033" y2="41.9463" gradientUnits="userSpaceOnUse">
<stop stop-color="#FF928E"/>
<stop offset="1" stop-color="#FE7062"/>
</linearGradient>
<linearGradient id="paint7_linear_3_1386" x1="42.6418" y1="17.2671" x2="53.0103" y2="34.2" gradientUnits="userSpaceOnUse">
<stop stop-color="#FF928E"/>
<stop offset="1" stop-color="#FE7062"/>
</linearGradient>
<linearGradient id="paint8_linear_3_1386" x1="51.6586" y1="39.7731" x2="53.7535" y2="28.3154" gradientUnits="userSpaceOnUse">
<stop stop-color="#FEBBBA"/>
<stop offset="1" stop-color="#FF928E"/>
</linearGradient>
<linearGradient id="paint9_linear_3_1386" x1="54.2879" y1="30.0789" x2="48.9284" y2="24.5901" gradientUnits="userSpaceOnUse">
<stop stop-color="#FEBBBA"/>
<stop offset="1" stop-color="#FF928E"/>
</linearGradient>
<linearGradient id="paint10_linear_3_1386" x1="49.6004" y1="26.905" x2="44.8969" y2="17.7987" gradientUnits="userSpaceOnUse">
<stop stop-color="#FEBBBA"/>
<stop offset="1" stop-color="#FF928E"/>
</linearGradient>
<linearGradient id="paint11_linear_3_1386" x1="50.6968" y1="26.3386" x2="45.9934" y2="17.2324" gradientUnits="userSpaceOnUse">
<stop stop-color="#FEBBBA"/>
<stop offset="1" stop-color="#FF928E"/>
</linearGradient>
<linearGradient id="paint12_linear_3_1386" x1="46.2349" y1="37.6935" x2="40.6634" y2="32.3446" gradientUnits="userSpaceOnUse">
<stop stop-color="#4F52FF"/>
<stop offset="1" stop-color="#4042E2"/>
</linearGradient>
</defs>
</svg>
