<svg width="84" height="84" viewBox="0 0 84 84" fill="none" xmlns="http://www.w3.org/2000/svg">
<path d="M84 64.2432H0V64.2852H84V64.2432Z" fill="#EBEBEB"/>
<path d="M75.5832 66.9463H71.9409V66.9883H75.5832V66.9463Z" fill="#EBEBEB"/>
<path d="M57.9046 66.076H52.1741V66.118H57.9046V66.076Z" fill="#EBEBEB"/>
<path d="M74.1081 65.3872H66.6271V65.4292H74.1081V65.3872Z" fill="#EBEBEB"/>
<path d="M29.0673 66.234H27.1958V66.276H29.0673V66.234Z" fill="#EBEBEB"/>
<path d="M25.6989 66.234H19.2494V66.276H25.6989V66.234Z" fill="#EBEBEB"/>
<path d="M15.7937 65.525H11.1401V65.567H15.7937V65.525Z" fill="#EBEBEB"/>
<path d="M39.816 56.7504H7.37691C7.12279 56.7499 6.87922 56.6487 6.69968 56.4688C6.52015 56.289 6.41931 56.0452 6.41931 55.7911V10.1909C6.42152 9.9382 6.52334 9.69661 6.70263 9.51857C6.88193 9.34053 7.12423 9.24042 7.37691 9.23999H39.816C40.0704 9.23999 40.3144 9.34106 40.4943 9.52096C40.6742 9.70086 40.7753 9.94485 40.7753 10.1993V55.7911C40.7753 56.0455 40.6742 56.2895 40.4943 56.4694C40.3144 56.6493 40.0704 56.7504 39.816 56.7504ZM7.37691 9.27359C7.13393 9.27404 6.90104 9.37087 6.72938 9.54285C6.55772 9.71482 6.46131 9.94788 6.46131 10.1909V55.7911C6.46131 56.0341 6.55772 56.2672 6.72938 56.4391C6.90104 56.6111 7.13393 56.7079 7.37691 56.7084H39.816C40.0592 56.7079 40.2922 56.6112 40.4642 56.4392C40.6361 56.2673 40.7329 56.0342 40.7333 55.7911V10.1909C40.7329 9.94773 40.6361 9.71467 40.4642 9.54275C40.2922 9.37082 40.0592 9.27403 39.816 9.27359H7.37691Z" fill="#EBEBEB"/>
<path d="M76.1561 56.7504H43.7153C43.461 56.7499 43.2172 56.6487 43.0374 56.4689C42.8576 56.2891 42.7564 56.0454 42.756 55.7911V10.1909C42.7586 9.93805 42.8608 9.69646 43.0404 9.51847C43.2199 9.34047 43.4624 9.24042 43.7153 9.23999H76.1561C76.4084 9.24086 76.6503 9.34117 76.8293 9.51916C77.0082 9.69715 77.1098 9.93849 77.112 10.1909V55.7911C77.112 56.0449 77.0114 56.2884 76.8322 56.4682C76.653 56.648 76.4099 56.7495 76.1561 56.7504ZM43.7153 9.27359C43.4721 9.27403 43.2391 9.37082 43.0671 9.54275C42.8952 9.71467 42.7984 9.94773 42.798 10.1909V55.7911C42.7984 56.0342 42.8952 56.2673 43.0671 56.4392C43.2391 56.6112 43.4721 56.7079 43.7153 56.7084H76.1561C76.3992 56.7079 76.6323 56.6112 76.8042 56.4392C76.9761 56.2673 77.0729 56.0342 77.0733 55.7911V10.1909C77.0729 9.94773 76.9761 9.71467 76.8042 9.54275C76.6323 9.37082 76.3992 9.27403 76.1561 9.27359H43.7153Z" fill="#EBEBEB"/>
<path d="M19.3199 29.3378C20.2516 29.3378 21.1451 28.9677 21.8039 28.3089C22.4627 27.6501 22.8328 26.7566 22.8328 25.8249C22.8328 24.8932 22.4627 23.9997 21.8039 23.3409C21.1451 22.6821 20.2516 22.312 19.3199 22.312H18.8882V29.3378H19.3199Z" fill="#E0E0E0"/>
<path d="M18.8848 29.3378C20.8249 29.3378 22.3977 27.765 22.3977 25.8249C22.3977 23.8848 20.8249 22.312 18.8848 22.312C16.9447 22.312 15.3719 23.8848 15.3719 25.8249C15.3719 27.765 16.9447 29.3378 18.8848 29.3378Z" fill="#F5F5F5"/>
<path d="M18.7237 26.2651C17.4761 26.2651 16.2796 25.7695 15.3974 24.8874C14.5153 24.0052 14.0197 22.8087 14.0197 21.5611V18.7539C14.0197 18.6367 14.0662 18.5243 14.1491 18.4414C14.2319 18.3586 14.3443 18.312 14.4615 18.312C14.5787 18.312 14.6911 18.3586 14.7739 18.4414C14.8568 18.5243 14.9033 18.6367 14.9033 18.7539V21.5628C14.9042 22.5755 15.3068 23.5464 16.0227 24.2626C16.7386 24.9788 17.7093 25.3818 18.722 25.3831C18.7822 25.3794 18.8425 25.3881 18.8992 25.4085C18.956 25.429 19.0079 25.4609 19.0519 25.5022C19.0958 25.5435 19.1308 25.5934 19.1548 25.6488C19.1787 25.7041 19.191 25.7638 19.191 25.8241C19.191 25.8844 19.1787 25.9441 19.1548 25.9995C19.1308 26.0549 19.0958 26.1047 19.0519 26.146C19.0079 26.1874 18.956 26.2192 18.8992 26.2397C18.8425 26.2602 18.7822 26.2688 18.722 26.2651H18.7237Z" fill="#E0E0E0"/>
<path d="M10.5555 21.2268H18.3708C18.4958 21.2268 18.6191 21.1982 18.7313 21.143C18.8434 21.0879 18.9414 21.0077 19.0177 20.9087C19.094 20.8097 19.1465 20.6945 19.1713 20.5719C19.196 20.4494 19.1923 20.3229 19.1604 20.202L18.48 17.64C18.4341 17.466 18.3319 17.312 18.1894 17.202C18.0469 17.092 17.8721 17.0322 17.6921 17.0319H11.2342C11.054 17.0321 10.8789 17.0919 10.7361 17.2018C10.5933 17.3118 10.4908 17.4658 10.4446 17.64L9.77257 20.1987C9.73987 20.3192 9.73531 20.4457 9.75926 20.5682C9.7832 20.6908 9.83501 20.8063 9.91068 20.9056C9.98634 21.005 10.0838 21.0857 10.1956 21.1414C10.3074 21.197 10.4306 21.2263 10.5555 21.2268Z" fill="#F5F5F5"/>
<path d="M68.927 29.3378C69.8587 29.3378 70.7522 28.9677 71.411 28.3089C72.0698 27.6501 72.4399 26.7566 72.4399 25.8249C72.4399 24.8932 72.0698 23.9997 71.411 23.3409C70.7522 22.6821 69.8587 22.312 68.927 22.312H68.4952V29.3378H68.927Z" fill="#E0E0E0"/>
<path d="M68.4953 29.3378C70.4354 29.3378 72.0082 27.765 72.0082 25.8249C72.0082 23.8848 70.4354 22.312 68.4953 22.312C66.5552 22.312 64.9824 23.8848 64.9824 25.8249C64.9824 27.765 66.5552 29.3378 68.4953 29.3378Z" fill="#F5F5F5"/>
<path d="M68.334 26.2651C67.0864 26.2651 65.8899 25.7695 65.0078 24.8874C64.1256 24.0052 63.63 22.8087 63.63 21.5611V18.7539C63.63 18.6367 63.6766 18.5243 63.7594 18.4414C63.8423 18.3586 63.9547 18.312 64.0718 18.312C64.189 18.312 64.3014 18.3586 64.3843 18.4414C64.4671 18.5243 64.5137 18.6367 64.5137 18.7539V21.5628C64.5146 22.5755 64.9171 23.5464 65.633 24.2626C66.3489 24.9788 67.3197 25.3818 68.3323 25.3831C68.3925 25.3794 68.4529 25.3881 68.5096 25.4085C68.5663 25.429 68.6183 25.4609 68.6622 25.5022C68.7061 25.5435 68.7412 25.5934 68.7651 25.6488C68.789 25.7041 68.8014 25.7638 68.8014 25.8241C68.8014 25.8844 68.789 25.9441 68.7651 25.9995C68.7412 26.0549 68.7061 26.1047 68.6622 26.146C68.6183 26.1874 68.5663 26.2192 68.5096 26.2397C68.4529 26.2602 68.3925 26.2688 68.3323 26.2651H68.334Z" fill="#E0E0E0"/>
<path d="M60.1659 21.2268H67.9812C68.1062 21.2268 68.2296 21.1981 68.3417 21.1429C68.4539 21.0878 68.5519 21.0076 68.6282 20.9086C68.7044 20.8096 68.757 20.6944 68.7817 20.5719C68.8064 20.4494 68.8027 20.3228 68.7708 20.202L68.0988 17.6433C68.0529 17.4693 67.9508 17.3153 67.8083 17.2053C67.6658 17.0953 67.4909 17.0355 67.3109 17.0352H60.8446C60.6644 17.0354 60.4893 17.0952 60.3465 17.2051C60.2037 17.3151 60.1013 17.4691 60.055 17.6433L59.383 20.202C59.3509 20.3223 59.3468 20.4484 59.371 20.5705C59.3953 20.6927 59.4472 20.8076 59.5228 20.9066C59.5984 21.0056 59.6957 21.0859 59.8071 21.1414C59.9186 21.1969 60.0413 21.2261 60.1659 21.2268Z" fill="#F5F5F5"/>
<path d="M22.5087 53.0645H25.064V43.1642H22.5087V53.0645Z" fill="#E6E6E6"/>
<path d="M15.582 53.0628H24.061L25.3412 41.4758H16.8622L15.582 53.0628Z" fill="#F0F0F0"/>
<path d="M14.6631 53.0628H23.4226L24.7028 41.4758H15.9449L14.6631 53.0628Z" fill="#F5F5F5"/>
<path d="M22.7892 52.1506L23.8678 42.3898H16.5766L15.498 52.1506H22.7892Z" fill="white"/>
<path d="M21.284 49.7835L21.336 49.392C21.6065 46.9426 20.0777 44.7603 18.092 44.7603L18.0466 45.1584C17.7761 47.6062 19.3049 49.7885 21.2924 49.7885L21.284 49.7835Z" fill="#F5F5F5"/>
<path d="M9.92709 64.2432H17.4602V53.0628H9.92709L9.92709 64.2432Z" fill="#E6E6E6"/>
<path d="M10.6831 64.2432H9.92542V62.0878H11.4777L10.6831 64.2432Z" fill="#F0F0F0"/>
<path d="M31.0396 64.2432H38.5728V53.0628H31.0396V64.2432Z" fill="#E6E6E6"/>
<path d="M9.92547 62.921H31.7V53.0645H9.92547V62.921Z" fill="#F0F0F0"/>
<path d="M30.9422 64.2432H31.6999V62.0878H30.1476L30.9422 64.2432Z" fill="#F0F0F0"/>
<path d="M10.5135 57.6576H31.1119V53.6793H10.5135V57.6576Z" fill="#E6E6E6"/>
<path d="M19.4392 56.28H22.186C22.7766 56.2803 23.361 56.16 23.9035 55.9266C24.446 55.6932 24.9352 55.3516 25.3411 54.9226H16.2842C16.6903 55.3513 17.1795 55.6928 17.7219 55.9262C18.2644 56.1596 18.8487 56.28 19.4392 56.28Z" fill="#F0F0F0"/>
<path d="M10.5135 62.2776H31.1119V58.2993H10.5135V62.2776Z" fill="#E6E6E6"/>
<path d="M19.4392 60.8933H22.186C22.7766 60.8936 23.361 60.7733 23.9035 60.5399C24.446 60.3065 24.9352 59.9649 25.3411 59.5359H16.2842C16.6903 59.9646 17.1795 60.3061 17.7219 60.5395C18.2644 60.7729 18.8487 60.8933 19.4392 60.8933Z" fill="#F0F0F0"/>
<path d="M30.3206 52.6075H30.5155C30.5155 52.206 30.5155 51.1896 30.5356 48.8594C30.5709 44.6342 30.6381 44.3772 30.6381 44.3772L30.1744 46.3277C29.8804 48.4865 30.2601 50.657 30.3206 52.6075Z" fill="#E6E6E6"/>
<path d="M29.9359 46.0319C29.2639 45.2373 27.8443 45.0055 26.3861 44.8072C25.8132 44.7299 27.8897 46.0387 28.9061 46.9677C29.6957 47.6901 30.1997 47.89 30.4181 48.6091C30.5289 47.7119 30.5105 46.7224 29.9359 46.0319Z" fill="#E6E6E6"/>
<path d="M30.8212 47.4567C31.4932 46.662 32.9128 46.4319 34.3711 46.2336C34.9439 46.1563 32.8591 47.4651 31.8511 48.3941C31.0615 49.1165 30.5575 49.3164 30.3391 50.0355C30.2282 49.1383 30.2399 48.1421 30.8212 47.4567Z" fill="#E6E6E6"/>
<path d="M30.5356 44.184C31.0396 43.2332 32.2929 42.336 33.7058 42C34.2602 41.8673 32.4206 43.754 31.7217 44.972C31.1791 45.9161 30.46 47.0283 30.3475 47.828C30.1795 46.2521 30.035 45.14 30.5356 44.184Z" fill="#E6E6E6"/>
<path d="M30.4753 53.0628C29.8805 53.0628 29.3883 52.7655 29.353 52.3824L29.2539 51.7306H31.6983L31.5975 52.3824C31.5639 52.7655 31.0801 53.0628 30.4753 53.0628Z" fill="#F0F0F0"/>
<path d="M31.8562 51.9809H29.0959L29.017 51.2534H31.9351L31.8562 51.9809Z" fill="#F0F0F0"/>
<path d="M28.4827 38.089H55.3979V13.5391L28.4827 13.5391L28.4827 38.089Z" fill="#E6E6E6"/>
<path d="M27.878 38.089H55.1343V13.5391L27.878 13.5391L27.878 38.089Z" fill="#F5F5F5"/>
<path d="M54.0457 36.9902V14.6395L28.9633 14.6395V36.9902H54.0457Z" fill="#FAFAFA"/>
<path d="M50.9695 36.9902L41.0978 14.6395H37.7445L47.6162 36.9902H50.9695Z" fill="white"/>
<path d="M46.6653 36.9902L36.7937 14.6395H34.4854L44.357 36.9902H46.6653Z" fill="white"/>
<path d="M38.2771 36.9885V14.6378H36.9801V36.9885H38.2771Z" fill="#E6E6E6"/>
<path d="M46.8989 36.9885V14.6378H45.602V36.9885H46.8989Z" fill="#E6E6E6"/>
<path d="M38.0436 37.6874V13.8213H36.4039V37.6874H38.0436Z" fill="#F5F5F5"/>
<path d="M46.6654 37.6874V13.8213H45.0257V37.6874H46.6654Z" fill="#F5F5F5"/>
<path d="M29.0808 36.9902V14.6395H28.9649V36.9902H29.0808Z" fill="#E6E6E6"/>
<path d="M27.4209 12.1245H56.579C56.6163 12.1249 56.6519 12.14 56.6783 12.1663C56.7047 12.1927 56.7197 12.2283 56.7201 12.2656C56.7197 12.3028 56.7046 12.3382 56.6782 12.3643C56.6518 12.3904 56.6161 12.4051 56.579 12.4051H27.4209C27.3838 12.4051 27.3481 12.3904 27.3217 12.3643C27.2953 12.3382 27.2802 12.3028 27.2798 12.2656C27.2802 12.2283 27.2952 12.1927 27.3216 12.1663C27.348 12.14 27.3836 12.1249 27.4209 12.1245Z" fill="#E6E6E6"/>
<path d="M55.398 13.0503C55.448 13.0498 55.4959 13.0296 55.5311 12.9941C55.5664 12.9585 55.5861 12.9105 55.5861 12.8604V12.4539C55.5864 12.429 55.5816 12.4044 55.5723 12.3814C55.5629 12.3583 55.5491 12.3374 55.5316 12.3197C55.5141 12.3021 55.4933 12.2881 55.4704 12.2785C55.4474 12.269 55.4228 12.264 55.398 12.264C55.3479 12.264 55.2999 12.2838 55.2643 12.319C55.2288 12.3543 55.2086 12.4021 55.2081 12.4522V12.8588C55.2081 12.9093 55.2281 12.9577 55.2636 12.9936C55.2992 13.0295 55.3475 13.0498 55.398 13.0503Z" fill="#E6E6E6"/>
<path d="M29.5344 13.0503C29.5846 13.0498 29.6326 13.0297 29.6681 12.9942C29.7036 12.9587 29.7238 12.9107 29.7242 12.8604V12.4539C29.7242 12.4035 29.7042 12.3552 29.6686 12.3196C29.633 12.284 29.5847 12.264 29.5344 12.264C29.4845 12.264 29.4366 12.2839 29.4013 12.3191C29.366 12.3544 29.3462 12.4023 29.3462 12.4522V12.8588C29.346 12.8837 29.3507 12.9084 29.36 12.9315C29.3693 12.9547 29.3831 12.9757 29.4006 12.9935C29.4181 13.0113 29.4389 13.0254 29.4618 13.0352C29.4848 13.0449 29.5094 13.0501 29.5344 13.0503Z" fill="#E6E6E6"/>
<path opacity="0.6" d="M27.4647 31.4899L54.7025 31.4899V12.264L27.4647 12.264L27.4647 31.4899Z" fill="#E0E0E0"/>
<path d="M57.1687 43.6749H52.4715C51.9723 43.6749 51.5676 44.0796 51.5676 44.5788V46.7527C51.5676 47.2519 51.9723 47.6565 52.4715 47.6565H57.1687C57.6679 47.6565 58.0726 47.2519 58.0726 46.7527V44.5788C58.0726 44.0796 57.6679 43.6749 57.1687 43.6749Z" fill="#FAFAFA"/>
<path d="M57.7685 42.9391H51.8717C51.7038 42.9391 51.5676 43.0752 51.5676 43.2432V43.4884C51.5676 43.6564 51.7038 43.7925 51.8717 43.7925H57.7685C57.9364 43.7925 58.0726 43.6564 58.0726 43.4884V43.2432C58.0726 43.0752 57.9364 42.9391 57.7685 42.9391Z" fill="#E6E6E6"/>
<path d="M51.6633 52.08C51.6633 52.08 51.749 54.8805 55.0116 54.8805C58.2741 54.8805 58.3598 52.08 58.3598 52.08H51.6633Z" fill="#F0F0F0"/>
<path d="M59.1024 52.08C59.1024 52.08 59.1881 54.8805 62.4507 54.8805C65.7132 54.8805 65.7989 52.08 65.7989 52.08H59.1024Z" fill="#F0F0F0"/>
<path d="M64.1827 41.8723H57.7315C57.0449 41.8723 56.4883 42.4289 56.4883 43.1155V46.415C56.4883 47.1016 57.0449 47.6582 57.7315 47.6582H64.1827C64.8693 47.6582 65.4259 47.1016 65.4259 46.415V43.1155C65.4259 42.4289 64.8693 41.8723 64.1827 41.8723Z" fill="#F0F0F0"/>
<path d="M65.0092 40.861H56.9049C56.6748 40.861 56.4883 41.0475 56.4883 41.2776V41.617C56.4883 41.8471 56.6748 42.0336 56.9049 42.0336H65.0092C65.2393 42.0336 65.4259 41.8471 65.4259 41.617V41.2776C65.4259 41.0475 65.2393 40.861 65.0092 40.861Z" fill="#F5F5F5"/>
<path d="M49.2055 64.2432H50.0522V50.3596H49.2055V64.2432Z" fill="#E6E6E6"/>
<path d="M73.6545 47.6565H69.0698V50.3579H73.6545V47.6565Z" fill="#E6E6E6"/>
<path d="M46.2739 50.3596H69.0681V47.6582H46.2739V50.3596Z" fill="#F5F5F5"/>
<path d="M73.6545 54.8722H69.0698V57.5736H73.6545V54.8722Z" fill="#E6E6E6"/>
<path d="M46.2739 57.5736H69.0681V54.8722H46.2739V57.5736Z" fill="#F5F5F5"/>
<path d="M71.9997 64.2432H72.8464V50.3596H71.9997V64.2432Z" fill="#E6E6E6"/>
<path d="M68.2231 64.2432H69.0698V50.3596H68.2231V64.2432Z" fill="#F5F5F5"/>
<path d="M46.2739 64.2432H47.1206V50.3596H46.2739V64.2432Z" fill="#F5F5F5"/>
<path d="M42 71.8301C59.9899 71.8301 74.5736 70.9787 74.5736 69.9284C74.5736 68.8781 59.9899 68.0266 42 68.0266C24.0102 68.0266 9.42651 68.8781 9.42651 69.9284C9.42651 70.9787 24.0102 71.8301 42 71.8301Z" fill="#F5F5F5"/>
<path d="M43.7489 61.404H22.3171C21.9725 61.3991 21.6424 61.2641 21.3932 61.0261C21.1439 60.788 20.9939 60.4645 20.9731 60.1205L19.0512 22.9001C19.0405 22.7345 19.0642 22.5686 19.1207 22.4126C19.1772 22.2566 19.2653 22.1139 19.3795 21.9936C19.4937 21.8733 19.6315 21.7778 19.7843 21.7132C19.9371 21.6486 20.1016 21.6163 20.2675 21.6182H41.6993C42.0438 21.6227 42.3738 21.7574 42.6231 21.9951C42.8724 22.2329 43.0225 22.5562 43.0433 22.9001L44.9618 60.1205C44.9725 60.2858 44.9489 60.4516 44.8926 60.6075C44.8364 60.7633 44.7486 60.9059 44.6348 61.0263C44.521 61.1467 44.3836 61.2424 44.2312 61.3074C44.0787 61.3724 43.9146 61.4053 43.7489 61.404Z" fill="#407BFF"/>
<path opacity="0.8" d="M43.7489 61.404H22.3171C21.9725 61.3991 21.6424 61.2641 21.3932 61.0261C21.1439 60.788 20.9939 60.4645 20.9731 60.1205L19.0512 22.9001C19.0405 22.7345 19.0642 22.5686 19.1207 22.4126C19.1772 22.2566 19.2653 22.1139 19.3795 21.9936C19.4937 21.8733 19.6315 21.7778 19.7843 21.7132C19.9371 21.6486 20.1016 21.6163 20.2675 21.6182H41.6993C42.0438 21.6227 42.3738 21.7574 42.6231 21.9951C42.8724 22.2329 43.0225 22.5562 43.0433 22.9001L44.9618 60.1205C44.9725 60.2858 44.9489 60.4516 44.8926 60.6075C44.8364 60.7633 44.7486 60.9059 44.6348 61.0263C44.521 61.1467 44.3836 61.2424 44.2312 61.3074C44.0787 61.3724 43.9146 61.4053 43.7489 61.404Z" fill="white"/>
<path d="M39.5841 20.4053H37.2136V20.5733H39.5841V20.4053Z" fill="#407BFF"/>
<path d="M36.3921 20.4053H35.5236V20.5733H36.3921V20.4053Z" fill="#407BFF"/>
<path d="M44.6712 59.0419H24.1752C23.8451 59.0387 23.5285 58.9106 23.2891 58.6833C23.0497 58.4561 22.9053 58.1466 22.8849 57.8171L21.0504 22.2179C21.0402 22.0595 21.0628 21.9007 21.1169 21.7514C21.171 21.6021 21.2553 21.4656 21.3646 21.3505C21.4739 21.2353 21.6059 21.144 21.7521 21.0822C21.8984 21.0205 22.0558 20.9896 22.2146 20.9915H42.7106C43.0406 20.9952 43.357 21.1237 43.5961 21.3513C43.8352 21.5788 43.9792 21.8885 43.9992 22.2179L45.8337 57.8171C45.8439 57.9754 45.8213 58.134 45.7673 58.2831C45.7133 58.4321 45.6291 58.5684 45.5199 58.6834C45.4108 58.7984 45.279 58.8896 45.133 58.9513C44.9869 59.013 44.8297 59.0438 44.6712 59.0419Z" fill="#407BFF"/>
<path d="M44.6712 58.2238H24.1752C24.055 58.2197 23.9405 58.1715 23.8535 58.0885C23.7665 58.0055 23.7129 57.8934 23.7031 57.7736L21.8669 22.1761C21.8627 22.1287 21.8687 22.081 21.8843 22.0361C21.8999 21.9912 21.9249 21.9502 21.9576 21.9157C21.9904 21.8812 22.0301 21.8541 22.0741 21.8362C22.1181 21.8182 22.1655 21.8098 22.213 21.8115H42.709C42.8289 21.816 42.943 21.8643 43.0296 21.9473C43.1163 22.0303 43.1696 22.1421 43.1794 22.2617L45.024 57.8593C45.0281 57.9064 45.0221 57.9539 45.0065 57.9986C44.9909 58.0434 44.966 58.0843 44.9335 58.1187C44.901 58.1531 44.8615 58.1803 44.8178 58.1984C44.774 58.2165 44.7269 58.2252 44.6796 58.2238H44.6712ZM22.213 21.8535C22.1712 21.8521 22.1296 21.8595 22.0908 21.8751C22.0521 21.8908 22.017 21.9143 21.9878 21.9442C21.9598 21.9752 21.9383 22.0116 21.9248 22.0512C21.9112 22.0908 21.9058 22.1327 21.9089 22.1744L23.7434 57.7719C23.7528 57.8809 23.8017 57.9828 23.8809 58.0583C23.9601 58.1338 24.0642 58.1777 24.1735 58.1818H44.6695C44.7111 58.1835 44.7525 58.1762 44.791 58.1606C44.8296 58.1449 44.8643 58.1212 44.893 58.0911C44.9217 58.0605 44.9436 58.0242 44.9572 57.9845C44.9708 57.9448 44.9759 57.9027 44.9719 57.8609L43.139 22.2634C43.1301 22.1545 43.0816 22.0527 43.0026 21.9772C42.9237 21.9016 42.8198 21.8576 42.7106 21.8535H22.213Z" fill="white"/>
<path opacity="0.3" d="M37.5021 34.7853C39.8333 32.3931 39.6815 28.4643 37.1631 26.0101C34.6446 23.5559 30.7132 23.5056 28.382 25.8978C26.0508 28.29 26.2026 32.2188 28.7211 34.673C31.2395 37.1272 35.1709 37.1775 37.5021 34.7853Z" fill="white"/>
<path d="M37.968 30.3425C38.015 31.1681 37.849 31.9919 37.4858 32.7348C37.0927 33.5317 36.4825 34.2013 35.7255 34.6664C34.9684 35.1316 34.0954 35.3734 33.2069 35.364C32.2861 35.3557 31.3832 35.1092 30.5859 34.6485C29.7887 34.1878 29.1243 33.5285 28.6574 32.7348C28.2223 32.0091 27.9719 31.1876 27.9283 30.3425C27.8869 29.6944 27.9797 29.0447 28.2009 28.4341C28.4221 27.8235 28.7669 27.2652 29.2138 26.794C29.6607 26.3228 30.2001 25.9489 30.7981 25.6957C31.3962 25.4426 32.04 25.3156 32.6894 25.3227C34.041 25.3368 35.337 25.8625 36.3165 26.7939C37.2959 27.7254 37.8861 28.9934 37.968 30.3425Z" fill="white"/>
<path d="M37.4807 32.7348C37.0876 33.5317 36.4774 34.2013 35.7204 34.6664C34.9633 35.1316 34.0903 35.3734 33.2018 35.364C32.281 35.3557 31.3781 35.1092 30.5809 34.6485C29.7836 34.1877 29.1192 33.5285 28.6523 32.7348C29.929 31.8531 31.4453 31.3841 32.9968 31.3908C34.5898 31.3968 36.1471 31.8636 37.4807 32.7348Z" fill="#407BFF"/>
<path d="M34.4984 30.2257C35.3383 29.3639 35.2833 27.9481 34.3756 27.0636C33.4679 26.179 32.0512 26.1606 31.2113 27.0225C30.3714 27.8843 30.4264 29.3001 31.3341 30.1846C32.2418 31.0692 33.6585 31.0876 34.4984 30.2257Z" fill="#407BFF"/>
<path d="M41.7329 45.1919H25.6839C25.5441 45.1905 25.4101 45.1361 25.3087 45.0398C25.2074 44.9435 25.1464 44.8124 25.1379 44.6728L25.0169 42.3208C25.0128 42.2539 25.0225 42.1869 25.0454 42.1239C25.0683 42.0609 25.104 42.0033 25.1502 41.9547C25.1964 41.9062 25.2521 41.8677 25.3139 41.8416C25.3757 41.8156 25.4421 41.8026 25.5092 41.8034H41.5582C41.6977 41.8048 41.8315 41.8589 41.9328 41.9549C42.0341 42.0509 42.0953 42.1816 42.1042 42.3208L42.2252 44.6728C42.2296 44.7399 42.2201 44.8071 42.1973 44.8703C42.1744 44.9335 42.1388 44.9913 42.0926 45.04C42.0463 45.0888 41.9905 45.1274 41.9286 45.1536C41.8667 45.1797 41.8001 45.1928 41.7329 45.1919Z" fill="white"/>
<path opacity="0.3" d="M36.8189 40.5048H30.1157C29.9753 40.5037 29.8406 40.4493 29.7389 40.3526C29.6372 40.2559 29.5761 40.1241 29.568 39.984L29.5428 39.48C29.5384 39.4129 29.5479 39.3457 29.5707 39.2825C29.5935 39.2193 29.6292 39.1615 29.6754 39.1128C29.7216 39.064 29.7775 39.0254 29.8393 38.9992C29.9012 38.9731 29.9679 38.96 30.035 38.9609H36.7366C36.8763 38.9623 37.0104 39.0167 37.1117 39.113C37.213 39.2093 37.2741 39.3404 37.2826 39.48L37.3094 39.984C37.3136 40.0509 37.3039 40.1179 37.2811 40.181C37.2583 40.2441 37.2229 40.3018 37.1769 40.3506C37.1309 40.3994 37.0754 40.4382 37.0139 40.4648C36.9523 40.4913 36.8859 40.5049 36.8189 40.5048Z" fill="black"/>
<path opacity="0.3" d="M39.312 56.5H29.2706C29.0328 56.4971 28.8049 56.4044 28.6326 56.2405C28.4604 56.0766 28.3564 55.8537 28.3416 55.6164L28.2828 54.4572C28.2768 54.3432 28.2942 54.2293 28.3337 54.1223C28.3733 54.0153 28.4342 53.9174 28.5128 53.8348C28.5914 53.7521 28.686 53.6863 28.7909 53.6413C28.8957 53.5964 29.0087 53.5733 29.1228 53.5735H39.1608C39.3985 53.5764 39.6264 53.6691 39.7987 53.833C39.971 53.9969 40.075 54.2198 40.0898 54.4572L40.1486 55.6164C40.1545 55.73 40.1373 55.8437 40.0979 55.9505C40.0586 56.0572 39.998 56.1549 39.9197 56.2376C39.8415 56.3202 39.7473 56.3861 39.6428 56.4312C39.5383 56.4763 39.4258 56.4997 39.312 56.5Z" fill="black"/>
<path d="M42.0268 50.8805H25.9761C25.8365 50.8787 25.7026 50.8242 25.6014 50.7279C25.5002 50.6317 25.439 50.5008 25.4301 50.3614L25.3092 48.0094C25.305 47.9424 25.3147 47.8753 25.3376 47.8122C25.3605 47.7491 25.3962 47.6914 25.4424 47.6427C25.4885 47.594 25.5442 47.5554 25.606 47.5291C25.6678 47.5029 25.7343 47.4897 25.8014 47.4903H41.8504C41.9902 47.4917 42.1243 47.5461 42.2256 47.6424C42.3269 47.7387 42.388 47.8698 42.3964 48.0094L42.5191 50.3614C42.523 50.4283 42.5131 50.4953 42.4901 50.5583C42.4671 50.6213 42.4315 50.6788 42.3853 50.7275C42.3392 50.7761 42.2836 50.8148 42.2219 50.8411C42.1603 50.8674 42.0939 50.8808 42.0268 50.8805Z" fill="white"/>
<path d="M27.72 43.4968C27.7246 43.5711 27.7139 43.6455 27.6884 43.7154C27.663 43.7853 27.6234 43.8492 27.5722 43.9031C27.521 43.957 27.4592 43.9998 27.3906 44.0288C27.3221 44.0577 27.2484 44.0722 27.174 44.0714C27.0195 44.0696 26.8714 44.0093 26.7595 43.9027C26.6476 43.7961 26.5802 43.6511 26.5709 43.4968C26.566 43.4227 26.5765 43.3483 26.6017 43.2784C26.627 43.2085 26.6664 43.1446 26.7175 43.0906C26.7686 43.0367 26.8303 42.9939 26.8987 42.9649C26.9672 42.9359 27.0409 42.9214 27.1152 42.9223C27.2699 42.9241 27.4182 42.9843 27.5303 43.0909C27.6425 43.1974 27.7102 43.3424 27.72 43.4968Z" fill="#263238"/>
<path d="M29.4891 43.4968C29.4939 43.571 29.4834 43.6454 29.4582 43.7153C29.4329 43.7852 29.3935 43.8491 29.3424 43.903C29.2913 43.957 29.2296 43.9998 29.1612 44.0288C29.0927 44.0577 29.019 44.0722 28.9447 44.0714C28.7901 44.0699 28.6418 44.0098 28.5298 43.9031C28.4178 43.7965 28.3506 43.6512 28.3416 43.4968C28.3367 43.4227 28.3473 43.3483 28.3725 43.2784C28.3977 43.2085 28.4371 43.1446 28.4882 43.0906C28.5394 43.0367 28.6011 42.9939 28.6695 42.9649C28.7379 42.9359 28.8116 42.9214 28.8859 42.9223C29.0406 42.9237 29.1889 42.9839 29.3009 43.0905C29.4128 43.1972 29.4801 43.3424 29.4891 43.4968Z" fill="#263238"/>
<path d="M31.2479 43.4968C31.2528 43.571 31.2423 43.6454 31.2171 43.7153C31.1918 43.7852 31.1524 43.8491 31.1013 43.903C31.0502 43.957 30.9885 43.9998 30.9201 44.0288C30.8516 44.0577 30.7779 44.0722 30.7036 44.0714C30.5489 44.0696 30.4006 44.0094 30.2885 43.9028C30.1763 43.7963 30.1086 43.6512 30.0988 43.4968C30.0942 43.4226 30.1049 43.3482 30.1304 43.2783C30.1558 43.2084 30.1954 43.1445 30.2466 43.0906C30.2978 43.0366 30.3597 42.9939 30.4282 42.9649C30.4967 42.9359 30.5704 42.9214 30.6448 42.9223C30.7994 42.9241 30.9474 42.9844 31.0593 43.091C31.1712 43.1976 31.2386 43.3426 31.2479 43.4968Z" fill="#263238"/>
<path d="M33.0204 43.4968C33.025 43.5709 33.0143 43.6452 32.989 43.715C32.9637 43.7848 32.9243 43.8486 32.8732 43.9025C32.8221 43.9564 32.7605 43.9992 32.6922 44.0282C32.6239 44.0573 32.5503 44.072 32.4761 44.0714C32.3214 44.0696 32.1731 44.0093 32.0609 43.9028C31.9488 43.7962 31.881 43.6512 31.8713 43.4968C31.8667 43.4227 31.8774 43.3485 31.9027 43.2787C31.928 43.2089 31.9674 43.1451 32.0185 43.0912C32.0695 43.0373 32.1312 42.9945 32.1995 42.9654C32.2678 42.9363 32.3414 42.9217 32.4156 42.9223C32.5703 42.9241 32.7186 42.9843 32.8308 43.0908C32.9429 43.1974 33.0107 43.3424 33.0204 43.4968Z" fill="#263238"/>
<path d="M28.0174 49.182C28.0222 49.2562 28.0117 49.3305 27.9865 49.4004C27.9612 49.4703 27.9218 49.5343 27.8707 49.5882C27.8196 49.6422 27.7579 49.685 27.6895 49.7139C27.621 49.7429 27.5473 49.7574 27.473 49.7566C27.3183 49.7548 27.17 49.6945 27.0579 49.588C26.9457 49.4814 26.878 49.3364 26.8682 49.182C26.8636 49.1078 26.8743 49.0334 26.8998 48.9635C26.9252 48.8936 26.9648 48.8297 27.016 48.7757C27.0673 48.7218 27.1291 48.679 27.1976 48.6501C27.2661 48.6211 27.3399 48.6066 27.4142 48.6075C27.5688 48.6093 27.7169 48.6696 27.8288 48.7762C27.9406 48.8828 28.008 49.0278 28.0174 49.182Z" fill="#263238"/>
<path d="M29.7831 49.182C29.7877 49.2561 29.777 49.3304 29.7517 49.4002C29.7264 49.47 29.6869 49.5338 29.6359 49.5877C29.5848 49.6416 29.5232 49.6844 29.4549 49.7134C29.3866 49.7425 29.313 49.7572 29.2388 49.7566C29.0841 49.7548 28.9358 49.6945 28.8236 49.588C28.7114 49.4814 28.6437 49.3364 28.634 49.182C28.6291 49.1079 28.6396 49.0335 28.6648 48.9636C28.6901 48.8937 28.7295 48.8298 28.7806 48.7758C28.8317 48.7219 28.8934 48.6791 28.9619 48.6501C29.0303 48.6211 29.104 48.6066 29.1783 48.6075C29.333 48.6093 29.4813 48.6695 29.5934 48.776C29.7056 48.8826 29.7734 49.0276 29.7831 49.182Z" fill="#263238"/>
<path d="M31.5487 49.182C31.5533 49.2563 31.5426 49.3307 31.5172 49.4006C31.4918 49.4705 31.4522 49.5344 31.4009 49.5883C31.3497 49.6422 31.2879 49.685 31.2194 49.714C31.1509 49.7429 31.0771 49.7574 31.0027 49.7566C30.8481 49.7551 30.6997 49.695 30.5878 49.5883C30.4758 49.4816 30.4085 49.3364 30.3996 49.182C30.3947 49.1079 30.4052 49.0335 30.4305 48.9636C30.4557 48.8937 30.4951 48.8298 30.5462 48.7758C30.5973 48.7219 30.659 48.6791 30.7275 48.6501C30.7959 48.6211 30.8696 48.6066 30.9439 48.6075C31.0986 48.6093 31.2469 48.6695 31.3591 48.776C31.4712 48.8826 31.539 49.0276 31.5487 49.182Z" fill="#263238"/>
<path d="M33.3128 49.182C33.3176 49.2562 33.3071 49.3305 33.2819 49.4004C33.2567 49.4703 33.2172 49.5343 33.1661 49.5882C33.115 49.6422 33.0533 49.685 32.9849 49.7139C32.9164 49.7429 32.8428 49.7574 32.7684 49.7566C32.6137 49.7548 32.4655 49.6945 32.3533 49.588C32.2411 49.4814 32.1734 49.3364 32.1636 49.182C32.159 49.1078 32.1698 49.0334 32.1952 48.9635C32.2206 48.8936 32.2602 48.8297 32.3114 48.7757C32.3627 48.7218 32.4245 48.679 32.493 48.6501C32.5615 48.6211 32.6353 48.6066 32.7096 48.6075C32.8643 48.6089 33.0126 48.6691 33.1246 48.7757C33.2366 48.8824 33.3038 49.0276 33.3128 49.182Z" fill="#263238"/>
<path d="M35.0784 49.182C35.0833 49.2562 35.0727 49.3305 35.0475 49.4004C35.0223 49.4703 34.9829 49.5343 34.9318 49.5882C34.8806 49.6422 34.8189 49.685 34.7505 49.7139C34.6821 49.7429 34.6084 49.7574 34.5341 49.7566C34.3794 49.7548 34.2311 49.6945 34.1189 49.588C34.0067 49.4814 33.939 49.3364 33.9293 49.182C33.9247 49.1079 33.9353 49.0336 33.9607 48.9639C33.986 48.8941 34.0254 48.8302 34.0765 48.7763C34.1275 48.7224 34.1891 48.6796 34.2575 48.6506C34.3258 48.6215 34.3993 48.6068 34.4736 48.6074C34.6283 48.6093 34.7766 48.6695 34.8887 48.776C35.0009 48.8826 35.0686 49.0276 35.0784 49.182Z" fill="#263238"/>
<path d="M36.8441 49.182C36.8487 49.2563 36.838 49.3307 36.8126 49.4006C36.7872 49.4705 36.7476 49.5344 36.6964 49.5883C36.6451 49.6422 36.5833 49.685 36.5148 49.714C36.4463 49.7429 36.3725 49.7574 36.2981 49.7566C36.1436 49.7547 35.9955 49.6945 35.8836 49.5879C35.7717 49.4813 35.7043 49.3363 35.695 49.182C35.6901 49.1079 35.7007 49.0335 35.7259 48.9636C35.7511 48.8937 35.7905 48.8298 35.8416 48.7758C35.8927 48.7219 35.9545 48.6791 36.0229 48.6501C36.0913 48.6211 36.165 48.6066 36.2393 48.6075C36.394 48.6093 36.5423 48.6695 36.6545 48.776C36.7666 48.8826 36.8344 49.0276 36.8441 49.182Z" fill="#263238"/>
<path d="M55.944 29.6721C55.986 29.736 56.0078 29.7696 56.0347 29.8149L56.1103 29.9392C56.159 30.0232 56.2027 30.1072 56.2447 30.1896C56.3287 30.3576 56.4127 30.5256 56.4799 30.6936C56.6207 31.0272 56.7419 31.3688 56.8428 31.7167C57.0462 32.4038 57.1801 33.1096 57.2426 33.8234L57.2544 33.9561C57.2558 33.983 57.2558 34.0099 57.2544 34.0368V34.1258C57.2571 34.2426 57.2504 34.3595 57.2342 34.4752C57.202 34.6898 57.1456 34.9 57.0662 35.1019C56.9186 35.4625 56.7231 35.8015 56.4849 36.1099C56.0406 36.6788 55.5134 37.1777 54.9208 37.59L54.4572 37.0473C54.8791 36.5708 55.2527 36.0536 55.5727 35.5034C55.7166 35.2538 55.8295 34.9875 55.9087 34.7104C55.9408 34.5931 55.9594 34.4725 55.9641 34.3509C55.9693 34.299 55.9693 34.2466 55.9641 34.1947V34.1594C55.9658 34.1438 55.9658 34.128 55.9641 34.1124L55.944 33.9948C55.8359 33.3686 55.6832 32.7511 55.487 32.1468C55.3896 31.846 55.2703 31.5554 55.151 31.2715C55.0922 31.1287 55.025 30.9892 54.9578 30.8548L54.8536 30.6566L54.8016 30.5642L54.7579 30.4903L55.944 29.6721Z" fill="#803E3C"/>
<path d="M54.3816 37.5933L54.9898 38.8785L55.4719 37.7915C55.4719 37.7915 55.0435 36.8507 54.4639 36.9381L54.3816 37.5933Z" fill="#7F3E3B"/>
<path d="M55.4249 38.9424L55.9087 38.1495L55.4719 37.7916L54.9897 38.8786L55.4249 38.9424Z" fill="#7F3E3B"/>
<path d="M52.6898 68.5809C52.8156 68.5778 52.9406 68.5609 53.0628 68.5305C53.0689 68.5287 53.0745 68.5252 53.0789 68.5205C53.0834 68.5157 53.0865 68.51 53.088 68.5037C53.089 68.4972 53.0881 68.4906 53.0854 68.4846C53.0827 68.4786 53.0784 68.4736 53.0728 68.4701C53.0241 68.4381 52.5974 68.1626 52.4328 68.2365C52.4145 68.2451 52.3988 68.2582 52.3873 68.2748C52.3758 68.2913 52.3689 68.3106 52.3672 68.3306C52.3621 68.361 52.3645 68.3922 52.3742 68.4215C52.3838 68.4507 52.4005 68.4772 52.4227 68.4986C52.4988 68.5574 52.5937 68.5867 52.6898 68.5809ZM52.967 68.4818C52.7234 68.5322 52.5386 68.5238 52.463 68.4583C52.4476 68.443 52.4362 68.424 52.4301 68.4032C52.4239 68.3823 52.4231 68.3603 52.4277 68.339C52.4277 68.3105 52.4445 68.3021 52.4563 68.297C52.547 68.2567 52.794 68.376 52.967 68.4818Z" fill="#407BFF"/>
<path d="M53.0544 68.5306H53.0712C53.0762 68.5273 53.0804 68.5228 53.0833 68.5175C53.0863 68.5122 53.0879 68.5063 53.088 68.5003C53.088 68.4835 53.088 68.0786 52.9334 67.9426C52.9144 67.9255 52.892 67.9128 52.8676 67.9052C52.8433 67.8977 52.8176 67.8955 52.7923 67.8989C52.7658 67.8991 52.7402 67.9084 52.7197 67.9252C52.6992 67.942 52.6851 67.9653 52.6797 67.9913C52.6478 68.1509 52.9032 68.4533 53.0376 68.5306H53.0544ZM52.8141 67.961C52.8277 67.9606 52.8413 67.963 52.854 67.9679C52.8667 67.9728 52.8782 67.9802 52.8881 67.9896C52.9767 68.1203 53.0225 68.2753 53.0191 68.4331C52.8847 68.3256 52.7251 68.0971 52.7453 68.0013C52.7453 67.9862 52.757 67.9661 52.799 67.961H52.8141Z" fill="#407BFF"/>
<path d="M51.1038 67.8955C51.1078 67.8906 51.1104 67.8847 51.1112 67.8785C51.1121 67.8722 51.1113 67.8659 51.1089 67.86C51.1065 67.8542 51.1026 67.8491 51.0976 67.8453C51.0926 67.8415 51.0866 67.8391 51.0803 67.8384C51.0114 67.8384 50.4083 67.8098 50.2706 67.9577V67.9678C50.2592 67.9823 50.2518 67.9996 50.2491 68.0178C50.2465 68.0361 50.2487 68.0547 50.2555 68.0719C50.2644 68.1008 50.2803 68.127 50.3016 68.1484C50.323 68.1697 50.3492 68.1856 50.3781 68.1946C50.573 68.255 50.9174 68.035 51.1055 67.8989L51.1038 67.8955ZM50.321 68.0014C50.3966 67.9207 50.7292 67.8989 50.9778 67.9022C50.7174 68.0803 50.5007 68.1643 50.3915 68.1307C50.3725 68.1249 50.3552 68.1146 50.3411 68.1005C50.327 68.0864 50.3167 68.0691 50.3109 68.0501C50.3075 68.0436 50.3057 68.0364 50.3057 68.0291C50.3057 68.0218 50.3075 68.0146 50.3109 68.0081L50.321 68.0014Z" fill="#407BFF"/>
<path d="M51.1039 67.8955C51.1065 67.8902 51.1078 67.8845 51.1078 67.8787C51.1078 67.8729 51.1065 67.8671 51.1039 67.8619C51.0955 67.8484 50.9074 67.5259 50.6856 67.4587C50.6538 67.4494 50.6204 67.4466 50.5874 67.4507C50.5545 67.4547 50.5227 67.4654 50.4941 67.4822C50.4135 67.5292 50.4084 67.5847 50.4185 67.62C50.4622 67.7762 50.8906 67.914 51.0754 67.9123C51.0812 67.9122 51.0869 67.9106 51.0919 67.9076C51.0969 67.9047 51.101 67.9005 51.1039 67.8955ZM50.5008 67.5595C50.5103 67.5502 50.521 67.5423 50.5327 67.536C50.5535 67.5227 50.5769 67.5142 50.6012 67.511C50.6256 67.5078 50.6504 67.51 50.6739 67.5175C50.82 67.5561 50.9561 67.7443 51.0183 67.8367C50.8183 67.8148 50.5143 67.6922 50.4891 67.5981C50.4869 67.591 50.4869 67.5834 50.489 67.5762C50.4911 67.5691 50.4952 67.5627 50.5008 67.5578V67.5595Z" fill="#407BFF"/>
<path d="M52.9536 24.7515C52.7856 25.5915 52.4227 27.4075 53.0056 27.9653C53.0056 27.9653 52.7772 28.8053 51.2265 28.8053C49.5196 28.8053 50.4117 27.9653 50.4117 27.9653C51.3424 27.7435 51.3189 27.0514 51.156 26.4029L52.9536 24.7515Z" fill="#7F3E3B"/>
<path d="M50.111 22.7825C50.1205 22.784 50.1301 22.784 50.1396 22.7825C50.1476 22.7785 50.1547 22.7731 50.1606 22.7664C50.1664 22.7597 50.1709 22.7519 50.1737 22.7434C50.1765 22.735 50.1776 22.7261 50.1769 22.7172C50.1763 22.7083 50.1739 22.6997 50.1698 22.6917C50.1247 22.5959 50.0571 22.5123 49.9729 22.448C49.8887 22.3837 49.7903 22.3405 49.686 22.3221C49.6685 22.3207 49.6511 22.3259 49.6374 22.3369C49.6236 22.3478 49.6146 22.3636 49.6121 22.3809C49.6102 22.3985 49.6153 22.4161 49.6263 22.43C49.6373 22.4438 49.6533 22.4528 49.6709 22.4549C49.7533 22.4707 49.8307 22.5059 49.8967 22.5576C49.9627 22.6093 50.0155 22.676 50.0506 22.7522C50.0571 22.7622 50.0661 22.7702 50.0767 22.7755C50.0873 22.7808 50.0992 22.7832 50.111 22.7825Z" fill="#263238"/>
<path d="M49.602 23.52C49.4698 23.7653 49.3047 23.9913 49.1115 24.192C49.1638 24.2399 49.2259 24.2758 49.2935 24.2973C49.3611 24.3187 49.4325 24.3253 49.5029 24.3163L49.602 23.52Z" fill="#630F0F"/>
<path d="M49.7279 23.3302C49.7145 23.4427 49.6422 23.5267 49.57 23.5183C49.4978 23.5099 49.4474 23.4108 49.4608 23.2982C49.4742 23.1857 49.5465 23.1017 49.6288 23.1101C49.7111 23.1185 49.7397 23.2176 49.7279 23.3302Z" fill="#263238"/>
<path d="M49.6507 23.1202L49.392 23.016C49.392 23.016 49.5012 23.2378 49.6507 23.1202Z" fill="#263238"/>
<path d="M52.5873 67.5764L51.2165 67.8956L50.3832 64.7439L51.7541 64.4247L52.5873 67.5764Z" fill="#7F3E3B"/>
<path d="M54.6907 68.4969H53.2845L53.3937 65.2394H54.8016L54.6907 68.4969Z" fill="#7F3E3B"/>
<path d="M53.1719 68.334H54.7528C54.7802 68.3337 54.8068 68.3435 54.8275 68.3614C54.8482 68.3794 54.8617 68.4043 54.8653 68.4314L55.0451 69.6813C55.0487 69.713 55.0455 69.745 55.0358 69.7753C55.0261 69.8055 55.0101 69.8334 54.9888 69.8571C54.9675 69.8807 54.9415 69.8996 54.9124 69.9125C54.8833 69.9253 54.8518 69.9319 54.82 69.9317C54.2689 69.9233 54.0035 69.8897 53.308 69.8897C52.8796 69.8897 52.2546 69.935 51.6649 69.935C51.0753 69.935 51.0417 69.3504 51.2886 69.2983C52.3907 69.0597 52.5654 68.7338 52.9367 68.4213C53.0023 68.3653 53.0856 68.3344 53.1719 68.334Z" fill="#263238"/>
<path d="M51.0955 67.6856L52.5319 67.0253C52.5563 67.0137 52.5841 67.0114 52.6101 67.0188C52.6361 67.0262 52.6584 67.0429 52.673 67.0656L53.3601 68.1274C53.3762 68.1547 53.3863 68.1851 53.3899 68.2166C53.3935 68.2481 53.3904 68.28 53.3809 68.3102C53.3714 68.3404 53.3557 68.3683 53.3347 68.3921C53.3138 68.4159 53.2881 68.435 53.2593 68.4483C52.7553 68.67 52.5 68.7524 51.8683 69.043C51.4802 69.2211 50.6923 69.631 50.158 69.883C49.6238 70.135 49.3483 69.6125 49.5499 69.4613C50.452 68.7893 50.7108 68.3072 50.9174 67.8687C50.9523 67.7879 51.0157 67.7227 51.0955 67.6856Z" fill="#263238"/>
<path opacity="0.2" d="M50.3832 64.7439L50.8301 66.434L52.1841 66.0492L51.7557 64.4247L50.3832 64.7439Z" fill="black"/>
<path opacity="0.2" d="M54.8015 65.2394H53.3937L53.3383 66.9194H54.7461L54.8015 65.2394Z" fill="black"/>
<path d="M55.4399 28.2845C56.0246 28.4138 56.6495 30.5155 56.6495 30.5155L54.9964 32.2745C54.9964 32.2745 53.6238 30.2988 53.9044 29.573C54.1883 28.8154 54.7427 28.1333 55.4399 28.2845Z" fill="#263238"/>
<path opacity="0.4" d="M54.5058 29.6234C54.2101 29.3529 54.0102 29.4335 53.8741 29.6486C53.7397 30.2735 54.5361 31.5823 54.8569 32.0779C55.0048 31.4865 55.1745 30.2399 54.5058 29.6234Z" fill="black"/>
<path d="M48.0329 28.3265C48.0329 28.3265 47.3609 28.5617 48.7049 36.8189H54.4169C54.3211 34.4937 54.3177 33.059 55.4249 28.2845C54.6245 28.1193 53.8131 28.0126 52.9973 27.9653C52.1337 27.903 51.2669 27.903 50.4033 27.9653C49.2962 28.0677 48.0329 28.3265 48.0329 28.3265Z" fill="#263238"/>
<path opacity="0.4" d="M47.9807 31.495C48.0177 31.8965 48.0664 32.3484 48.1302 32.8591C48.599 32.4375 48.982 31.2379 48.8409 30.5391C48.506 30.8109 48.2158 31.1334 47.9807 31.495Z" fill="black"/>
<path d="M48.5923 30.24C48.284 31.0158 47.937 31.7756 47.5523 32.5164C47.1722 33.284 46.7223 34.0151 46.2083 34.7004L46.1008 34.8331L46.0471 34.8987C46.0286 34.9205 46.0135 34.9407 45.9849 34.9709C45.8838 35.0812 45.7712 35.1803 45.6489 35.2666C45.4328 35.4162 45.1963 35.5338 44.9467 35.616C44.5113 35.7551 44.0593 35.8353 43.6027 35.8546C42.7475 35.8886 41.8915 35.8124 41.0558 35.6278L41.1482 34.9222C41.5346 34.9222 41.9395 34.9222 42.3242 34.8903C42.7106 34.8713 43.0955 34.8286 43.4767 34.7626C43.8307 34.7073 44.177 34.6104 44.5082 34.4736C44.642 34.4165 44.767 34.3407 44.8795 34.2485C44.9224 34.2125 44.9613 34.172 44.9954 34.1275C44.9954 34.1275 45.0155 34.1007 45.029 34.0822L45.0676 34.0267L45.1466 33.9159C45.5681 33.2647 45.9437 32.5849 46.2705 31.8814C46.6065 31.1674 46.9425 30.4265 47.2499 29.6974L48.5923 30.24Z" fill="#803E3C"/>
<path d="M48.0329 28.3264C47.3323 28.4944 46.4722 30.4163 46.4722 30.4163L47.9237 32.5499C47.9237 32.5499 49.8574 30.1156 49.6272 29.3731C49.392 28.5986 48.888 28.1181 48.0329 28.3264Z" fill="#263238"/>
<path d="M41.5514 35.0297L40.3401 34.4702L40.2191 35.6748C40.2191 35.6748 41.2271 35.9721 41.7311 35.6748L41.5514 35.0297Z" fill="#7F3E3B"/>
<path d="M39.616 34.3492L39.5001 35.2665L40.2192 35.6748L40.3401 34.4702L39.616 34.3492Z" fill="#7F3E3B"/>
<path d="M53.5617 23.4125C53.3047 24.785 53.2258 25.373 52.4395 25.9963C51.2635 26.9338 49.6255 26.3189 49.4676 24.8976C49.3231 23.6174 49.7666 21.588 51.1896 21.2016C51.503 21.1151 51.8334 21.1104 52.1492 21.1878C52.465 21.2653 52.7557 21.4224 52.9936 21.6441C53.2314 21.8658 53.4086 22.1447 53.508 22.4543C53.6075 22.7638 53.626 23.0937 53.5617 23.4125Z" fill="#7F3E3B"/>
<path d="M50.5461 23.7015C50.4671 24.4021 50.4369 26.2215 51.9757 26.2786C53.859 26.3475 54.4235 24.7381 54.2555 24.0946C55.2366 23.2966 55.3777 21.9241 54.2757 20.8741C53.1736 19.8241 50.7477 20.4104 50.0757 21.4335C49.2239 22.7019 50.5461 23.7015 50.5461 23.7015Z" fill="#263238"/>
<path d="M52.4328 21.2823C52.3421 20.5431 52.4127 20.0341 53.1048 20.0341C53.797 20.0341 54.7411 20.2844 55.0872 20.9917C55.4333 21.6989 55.4619 22.8061 54.4959 22.6935C53.5299 22.5809 52.542 22.166 52.4328 21.2823Z" fill="#407BFF"/>
<path d="M53.5046 21.1042C53.3366 20.2238 54.1245 17.7442 56.038 17.5762C56.9251 17.5006 57.335 18.4548 56.878 18.6127C57.718 18.6026 58.2556 19.7131 57.4727 19.8794C58.091 20.2759 57.9381 21.089 57.0561 21.4889C56.3992 21.7913 53.7314 22.3238 53.5046 21.1042Z" fill="#263238"/>
<path d="M55.5492 22.05C54.9326 22.05 54.2892 21.9592 53.8893 21.6921C53.7776 21.6247 53.6834 21.5317 53.6148 21.4206C53.5461 21.3096 53.5049 21.1838 53.4946 21.0537C53.4941 21.0427 53.4978 21.0318 53.5049 21.0234C53.5121 21.015 53.5222 21.0096 53.5332 21.0084C53.5388 21.0077 53.5444 21.0081 53.5498 21.0097C53.5551 21.0113 53.5601 21.014 53.5644 21.0177C53.5687 21.0213 53.5721 21.0258 53.5746 21.0308C53.577 21.0359 53.5784 21.0414 53.5786 21.047C53.5887 21.1644 53.6264 21.2778 53.6885 21.3779C53.7507 21.4781 53.8356 21.5621 53.9364 21.6232C54.6974 22.1272 56.4564 21.9592 57.0041 21.7912C57.4778 21.6367 57.7987 21.336 57.8626 20.9899C57.8825 20.8629 57.8668 20.7328 57.8172 20.6142C57.7677 20.4956 57.6863 20.393 57.582 20.3179C57.578 20.3141 57.5748 20.3096 57.5726 20.3045C57.5704 20.2994 57.5693 20.294 57.5693 20.2885C57.5693 20.283 57.5704 20.2775 57.5726 20.2725C57.5748 20.2674 57.578 20.2628 57.582 20.2591C57.5898 20.2514 57.6004 20.2471 57.6114 20.2471C57.6224 20.2471 57.6329 20.2514 57.6408 20.2591C57.7581 20.3446 57.8492 20.4611 57.9041 20.5955C57.959 20.7299 57.9754 20.8769 57.9516 21.0201C57.8827 21.3981 57.5417 21.7207 57.0377 21.8853C56.5514 22.0079 56.0505 22.0633 55.5492 22.05Z" fill="#263238"/>
<path d="M50.1177 23.5199C49.9612 23.7394 49.8967 24.0113 49.9379 24.2776C49.9934 24.6304 50.3361 24.6539 50.5847 24.4288C50.8334 24.2037 51.0501 23.7971 50.867 23.5048C50.8263 23.4417 50.7701 23.39 50.7038 23.3547C50.6375 23.3194 50.5632 23.3017 50.4881 23.3032C50.413 23.3047 50.3395 23.3254 50.2747 23.3634C50.2098 23.4013 50.1558 23.4552 50.1177 23.5199Z" fill="#7F3E3B"/>
<path d="M50.2135 36.8188C50.2135 36.8188 51.03 46.4772 51.8784 51.9204C52.5621 56.3169 53.1031 66.5935 53.1031 66.5935H55.0217C55.0217 66.5935 55.7037 56.6244 55.3577 52.2765C54.479 41.2725 56.4396 40.3754 54.4219 36.8205L50.2135 36.8188Z" fill="#407BFF"/>
<path opacity="0.4" d="M52.6294 40.4695C51.869 41.2675 51.2554 42.1934 50.8167 43.2045C51.0401 45.3751 51.3055 47.7842 51.5878 49.8943C52.7459 46.896 53.1048 43.6483 52.6294 40.4695Z" fill="black"/>
<path d="M48.8711 36.7584C48.8711 36.7584 47.0987 47.3071 46.8198 52.0615C47.5153 56.4581 50.3613 65.7519 50.3613 65.7519L52.1068 65.1185C52.1068 65.1185 51.1408 54.9847 50.0908 52.2111C52.4545 44.2529 54.1917 42.2403 53.686 36.8189C52.4747 36.8189 48.8711 36.7584 48.8711 36.7584Z" fill="#407BFF"/>
<path d="M50.1277 66.2155L52.4865 65.5754L52.3521 64.6346L49.827 65.3184L50.1277 66.2155Z" fill="#263238"/>
<path d="M52.8394 66.6321H55.2838L55.4114 65.7753L52.8259 65.688L52.8394 66.6321Z" fill="#263238"/>
<path d="M54.5059 36.4829L54.7629 36.9953C54.7831 37.0356 54.736 37.076 54.6705 37.076H48.6763C48.6259 37.076 48.5822 37.0507 48.5788 37.0171L48.5267 36.5131C48.5267 36.4779 48.5687 36.4476 48.6242 36.4476H54.4118C54.4292 36.4453 54.4468 36.4472 54.4633 36.4534C54.4797 36.4596 54.4943 36.4697 54.5059 36.4829Z" fill="#407BFF"/>
<path opacity="0.5" d="M54.5059 36.4829L54.7629 36.9953C54.7831 37.0356 54.736 37.076 54.6705 37.076H48.6763C48.6259 37.076 48.5822 37.0507 48.5788 37.0171L48.5267 36.5131C48.5267 36.4779 48.5687 36.4476 48.6242 36.4476H54.4118C54.4292 36.4453 54.4468 36.4472 54.4633 36.4534C54.4797 36.4596 54.4943 36.4697 54.5059 36.4829Z" fill="black"/>
<path d="M53.728 37.1281H53.8826C53.9145 37.1281 53.938 37.1113 53.9363 37.0928L53.8624 36.4208C53.8624 36.4006 53.8339 36.3855 53.8036 36.3855H53.6474C53.6171 36.3855 53.5936 36.4006 53.5953 36.4208L53.6675 37.0928C53.6709 37.1146 53.6978 37.1281 53.728 37.1281Z" fill="#407BFF"/>
<path d="M51.6482 32.2359C51.6297 32.2356 51.6117 32.2294 51.5969 32.2182C51.5821 32.2071 51.5712 32.1915 51.5659 32.1737C51.0182 30.1476 49.8859 28.4777 49.3365 28.2257C49.2938 28.1995 49.2426 28.1911 49.1937 28.2022C49.1836 28.2075 49.1724 28.2108 49.161 28.2116C49.1496 28.2125 49.1381 28.211 49.1272 28.2073C49.1164 28.2036 49.1064 28.1977 49.098 28.19C49.0895 28.1822 49.0827 28.1728 49.078 28.1624C49.0733 28.1519 49.0707 28.1406 49.0706 28.1292C49.0704 28.1177 49.0726 28.1063 49.077 28.0957C49.0814 28.0851 49.0879 28.0755 49.0961 28.0676C49.1043 28.0596 49.1141 28.0534 49.1248 28.0493C49.1708 28.0325 49.2198 28.0258 49.2686 28.0299C49.3173 28.0339 49.3646 28.0486 49.4071 28.0728C49.9884 28.3484 51.1375 29.9948 51.712 32.0662C52.1236 32.0662 52.7587 32.0108 52.9132 31.9973C53.1048 31.7688 54.5126 30.0082 53.9868 28.0812C53.9837 28.0706 53.9828 28.0596 53.9842 28.0486C53.9855 28.0377 53.989 28.0271 53.9945 28.0176C54 28.008 54.0073 27.9996 54.0161 27.993C54.0249 27.9863 54.0349 27.9815 54.0456 27.9788C54.0669 27.9731 54.0897 27.9761 54.1089 27.9871C54.1281 27.9981 54.1421 28.0162 54.148 28.0376C54.7344 30.1812 53.0342 32.1149 53.0157 32.1334C53.0092 32.1415 53.001 32.1483 52.9918 32.1532C52.9825 32.1581 52.9724 32.1611 52.962 32.162C52.9536 32.162 52.1152 32.2359 51.6482 32.2359Z" fill="#407BFF"/>
<path d="M54.432 33.4219C53.5164 31.7066 53.1418 31.5856 52.9788 31.0346C53.1023 30.7264 53.2785 30.4422 53.4996 30.1946C53.3887 30.1627 53.1502 30.1156 52.9956 30.0871C53.0124 30.0115 53.0309 29.9375 53.0477 29.8653C52.8795 29.8465 52.7094 29.8544 52.5437 29.8888V29.7208C52.3303 29.6744 52.1111 29.6602 51.8935 29.6788C51.9126 29.7583 51.9311 29.839 51.949 29.9207C51.781 29.9527 51.5256 30.0047 51.403 30.04C51.6413 30.3099 51.8163 30.6296 51.9154 30.9758C51.4214 31.8242 49.5029 37.2775 52.6243 37.6958C55.7458 38.1141 55.3459 35.1388 54.432 33.4219Z" fill="#407BFF"/>
<path opacity="0.4" d="M54.432 33.4219C53.5164 31.7066 53.1418 31.5856 52.9788 31.0346C53.1023 30.7264 53.2785 30.4422 53.4996 30.1946C53.3887 30.1627 53.1502 30.1156 52.9956 30.0871C53.0124 30.0115 53.0309 29.9375 53.0477 29.8653C52.8795 29.8465 52.7094 29.8544 52.5437 29.8888V29.7208C52.3303 29.6744 52.1111 29.6602 51.8935 29.6788C51.9126 29.7583 51.9311 29.839 51.949 29.9207C51.781 29.9527 51.5256 30.0047 51.403 30.04C51.6413 30.3099 51.8163 30.6296 51.9154 30.9758C51.4214 31.8242 49.5029 37.2775 52.6243 37.6958C55.7458 38.1141 55.3459 35.1388 54.432 33.4219Z" fill="white"/>
<path d="M51.7877 30.8129C51.7682 30.8994 51.7598 30.988 51.7625 31.0766C51.7625 31.1388 51.9305 31.1808 52.1169 31.1993C52.3034 31.2177 53.0863 31.248 53.0611 31.1606C53.0359 31.0733 53.0997 30.954 53.1031 30.8801C53.1065 30.8061 52.7923 30.8028 52.5285 30.8129C52.2648 30.8229 51.8397 30.7188 51.7877 30.8129Z" fill="#407BFF"/>
<path d="M49.9715 37.1281H50.1261C50.1563 37.1281 50.1798 37.1113 50.1782 37.0928L50.1059 36.4208C50.1059 36.4006 50.0774 36.3855 50.0454 36.3855H49.8959C49.8657 36.3855 49.8422 36.4006 49.8438 36.4208L49.9161 37.0928C49.9127 37.1146 49.9396 37.1281 49.9715 37.1281Z" fill="#407BFF"/>
</svg>
