<svg width="84" height="84" viewBox="0 0 84 84" fill="none" xmlns="http://www.w3.org/2000/svg">
<path d="M84 64.2432H0V64.2852H84V64.2432Z" fill="#EBEBEB"/>
<path d="M27.6511 66.8337H22.0869V66.8757H27.6511V66.8337Z" fill="#EBEBEB"/>
<path d="M43.4851 66.3785H42.0251V66.4205H43.4851V66.3785Z" fill="#EBEBEB"/>
<path d="M12.0372 65.6695H8.81323V65.7115H12.0372V65.6695Z" fill="#EBEBEB"/>
<path d="M69.851 65.3873H65.4696V65.4293H69.851V65.3873Z" fill="#EBEBEB"/>
<path d="M63.9727 65.3873H60.0348V65.4293H63.9727V65.3873Z" fill="#EBEBEB"/>
<path d="M75.5849 67.4033H59.8467V67.4453H75.5849V67.4033Z" fill="#EBEBEB"/>
<path d="M39.816 56.7504H7.37691C7.12279 56.7499 6.87922 56.6487 6.69968 56.4688C6.52015 56.289 6.41931 56.0452 6.41931 55.7911V10.1909C6.42152 9.9382 6.52334 9.69661 6.70263 9.51857C6.88193 9.34053 7.12423 9.24042 7.37691 9.23999H39.816C40.0704 9.23999 40.3144 9.34106 40.4943 9.52096C40.6742 9.70086 40.7753 9.94485 40.7753 10.1993V55.7911C40.7753 56.0455 40.6742 56.2895 40.4943 56.4694C40.3144 56.6493 40.0704 56.7504 39.816 56.7504ZM7.37691 9.27359C7.13393 9.27404 6.90104 9.37087 6.72938 9.54285C6.55772 9.71482 6.46131 9.94788 6.46131 10.1909V55.7911C6.46131 56.0341 6.55772 56.2672 6.72938 56.4391C6.90104 56.6111 7.13393 56.7079 7.37691 56.7084H39.816C40.0592 56.7079 40.2922 56.6112 40.4642 56.4392C40.6361 56.2673 40.7329 56.0343 40.7333 55.7911V10.1909C40.7329 9.94773 40.6361 9.71467 40.4642 9.54275C40.2922 9.37082 40.0592 9.27403 39.816 9.27359H7.37691Z" fill="#EBEBEB"/>
<path d="M76.1561 56.7504H43.7153C43.461 56.7499 43.2172 56.6487 43.0374 56.4689C42.8576 56.2891 42.7564 56.0454 42.756 55.7911V10.1909C42.7586 9.93805 42.8608 9.69646 43.0404 9.51847C43.2199 9.34047 43.4624 9.24042 43.7153 9.23999H76.1561C76.4084 9.24086 76.6503 9.34117 76.8293 9.51916C77.0082 9.69715 77.1098 9.93849 77.112 10.1909V55.7911C77.112 56.0449 77.0114 56.2884 76.8322 56.4682C76.653 56.648 76.4099 56.7495 76.1561 56.7504ZM43.7153 9.27359C43.4721 9.27403 43.2391 9.37082 43.0671 9.54275C42.8952 9.71467 42.7984 9.94773 42.798 10.1909V55.7911C42.7984 56.0343 42.8952 56.2673 43.0671 56.4392C43.2391 56.6112 43.4721 56.7079 43.7153 56.7084H76.1561C76.3992 56.7079 76.6323 56.6112 76.8042 56.4392C76.9761 56.2673 77.0729 56.0343 77.0733 55.7911V10.1909C77.0729 9.94773 76.9761 9.71467 76.8042 9.54275C76.6323 9.37082 76.3992 9.27403 76.1561 9.27359H43.7153Z" fill="#EBEBEB"/>
<path d="M15.908 37.6135H14.1389V46.0102H15.908V37.6135Z" fill="#F0F0F0"/>
<path d="M15.6224 38.2603H14.4229V43.9538H15.6224V38.2603Z" fill="#FAFAFA"/>
<path d="M15.9062 46.0118H19.6829V37.6152H15.9062V46.0118Z" fill="#E0E0E0"/>
<path d="M18.0449 37.6135H16.2759V46.0102H18.0449V37.6135Z" fill="#F0F0F0"/>
<path d="M17.7609 38.2603H16.5614V43.9538H17.7609V38.2603Z" fill="#FAFAFA"/>
<path d="M18.0449 46.0118H21.8215V37.6152H18.0449V46.0118Z" fill="#E0E0E0"/>
<path d="M20.5229 34.3442H19.8828V64.2415H20.5229V34.3442Z" fill="#EBEBEB"/>
<path d="M9.79267 34.3442H9.15259V64.2415H9.79267V34.3442Z" fill="#EBEBEB"/>
<path d="M23.2797 34.3442H22.6396V64.2415H23.2797V34.3442Z" fill="#EBEBEB"/>
<path d="M12.5496 34.3442H11.9095V64.2415H12.5496V34.3442Z" fill="#EBEBEB"/>
<path d="M12.9495 50.1127H11.1804V58.5094H12.9495V50.1127Z" fill="#F0F0F0"/>
<path d="M12.6655 50.7595H11.4659V56.453H12.6655V50.7595Z" fill="#FAFAFA"/>
<path d="M12.9494 58.511H16.7261V50.1144H12.9494V58.511Z" fill="#E0E0E0"/>
<path d="M15.0881 50.1127H13.3191V58.5094H15.0881V50.1127Z" fill="#F0F0F0"/>
<path d="M14.8024 50.7595H13.6029V56.453H14.8024V50.7595Z" fill="#FAFAFA"/>
<path d="M15.0864 58.511H18.863V50.1144H15.0864V58.511Z" fill="#E0E0E0"/>
<path d="M23.2797 33.5126H8.81323V34.3459H23.2797V33.5126Z" fill="#F0F0F0"/>
<path d="M23.2797 46.0118H8.81323V46.8451H23.2797V46.0118Z" fill="#F0F0F0"/>
<path d="M23.2797 58.511H8.81323V59.3443H23.2797V58.511Z" fill="#F0F0F0"/>
<path d="M13.6029 27.0598H23.4897V14.6328L13.6029 14.6328L13.6029 27.0598Z" fill="#F0F0F0"/>
<path d="M11.419 27.0598H23.1101V14.6328L11.419 14.6328L11.419 27.0598Z" fill="#F5F5F5"/>
<path d="M12.4 15.6122V26.0803H22.1323V15.6122H12.4Z" fill="white"/>
<path d="M17.2653 23.0429C18.4789 23.0429 19.4627 22.0591 19.4627 20.8455C19.4627 19.6318 18.4789 18.648 17.2653 18.648C16.0517 18.648 15.0679 19.6318 15.0679 20.8455C15.0679 22.0591 16.0517 23.0429 17.2653 23.0429Z" fill="#F0F0F0"/>
<path d="M36.3989 34.5543L73.8242 34.5543V12.7781L36.3989 12.7781V34.5543Z" fill="#F0F0F0"/>
<path d="M30.9775 34.5543L72.786 34.5543V12.7781L30.9775 12.7781V34.5543Z" fill="#F5F5F5"/>
<path d="M33.4102 14.495V32.8389H70.3534V14.495L33.4102 14.495Z" fill="white"/>
<path d="M33.4102 14.495V20.3448L70.3534 20.3448V14.495L33.4102 14.495Z" fill="#FAFAFA"/>
<path d="M33.4102 25.1025V32.8389H70.3534V25.1025L33.4102 25.1025Z" fill="#F0F0F0"/>
<path d="M73.6108 47.5994H72.5071V64.2415H73.6108V47.5994Z" fill="#E6E6E6"/>
<path d="M73.9586 47.5994H73.1925V64.2415H73.9586V47.5994Z" fill="#F0F0F0"/>
<path d="M45.0728 49.4777L74.1956 49.4777V47.6011H45.0728V49.4777Z" fill="#F0F0F0"/>
<path d="M44.5789 49.476H43.4751V64.2415H44.5789V49.476Z" fill="#E6E6E6"/>
<path d="M44.9266 49.476H44.1605V64.2415H44.9266V49.476Z" fill="#F0F0F0"/>
<path d="M37.5967 49.476H36.4929V64.2415H37.5967V49.476Z" fill="#E6E6E6"/>
<path d="M37.9445 49.476H37.1785V64.2415H37.9445V49.476Z" fill="#E6E6E6"/>
<path d="M66.6288 49.476H65.525V64.2415H66.6288V49.476Z" fill="#E6E6E6"/>
<path d="M66.9765 49.476H66.2104V64.2415H66.9765V49.476Z" fill="#E6E6E6"/>
<path d="M45.0727 47.5994H36.4929V49.476H45.0727V47.5994Z" fill="#E6E6E6"/>
<path d="M67.0018 43.7925C66.0627 44.8425 62.696 45.9362 61.7014 42.6367C60.9773 40.2393 65.0245 38.4653 67.447 38.3628C70.0561 38.2536 71.5983 39.1725 71.5983 39.1725C69.9802 40.6246 68.4456 42.1671 67.0018 43.7925Z" fill="#E6E6E6"/>
<path d="M61.6997 44.4914C63.0219 44.6325 65.2697 43.6229 64.3793 40.8475C63.4889 38.0722 61.6711 37.8134 60.4682 37.5816C58.9344 37.2859 55.8684 38.5392 55.8684 38.5392C55.8684 38.5392 60.3792 44.352 61.6997 44.4914Z" fill="#E6E6E6"/>
<path d="M65.1589 39.4212C63.494 40.1772 62.0979 40.4292 62.8858 38.0772C63.6737 35.7252 64.633 34.5912 66.1971 34.1124C68.1896 33.5009 70.555 34.8147 70.555 34.8147C70.555 34.8147 66.8221 38.6652 65.1589 39.4212Z" fill="#E6E6E6"/>
<path d="M62.8992 39.2616C64.1692 39.6379 65.1705 39.5589 64.223 37.2893C63.2755 35.0196 62.6438 34.7357 61.5568 34.3005C59.5408 33.4958 57.8608 34.9406 57.8608 34.9406C57.8608 34.9406 61.6274 38.8853 62.8992 39.2616Z" fill="#E6E6E6"/>
<path d="M65.6645 35.5169C64.2835 36.7265 63.0118 37.4926 63.0689 35.6126C63.126 33.7327 64.1021 32.046 65.5889 31.2883C66.612 30.7658 68.8733 31.001 68.8733 31.001C68.8733 31.001 67.0454 34.3073 65.6645 35.5169Z" fill="#E6E6E6"/>
<path d="M62.1046 35.2027C63.0084 35.9235 63.7846 36.3031 63.5074 34.7743C63.2302 33.2455 62.7178 32.8356 61.8542 32.2963C61.159 31.8875 60.3335 31.7607 59.5476 31.9419C59.5476 31.9419 61.2007 34.482 62.1046 35.2027Z" fill="#E6E6E6"/>
<path d="M68.3256 43.7556H59.2502L60.4447 47.5995H67.1311L68.3256 43.7556Z" fill="#F0F0F0"/>
<path d="M42 71.8301C59.9899 71.8301 74.5736 70.9786 74.5736 69.9283C74.5736 68.878 59.9899 68.0266 42 68.0266C24.0102 68.0266 9.42651 68.878 9.42651 69.9283C9.42651 70.9786 24.0102 71.8301 42 71.8301Z" fill="#F5F5F5"/>
<path d="M48.315 31.1035L48.1084 31.3773C48.0412 31.4647 47.9706 31.5453 47.9017 31.631C47.7657 31.799 47.6195 31.967 47.475 32.1216C47.178 32.4465 46.8646 32.7561 46.5359 33.0489C46.3679 33.1985 46.1999 33.3446 46.0134 33.4874C45.8269 33.6302 45.6371 33.7663 45.4321 33.9007C44.9723 34.2131 44.4602 34.4407 43.9201 34.5727L43.8613 34.5861C43.8062 34.599 43.7499 34.6063 43.6933 34.608C43.4193 34.6174 43.1463 34.5693 42.892 34.4669C42.7141 34.3964 42.545 34.3057 42.388 34.1964C42.1449 34.0252 41.9198 33.8299 41.716 33.6134C41.3706 33.2455 41.058 32.8481 40.7819 32.4257C40.5181 32.0225 40.2779 31.6159 40.0629 31.2009C39.8435 30.786 39.6461 30.3598 39.4715 29.9241C39.41 29.7764 39.4033 29.6116 39.4525 29.4594C39.5017 29.3071 39.6035 29.1774 39.7398 29.0936C39.8761 29.0097 40.0378 28.9773 40.1959 29.002C40.354 29.0268 40.498 29.1071 40.6021 29.2286L40.6173 29.2454L41.4825 30.2232C41.7731 30.5457 42.0637 30.8633 42.3594 31.1606C42.6336 31.4443 42.9266 31.7092 43.2364 31.9536C43.3543 32.0474 43.4822 32.1279 43.6177 32.1938C43.6456 32.2089 43.6768 32.2169 43.7085 32.2173C43.7085 32.2173 43.6698 32.1854 43.5657 32.1854L43.3355 32.2224C43.562 32.1075 43.775 31.9677 43.9705 31.8057C44.2348 31.5875 44.4877 31.3559 44.7282 31.1119C44.9785 30.8549 45.2322 30.5861 45.4792 30.3072L45.8454 29.8855L46.1949 29.4739L46.2369 29.4252C46.4651 29.1649 46.785 29.0028 47.1299 28.9726C47.4748 28.9424 47.818 29.0464 48.088 29.263C48.3581 29.4795 48.5342 29.792 48.5796 30.1352C48.625 30.4783 48.5363 30.8258 48.3318 31.1052L48.315 31.1035Z" fill="#263238"/>
<path d="M39.7269 29.5041C39.0784 29.6049 38.4619 28.5533 38.4619 28.5533L37.9763 27.9753C37.8976 27.8811 37.8545 27.7622 37.8545 27.6393C37.8545 27.5165 37.8976 27.3976 37.9763 27.3033L38.3947 26.8161C38.4401 26.7635 38.4956 26.7203 38.5579 26.6893C38.6202 26.6583 38.688 26.64 38.7574 26.6355C38.8268 26.6309 38.8965 26.6403 38.9623 26.6629C39.0281 26.6856 39.0887 26.7211 39.1406 26.7674L39.6967 27.2714C39.7959 27.3606 39.875 27.47 39.9285 27.5923L40.1452 28.0963C40.2358 28.3053 40.2653 28.5358 40.2302 28.7609C40.1951 28.986 40.0969 29.1965 39.947 29.3681L39.9067 29.4151C39.8578 29.4632 39.7948 29.4944 39.7269 29.5041Z" fill="#FFC3BD"/>
<path d="M55.5408 53.5651C54.7193 47.4802 54.395 43.8699 53.8608 40.8442L48.6847 40.7669C48.6847 40.7669 51.0081 50.4706 52.1136 54.432C53.219 58.3935 59.472 68.2315 59.472 68.2315L60.8462 67.4151C60.8462 67.4151 57.0192 58.1734 55.5408 53.5651Z" fill="#263238"/>
<path d="M58.553 69.7603C58.553 69.7603 59.5879 68.4953 59.5711 68.0669L60.7101 67.3949L61.3368 68.6465L60.7874 68.9825L60.6194 68.9304L60.5001 69.1522C59.9323 69.4882 59.0184 70.0023 58.5933 70.0812C58.5602 70.0354 58.5391 69.982 58.532 69.9259C58.525 69.8699 58.5322 69.8129 58.553 69.7603Z" fill="#263238"/>
<path d="M53.6356 28.5936C51.8061 28.3668 49.1903 28.387 47.4364 28.691C46.9984 28.7706 46.5965 28.9859 46.2875 29.3064C45.9785 29.6268 45.778 30.0363 45.7144 30.4769C45.3448 33.1246 45.6623 37.753 45.8992 42.4049C49.9027 43.7758 54.1312 42.3864 54.1312 42.3864C54.2774 41.4456 53.9498 38.3662 53.728 36.7231C54.064 35.0246 54.7595 33.0809 55.2232 30.8263C55.2787 30.5743 55.2808 30.3134 55.2294 30.0605C55.178 29.8076 55.0741 29.5682 54.9246 29.3579C54.775 29.1476 54.583 28.9709 54.361 28.8392C54.139 28.7076 53.8919 28.6239 53.6356 28.5936Z" fill="#263238"/>
<path d="M48.9182 28.513C48.6709 28.7993 48.5158 29.1535 48.473 29.5294C48.2849 30.6046 48.4982 32.2627 49.0644 34.1628C49.607 32.6323 50.7746 30.6062 51.4937 29.4302C51.8297 28.8725 52.0699 28.5046 52.0917 28.471C51.0462 28.2268 49.9569 28.2412 48.9182 28.513Z" fill="#368268"/>
<path d="M51.8246 25.0975L49.7414 26.8061C50.0102 27.5235 50.0959 28.2694 48.9182 28.5567C48.6242 28.9464 49.1434 29.3967 49.6306 29.5949C50.4168 29.4975 51.5239 29.2354 52.0027 28.5869C51.8515 28.056 51.623 26.1576 51.8246 25.0975Z" fill="#FFC3BD"/>
<path d="M49.1332 29.1631C49.2199 29.4133 49.3684 29.6376 49.5649 29.815C49.8825 29.815 50.3478 29.4571 50.3478 29.4571C50.3478 29.4571 50.1681 28.9531 49.9161 28.8506C49.2709 29.0086 49.1332 29.1631 49.1332 29.1631Z" fill="white"/>
<path d="M49.859 29.5949C49.8094 29.5573 49.7527 29.5301 49.6924 29.5148C49.6321 29.4995 49.5694 29.4964 49.5078 29.5058C49.0912 30.0989 48.8258 31.0178 48.5687 32.0796C48.6916 32.7834 48.8571 33.479 49.0643 34.1628C49.2968 33.5311 49.5673 32.9139 49.8741 32.3148C49.7568 31.4122 49.7517 30.4986 49.859 29.5949Z" fill="white"/>
<path opacity="0.2" d="M50.956 25.8098L49.7413 26.8044C49.8071 26.9704 49.8561 27.1426 49.8875 27.3185C50.3579 27.3521 51.0131 26.8766 51.0433 26.4465C51.0534 26.2307 51.0238 26.0149 50.956 25.8098Z" fill="black"/>
<path d="M48.7032 22.2701C48.0312 22.6599 48.3789 23.0479 48.3789 23.0479C48.3789 23.0479 48.0917 23.8207 48.473 24.3533C50.2605 22.213 48.7032 22.2701 48.7032 22.2701Z" fill="#263238"/>
<path d="M52.1237 23.9316C51.9338 25.2386 51.8884 26.0131 51.1694 26.628C50.0841 27.5503 48.5116 26.796 48.3134 25.452C48.1286 24.2457 48.4697 22.3104 49.8019 21.9055C50.0967 21.8172 50.4091 21.805 50.7098 21.8702C51.0106 21.9353 51.2899 22.0756 51.5218 22.2779C51.7537 22.4802 51.9305 22.738 52.0357 23.0272C52.141 23.3164 52.1712 23.6275 52.1237 23.9316Z" fill="#FFC3BD"/>
<path d="M52.0934 24.7481C51.2534 24.8354 51.4097 23.4528 51.6969 23.1806C50.8771 23.1958 51.035 22.6481 51.1358 22.4465C49.77 22.7338 48.804 22.7942 48.1874 22.1105C47.7305 21.6065 47.2449 22.171 47.1005 21.6434C47.4365 21.8232 48.0429 20.9244 48.4529 21.2974C48.8628 21.6703 49.271 20.3666 49.8909 20.9244C50.7309 21.672 52.9351 19.6358 52.7335 21.8803C53.8843 22.8497 52.337 23.4629 52.4378 24.4927C52.122 24.9648 52.0934 24.7481 52.0934 24.7481Z" fill="#263238"/>
<path d="M52.2916 22.1592C52.2713 22.159 52.2517 22.1517 52.2364 22.1385C52.221 22.1252 52.2108 22.107 52.2076 22.0869C52.2047 22.0649 52.2107 22.0426 52.2243 22.025C52.2378 22.0073 52.2578 21.9958 52.2798 21.9929C52.5517 21.9209 52.7896 21.7556 52.9518 21.5258C53.0004 21.4575 53.033 21.3792 53.0473 21.2966C53.0615 21.214 53.0571 21.1293 53.0342 21.0487C53.0284 21.0271 53.0314 21.0041 53.0424 20.9847C53.0534 20.9652 53.0715 20.9508 53.093 20.9445C53.1034 20.9415 53.1144 20.9405 53.1253 20.9417C53.1361 20.943 53.1466 20.9463 53.1562 20.9516C53.1657 20.957 53.1741 20.9641 53.1808 20.9727C53.1876 20.9813 53.1925 20.9911 53.1954 21.0017C53.2244 21.1054 53.2302 21.2142 53.2125 21.3205C53.1948 21.4267 53.154 21.5278 53.093 21.6165C52.9045 21.8889 52.6222 22.0822 52.3 22.1592H52.2916Z" fill="#263238"/>
<path d="M52.5671 24.9463C52.4433 25.2229 52.2149 25.4392 51.932 25.5478C51.5557 25.6889 51.3289 25.3596 51.4028 24.985C51.47 24.649 51.7388 24.1719 52.1387 24.192C52.2245 24.1976 52.3076 24.2245 52.3805 24.2701C52.4534 24.3158 52.5138 24.3789 52.5563 24.4537C52.5987 24.5285 52.622 24.6127 52.6239 24.6986C52.6257 24.7846 52.6062 24.8698 52.5671 24.9463Z" fill="#FFC3BD"/>
<path d="M50.163 23.9787C50.1529 24.0862 50.0891 24.1685 50.0202 24.1618C49.9513 24.1551 49.8993 24.0627 49.9093 23.9551C49.9194 23.8476 49.9816 23.767 50.0521 23.7737C50.1227 23.7804 50.1714 23.8728 50.163 23.9787Z" fill="#263238"/>
<path d="M48.888 23.9484C48.8779 24.0559 48.8141 24.1365 48.7452 24.1298C48.6763 24.1231 48.6242 24.0324 48.6343 23.9249C48.6444 23.8173 48.7065 23.7367 48.7771 23.7417C48.8477 23.7468 48.888 23.8409 48.888 23.9484Z" fill="#263238"/>
<path d="M49.2676 24.0912C49.1133 24.4069 48.9154 24.6993 48.6796 24.9597C48.748 25.019 48.8286 25.0626 48.9156 25.0876C49.0027 25.1125 49.0941 25.1182 49.1836 25.1042L49.2676 24.0912Z" fill="#ED847E"/>
<path d="M50.5999 23.6578C50.6104 23.6603 50.6213 23.6603 50.6318 23.6578C50.6473 23.6514 50.6597 23.6392 50.6663 23.6238C50.6729 23.6084 50.6732 23.5911 50.6671 23.5754C50.6318 23.4814 50.5748 23.397 50.5006 23.3292C50.4264 23.2615 50.3372 23.2123 50.2404 23.1857C50.2323 23.184 50.224 23.1839 50.2159 23.1854C50.2078 23.1869 50.2001 23.1901 50.1932 23.1946C50.1863 23.1991 50.1804 23.205 50.1758 23.2118C50.1712 23.2186 50.168 23.2263 50.1664 23.2344C50.1629 23.2509 50.1661 23.2681 50.1752 23.2822C50.1843 23.2964 50.1987 23.3064 50.2152 23.31C50.2919 23.3318 50.3624 23.3715 50.4208 23.4258C50.4792 23.4801 50.5239 23.5475 50.5512 23.6225C50.5559 23.6318 50.5627 23.6399 50.5712 23.6461C50.5797 23.6522 50.5895 23.6562 50.5999 23.6578Z" fill="#263238"/>
<path d="M48.4125 23.5402C48.4224 23.5434 48.4329 23.5442 48.4431 23.5424C48.4534 23.5407 48.463 23.5364 48.4713 23.5301C48.533 23.4809 48.6057 23.4473 48.6832 23.4321C48.7607 23.4169 48.8407 23.4205 48.9165 23.4427C48.9243 23.4456 48.9326 23.447 48.941 23.4466C48.9493 23.4462 48.9575 23.4441 48.965 23.4405C48.9725 23.4369 48.9792 23.4318 48.9848 23.4256C48.9903 23.4193 48.9945 23.412 48.9971 23.4041C49.0026 23.3885 49.0018 23.3714 48.9949 23.3563C48.988 23.3413 48.9756 23.3295 48.9602 23.3235C48.8645 23.2947 48.7633 23.2893 48.665 23.3077C48.5668 23.3261 48.4745 23.3678 48.3957 23.4293C48.3821 23.4394 48.3731 23.4544 48.3706 23.4711C48.3681 23.4877 48.3723 23.5047 48.3822 23.5183C48.3904 23.528 48.4008 23.5355 48.4125 23.5402Z" fill="#263238"/>
<path d="M52.0934 28.4693C52.0715 28.5029 51.833 28.8708 51.4953 29.4286C51.1524 29.7446 50.7323 29.9648 50.2773 30.067C50.3462 29.8419 50.1446 29.0825 49.9211 28.849C50.6625 28.8587 51.3992 28.7299 52.0934 28.4693Z" fill="#368268"/>
<path opacity="0.3" d="M52.0934 28.4693C52.0715 28.5029 51.833 28.8708 51.4953 29.4286C51.1524 29.7446 50.7323 29.9648 50.2773 30.067C50.3462 29.8419 50.1446 29.0825 49.9211 28.849C50.6625 28.8587 51.3992 28.7299 52.0934 28.4693Z" fill="white"/>
<path d="M49.9161 28.8506C49.6753 28.9557 49.4583 29.1086 49.2784 29.3C49.0985 29.4915 48.9594 29.7176 48.8695 29.9645C48.7764 29.9241 48.6929 29.8644 48.6246 29.7894C48.5562 29.7144 48.5046 29.6258 48.473 29.5293C48.5158 29.1535 48.6709 28.7992 48.9182 28.5129C49.0392 28.6675 49.3718 28.8204 49.9161 28.8506Z" fill="#368268"/>
<path opacity="0.3" d="M49.9161 28.8506C49.6753 28.9557 49.4583 29.1086 49.2784 29.3C49.0985 29.4915 48.9594 29.7176 48.8695 29.9645C48.7764 29.9241 48.6929 29.8644 48.6246 29.7894C48.5562 29.7144 48.5046 29.6258 48.473 29.5293C48.5158 29.1535 48.6709 28.7992 48.9182 28.5129C49.0392 28.6675 49.3718 28.8204 49.9161 28.8506Z" fill="white"/>
<path d="M54.9107 29.3731C55.2467 29.7562 55.534 30.1241 55.8263 30.5155C56.1186 30.907 56.3941 31.3018 56.6562 31.7201C56.9313 32.1448 57.1815 32.5852 57.4055 33.0389C57.5275 33.2828 57.6369 33.5329 57.7331 33.7882C57.8483 34.0884 57.9321 34.3997 57.9834 34.7172L57.9968 34.7995C58.0238 34.9689 58.007 35.1424 57.9481 35.3035C57.7561 35.8111 57.4813 36.2834 57.135 36.7013C56.9837 36.8908 56.8216 37.0714 56.6495 37.2422C56.4815 37.4102 56.3135 37.5782 56.1455 37.721C55.8007 38.0152 55.4376 38.2874 55.0585 38.5358C54.6827 38.787 54.2897 39.0115 53.8825 39.2078C53.7398 39.2891 53.5722 39.3153 53.4115 39.2814C53.2508 39.2476 53.108 39.156 53.0102 39.0241C52.9124 38.8921 52.8663 38.7289 52.8806 38.5653C52.8949 38.4017 52.9686 38.249 53.0879 38.136L53.1181 38.1041C53.3785 37.8218 53.6658 37.5178 53.9245 37.2204C54.1832 36.923 54.442 36.6206 54.6721 36.3149C54.8973 36.0263 55.1017 35.722 55.2836 35.4043C55.4357 35.1463 55.549 34.8672 55.6196 34.5761L55.5844 35.1557C55.5374 35.0204 55.4813 34.8885 55.4164 34.7609C55.334 34.603 55.2484 34.4249 55.1375 34.2569C55.0266 34.0889 54.9208 33.9091 54.8015 33.7344C54.6822 33.5597 54.5629 33.3816 54.4369 33.2052C54.1832 32.8541 53.9212 32.4979 53.6507 32.1468L52.8443 31.1069L52.8275 31.085C52.6087 30.8093 52.5067 30.4587 52.5437 30.1086C52.5806 29.7585 52.7534 29.4369 53.025 29.2128C53.2965 28.9888 53.6452 28.8803 53.9959 28.9106C54.3466 28.9409 54.6715 29.1075 54.9006 29.3748L54.9107 29.3731Z" fill="#263238"/>
<path d="M53.7599 38.9273C53.7638 38.8549 53.7418 38.7834 53.6978 38.7257L53.3315 38.2217C53.2967 38.1734 53.2488 38.136 53.1935 38.1139C53.1381 38.0919 53.0776 38.0862 53.0191 38.0974L52.4983 38.1948C51.9933 38.2908 51.5149 38.4942 51.0955 38.7912L50.9577 38.8887C50.901 38.9289 50.8528 38.98 50.8161 39.0391C50.7793 39.0982 50.7548 39.164 50.7438 39.2327C50.7329 39.3014 50.7357 39.3716 50.7523 39.4392C50.7688 39.5067 50.7987 39.5703 50.8401 39.6262L51.2215 40.142C51.2951 40.2416 51.4017 40.3119 51.5224 40.3402C51.643 40.3685 51.7698 40.353 51.88 40.2965L52.552 39.9504C52.552 39.9504 53.7213 39.5825 53.7599 38.9273Z" fill="#FFC3BD"/>
<path d="M53.4727 37.9227C53.2286 37.8906 52.981 37.8957 52.7385 37.9378C52.589 38.3225 53.224 39.48 53.5499 39.6816C53.7582 39.6329 54.232 39.2263 54.232 39.2263C53.9531 38.8551 53.6642 38.2066 53.4727 37.9227Z" fill="#368268"/>
<path d="M40.6189 29.232C40.6242 28.9861 40.5919 28.7407 40.5232 28.5046C40.125 28.3987 39.0448 29.1564 38.8801 29.5025C38.9507 29.7041 39.4076 30.1308 39.4076 30.1308C39.747 29.8116 40.3585 29.4521 40.6189 29.232Z" fill="#368268"/>
<path d="M59.4114 68.3189L60.9638 67.4537L60.6093 66.4927L58.8839 67.662L59.4114 68.3189Z" fill="#368268"/>
<path d="M50.4553 54.1128C50.8249 47.9741 51.5339 43.8648 51.2382 40.8408L46.0688 40.7635C46.0688 40.7635 46.593 50.5076 46.9088 54.5597C47.2247 58.6119 48.9719 68.6314 48.9719 68.6314H50.5712C50.5712 68.6314 51.0164 58.8639 50.4553 54.1128Z" fill="#263238"/>
<path d="M46.3781 69.4814C46.3781 69.4814 48.977 68.9203 49.1417 68.544H50.4672L50.5092 69.9418H49.4289L49.2979 69.8141L49.0963 69.9418C48.4361 69.9418 46.704 69.9166 46.284 69.7738C46.2714 69.7211 46.2735 69.666 46.2901 69.6144C46.3067 69.5629 46.3371 69.5169 46.3781 69.4814Z" fill="#263238"/>
<path d="M48.8913 68.6801L50.6721 68.7288L50.7544 67.7208L48.688 67.8451L48.8913 68.6801Z" fill="#368268"/>
<path d="M49.6775 25.4889C49.609 25.4913 49.5405 25.4879 49.4725 25.4789C49.4679 25.4781 49.4635 25.4764 49.4595 25.4738C49.4556 25.4712 49.4523 25.4678 49.4498 25.4638C49.4472 25.4599 49.4455 25.4554 49.4448 25.4508C49.4441 25.4461 49.4444 25.4414 49.4456 25.4369C49.4473 25.4273 49.4526 25.4188 49.4605 25.4132C49.4683 25.4075 49.4781 25.4052 49.4876 25.4066C49.6411 25.4286 49.7975 25.4161 49.9454 25.3699C50.0934 25.3237 50.2291 25.2449 50.3428 25.1395C50.3455 25.135 50.3491 25.1311 50.3535 25.1282C50.3579 25.1253 50.3629 25.1234 50.3681 25.1226C50.3733 25.1219 50.3786 25.1223 50.3837 25.1239C50.3887 25.1255 50.3933 25.1281 50.3972 25.1317C50.401 25.1353 50.404 25.1398 50.4059 25.1447C50.4079 25.1496 50.4087 25.1548 50.4083 25.1601C50.4079 25.1654 50.4063 25.1705 50.4037 25.175C50.4011 25.1796 50.3975 25.1835 50.3932 25.1865C50.2001 25.3722 49.9452 25.4799 49.6775 25.4889Z" fill="#263238"/>
<path d="M59.9323 52.2094H58.5413V52.3774H59.9323V52.2094Z" fill="#368268"/>
<path d="M64.087 52.2094H60.9622V52.3774H64.087V52.2094Z" fill="#368268"/>
<path d="M65.1034 45.402H45.6154L42.4738 51.2064C42.4423 51.2649 42.4264 51.3306 42.4277 51.3971C42.429 51.4636 42.4474 51.5286 42.4812 51.5859C42.515 51.6431 42.563 51.6907 42.6205 51.724C42.6781 51.7573 42.7433 51.7752 42.8098 51.7759H65.1034L66.696 48.5839L65.1034 45.402Z" fill="#368268"/>
<path d="M43.255 17.2771C46.6233 17.5867 49.7684 19.0958 52.1175 21.5296C54.4665 23.9635 55.8632 27.1601 56.0532 30.5373C56.0561 30.6015 56.0751 30.6639 56.1083 30.7189C56.1415 30.7738 56.188 30.8196 56.2434 30.852C56.2989 30.8844 56.3616 30.9024 56.4258 30.9044C56.49 30.9064 56.5536 30.8922 56.611 30.8633L58.9781 29.6873C59.0661 29.6417 59.1637 29.618 59.2628 29.618C59.3619 29.618 59.4596 29.6417 59.5476 29.6873L61.871 30.8481C61.9313 30.8784 61.9984 30.8924 62.0657 30.8887C62.133 30.885 62.1982 30.8637 62.2548 30.827C62.3113 30.7903 62.3573 30.7395 62.3881 30.6795C62.4189 30.6196 62.4335 30.5526 62.4305 30.4853C62.221 25.418 60.1392 20.6085 56.588 16.9878C53.0367 13.367 48.2685 11.1923 43.2062 10.8847L41.6321 14.033L43.255 17.2771Z" fill="#368268"/>
<path opacity="0.6" d="M43.255 17.2771C46.6233 17.5867 49.7684 19.0958 52.1175 21.5296C54.4665 23.9635 55.8632 27.1601 56.0532 30.5373C56.0561 30.6015 56.0751 30.6639 56.1083 30.7189C56.1415 30.7738 56.188 30.8196 56.2434 30.852C56.2989 30.8844 56.3616 30.9024 56.4258 30.9044C56.49 30.9064 56.5536 30.8922 56.611 30.8633L58.9781 29.6873C59.0661 29.6417 59.1637 29.618 59.2628 29.618C59.3619 29.618 59.4596 29.6417 59.5476 29.6873L61.871 30.8481C61.9313 30.8784 61.9984 30.8924 62.0657 30.8887C62.133 30.885 62.1982 30.8637 62.2548 30.827C62.3113 30.7903 62.3573 30.7395 62.3881 30.6795C62.4189 30.6196 62.4335 30.5526 62.4305 30.4853C62.221 25.418 60.1392 20.6085 56.588 16.9878C53.0367 13.367 48.2685 11.1923 43.2062 10.8847L41.6321 14.033L43.255 17.2771Z" fill="white"/>
<path d="M27.9468 30.0401C28.2564 26.6714 29.7658 23.5261 32.2 21.177C34.6342 18.8279 37.8312 17.4314 41.2087 17.2418C41.2726 17.2382 41.3345 17.2188 41.389 17.1854C41.4435 17.152 41.4889 17.1055 41.521 17.0502C41.5531 16.995 41.5711 16.9326 41.5732 16.8687C41.5752 16.8048 41.5614 16.7413 41.533 16.6841L40.3486 14.317C40.3046 14.2282 40.2817 14.1304 40.2817 14.0313C40.2817 13.9323 40.3046 13.8345 40.3486 13.7457L41.5111 11.424C41.5409 11.3636 41.5545 11.2964 41.5505 11.2292C41.5465 11.1619 41.525 11.0969 41.4882 11.0404C41.4515 10.984 41.4006 10.9381 41.3407 10.9072C41.2808 10.8764 41.2139 10.8617 41.1466 10.8645C36.0819 11.0781 31.276 13.161 27.6572 16.7109C24.0385 20.2608 21.8636 25.0258 21.5527 30.0854L24.696 31.6596L27.9468 30.0401Z" fill="#368268"/>
<path opacity="0.4" d="M27.9468 30.0401C28.2564 26.6714 29.7658 23.5261 32.2 21.177C34.6342 18.8279 37.8312 17.4314 41.2087 17.2418C41.2726 17.2382 41.3345 17.2188 41.389 17.1854C41.4435 17.152 41.4889 17.1055 41.521 17.0502C41.5531 16.995 41.5711 16.9326 41.5732 16.8687C41.5752 16.8048 41.5614 16.7413 41.533 16.6841L40.3486 14.317C40.3046 14.2282 40.2817 14.1304 40.2817 14.0313C40.2817 13.9323 40.3046 13.8345 40.3486 13.7457L41.5111 11.424C41.5409 11.3636 41.5545 11.2964 41.5505 11.2292C41.5465 11.1619 41.525 11.0969 41.4882 11.0404C41.4515 10.984 41.4006 10.9381 41.3407 10.9072C41.2808 10.8764 41.2139 10.8617 41.1466 10.8645C36.0819 11.0781 31.276 13.161 27.6572 16.7109C24.0385 20.2608 21.8636 25.0258 21.5527 30.0854L24.696 31.6596L27.9468 30.0401Z" fill="white"/>
<path d="M40.7097 45.3465C37.3413 45.0374 34.196 43.5287 31.8467 41.0951C29.4973 38.6616 28.1002 35.4651 27.9098 32.088C27.9067 32.024 27.8878 31.9619 27.8547 31.9071C27.8215 31.8524 27.7753 31.8067 27.72 31.7744C27.6648 31.742 27.6024 31.7239 27.5384 31.7218C27.4745 31.7196 27.411 31.7335 27.3537 31.762L24.9883 32.938C24.8992 32.9831 24.8008 33.0067 24.701 33.0069C24.6023 33.0065 24.505 32.9829 24.4171 32.938L22.092 31.7772C22.0317 31.7474 21.9647 31.7339 21.8976 31.7378C21.8305 31.7417 21.7655 31.7631 21.7091 31.7996C21.6527 31.8362 21.6068 31.8868 21.5758 31.9465C21.5449 32.0062 21.5299 32.0729 21.5325 32.14C21.7315 37.0953 23.7293 41.8082 27.1521 45.3969H17.304L18.9168 48.6242L17.3611 51.744H40.7568L42.336 48.5906L40.7097 45.3465Z" fill="#368268"/>
<path opacity="0.2" d="M40.7097 45.3465C37.3413 45.0374 34.196 43.5287 31.8467 41.0951C29.4973 38.6616 28.1002 35.4651 27.9098 32.088C27.9067 32.024 27.8878 31.9619 27.8547 31.9071C27.8215 31.8524 27.7753 31.8067 27.72 31.7744C27.6648 31.742 27.6024 31.7239 27.5384 31.7218C27.4745 31.7196 27.411 31.7335 27.3537 31.762L24.9883 32.938C24.8992 32.9831 24.8008 33.0067 24.701 33.0069C24.6023 33.0065 24.505 32.9829 24.4171 32.938L22.092 31.7772C22.0317 31.7474 21.9647 31.7339 21.8976 31.7378C21.8305 31.7417 21.7655 31.7631 21.7091 31.7996C21.6527 31.8362 21.6068 31.8868 21.5758 31.9465C21.5449 32.0062 21.5299 32.0729 21.5325 32.14C21.7315 37.0953 23.7293 41.8082 27.1521 45.3969H17.304L18.9168 48.6242L17.3611 51.744H40.7568L42.336 48.5906L40.7097 45.3465Z" fill="white"/>
<path d="M56.0179 32.5819C55.7079 35.95 54.1986 39.0947 51.7648 41.4434C49.331 43.7921 46.1346 45.1885 42.7576 45.3785C42.6936 45.3818 42.6315 45.401 42.5768 45.4343C42.522 45.4676 42.4765 45.5141 42.4441 45.5694C42.4118 45.6247 42.3938 45.6872 42.3916 45.7512C42.3894 45.8153 42.4032 45.8788 42.4317 45.9362L43.6077 48.3033C43.6517 48.3918 43.6745 48.4893 43.6745 48.5881C43.6745 48.6869 43.6517 48.7844 43.6077 48.8729L42.4468 51.1963C42.4166 51.2565 42.4026 51.3236 42.4063 51.391C42.41 51.4583 42.4312 51.5234 42.4679 51.58C42.5046 51.6366 42.5555 51.6825 42.6154 51.7134C42.6754 51.7442 42.7423 51.7588 42.8097 51.7557C47.8765 51.5464 52.6854 49.465 56.3061 45.9145C59.9268 42.3639 62.1018 37.5965 62.4103 32.5349L59.2619 30.9607L56.0179 32.5819Z" fill="#368268"/>
<path opacity="0.8" d="M56.0179 32.5819C55.7079 35.95 54.1986 39.0947 51.7648 41.4434C49.331 43.7921 46.1346 45.1885 42.7576 45.3785C42.6936 45.3818 42.6315 45.401 42.5768 45.4343C42.522 45.4676 42.4765 45.5141 42.4441 45.5694C42.4118 45.6247 42.3938 45.6872 42.3916 45.7512C42.3894 45.8153 42.4032 45.8788 42.4317 45.9362L43.6077 48.3033C43.6517 48.3918 43.6745 48.4893 43.6745 48.5881C43.6745 48.6869 43.6517 48.7844 43.6077 48.8729L42.4468 51.1963C42.4166 51.2565 42.4026 51.3236 42.4063 51.391C42.41 51.4583 42.4312 51.5234 42.4679 51.58C42.5046 51.6366 42.5555 51.6825 42.6154 51.7134C42.6754 51.7442 42.7423 51.7588 42.8097 51.7557C47.8765 51.5464 52.6854 49.465 56.3061 45.9145C59.9268 42.3639 62.1018 37.5965 62.4103 32.5349L59.2619 30.9607L56.0179 32.5819Z" fill="white"/>
<path d="M41.8404 30.9708L40.9215 28.3416L39.5237 28.471C39.1921 27.981 38.7966 27.5375 38.3477 27.1522L38.635 25.7779L36.12 24.5683L35.2229 25.6486C34.641 25.5357 34.0465 25.5018 33.4555 25.5478L32.6878 24.3718L30.0586 25.2907L30.1879 26.6885C29.698 27.0201 29.2545 27.4156 28.8691 27.8645L27.4932 27.5772L26.2836 30.0871L27.3655 30.9842C27.2527 31.5662 27.2188 32.1606 27.2647 32.7516L26.0887 33.5194L27.0077 36.1486L28.4038 36.0192C28.7355 36.5096 29.131 36.9536 29.5798 37.3397L29.2925 38.7139L31.8024 39.9235L32.6995 38.8416C33.2809 38.9544 33.8748 38.9883 34.4652 38.9424L35.2347 40.1184L37.8639 39.1994L37.7345 37.8034C38.224 37.4711 38.6674 37.0757 39.0533 36.6274L40.4275 36.9146L41.6371 34.4047L40.5569 33.5093C40.6697 32.9274 40.7036 32.3329 40.6577 31.7419L41.8404 30.9708ZM34.9793 35.1439C34.4066 35.3442 33.7873 35.3702 33.1998 35.2185C32.6123 35.0668 32.083 34.7443 31.6787 34.2918C31.2745 33.8393 31.0136 33.2771 30.929 32.6762C30.8443 32.0754 30.9397 31.463 31.2031 30.9164C31.4666 30.3698 31.8862 29.9136 32.4089 29.6055C32.9316 29.2974 33.5339 29.1512 34.1397 29.1854C34.7455 29.2197 35.3276 29.4328 35.8122 29.7978C36.2969 30.1629 36.6624 30.6634 36.8626 31.2362C37.1305 32.0042 37.0826 32.8471 36.7295 33.5798C36.3764 34.3124 35.7469 34.875 34.9793 35.1439Z" fill="#368268"/>
<path d="M24.8808 32.6323C24.8018 32.7566 24.7128 32.9196 24.6137 33.0658C24.5146 33.2119 24.4356 33.3715 24.3499 33.5278C24.1819 33.8386 24.0139 34.1544 23.856 34.4753C23.5395 35.1154 23.2591 35.7728 23.016 36.4442C22.9102 36.7097 23.016 36.5518 22.8934 36.3854C22.8362 36.3166 22.7993 36.3182 22.8194 36.33C22.857 36.3511 22.8979 36.3653 22.9404 36.372C23.2529 36.4237 23.5708 36.435 23.8862 36.4056C24.5834 36.3636 25.321 36.2578 26.0366 36.1418H26.04C26.1316 36.1265 26.2257 36.1455 26.3041 36.1953C26.3825 36.2451 26.4397 36.3221 26.4647 36.4116C26.4898 36.501 26.4808 36.5966 26.4396 36.6798C26.3984 36.7631 26.3279 36.8282 26.2416 36.8626C25.526 37.161 24.7834 37.39 24.024 37.5463C23.8291 37.5833 23.6292 37.6152 23.4192 37.6354C23.1958 37.6585 22.9706 37.6585 22.7472 37.6354C22.6039 37.6201 22.4629 37.588 22.3272 37.5396C22.1208 37.4664 21.9404 37.3344 21.8081 37.1599C21.7276 37.0494 21.6704 36.9236 21.6401 36.7903C21.6138 36.6741 21.6058 36.5545 21.6166 36.4358C21.6248 36.346 21.6417 36.2571 21.667 36.1704L21.7073 36.0293C21.9155 35.2794 22.1806 34.5465 22.5002 33.8369C22.6582 33.4824 22.8362 33.133 23.0194 32.7919C23.1134 32.6206 23.2109 32.4526 23.3117 32.2879C23.4158 32.1199 23.5133 31.9603 23.6477 31.7839C23.7635 31.6282 23.9347 31.523 24.1259 31.4901C24.3171 31.4571 24.5136 31.4989 24.6748 31.6068C24.8361 31.7147 24.9496 31.8805 24.992 32.0698C25.0344 32.2592 25.0024 32.4575 24.9026 32.6239L24.8808 32.6323Z" fill="#7F3E3B"/>
<path d="M27.7351 36.9012L27.384 37.1918C27.3194 37.2462 27.2426 37.2843 27.1601 37.3027C27.0776 37.3211 26.9919 37.3194 26.9103 37.2977L26.1358 37.0944C25.9834 37.0539 25.8429 36.9776 25.7261 36.8718C25.6092 36.766 25.5192 36.6338 25.4638 36.4862L25.3949 36.3014C25.9426 35.779 26.9187 35.616 26.9187 35.616L27.1925 35.5404C27.2482 35.5228 27.3068 35.5165 27.365 35.5218C27.4232 35.5271 27.4797 35.5439 27.5313 35.5713C27.5829 35.5986 27.6285 35.636 27.6655 35.6812C27.7026 35.7263 27.7302 35.7784 27.7469 35.8344L27.9149 36.3737C27.9401 36.4695 27.9365 36.5707 27.9046 36.6645C27.8726 36.7584 27.8137 36.8407 27.7351 36.9012Z" fill="#7F3E3B"/>
<path d="M25.8502 27.0598C26.0921 27.9518 26.3878 29.5798 25.8082 30.1812C25.8082 30.1812 25.363 31.0212 27.9922 30.8818C29.8402 30.7877 28.5785 30.1812 28.5785 30.1812C27.5705 29.9426 27.5369 29.2051 27.6595 28.513L25.8502 27.0598Z" fill="#7F3E3B"/>
<path d="M21.9727 64.3692L20.2675 63.7409C20.118 65.058 19.5837 67.069 19.5837 67.069L20.7799 67.573C20.7799 67.573 21.5762 65.1706 21.9727 64.3692Z" fill="#7F3E3B"/>
<path d="M21.0588 69.552C20.1466 68.88 20.2188 68.917 19.7148 68.5238C19.2864 68.1878 19.1453 68.166 18.7975 67.8989C18.5069 67.6771 18.7034 67.3949 19.0092 67.1126C19.1251 67.0068 19.2713 66.8892 19.4376 66.7363C19.4844 66.6937 19.5445 66.6688 19.6076 66.6657C19.6708 66.6627 19.733 66.6817 19.7837 66.7195L20.8522 67.5007C20.8912 67.5298 20.9229 67.5675 20.9448 67.611C20.9667 67.6544 20.9781 67.7024 20.9782 67.751C20.9837 68.0103 21.042 68.2656 21.1494 68.5016C21.2569 68.7376 21.4112 68.9492 21.6031 69.1236C22.0567 69.552 21.4234 69.8191 21.0588 69.552Z" fill="#263238"/>
<path d="M29.3596 39.648C29.3596 39.648 27.5637 48.8964 26.1676 53.2056C24.706 57.7416 22.5691 62.7698 21.5997 65.7182C21.299 65.7569 20.4405 65.399 20.0205 65.0462C20.0205 65.0462 20.6606 57.3183 22.8513 53.3199C22.6329 41.6539 24.8505 39.648 24.8505 39.648H29.3596Z" fill="#368268"/>
<path opacity="0.3" d="M29.3596 39.648C29.3596 39.648 27.5637 48.8964 26.1676 53.2056C24.706 57.7416 22.5691 62.7698 21.5997 65.7182C21.299 65.7569 20.4405 65.399 20.0205 65.0462C20.0205 65.0462 20.6606 57.3183 22.8513 53.3199C22.6329 41.6539 24.8505 39.648 24.8505 39.648H29.3596Z" fill="black"/>
<path opacity="0.2" d="M26.0232 43.1088L27.8712 46.6368C27.4478 48.4848 26.9774 50.4118 26.5272 51.9775C25.1882 48.216 26.0232 43.1088 26.0232 43.1088Z" fill="black"/>
<path d="M21.9693 65.1622C21.9124 65.3635 21.872 65.5692 21.8484 65.7771C21.8466 65.7948 21.8408 65.8119 21.8314 65.8271C21.8221 65.8422 21.8094 65.8551 21.7944 65.8646C21.7793 65.8742 21.7623 65.8802 21.7446 65.8822C21.7269 65.8842 21.7089 65.8821 21.6921 65.8762C21.0369 65.7082 20.1801 65.2042 19.8996 65.0362C19.8745 65.0215 19.8542 64.9999 19.8411 64.974C19.828 64.9481 19.8226 64.9189 19.8256 64.89L19.9012 64.2987C19.9044 64.2806 19.9117 64.2636 19.9225 64.2488C19.9334 64.234 19.9474 64.222 19.9637 64.2135C19.9799 64.2051 19.9979 64.2005 20.0162 64.2001C20.0345 64.1997 20.0527 64.2035 20.0692 64.2113L21.8702 64.9908C21.9044 65.003 21.9331 65.0269 21.9512 65.0583C21.9694 65.0897 21.9758 65.1265 21.9693 65.1622Z" fill="#263238"/>
<path d="M30.8532 65.1605L29.2152 65.2815C29.484 66.5885 29.7646 68.6516 29.7646 68.6516H31.0649C31.0649 68.6516 30.8331 66.056 30.8532 65.1605Z" fill="#7F3E3B"/>
<path d="M32.4407 69.9418C31.3101 69.9418 31.3907 69.925 30.7607 69.9031C30.2164 69.8846 30.0887 69.9519 29.6486 69.9418C29.284 69.9418 29.2975 69.5856 29.4117 69.1824C29.4537 69.0278 29.5159 68.8464 29.5797 68.6263C29.5964 68.5637 29.6332 68.5084 29.6846 68.4689C29.7359 68.4294 29.7989 68.408 29.8636 68.4079H31.1875C31.2348 68.4072 31.2816 68.4184 31.3236 68.4404C31.3656 68.4624 31.4014 68.4945 31.4277 68.5339C31.5716 68.7409 31.7589 68.9141 31.9765 69.0415C32.194 69.1688 32.4368 69.2473 32.6877 69.2714C33.2891 69.3538 32.8927 69.9418 32.4407 69.9418Z" fill="#263238"/>
<path d="M30.7541 39.648C30.7541 39.648 30.959 47.712 31.1421 52.7268C31.3253 57.7416 30.9321 66.6171 30.9321 66.6171C30.8952 66.8606 29.6167 66.7632 29.4 66.6171C29.4 66.6171 26.9556 59.4267 27.888 53.2056C24.6153 45.1416 25.5595 39.8462 25.5595 39.8462L30.7541 39.648Z" fill="#368268"/>
<path opacity="0.3" d="M30.7541 39.648C30.7541 39.648 30.959 47.712 31.1421 52.7268C31.3253 57.7416 30.9321 66.6171 30.9321 66.6171C30.8952 66.8606 29.6167 66.7632 29.4 66.6171C29.4 66.6171 26.9556 59.4267 27.888 53.2056C24.6153 45.1416 25.5595 39.8462 25.5595 39.8462L30.7541 39.648Z" fill="black"/>
<path d="M31.1069 65.935C31.1069 66.103 31.122 66.397 31.1372 66.607C31.1391 66.6419 31.1277 66.6763 31.1052 66.7031C31.0828 66.7299 31.0509 66.7472 31.0162 66.7514C30.4529 66.7978 29.8866 66.7916 29.3244 66.733C29.2974 66.7308 29.2719 66.7197 29.2518 66.7015C29.2317 66.6832 29.2183 66.6589 29.2136 66.6322L29.0993 66.0391C29.0948 66.0192 29.0948 65.9986 29.0993 65.9787C29.1037 65.9588 29.1125 65.9402 29.1251 65.9241C29.1376 65.908 29.1536 65.8949 29.1718 65.8858C29.19 65.8766 29.21 65.8716 29.2304 65.8711L30.9759 65.8006C30.9936 65.7995 31.0114 65.8023 31.028 65.8088C31.0446 65.8152 31.0596 65.8251 31.072 65.8379C31.0845 65.8506 31.094 65.8659 31.1 65.8826C31.106 65.8994 31.1084 65.9172 31.1069 65.935Z" fill="#263238"/>
<path d="M25.1664 38.2334C25.1387 38.7051 25.0826 39.1747 24.9984 39.6396H30.6936L30.7541 38.1897C30.7541 38.1897 26.3592 37.9411 25.1664 38.2334Z" fill="#7F3E3B"/>
<path d="M31.3017 32.3131C31.3359 33.189 31.3225 34.0662 31.2614 34.9406C31.2144 36.083 31.4294 36.3619 31.2614 38.2334C30.6365 38.598 26.5255 38.5845 24.5045 38.3225C24.6271 36.7046 24.7766 35.6143 23.6813 31.9737C23.4276 31.1337 23.9937 30.3189 24.8993 30.2316C25.1412 30.2097 25.4033 30.1896 25.6603 30.1778C26.5838 30.1156 27.5105 30.1156 28.434 30.1778C28.7347 30.203 29.0472 30.24 29.3462 30.2786C30.4181 30.4197 31.2681 31.3017 31.3017 32.3131Z" fill="#263238"/>
<path d="M39.6212 36.5551L39.3944 36.1603C39.3515 36.0874 39.2921 36.0256 39.2208 35.9801C39.1496 35.9345 39.0686 35.9065 38.9844 35.8982L38.1881 35.8226C38.0315 35.8078 37.8736 35.8306 37.7275 35.889C37.5814 35.9474 37.4513 36.0399 37.3481 36.1586L37.2188 36.3098C37.5548 36.9818 38.4149 37.4858 38.4149 37.4858L38.6451 37.6538C38.6913 37.6893 38.7441 37.7154 38.8005 37.7304C38.8568 37.7454 38.9156 37.7491 38.9734 37.7413C39.0311 37.7335 39.0868 37.7143 39.1372 37.6849C39.1875 37.6554 39.2315 37.6163 39.2667 37.5698L39.6027 37.1179C39.6614 37.0366 39.6945 36.9396 39.6978 36.8393C39.7011 36.7391 39.6744 36.6401 39.6212 36.5551Z" fill="#7F3E3B"/>
<path d="M31.8209 32.7214L31.8949 32.8356C31.9268 32.8843 31.957 32.9347 31.994 32.9851C32.0645 33.0859 32.1435 33.1851 32.2241 33.2842C32.3913 33.4846 32.5684 33.6763 32.755 33.8587C32.9449 34.0419 33.1448 34.2199 33.3548 34.3896C33.5648 34.5593 33.7849 34.7256 34.0083 34.8735L33.8773 34.813C34.1869 34.9252 34.502 35.0217 34.8214 35.1019C35.1574 35.1876 35.4934 35.2699 35.8294 35.3539L36.8593 35.5992C37.2037 35.6832 37.5497 35.7672 37.8925 35.8495C37.9828 35.8708 38.0621 35.9247 38.1151 36.0009C38.1681 36.0771 38.1911 36.1702 38.1796 36.2623C38.1681 36.3544 38.123 36.439 38.053 36.4999C37.9829 36.5608 37.8929 36.5936 37.8001 36.5921C37.4355 36.5921 37.0777 36.5753 36.7181 36.5585C36.3586 36.5417 35.9991 36.5098 35.6379 36.4762C35.2767 36.4426 34.9172 36.3989 34.5543 36.3418C34.1741 36.2887 33.798 36.2095 33.4287 36.1049C33.3948 36.0953 33.3621 36.0817 33.3313 36.0646L33.296 36.0444C33.1599 35.9655 33.0221 35.8899 32.8861 35.8092C32.75 35.7286 32.6156 35.6412 32.4862 35.5488C32.2203 35.3687 31.9666 35.1712 31.7269 34.9575C31.4813 34.7413 31.2522 34.5071 31.0414 34.2569C30.9356 34.1292 30.8331 33.9982 30.7357 33.8571C30.6869 33.7882 30.6382 33.7143 30.5929 33.6387C30.5693 33.6 30.5475 33.5631 30.524 33.5194C30.5005 33.4757 30.482 33.4455 30.4467 33.3715C30.3616 33.1983 30.3462 32.999 30.4038 32.8148C30.4614 32.6306 30.5876 32.4756 30.7563 32.3818C30.9249 32.288 31.1232 32.2625 31.3101 32.3107C31.497 32.3589 31.6582 32.477 31.7605 32.6407L31.8209 32.7214Z" fill="#7F3E3B"/>
<path d="M29.5948 30.361C30.7036 30.655 31.6545 31.6058 32.9548 33.4824C32.7734 34.2485 31.1068 35.1338 31.1068 35.1338C31.1068 35.1338 27.636 31.6764 29.5948 30.361Z" fill="#263238"/>
<path d="M28.7532 25.4033C28.7935 25.5192 28.8893 25.5948 28.9649 25.5713C29.0405 25.5478 29.0674 25.4386 29.0254 25.3227C28.9834 25.2068 28.8893 25.1295 28.8137 25.1547C28.7381 25.1799 28.7112 25.2874 28.7532 25.4033Z" fill="#263238"/>
<path d="M28.7834 25.1698L29.0304 25.0118C29.0304 25.0118 28.9666 25.2689 28.7834 25.1698Z" fill="#263238"/>
<path d="M28.8406 25.62C29.0373 25.8553 29.2631 26.0648 29.5126 26.2433C29.4677 26.3026 29.4099 26.3508 29.3435 26.3843C29.2771 26.4178 29.2039 26.4356 29.1295 26.4365L28.8406 25.62Z" fill="#630F0F"/>
<path d="M28.5768 24.4406C28.5854 24.4391 28.5936 24.4358 28.6008 24.4308C28.6081 24.4259 28.6142 24.4195 28.6188 24.4121C28.6279 24.3955 28.6302 24.3761 28.6252 24.3579C28.6202 24.3396 28.6082 24.3241 28.5919 24.3146C28.4943 24.2524 28.3838 24.2132 28.2688 24.2001C28.1538 24.187 28.0374 24.2003 27.9283 24.239C27.9199 24.2428 27.9124 24.2482 27.9063 24.255C27.9001 24.2618 27.8955 24.2698 27.8927 24.2785C27.8898 24.2872 27.8888 24.2964 27.8897 24.3055C27.8907 24.3147 27.8935 24.3235 27.8981 24.3314C27.907 24.3483 27.922 24.3613 27.94 24.3678C27.958 24.3743 27.9778 24.3739 27.9955 24.3667C28.0821 24.3371 28.1743 24.3277 28.2651 24.339C28.3559 24.3504 28.443 24.3823 28.5197 24.4322C28.5369 24.4423 28.5574 24.4453 28.5768 24.4406Z" fill="#263238"/>
<path d="M24.7733 26.0602C25.3277 27.4176 25.5326 28.0023 26.4768 28.5147C27.8964 29.2841 29.4504 28.4055 29.3143 26.9338C29.1933 25.6099 28.3063 23.6141 26.7573 23.4444C26.4258 23.3972 26.0877 23.4395 25.7781 23.5668C25.4684 23.6942 25.1984 23.902 24.996 24.1688C24.7937 24.4356 24.6663 24.7516 24.6272 25.0842C24.588 25.4167 24.6384 25.7537 24.7733 26.0602Z" fill="#7F3E3B"/>
<path d="M27.925 26.0283C28.3803 27.0262 28.3215 29.8553 25.7796 28.9783C23.2378 28.1014 23.4159 26.7221 24.0996 25.6183C22.7203 24.3835 24.5028 23.4041 26.1408 22.9589C27.7788 22.5137 29.2169 22.9135 27.925 26.0283Z" fill="#263238"/>
<path d="M25.4352 25.9409C25.4794 26.1512 25.4602 26.3698 25.38 26.5692C25.2997 26.7685 25.1622 26.9395 24.9847 27.0606C24.8071 27.1817 24.5977 27.2473 24.3828 27.2493C24.168 27.2512 23.9574 27.1893 23.7777 27.0714C23.5981 26.9535 23.4575 26.785 23.3737 26.5871C23.2899 26.3892 23.2668 26.171 23.3072 25.9599C23.3476 25.7489 23.4498 25.5546 23.6007 25.4017C23.7516 25.2487 23.9446 25.1441 24.1551 25.1009C24.4361 25.0441 24.7281 25.1005 24.9678 25.2578C25.2074 25.4151 25.3754 25.6605 25.4352 25.9409Z" fill="#368268"/>
<path d="M24.6373 27.6998C25.1413 26.6918 24.7313 25.4386 23.9501 24.6288C22.4717 23.095 20.4221 24.103 20.9933 25.62C21.6653 27.4294 18.1239 29.2891 20.1886 30.361C22.2046 31.411 25.5646 29.5596 24.6205 27.7368C24.6255 27.72 24.6322 27.72 24.6373 27.6998Z" fill="#263238"/>
<path d="M27.3604 26.1021C27.4332 26.2233 27.5307 26.3278 27.6464 26.4088C27.7622 26.4898 27.8937 26.5456 28.0324 26.5725C28.3684 26.6263 28.4793 26.2365 28.3298 25.8602C28.1937 25.5242 27.8527 25.0958 27.5352 25.2134C27.2176 25.331 27.1588 25.7829 27.3604 26.1021Z" fill="#7F3E3B"/>
<path d="M24.8371 30.24C23.8425 30.3929 23.4444 30.6953 22.6329 32.6928C23.0009 33.437 24.7262 34.151 24.7262 34.151C24.7262 34.151 25.872 31.5706 24.8371 30.24Z" fill="#263238"/>
<path d="M30.7641 40.0764C28.7266 40.3013 26.6703 40.2968 24.6338 40.063C24.6126 40.0597 24.5924 40.0515 24.5749 40.0392C24.5574 40.0268 24.5429 40.0106 24.5327 39.9917C24.5224 39.9729 24.5167 39.9519 24.5158 39.9305C24.515 39.909 24.5192 39.8877 24.528 39.8681C24.5784 39.7505 24.6271 39.6329 24.6758 39.5153C24.6864 39.4895 24.7051 39.4677 24.7289 39.4532C24.7528 39.4387 24.7807 39.4322 24.8085 39.4347C26.7671 39.6505 28.7434 39.6505 30.702 39.4347C30.7194 39.4333 30.7369 39.4354 30.7536 39.4408C30.7702 39.4462 30.7856 39.4549 30.7989 39.4663C30.8121 39.4777 30.823 39.4916 30.8309 39.5072C30.8388 39.5228 30.8435 39.5398 30.8448 39.5573C30.8565 39.6799 30.87 39.8009 30.8817 39.9235C30.886 39.9593 30.8761 39.9954 30.8541 40.024C30.8322 40.0526 30.7998 40.0714 30.7641 40.0764Z" fill="#263238"/>
</svg>
