<svg width="84" height="84" viewBox="0 0 84 84" fill="none" xmlns="http://www.w3.org/2000/svg">
<path d="M75.5832 66.9463H70.019V66.9883H75.5832V66.9463Z" fill="#EBEBEB"/>
<path d="M55.645 67.4033H54.1851V67.4453H55.645V67.4033Z" fill="#EBEBEB"/>
<path d="M69.851 65.3872H66.6271V65.4292H69.851V65.3872Z" fill="#EBEBEB"/>
<path d="M16.0692 65.6696H8.81323V65.7116H16.0692V65.6696Z" fill="#EBEBEB"/>
<path d="M18.6295 65.6696H17.566V65.7116H18.6295V65.6696Z" fill="#EBEBEB"/>
<path d="M37.8252 66.3784H22.0869V66.4204H37.8252V66.3784Z" fill="#EBEBEB"/>
<path d="M39.816 56.7504H7.37859C7.12417 56.7504 6.88018 56.6493 6.70028 56.4694C6.52038 56.2895 6.41931 56.0455 6.41931 55.7911V10.1909C6.42153 9.93791 6.52357 9.69607 6.70323 9.51798C6.88289 9.33989 7.12562 9.23998 7.37859 9.23999H39.816C40.0704 9.23999 40.3144 9.34106 40.4943 9.52096C40.6742 9.70086 40.7753 9.94485 40.7753 10.1993V55.7911C40.7753 56.0455 40.6742 56.2895 40.4943 56.4694C40.3144 56.6493 40.0704 56.7504 39.816 56.7504ZM7.37859 9.27359C7.13545 9.27403 6.90239 9.37082 6.73047 9.54275C6.55854 9.71467 6.46176 9.94773 6.46131 10.1909V55.7911C6.46176 56.0343 6.55854 56.2673 6.73047 56.4392C6.90239 56.6112 7.13545 56.7079 7.37859 56.7084H39.816C40.0592 56.7079 40.2922 56.6112 40.4642 56.4392C40.6361 56.2673 40.7329 56.0343 40.7333 55.7911V10.1909C40.7329 9.94773 40.6361 9.71467 40.4642 9.54275C40.2922 9.37082 40.0592 9.27403 39.816 9.27359H7.37859Z" fill="#EBEBEB"/>
<path d="M76.1561 56.7504H43.7153C43.461 56.7499 43.2172 56.6487 43.0374 56.4689C42.8576 56.2891 42.7564 56.0454 42.756 55.7911V10.1909C42.7586 9.93805 42.8608 9.69646 43.0404 9.51847C43.2199 9.34047 43.4624 9.24042 43.7153 9.23999H76.1561C76.4084 9.24086 76.6503 9.34117 76.8293 9.51916C77.0082 9.69715 77.1098 9.93849 77.112 10.1909V55.7911C77.112 56.0449 77.0114 56.2884 76.8322 56.4682C76.653 56.648 76.4099 56.7495 76.1561 56.7504ZM43.7153 9.27359C43.4721 9.27403 43.2391 9.37082 43.0671 9.54275C42.8952 9.71467 42.7984 9.94773 42.798 10.1909V55.7911C42.7984 56.0343 42.8952 56.2673 43.0671 56.4392C43.2391 56.6112 43.4721 56.7079 43.7153 56.7084H76.1561C76.3992 56.7079 76.6323 56.6112 76.8042 56.4392C76.9761 56.2673 77.0729 56.0343 77.0733 55.7911V10.1909C77.0729 9.94773 76.9761 9.71467 76.8042 9.54275C76.6323 9.37082 76.3992 9.27403 76.1561 9.27359H43.7153Z" fill="#EBEBEB"/>
<path d="M84 64.2432H0V64.2852H84V64.2432Z" fill="#EBEBEB"/>
<path d="M26.9533 24.8618L27.0038 24.9352C27.1184 25.1019 27.1621 25.3073 27.1253 25.5062C27.0884 25.7051 26.9741 25.8812 26.8074 25.9958L9.79908 37.6897C9.63239 37.8043 9.427 37.848 9.2281 37.8111C9.02919 37.7743 8.85306 37.66 8.73846 37.4933L8.68801 37.4199C8.57315 37.2529 8.52936 37.047 8.56627 36.8477C8.60319 36.6483 8.71777 36.4718 8.88483 36.357L25.8904 24.665C26.0574 24.5501 26.2633 24.5064 26.4626 24.5433C26.662 24.5802 26.8385 24.6948 26.9533 24.8618Z" fill="#E0E0E0"/>
<path d="M12.3631 62.6825H21.4486C21.8251 62.6825 22.1862 62.8321 22.4524 63.0983C22.7186 63.3645 22.8682 63.7256 22.8682 64.1021V64.1844H10.9402V64.1021C10.9402 63.9154 10.977 63.7305 11.0486 63.5581C11.1201 63.3856 11.225 63.229 11.3572 63.0971C11.4893 62.9652 11.6462 62.8607 11.8189 62.7896C11.9915 62.7185 12.1764 62.6821 12.3631 62.6825Z" fill="#E0E0E0"/>
<path d="M16.8454 54.9443H16.968C17.238 54.9443 17.497 55.0516 17.6879 55.2425C17.8788 55.4335 17.9861 55.6924 17.9861 55.9624V63.4334H15.8273V55.9624C15.8273 55.6924 15.9345 55.4335 16.1255 55.2425C16.3164 55.0516 16.5753 54.9443 16.8454 54.9443Z" fill="#E0E0E0"/>
<path d="M8.75207 36.5993L8.67165 36.6335C8.28304 36.7984 8.10174 37.2472 8.26669 37.6358L16.3303 56.6323C16.4952 57.0209 16.944 57.2023 17.3326 57.0373L17.413 57.0032C17.8016 56.8382 17.9829 56.3895 17.8179 56.0009L9.75438 37.0043C9.58942 36.6157 9.14067 36.4344 8.75207 36.5993Z" fill="#F0F0F0"/>
<path d="M25.2338 23.8397L25.3811 23.6923C25.7151 23.3584 26.1681 23.1708 26.6404 23.1708C27.1127 23.1708 27.5656 23.3584 27.8996 23.6924L29.1552 24.948L26.4895 27.6137L25.2374 26.3617C25.0713 26.1965 24.9394 26.0001 24.8492 25.7838C24.7591 25.5676 24.7126 25.3357 24.7122 25.1014C24.7119 24.8671 24.7578 24.6351 24.8473 24.4186C24.9368 24.202 25.0682 24.0053 25.2338 23.8397Z" fill="#EBEBEB"/>
<path d="M30.4786 25.0555L29.0808 23.6577L25.1967 27.5419L26.5944 28.9396L29.1497 35.7453L37.2843 27.6108L30.4786 25.0555Z" fill="#F0F0F0"/>
<path d="M63.536 58.38C61.1386 58.1044 60.5842 54.3009 62.3129 52.6764C64.0416 51.0518 67.8048 51.8364 67.9308 54.2488C67.9863 55.3224 65.8443 54.9343 65.0614 55.5928C64.2785 56.2514 64.591 58.4992 63.536 58.38Z" fill="#F0F0F0"/>
<path d="M66.8321 53.3686C65.5654 53.5164 64.9018 54.6034 64.7187 54.9545L64.512 54.7394C64.4348 54.4186 64.2903 53.5164 64.88 52.962C64.8973 52.9462 64.908 52.9244 64.9099 52.901C64.9118 52.8776 64.9047 52.8544 64.89 52.836C64.8823 52.8265 64.8726 52.8186 64.8618 52.8129C64.8509 52.8072 64.8389 52.8038 64.8267 52.8029C64.8144 52.8019 64.8021 52.8035 64.7905 52.8075C64.7788 52.8114 64.7681 52.8177 64.759 52.8259C64.2214 53.3299 64.2164 54.0523 64.2802 54.5059C63.864 54.079 63.4146 53.6858 62.9362 53.3299C62.9095 53.3123 62.8771 53.3058 62.8457 53.3118C62.8143 53.3177 62.7865 53.3357 62.7682 53.3619C62.75 53.3882 62.743 53.4206 62.7486 53.4521C62.7543 53.4836 62.7722 53.5115 62.7984 53.5299C63.2833 53.8952 63.7389 54.2979 64.1609 54.7344C63.5264 54.664 62.8857 54.7932 62.328 55.104C62.3178 55.1105 62.3089 55.119 62.3019 55.1289C62.2949 55.1388 62.2899 55.1501 62.2873 55.1619C62.2846 55.1738 62.2843 55.1861 62.2864 55.198C62.2885 55.21 62.2929 55.2214 62.2995 55.2317C62.3125 55.2515 62.3328 55.2655 62.3559 55.2709C62.3791 55.2762 62.4034 55.2724 62.4238 55.2602C63.2084 54.7949 64.1408 54.9142 64.3692 54.9545C64.4583 55.0469 64.5507 55.1443 64.6431 55.2468C64.2584 55.392 63.9061 55.6115 63.6064 55.8928C63.3066 56.1742 63.0651 56.5118 62.8959 56.8865C62.8892 56.9081 62.8908 56.9315 62.9002 56.9521C62.9096 56.9726 62.9263 56.9891 62.947 56.9982C62.9677 57.0073 62.9911 57.0085 63.0126 57.0015C63.0342 56.9946 63.0524 56.9799 63.0639 56.9604C63.2307 56.5982 63.4679 56.2729 63.7619 56.0035C64.0558 55.7341 64.4005 55.526 64.7758 55.3913C65.9265 56.6925 66.9398 58.109 67.7998 59.6182L68.0098 59.4972C67.1156 57.9242 66.0556 56.4515 64.848 55.104C64.9556 54.8789 65.5788 53.7046 66.8489 53.5551C66.8724 53.5529 66.8941 53.5417 66.9095 53.5238C66.9248 53.506 66.9326 53.4828 66.9312 53.4593C66.9308 53.4468 66.9279 53.4345 66.9226 53.4231C66.9174 53.4118 66.91 53.4016 66.9007 53.3931C66.8915 53.3847 66.8807 53.3781 66.8689 53.3739C66.8571 53.3697 66.8446 53.3679 66.8321 53.3686Z" fill="#E0E0E0"/>
<path d="M73.3807 56.6159C76.2821 55.571 75.8537 50.6755 73.2245 49.1618C70.5953 47.6481 66.1467 49.738 66.6994 52.7704C66.9463 54.1144 69.4966 53.009 70.6642 53.6104C71.857 54.2236 72.1023 57.0813 73.3807 56.6159Z" fill="#F0F0F0"/>
<path d="M67.8065 51.3576C69.426 51.1677 70.5718 52.3252 70.9027 52.71C70.9683 52.5957 71.0304 52.4865 71.0926 52.3824C71.0926 51.9607 71.0086 50.7948 70.1115 50.279C70.0966 50.2725 70.0833 50.2629 70.0724 50.251C70.0614 50.2391 70.053 50.225 70.0478 50.2097C70.0425 50.1944 70.0404 50.1781 70.0417 50.162C70.043 50.1458 70.0477 50.1301 70.0553 50.1158C70.063 50.1016 70.0735 50.089 70.0863 50.079C70.099 50.069 70.1137 50.0617 70.1293 50.0576C70.145 50.0535 70.1614 50.0527 70.1774 50.0553C70.1934 50.0578 70.2087 50.0636 70.2223 50.0724C71.0371 50.536 71.2572 51.4399 71.311 52.0212C71.7014 51.3715 72.1424 50.7536 72.6298 50.1732C72.6579 50.1466 72.6949 50.1314 72.7336 50.1306C72.7723 50.1297 72.8099 50.1433 72.8392 50.1686C72.8685 50.1939 72.8873 50.2291 72.8921 50.2676C72.8968 50.306 72.8872 50.3448 72.865 50.3764C72.369 50.9733 71.9197 51.6074 71.521 52.2732C72.0166 52.1052 72.9557 51.8834 73.9099 52.1841C73.9245 52.1889 73.938 52.1964 73.9496 52.2064C73.9613 52.2163 73.9708 52.2285 73.9778 52.2421C73.9847 52.2558 73.9889 52.2707 73.9901 52.286C73.9913 52.3012 73.9894 52.3166 73.9847 52.3311C73.98 52.3457 73.9724 52.3592 73.9624 52.3708C73.9525 52.3824 73.9403 52.392 73.9267 52.399C73.913 52.4059 73.8981 52.4101 73.8829 52.4113C73.8676 52.4125 73.8523 52.4106 73.8377 52.4059C72.7255 52.0581 71.6016 52.4815 71.3278 52.5974C71.2438 52.7385 71.1598 52.8864 71.0724 53.0426C72.1254 53.179 73.0813 53.7276 73.7302 54.568C73.7489 54.593 73.7569 54.6244 73.7525 54.6552C73.7481 54.6861 73.7316 54.714 73.7067 54.7327C73.6817 54.7514 73.6503 54.7594 73.6195 54.755C73.5886 54.7506 73.5607 54.7341 73.542 54.7092C73.2288 54.3073 72.8388 53.9719 72.3946 53.7224C71.9504 53.4729 71.4609 53.3143 70.9548 53.256C69.9053 55.2127 69.0608 57.2727 68.4348 59.4031L68.1375 59.3124C68.789 57.0968 69.6743 54.9568 70.7784 52.9284C70.5785 52.6797 69.4579 51.4029 67.8351 51.5844C67.8048 51.5883 67.7743 51.5803 67.7499 51.5621C67.7254 51.5439 67.709 51.517 67.704 51.4869C67.7011 51.4563 67.7102 51.4258 67.7293 51.4017C67.7484 51.3776 67.776 51.3618 67.8065 51.3576Z" fill="#E0E0E0"/>
<path d="M72.576 58.9058C74.3198 58.9478 75.096 56.2783 74.0208 54.9427C72.9456 53.6071 70.1702 53.7952 69.8393 55.5088C69.6931 56.2716 71.2656 56.2077 71.7595 56.7621C72.2534 57.3165 71.8116 58.8873 72.576 58.9058Z" fill="#E0E0E0"/>
<path d="M70.728 55.1561C71.6218 55.388 71.988 56.233 72.0838 56.5001L72.2518 56.3657C72.3374 56.144 72.5323 55.5123 72.1644 55.0553C72.1529 55.0427 72.1466 55.0262 72.1466 55.0091C72.1466 54.992 72.1529 54.9756 72.1644 54.9629C72.1706 54.9566 72.1781 54.9515 72.1863 54.9481C72.1945 54.9446 72.2034 54.9429 72.2123 54.9429C72.2212 54.9429 72.23 54.9446 72.2382 54.9481C72.2465 54.9515 72.2539 54.9566 72.2602 54.9629C72.5962 55.3745 72.5256 55.8953 72.4282 56.2128C72.7681 55.9507 73.1275 55.7148 73.5034 55.5072C73.5139 55.5018 73.5255 55.4985 73.5373 55.4976C73.5492 55.4967 73.5611 55.4981 73.5723 55.5019C73.5836 55.5057 73.594 55.5116 73.6029 55.5195C73.6119 55.5273 73.6191 55.5369 73.6243 55.5476C73.6339 55.5682 73.6352 55.5916 73.628 55.6132C73.6208 55.6347 73.6057 55.6527 73.5857 55.6635C73.202 55.8761 72.8357 56.1188 72.4903 56.3892C72.9519 56.401 73.3985 56.5553 73.7688 56.8311C73.7751 56.8373 73.7802 56.8448 73.7836 56.853C73.7871 56.8612 73.7888 56.87 73.7888 56.879C73.7888 56.8879 73.7871 56.8967 73.7836 56.9049C73.7802 56.9131 73.7751 56.9206 73.7688 56.9268C73.7566 56.9385 73.7403 56.9451 73.7234 56.9451C73.7065 56.9451 73.6903 56.9385 73.6781 56.9268C73.2817 56.6418 72.8019 56.4964 72.3139 56.5136L72.0888 56.695C72.615 56.9816 73.0063 57.4648 73.1774 58.039C73.1821 58.0559 73.1799 58.074 73.1712 58.0893C73.1625 58.1046 73.1482 58.1158 73.1312 58.1205C73.1143 58.1252 73.0962 58.1229 73.0809 58.1143C73.0656 58.1056 73.0544 58.0912 73.0498 58.0743C72.9665 57.7983 72.8289 57.5417 72.6451 57.3195C72.4614 57.0974 72.2351 56.9142 71.9796 56.7807C71.0257 57.5975 70.1587 58.5107 69.3924 59.5056L69.2546 59.3981C70.0515 58.3613 70.9572 57.4129 71.9561 56.569C71.9023 56.401 71.573 55.4938 70.6776 55.2603C70.6614 55.2556 70.6476 55.2451 70.6386 55.2309C70.6296 55.2166 70.6262 55.1996 70.6289 55.183C70.6328 55.1739 70.6387 55.1658 70.6461 55.1594C70.6536 55.1529 70.6624 55.1482 70.6719 55.1456C70.6815 55.143 70.6915 55.1426 70.7012 55.1444C70.7109 55.1463 70.7201 55.1503 70.728 55.1561Z" fill="#F0F0F0"/>
<path d="M61.9332 59.0704H73.7621V62.4456C73.7621 62.9357 73.5674 63.4057 73.2208 63.7523C72.8743 64.0989 72.4042 64.2936 71.9141 64.2936H63.7745C63.2844 64.2936 62.8143 64.0989 62.4678 63.7523C62.1212 63.4057 61.9265 62.9357 61.9265 62.4456V59.0704H61.9332Z" fill="#E0E0E0"/>
<path d="M41.1902 71.1833C59.1801 71.1833 73.7637 70.3318 73.7637 69.2815C73.7637 68.2312 59.1801 67.3798 41.1902 67.3798C23.2004 67.3798 8.6167 68.2312 8.6167 69.2815C8.6167 70.3318 23.2004 71.1833 41.1902 71.1833Z" fill="#F5F5F5"/>
<path d="M70.3114 20.0055H43.0416V51.9003H70.3114V20.0055Z" fill="#368268"/>
<path opacity="0.3" d="M70.3114 20.0055H43.0416V51.9003H70.3114V20.0055Z" fill="white"/>
<path d="M46.8401 23.0211H43.6011V41.4171H46.8401V23.0211Z" fill="#263238"/>
<path opacity="0.4" d="M46.8401 23.0211H43.6011V41.4171H46.8401V23.0211Z" fill="white"/>
<path d="M70.3114 20.0055H43.0416V21.9274H70.3114V20.0055Z" fill="#263238"/>
<path opacity="0.4" d="M70.3131 21.9291V20.0055H43.0416V21.9291" fill="white"/>
<path d="M44.735 24.8271H44.273C44.1106 24.8271 43.979 24.9588 43.979 25.1211V25.5831C43.979 25.7455 44.1106 25.8771 44.273 25.8771H44.735C44.8974 25.8771 45.029 25.7455 45.029 25.5831V25.1211C45.029 24.9588 44.8974 24.8271 44.735 24.8271Z" fill="#368268"/>
<path d="M46.1445 24.8271H45.6825C45.5202 24.8271 45.3885 24.9588 45.3885 25.1211V25.5831C45.3885 25.7455 45.5202 25.8771 45.6825 25.8771H46.1445C46.3069 25.8771 46.4385 25.7455 46.4385 25.5831V25.1211C46.4385 24.9588 46.3069 24.8271 46.1445 24.8271Z" fill="#368268"/>
<path d="M44.735 26.3173H44.273C44.1106 26.3173 43.979 26.4489 43.979 26.6113V27.0733C43.979 27.2356 44.1106 27.3673 44.273 27.3673H44.735C44.8974 27.3673 45.029 27.2356 45.029 27.0733V26.6113C45.029 26.4489 44.8974 26.3173 44.735 26.3173Z" fill="#368268"/>
<path d="M46.1445 26.3173H45.6825C45.5202 26.3173 45.3885 26.4489 45.3885 26.6113V27.0733C45.3885 27.2356 45.5202 27.3673 45.6825 27.3673H46.1445C46.3069 27.3673 46.4385 27.2356 46.4385 27.0733V26.6113C46.4385 26.4489 46.3069 26.3173 46.1445 26.3173Z" fill="#368268"/>
<path d="M44.735 27.8091H44.273C44.1106 27.8091 43.979 27.9407 43.979 28.1031V28.5651C43.979 28.7275 44.1106 28.8591 44.273 28.8591H44.735C44.8974 28.8591 45.029 28.7275 45.029 28.5651V28.1031C45.029 27.9407 44.8974 27.8091 44.735 27.8091Z" fill="#368268"/>
<path d="M46.1445 27.8091H45.6825C45.5202 27.8091 45.3885 27.9407 45.3885 28.1031V28.5651C45.3885 28.7275 45.5202 28.8591 45.6825 28.8591H46.1445C46.3069 28.8591 46.4385 28.7275 46.4385 28.5651V28.1031C46.4385 27.9407 46.3069 27.8091 46.1445 27.8091Z" fill="#368268"/>
<path d="M44.735 29.2992H44.273C44.1106 29.2992 43.979 29.4308 43.979 29.5932V30.0552C43.979 30.2176 44.1106 30.3492 44.273 30.3492H44.735C44.8974 30.3492 45.029 30.2176 45.029 30.0552V29.5932C45.029 29.4308 44.8974 29.2992 44.735 29.2992Z" fill="#368268"/>
<path d="M46.1445 29.2992H45.6825C45.5202 29.2992 45.3885 29.4308 45.3885 29.5932V30.0552C45.3885 30.2176 45.5202 30.3492 45.6825 30.3492H46.1445C46.3069 30.3492 46.4385 30.2176 46.4385 30.0552V29.5932C46.4385 29.4308 46.3069 29.2992 46.1445 29.2992Z" fill="#368268"/>
<path d="M44.735 30.7911H44.273C44.1106 30.7911 43.979 30.9228 43.979 31.0851V31.5471C43.979 31.7095 44.1106 31.8411 44.273 31.8411H44.735C44.8974 31.8411 45.029 31.7095 45.029 31.5471V31.0851C45.029 30.9228 44.8974 30.7911 44.735 30.7911Z" fill="#368268"/>
<path d="M46.1445 30.7911H45.6825C45.5202 30.7911 45.3885 30.9228 45.3885 31.0851V31.5471C45.3885 31.7095 45.5202 31.8411 45.6825 31.8411H46.1445C46.3069 31.8411 46.4385 31.7095 46.4385 31.5471V31.0851C46.4385 30.9228 46.3069 30.7911 46.1445 30.7911Z" fill="#368268"/>
<path d="M44.735 32.2812H44.273C44.1106 32.2812 43.979 32.4129 43.979 32.5752V33.0372C43.979 33.1996 44.1106 33.3312 44.273 33.3312H44.735C44.8974 33.3312 45.029 33.1996 45.029 33.0372V32.5752C45.029 32.4129 44.8974 32.2812 44.735 32.2812Z" fill="#368268"/>
<path d="M46.1445 32.2812H45.6825C45.5202 32.2812 45.3885 32.4129 45.3885 32.5752V33.0372C45.3885 33.1996 45.5202 33.3312 45.6825 33.3312H46.1445C46.3069 33.3312 46.4385 33.1996 46.4385 33.0372V32.5752C46.4385 32.4129 46.3069 32.2812 46.1445 32.2812Z" fill="#368268"/>
<path d="M44.735 33.7731H44.273C44.1106 33.7731 43.979 33.9047 43.979 34.0671V34.5291C43.979 34.6914 44.1106 34.8231 44.273 34.8231H44.735C44.8974 34.8231 45.029 34.6914 45.029 34.5291V34.0671C45.029 33.9047 44.8974 33.7731 44.735 33.7731Z" fill="#368268"/>
<path d="M46.1445 33.7731H45.6825C45.5202 33.7731 45.3885 33.9047 45.3885 34.0671V34.5291C45.3885 34.6914 45.5202 34.8231 45.6825 34.8231H46.1445C46.3069 34.8231 46.4385 34.6914 46.4385 34.5291V34.0671C46.4385 33.9047 46.3069 33.7731 46.1445 33.7731Z" fill="#368268"/>
<path d="M44.735 35.2633H44.273C44.1106 35.2633 43.979 35.3949 43.979 35.5573V36.0193C43.979 36.1817 44.1106 36.3133 44.273 36.3133H44.735C44.8974 36.3133 45.029 36.1817 45.029 36.0193V35.5573C45.029 35.3949 44.8974 35.2633 44.735 35.2633Z" fill="#368268"/>
<path d="M46.1445 35.2633H45.6825C45.5202 35.2633 45.3885 35.3949 45.3885 35.5573V36.0193C45.3885 36.1817 45.5202 36.3133 45.6825 36.3133H46.1445C46.3069 36.3133 46.4385 36.1817 46.4385 36.0193V35.5573C46.4385 35.3949 46.3069 35.2633 46.1445 35.2633Z" fill="#368268"/>
<path d="M45.1936 37.6371H44.3184C44.1309 37.6371 43.979 37.789 43.979 37.9764V38.8517C43.979 39.0391 44.1309 39.1911 44.3184 39.1911H45.1936C45.3811 39.1911 45.533 39.0391 45.533 38.8517V37.9764C45.533 37.789 45.3811 37.6371 45.1936 37.6371Z" fill="#368268"/>
<path d="M46.4353 40.0932H44.6293V39.5808C44.6293 39.5474 44.6425 39.5154 44.6662 39.4917C44.6898 39.4681 44.7219 39.4548 44.7553 39.4548C44.7719 39.4546 44.7884 39.4577 44.8038 39.464C44.8191 39.4702 44.8331 39.4795 44.8449 39.4912C44.8566 39.503 44.8659 39.517 44.8721 39.5323C44.8784 39.5477 44.8815 39.5642 44.8813 39.5808V39.8412H46.1833V38.5392H45.9229C45.9063 38.5395 45.8898 38.5364 45.8744 38.5301C45.859 38.5239 45.845 38.5146 45.8333 38.5028C45.8215 38.4911 45.8123 38.4771 45.806 38.4617C45.7998 38.4463 45.7966 38.4298 45.7969 38.4132C45.7969 38.3798 45.8101 38.3478 45.8338 38.3241C45.8574 38.3005 45.8895 38.2872 45.9229 38.2872H46.4269L46.4353 40.0932Z" fill="#368268"/>
<path d="M46.8401 23.0211H43.6011V24.1131H46.8401V23.0211Z" fill="#368268"/>
<path d="M69.2647 50.8251C69.1425 50.8251 69.0252 50.7767 68.9386 50.6904C68.852 50.6041 68.8032 50.4871 68.8027 50.3648V22.9808C68.8027 22.9202 68.8147 22.8602 68.8379 22.8043C68.8612 22.7483 68.8952 22.6975 68.9382 22.6547C68.9811 22.612 69.032 22.5781 69.0881 22.5551C69.1441 22.532 69.2041 22.5203 69.2647 22.5205C69.3868 22.5205 69.5039 22.569 69.5902 22.6553C69.6766 22.7417 69.7251 22.8587 69.7251 22.9808V50.3648C69.7251 50.4869 69.6766 50.604 69.5902 50.6903C69.5039 50.7767 69.3868 50.8251 69.2647 50.8251Z" fill="#263238"/>
<path opacity="0.4" d="M69.2647 50.8251C69.1425 50.8251 69.0252 50.7767 68.9386 50.6904C68.852 50.6041 68.8032 50.4871 68.8027 50.3648V22.9808C68.8027 22.9202 68.8147 22.8602 68.8379 22.8043C68.8612 22.7483 68.8952 22.6975 68.9382 22.6547C68.9811 22.612 69.032 22.5781 69.0881 22.5551C69.1441 22.532 69.2041 22.5203 69.2647 22.5205C69.3868 22.5205 69.5039 22.569 69.5902 22.6553C69.6766 22.7417 69.7251 22.8587 69.7251 22.9808V50.3648C69.7251 50.4869 69.6766 50.604 69.5902 50.6903C69.5039 50.7767 69.3868 50.8251 69.2647 50.8251Z" fill="white"/>
<path opacity="0.4" d="M67.0371 24.113H48.8091V32.2829H67.0371V24.113Z" fill="white"/>
<path d="M66.0862 31.7638L58.1281 28.1972L65.9468 24.6927L65.8779 24.5398L57.9231 28.1048L49.9683 24.5398L49.8994 24.6927L57.7165 28.1972L49.8994 31.7L49.9683 31.8545L57.9231 28.2896L66.0173 31.9167L66.0862 31.7638Z" fill="#368268"/>
<path opacity="0.4" d="M57.3838 34.5291H49.933V40.5771H57.3838V34.5291Z" fill="white"/>
<path d="M57.0361 40.184L53.792 37.5531L56.9773 34.9676L56.8714 34.8365L53.6593 37.4439L50.4454 34.8365L50.3396 34.9676L53.5249 37.5531L50.3396 40.1386L50.4454 40.268L53.6593 37.6606L56.9302 40.315L57.0361 40.184Z" fill="#368268"/>
<path opacity="0.4" d="M65.9115 34.5291H58.4607V40.5771H65.9115V34.5291Z" fill="white"/>
<path d="M65.562 40.184L62.3196 37.5531L65.5049 34.9676L65.399 34.8365L62.1852 37.4439L58.973 34.8365L58.8672 34.9676L62.0525 37.5531L58.8672 40.1386L58.973 40.268L62.1852 37.6606L65.4561 40.315L65.562 40.184Z" fill="#368268"/>
<path d="M57.1872 42.1479H50.1312C50.0786 42.1479 50.0282 42.127 49.991 42.0898C49.9539 42.0526 49.933 42.0022 49.933 41.9496C49.933 41.9237 49.9381 41.898 49.9481 41.874C49.9581 41.8501 49.9727 41.8283 49.9911 41.81C50.0096 41.7918 50.0314 41.7773 50.0555 41.7675C50.0795 41.7578 50.1053 41.7528 50.1312 41.7531H57.1872C57.2394 41.7531 57.2894 41.7738 57.3262 41.8106C57.3631 41.8475 57.3838 41.8975 57.3838 41.9496C57.384 41.9756 57.3791 42.0013 57.3693 42.0254C57.3595 42.0494 57.3451 42.0713 57.3268 42.0897C57.3085 42.1081 57.2868 42.1228 57.2628 42.1327C57.2389 42.1427 57.2132 42.1479 57.1872 42.1479Z" fill="#263238"/>
<path opacity="0.4" d="M57.1872 42.1479H50.1312C50.0786 42.1479 50.0282 42.127 49.991 42.0898C49.9539 42.0526 49.933 42.0022 49.933 41.9496C49.933 41.9237 49.9381 41.898 49.9481 41.874C49.9581 41.8501 49.9727 41.8283 49.9911 41.81C50.0096 41.7918 50.0314 41.7773 50.0555 41.7675C50.0795 41.7578 50.1053 41.7528 50.1312 41.7531H57.1872C57.2394 41.7531 57.2894 41.7738 57.3262 41.8106C57.3631 41.8475 57.3838 41.8975 57.3838 41.9496C57.384 41.9756 57.3791 42.0013 57.3693 42.0254C57.3595 42.0494 57.3451 42.0713 57.3268 42.0897C57.3085 42.1081 57.2868 42.1228 57.2628 42.1327C57.2389 42.1427 57.2132 42.1479 57.1872 42.1479Z" fill="white"/>
<path d="M55.9323 42.9408H50.1312C50.0786 42.9408 50.0282 42.9199 49.991 42.8827C49.9539 42.8455 49.933 42.7951 49.933 42.7426C49.933 42.69 49.9539 42.6396 49.991 42.6024C50.0282 42.5652 50.0786 42.5443 50.1312 42.5443H55.9323C55.9848 42.5443 56.0353 42.5652 56.0724 42.6024C56.1096 42.6396 56.1305 42.69 56.1305 42.7426C56.1305 42.7951 56.1096 42.8455 56.0724 42.8827C56.0353 42.9199 55.9848 42.9408 55.9323 42.9408Z" fill="#263238"/>
<path opacity="0.4" d="M55.9323 42.9408H50.1312C50.0786 42.9408 50.0282 42.9199 49.991 42.8827C49.9539 42.8455 49.933 42.7951 49.933 42.7426C49.933 42.69 49.9539 42.6396 49.991 42.6024C50.0282 42.5652 50.0786 42.5443 50.1312 42.5443H55.9323C55.9848 42.5443 56.0353 42.5652 56.0724 42.6024C56.1096 42.6396 56.1305 42.69 56.1305 42.7426C56.1305 42.7951 56.1096 42.8455 56.0724 42.8827C56.0353 42.9199 55.9848 42.9408 55.9323 42.9408Z" fill="white"/>
<path d="M56.3405 43.7321H50.1245C50.0719 43.7321 50.0215 43.7112 49.9843 43.674C49.9472 43.6368 49.9263 43.5864 49.9263 43.5338C49.9285 43.4815 49.9512 43.4322 49.9896 43.3967C50.028 43.3611 50.0789 43.3422 50.1312 43.344H56.3472C56.3998 43.344 56.4502 43.3649 56.4874 43.4021C56.5246 43.4392 56.5455 43.4897 56.5455 43.5422C56.5433 43.5945 56.5205 43.6438 56.4821 43.6794C56.4437 43.715 56.3928 43.7339 56.3405 43.7321Z" fill="#263238"/>
<path opacity="0.4" d="M56.3405 43.7321H50.1245C50.0719 43.7321 50.0215 43.7112 49.9843 43.674C49.9472 43.6368 49.9263 43.5864 49.9263 43.5338C49.9285 43.4815 49.9512 43.4322 49.9896 43.3967C50.028 43.3611 50.0789 43.3422 50.1312 43.344H56.3472C56.3998 43.344 56.4502 43.3649 56.4874 43.4021C56.5246 43.4392 56.5455 43.4897 56.5455 43.5422C56.5433 43.5945 56.5205 43.6438 56.4821 43.6794C56.4437 43.715 56.3928 43.7339 56.3405 43.7321Z" fill="white"/>
<path d="M65.7132 42.1479H58.6572C58.6055 42.1465 58.5564 42.1251 58.5203 42.088C58.4842 42.051 58.464 42.0013 58.464 41.9496C58.464 41.9237 58.4691 41.898 58.4791 41.874C58.4891 41.8501 58.5037 41.8283 58.5222 41.81C58.5406 41.7918 58.5625 41.7773 58.5865 41.7675C58.6105 41.7578 58.6363 41.7528 58.6622 41.7531H65.7182C65.7442 41.7528 65.7699 41.7578 65.794 41.7675C65.818 41.7773 65.8399 41.7918 65.8583 41.81C65.8767 41.8283 65.8914 41.8501 65.9013 41.874C65.9113 41.898 65.9165 41.9237 65.9165 41.9496C65.9165 41.9761 65.9112 42.0023 65.9009 42.0267C65.8906 42.0511 65.8756 42.0731 65.8566 42.0916C65.8377 42.1101 65.8152 42.1246 65.7906 42.1342C65.766 42.1439 65.7396 42.1485 65.7132 42.1479Z" fill="#263238"/>
<path opacity="0.4" d="M65.7132 42.1479H58.6572C58.6055 42.1465 58.5564 42.1251 58.5203 42.088C58.4842 42.051 58.464 42.0013 58.464 41.9496C58.464 41.9237 58.4691 41.898 58.4791 41.874C58.4891 41.8501 58.5037 41.8283 58.5222 41.81C58.5406 41.7918 58.5625 41.7773 58.5865 41.7675C58.6105 41.7578 58.6363 41.7528 58.6622 41.7531H65.7182C65.7442 41.7528 65.7699 41.7578 65.794 41.7675C65.818 41.7773 65.8399 41.7918 65.8583 41.81C65.8767 41.8283 65.8914 41.8501 65.9013 41.874C65.9113 41.898 65.9165 41.9237 65.9165 41.9496C65.9165 41.9761 65.9112 42.0023 65.9009 42.0267C65.8906 42.0511 65.8756 42.0731 65.8566 42.0916C65.8377 42.1101 65.8152 42.1246 65.7906 42.1342C65.766 42.1439 65.7396 42.1485 65.7132 42.1479Z" fill="white"/>
<path d="M64.964 42.9408H58.6589C58.6064 42.9408 58.5559 42.9199 58.5188 42.8827C58.4816 42.8455 58.4607 42.7951 58.4607 42.7426C58.4607 42.69 58.4816 42.6396 58.5188 42.6024C58.5559 42.5652 58.6064 42.5443 58.6589 42.5443H64.964C65.0165 42.5443 65.067 42.5652 65.1041 42.6024C65.1413 42.6396 65.1622 42.69 65.1622 42.7426C65.1622 42.7951 65.1413 42.8455 65.1041 42.8827C65.067 42.9199 65.0165 42.9408 64.964 42.9408Z" fill="#263238"/>
<path opacity="0.4" d="M64.964 42.9408H58.6589C58.6064 42.9408 58.5559 42.9199 58.5188 42.8827C58.4816 42.8455 58.4607 42.7951 58.4607 42.7426C58.4607 42.69 58.4816 42.6396 58.5188 42.6024C58.5559 42.5652 58.6064 42.5443 58.6589 42.5443H64.964C65.0165 42.5443 65.067 42.5652 65.1041 42.6024C65.1413 42.6396 65.1622 42.69 65.1622 42.7426C65.1622 42.7951 65.1413 42.8455 65.1041 42.8827C65.067 42.9199 65.0165 42.9408 64.964 42.9408Z" fill="white"/>
<path d="M64.5322 43.7322H58.6522C58.5996 43.7322 58.5492 43.7113 58.512 43.6741C58.4749 43.6369 58.454 43.5865 58.454 43.5339C58.454 43.4814 58.4749 43.4309 58.512 43.3938C58.5492 43.3566 58.5996 43.3357 58.6522 43.3357H64.5322C64.5583 43.3357 64.584 43.3408 64.6081 43.3508C64.6321 43.3607 64.654 43.3753 64.6724 43.3938C64.6908 43.4122 64.7054 43.434 64.7154 43.4581C64.7253 43.4821 64.7305 43.5079 64.7305 43.5339C64.7305 43.56 64.7253 43.5857 64.7154 43.6098C64.7054 43.6338 64.6908 43.6557 64.6724 43.6741C64.654 43.6925 64.6321 43.7071 64.6081 43.7171C64.584 43.727 64.5583 43.7322 64.5322 43.7322Z" fill="#263238"/>
<path opacity="0.4" d="M64.5322 43.7322H58.6522C58.5996 43.7322 58.5492 43.7113 58.512 43.6741C58.4749 43.6369 58.454 43.5865 58.454 43.5339C58.454 43.4814 58.4749 43.4309 58.512 43.3938C58.5492 43.3566 58.5996 43.3357 58.6522 43.3357H64.5322C64.5583 43.3357 64.584 43.3408 64.6081 43.3508C64.6321 43.3607 64.654 43.3753 64.6724 43.3938C64.6908 43.4122 64.7054 43.434 64.7154 43.4581C64.7253 43.4821 64.7305 43.5079 64.7305 43.5339C64.7305 43.56 64.7253 43.5857 64.7154 43.6098C64.7054 43.6338 64.6908 43.6557 64.6724 43.6741C64.654 43.6925 64.6321 43.7071 64.6081 43.7171C64.584 43.727 64.5583 43.7322 64.5322 43.7322Z" fill="white"/>
<path d="M57.1872 45.7162H50.1312C50.0786 45.7162 50.0282 45.6953 49.991 45.6581C49.9539 45.6209 49.933 45.5705 49.933 45.5179C49.933 45.4919 49.9381 45.4661 49.9481 45.4421C49.958 45.418 49.9726 45.3962 49.991 45.3778C50.0095 45.3594 50.0313 45.3448 50.0554 45.3348C50.0794 45.3248 50.1052 45.3197 50.1312 45.3197H57.1872C57.2132 45.3197 57.2389 45.3248 57.2628 45.3348C57.2868 45.3448 57.3085 45.3594 57.3268 45.3779C57.3451 45.3963 57.3595 45.4182 57.3693 45.4422C57.3791 45.4662 57.384 45.492 57.3838 45.5179C57.384 45.5439 57.3791 45.5696 57.3693 45.5937C57.3595 45.6177 57.3451 45.6396 57.3268 45.658C57.3085 45.6764 57.2868 45.6911 57.2628 45.7011C57.2389 45.711 57.2132 45.7162 57.1872 45.7162Z" fill="#263238"/>
<path opacity="0.4" d="M57.1872 45.7162H50.1312C50.0786 45.7162 50.0282 45.6953 49.991 45.6581C49.9539 45.6209 49.933 45.5705 49.933 45.5179C49.933 45.4919 49.9381 45.4661 49.9481 45.4421C49.958 45.418 49.9726 45.3962 49.991 45.3778C50.0095 45.3594 50.0313 45.3448 50.0554 45.3348C50.0794 45.3248 50.1052 45.3197 50.1312 45.3197H57.1872C57.2132 45.3197 57.2389 45.3248 57.2628 45.3348C57.2868 45.3448 57.3085 45.3594 57.3268 45.3779C57.3451 45.3963 57.3595 45.4182 57.3693 45.4422C57.3791 45.4662 57.384 45.492 57.3838 45.5179C57.384 45.5439 57.3791 45.5696 57.3693 45.5937C57.3595 45.6177 57.3451 45.6396 57.3268 45.658C57.3085 45.6764 57.2868 45.6911 57.2628 45.7011C57.2389 45.711 57.2132 45.7162 57.1872 45.7162Z" fill="white"/>
<path d="M56.4363 46.5075H50.1312C50.1053 46.5077 50.0795 46.5028 50.0555 46.493C50.0314 46.4832 50.0096 46.4688 49.9911 46.4505C49.9727 46.4322 49.9581 46.4105 49.9481 46.3865C49.9381 46.3626 49.933 46.3369 49.933 46.3109C49.933 46.2583 49.9539 46.2079 49.991 46.1707C50.0282 46.1336 50.0786 46.1127 50.1312 46.1127H56.4363C56.4888 46.1127 56.5393 46.1336 56.5764 46.1707C56.6136 46.2079 56.6345 46.2583 56.6345 46.3109C56.6345 46.3369 56.6294 46.3626 56.6194 46.3865C56.6094 46.4105 56.5948 46.4322 56.5763 46.4505C56.5579 46.4688 56.536 46.4832 56.512 46.493C56.488 46.5028 56.4622 46.5077 56.4363 46.5075Z" fill="#263238"/>
<path opacity="0.4" d="M56.4363 46.5075H50.1312C50.1053 46.5077 50.0795 46.5028 50.0555 46.493C50.0314 46.4832 50.0096 46.4688 49.9911 46.4505C49.9727 46.4322 49.9581 46.4105 49.9481 46.3865C49.9381 46.3626 49.933 46.3369 49.933 46.3109C49.933 46.2583 49.9539 46.2079 49.991 46.1707C50.0282 46.1336 50.0786 46.1127 50.1312 46.1127H56.4363C56.4888 46.1127 56.5393 46.1336 56.5764 46.1707C56.6136 46.2079 56.6345 46.2583 56.6345 46.3109C56.6345 46.3369 56.6294 46.3626 56.6194 46.3865C56.6094 46.4105 56.5948 46.4322 56.5763 46.4505C56.5579 46.4688 56.536 46.4832 56.512 46.493C56.488 46.5028 56.4622 46.5077 56.4363 46.5075Z" fill="white"/>
<path d="M55.5005 47.3004H50.1245C50.0719 47.3004 50.0215 47.2795 49.9843 47.2423C49.9472 47.2052 49.9263 47.1547 49.9263 47.1022C49.9263 47.0496 49.9472 46.9992 49.9843 46.962C50.0215 46.9248 50.0719 46.9039 50.1245 46.9039H55.5005C55.5265 46.9039 55.5523 46.9091 55.5764 46.919C55.6004 46.929 55.6223 46.9436 55.6407 46.962C55.6591 46.9804 55.6737 47.0023 55.6837 47.0263C55.6936 47.0504 55.6988 47.0761 55.6988 47.1022C55.6988 47.1282 55.6936 47.154 55.6837 47.178C55.6737 47.2021 55.6591 47.2239 55.6407 47.2423C55.6223 47.2608 55.6004 47.2754 55.5764 47.2853C55.5523 47.2953 55.5265 47.3004 55.5005 47.3004Z" fill="#263238"/>
<path opacity="0.4" d="M55.5005 47.3004H50.1245C50.0719 47.3004 50.0215 47.2795 49.9843 47.2423C49.9472 47.2052 49.9263 47.1547 49.9263 47.1022C49.9263 47.0496 49.9472 46.9992 49.9843 46.962C50.0215 46.9248 50.0719 46.9039 50.1245 46.9039H55.5005C55.5265 46.9039 55.5523 46.9091 55.5764 46.919C55.6004 46.929 55.6223 46.9436 55.6407 46.962C55.6591 46.9804 55.6737 47.0023 55.6837 47.0263C55.6936 47.0504 55.6988 47.0761 55.6988 47.1022C55.6988 47.1282 55.6936 47.154 55.6837 47.178C55.6737 47.2021 55.6591 47.2239 55.6407 47.2423C55.6223 47.2608 55.6004 47.2754 55.5764 47.2853C55.5523 47.2953 55.5265 47.3004 55.5005 47.3004Z" fill="white"/>
<path d="M65.2092 45.7162H58.6572C58.6046 45.7162 58.5542 45.6953 58.517 45.6581C58.4799 45.6209 58.459 45.5705 58.459 45.5179C58.459 45.4919 58.4641 45.4661 58.4741 45.4421C58.484 45.418 58.4986 45.3962 58.517 45.3778C58.5355 45.3594 58.5573 45.3448 58.5814 45.3348C58.6054 45.3248 58.6312 45.3197 58.6572 45.3197H65.2092C65.2353 45.3197 65.261 45.3248 65.2851 45.3348C65.3091 45.3448 65.331 45.3594 65.3494 45.3778C65.3678 45.3962 65.3824 45.418 65.3924 45.4421C65.4023 45.4661 65.4075 45.4919 65.4075 45.5179C65.4075 45.5705 65.3866 45.6209 65.3494 45.6581C65.3122 45.6953 65.2618 45.7162 65.2092 45.7162Z" fill="#263238"/>
<path opacity="0.4" d="M65.2092 45.7162H58.6572C58.6046 45.7162 58.5542 45.6953 58.517 45.6581C58.4799 45.6209 58.459 45.5705 58.459 45.5179C58.459 45.4919 58.4641 45.4661 58.4741 45.4421C58.484 45.418 58.4986 45.3962 58.517 45.3778C58.5355 45.3594 58.5573 45.3448 58.5814 45.3348C58.6054 45.3248 58.6312 45.3197 58.6572 45.3197H65.2092C65.2353 45.3197 65.261 45.3248 65.2851 45.3348C65.3091 45.3448 65.331 45.3594 65.3494 45.3778C65.3678 45.3962 65.3824 45.418 65.3924 45.4421C65.4023 45.4661 65.4075 45.4919 65.4075 45.5179C65.4075 45.5705 65.3866 45.6209 65.3494 45.6581C65.3122 45.6953 65.2618 45.7162 65.2092 45.7162Z" fill="white"/>
<path d="M64.46 46.5075H58.6589C58.633 46.5077 58.6072 46.5028 58.5832 46.493C58.5592 46.4832 58.5373 46.4688 58.5189 46.4505C58.5004 46.4322 58.4858 46.4105 58.4758 46.3865C58.4658 46.3626 58.4607 46.3369 58.4607 46.3109C58.4607 46.2583 58.4816 46.2079 58.5188 46.1707C58.5559 46.1336 58.6064 46.1127 58.6589 46.1127H64.46C64.5125 46.1127 64.563 46.1336 64.6001 46.1707C64.6373 46.2079 64.6582 46.2583 64.6582 46.3109C64.6582 46.3369 64.6531 46.3626 64.6431 46.3865C64.6331 46.4105 64.6185 46.4322 64.6 46.4505C64.5816 46.4688 64.5597 46.4832 64.5357 46.493C64.5117 46.5028 64.4859 46.5077 64.46 46.5075Z" fill="#263238"/>
<path opacity="0.4" d="M64.46 46.5075H58.6589C58.633 46.5077 58.6072 46.5028 58.5832 46.493C58.5592 46.4832 58.5373 46.4688 58.5189 46.4505C58.5004 46.4322 58.4858 46.4105 58.4758 46.3865C58.4658 46.3626 58.4607 46.3369 58.4607 46.3109C58.4607 46.2583 58.4816 46.2079 58.5188 46.1707C58.5559 46.1336 58.6064 46.1127 58.6589 46.1127H64.46C64.5125 46.1127 64.563 46.1336 64.6001 46.1707C64.6373 46.2079 64.6582 46.2583 64.6582 46.3109C64.6582 46.3369 64.6531 46.3626 64.6431 46.3865C64.6331 46.4105 64.6185 46.4322 64.6 46.4505C64.5816 46.4688 64.5597 46.4832 64.5357 46.493C64.5117 46.5028 64.4859 46.5077 64.46 46.5075Z" fill="white"/>
<path d="M64.5322 47.3004H58.6522C58.5996 47.3004 58.5492 47.2795 58.512 47.2423C58.4749 47.2052 58.454 47.1547 58.454 47.1022C58.454 47.0496 58.4749 46.9992 58.512 46.962C58.5492 46.9248 58.5996 46.9039 58.6522 46.9039H64.5322C64.5583 46.9039 64.584 46.9091 64.6081 46.919C64.6321 46.929 64.654 46.9436 64.6724 46.962C64.6908 46.9804 64.7054 47.0023 64.7154 47.0263C64.7253 47.0504 64.7305 47.0761 64.7305 47.1022C64.7305 47.1282 64.7253 47.154 64.7154 47.178C64.7054 47.2021 64.6908 47.2239 64.6724 47.2423C64.654 47.2608 64.6321 47.2754 64.6081 47.2853C64.584 47.2953 64.5583 47.3004 64.5322 47.3004Z" fill="#263238"/>
<path opacity="0.4" d="M64.5322 47.3004H58.6522C58.5996 47.3004 58.5492 47.2795 58.512 47.2423C58.4749 47.2052 58.454 47.1547 58.454 47.1022C58.454 47.0496 58.4749 46.9992 58.512 46.962C58.5492 46.9248 58.5996 46.9039 58.6522 46.9039H64.5322C64.5583 46.9039 64.584 46.9091 64.6081 46.919C64.6321 46.929 64.654 46.9436 64.6724 46.962C64.6908 46.9804 64.7054 47.0023 64.7154 47.0263C64.7253 47.0504 64.7305 47.0761 64.7305 47.1022C64.7305 47.1282 64.7253 47.154 64.7154 47.178C64.7054 47.2021 64.6908 47.2239 64.6724 47.2423C64.654 47.2608 64.6321 47.2754 64.6081 47.2853C64.584 47.2953 64.5583 47.3004 64.5322 47.3004Z" fill="white"/>
<path opacity="0.4" d="M69.2647 46.578C69.2223 46.578 69.1804 46.5697 69.1413 46.5535C69.1021 46.5373 69.0666 46.5135 69.0366 46.4836C69.0067 46.4536 68.9829 46.4181 68.9667 46.3789C68.9505 46.3398 68.9421 46.2978 68.9421 46.2555V44.384C68.9421 44.2984 68.9761 44.2164 69.0366 44.1559C69.0971 44.0954 69.1792 44.0614 69.2647 44.0614C69.307 44.0614 69.3488 44.0698 69.3879 44.086C69.4269 44.1022 69.4624 44.126 69.4922 44.156C69.522 44.186 69.5456 44.2215 69.5616 44.2607C69.5777 44.2998 69.5858 44.3417 69.5856 44.384V46.2555C69.5858 46.2978 69.5777 46.3397 69.5616 46.3788C69.5456 46.4179 69.522 46.4535 69.4922 46.4835C69.4624 46.5134 69.4269 46.5372 69.3879 46.5535C69.3488 46.5697 69.307 46.578 69.2647 46.578Z" fill="white"/>
<path d="M54.5497 39.191H15.1873C14.7533 39.1906 14.3368 39.3622 14.0291 39.6683C13.7214 39.9744 13.5477 40.39 13.5459 40.824V65.772C13.5459 65.9875 13.5884 66.2008 13.6709 66.3999C13.7534 66.5989 13.8743 66.7797 14.0267 66.932C14.1792 67.0843 14.3601 67.205 14.5593 67.2873C14.7584 67.3696 14.9718 67.4119 15.1873 67.4117H20.4104V66.612C20.4121 66.5009 20.4572 66.3948 20.5359 66.3164C20.6147 66.2379 20.7209 66.1933 20.8321 66.192H48.8881C49.0008 66.192 49.1089 66.2368 49.1886 66.3165C49.2683 66.3962 49.3131 66.5043 49.3131 66.617V67.4167H54.5379C54.9728 67.4167 55.3898 67.244 55.6973 66.9365C56.0048 66.629 56.1776 66.2119 56.1776 65.777V40.824C56.1758 40.3923 56.0039 39.9788 55.6991 39.673C55.3944 39.3673 54.9813 39.1941 54.5497 39.191Z" fill="#263238"/>
<path d="M35.2128 40.2646C35.2128 40.3334 35.1922 40.4007 35.1537 40.4578C35.1152 40.515 35.0605 40.5593 34.9967 40.5851C34.9329 40.611 34.8628 40.6173 34.7954 40.6031C34.728 40.5889 34.6664 40.5549 34.6184 40.5055C34.5704 40.4561 34.5383 40.3935 34.5261 40.3257C34.5139 40.2579 34.5222 40.188 34.55 40.125C34.5777 40.062 34.6236 40.0086 34.6818 39.9718C34.7401 39.9351 34.8079 39.9165 34.8768 39.9185C34.967 39.9207 35.0527 39.9582 35.1155 40.0229C35.1783 40.0876 35.2133 40.1744 35.2128 40.2646Z" fill="#368268"/>
<path d="M59.4099 66.7968H10.3253V68.0248H59.4099V66.7968Z" fill="#263238"/>
<path opacity="0.5" d="M59.4099 66.7968H10.3253V68.0248H59.4099V66.7968Z" fill="white"/>
<path d="M10.3253 68.0266L11.088 68.6348C11.589 69.0362 12.2118 69.2549 12.8537 69.2547H56.8848C57.5268 69.2549 58.1496 69.0362 58.6505 68.6348L59.4099 68.0266H10.3253Z" fill="#263238"/>
<path opacity="0.3" d="M10.3253 68.0266L11.088 68.6348C11.589 69.0362 12.2118 69.2549 12.8537 69.2547H56.8848C57.5268 69.2549 58.1496 69.0362 58.6505 68.6348L59.4099 68.0266H10.3253Z" fill="white"/>
<path opacity="0.4" d="M30.151 66.8371C30.151 66.9895 30.2115 67.1356 30.3193 67.2433C30.427 67.3511 30.5732 67.4116 30.7256 67.4116H39.0096C39.162 67.4116 39.3082 67.3511 39.4159 67.2433C39.5237 67.1356 39.5842 66.9895 39.5842 66.8371C39.5842 66.8236 39.5842 66.8102 39.5842 66.7968H30.1544C30.1544 66.8102 30.151 66.8236 30.151 66.8371Z" fill="white"/>
<path d="M54.2725 41.4154H15.4645V63.504H54.2725V41.4154Z" fill="#368268"/>
<path opacity="0.6" d="M54.2725 41.4154H15.4645V63.504H54.2725V41.4154Z" fill="white"/>
<path d="M54.2725 41.4154H15.4645V44.0748H54.2725V41.4154Z" fill="#368268"/>
<path opacity="0.8" d="M32.592 43.4078H17.5543C17.3814 43.4078 17.2156 43.3391 17.0934 43.2169C16.9711 43.0946 16.9025 42.9288 16.9025 42.756C16.9025 42.5831 16.9711 42.4173 17.0934 42.295C17.2156 42.1728 17.3814 42.1041 17.5543 42.1041H32.592C32.7649 42.1041 32.9307 42.1728 33.0529 42.295C33.1751 42.4173 33.2438 42.5831 33.2438 42.756C33.2438 42.9288 33.1751 43.0946 33.0529 43.2169C32.9307 43.3391 32.7649 43.4078 32.592 43.4078Z" fill="white"/>
<path opacity="0.8" d="M52.7957 42.756C52.7957 42.8849 52.7575 43.0109 52.6859 43.1181C52.6143 43.2253 52.5125 43.3089 52.3934 43.3582C52.2742 43.4075 52.1432 43.4204 52.0167 43.3953C51.8903 43.3701 51.7741 43.308 51.683 43.2169C51.5918 43.1257 51.5297 43.0096 51.5046 42.8831C51.4794 42.7567 51.4923 42.6256 51.5417 42.5065C51.591 42.3874 51.6746 42.2856 51.7818 42.214C51.889 42.1424 52.015 42.1041 52.1439 42.1041C52.2296 42.1039 52.3144 42.1206 52.3936 42.1533C52.4728 42.186 52.5447 42.234 52.6053 42.2946C52.6659 42.3551 52.7139 42.4271 52.7466 42.5063C52.7793 42.5854 52.796 42.6703 52.7957 42.756Z" fill="white"/>
<path opacity="0.6" d="M49.8826 43.4078C50.2426 43.4078 50.5344 43.116 50.5344 42.756C50.5344 42.396 50.2426 42.1041 49.8826 42.1041C49.5226 42.1041 49.2307 42.396 49.2307 42.756C49.2307 43.116 49.5226 43.4078 49.8826 43.4078Z" fill="white"/>
<path opacity="0.4" d="M47.6196 43.4078C47.9796 43.4078 48.2714 43.116 48.2714 42.756C48.2714 42.396 47.9796 42.1041 47.6196 42.1041C47.2596 42.1041 46.9678 42.396 46.9678 42.756C46.9678 43.116 47.2596 43.4078 47.6196 43.4078Z" fill="white"/>
<path d="M52.7957 46.6167H16.9025V59.2083H52.7957V46.6167Z" fill="#368268"/>
<path d="M20.3398 59.2083L27.2278 52.3203C27.3132 52.2349 27.4145 52.1671 27.5261 52.1208C27.6377 52.0746 27.7572 52.0508 27.878 52.0508C27.9988 52.0508 28.1183 52.0746 28.2299 52.1208C28.3415 52.1671 28.4428 52.2349 28.5282 52.3203L35.4162 59.2083H20.3398Z" fill="#368268"/>
<path opacity="0.3" d="M20.3398 59.2083L27.2278 52.3203C27.3132 52.2349 27.4145 52.1671 27.5261 52.1208C27.6377 52.0746 27.7572 52.0508 27.878 52.0508C27.9988 52.0508 28.1183 52.0746 28.2299 52.1208C28.3415 52.1671 28.4428 52.2349 28.5282 52.3203L35.4162 59.2083H20.3398Z" fill="black"/>
<path d="M28.5281 52.3203C28.4039 52.1962 28.2466 52.1104 28.0751 52.0732C27.9035 52.036 27.7249 52.0488 27.5604 52.1103C27.5604 52.6731 28.8439 53.1401 28.8439 53.7046C28.8439 54.2691 27.5587 54.7378 27.5587 55.3023C27.5587 55.8668 29.9107 56.3338 29.9107 56.8983C29.9107 57.4628 27.5587 57.9298 27.5587 58.4943C27.5587 58.6959 27.8124 58.9546 28.1434 59.2083H35.4161L28.5281 52.3203Z" fill="#368268"/>
<path opacity="0.4" d="M28.5281 52.3203C28.4039 52.1962 28.2466 52.1104 28.0751 52.0732C27.9035 52.036 27.7249 52.0488 27.5604 52.1103C27.5604 52.6731 28.8439 53.1401 28.8439 53.7046C28.8439 54.2691 27.5587 54.7378 27.5587 55.3023C27.5587 55.8668 29.9107 56.3338 29.9107 56.8983C29.9107 57.4628 27.5587 57.9298 27.5587 58.4943C27.5587 58.6959 27.8124 58.9546 28.1434 59.2083H35.4161L28.5281 52.3203Z" fill="white"/>
<path d="M32.5719 59.2082L41.4961 50.2773C41.7195 50.0557 42.0214 49.9314 42.3361 49.9314C42.6507 49.9314 42.9527 50.0557 43.1761 50.2773L52.1069 59.2082H32.5719Z" fill="#368268"/>
<path opacity="0.3" d="M32.5719 59.2082L41.4961 50.2773C41.7195 50.0557 42.0214 49.9314 42.3361 49.9314C42.6507 49.9314 42.9527 50.0557 43.1761 50.2773L52.1069 59.2082H32.5719Z" fill="black"/>
<path d="M43.1895 50.2773C43.0283 50.1161 42.824 50.0047 42.6012 49.9565C42.3784 49.9082 42.1464 49.9251 41.9329 50.0051C41.9329 50.7359 43.5994 51.3491 43.5994 52.0715C43.5994 52.7939 41.9329 53.4155 41.9329 54.143C41.9329 54.8704 44.9905 55.487 44.9905 56.2127C44.9905 56.9385 41.9329 57.5567 41.9329 58.2825C41.9329 58.5446 42.2689 58.8806 42.6905 59.2082H52.1204L43.1895 50.2773Z" fill="#368268"/>
<path opacity="0.4" d="M43.1895 50.2773C43.0283 50.1161 42.824 50.0047 42.6012 49.9565C42.3784 49.9082 42.1464 49.9251 41.9329 50.0051C41.9329 50.7359 43.5994 51.3491 43.5994 52.0715C43.5994 52.7939 41.9329 53.4155 41.9329 54.143C41.9329 54.8704 44.9905 55.487 44.9905 56.2127C44.9905 56.9385 41.9329 57.5567 41.9329 58.2825C41.9329 58.5446 42.2689 58.8806 42.6905 59.2082H52.1204L43.1895 50.2773Z" fill="white"/>
<path opacity="0.5" d="M34.9944 45.7095H31.1607C31.1051 45.7097 31.0501 45.6989 30.9988 45.6778C30.9474 45.6567 30.9007 45.6257 30.8614 45.5865C30.8221 45.5474 30.7909 45.5008 30.7696 45.4495C30.7483 45.3983 30.7373 45.3433 30.7373 45.2878C30.7373 45.2323 30.7483 45.1773 30.7696 45.126C30.7909 45.0747 30.8221 45.0282 30.8614 44.989C30.9007 44.9498 30.9474 44.9188 30.9988 44.8977C31.0501 44.8766 31.1051 44.8659 31.1607 44.8661H34.9944C35.1063 44.8661 35.2135 44.9105 35.2926 44.9896C35.3717 45.0687 35.4161 45.1759 35.4161 45.2878C35.4161 45.3996 35.3717 45.5069 35.2926 45.5859C35.2135 45.665 35.1063 45.7095 34.9944 45.7095Z" fill="white"/>
<path d="M40.824 45.7094H36.9886C36.8767 45.7094 36.7695 45.665 36.6904 45.5859C36.6113 45.5069 36.5669 45.3996 36.5669 45.2878C36.5669 45.1759 36.6113 45.0687 36.6904 44.9896C36.7695 44.9105 36.8767 44.8661 36.9886 44.8661H40.824C40.9359 44.8661 41.0431 44.9105 41.1222 44.9896C41.2013 45.0687 41.2457 45.1759 41.2457 45.2878C41.2457 45.3996 41.2013 45.5069 41.1222 45.5859C41.0431 45.665 40.9359 45.7094 40.824 45.7094Z" fill="#368268"/>
<path opacity="0.5" d="M46.6519 45.7094H42.8182C42.7063 45.7094 42.5991 45.665 42.52 45.5859C42.4409 45.5069 42.3965 45.3996 42.3965 45.2878C42.3965 45.1759 42.4409 45.0687 42.52 44.9896C42.5991 44.9105 42.7063 44.8661 42.8182 44.8661H46.6519C46.7638 44.8661 46.871 44.9105 46.9501 44.9896C47.0292 45.0687 47.0736 45.1759 47.0736 45.2878C47.0736 45.3996 47.0292 45.5069 46.9501 45.5859C46.871 45.665 46.7638 45.7094 46.6519 45.7094Z" fill="white"/>
<path d="M40.945 61.0629H34.393C34.3092 61.0629 34.2289 61.0296 34.1697 60.9704C34.1104 60.9112 34.0771 60.8308 34.0771 60.7471C34.0771 60.6632 34.1104 60.5827 34.1696 60.5232C34.2287 60.4637 34.3091 60.43 34.393 60.4296H40.945C41.0289 60.43 41.1092 60.4637 41.1684 60.5232C41.2276 60.5827 41.2608 60.6632 41.2608 60.7471C41.2608 60.8308 41.2276 60.9112 41.1683 60.9704C41.1091 61.0296 41.0288 61.0629 40.945 61.0629Z" fill="#263238"/>
<path d="M45.8641 61.0629H42.1362C42.0524 61.0629 41.9721 61.0296 41.9128 60.9704C41.8536 60.9112 41.8203 60.8308 41.8203 60.7471C41.8203 60.6632 41.8535 60.5827 41.9127 60.5232C41.9719 60.4637 42.0522 60.43 42.1362 60.4296H45.8641C45.948 60.43 46.0283 60.4637 46.0875 60.5232C46.1467 60.5827 46.1799 60.6632 46.1799 60.7471C46.1799 60.8308 46.1466 60.9112 46.0874 60.9704C46.0282 61.0296 45.9478 61.0629 45.8641 61.0629Z" fill="#263238"/>
<path d="M39.2767 62.4725H34.4047C34.3208 62.472 34.2405 62.4384 34.1813 62.3789C34.1221 62.3194 34.0889 62.2389 34.0889 62.155C34.0889 62.0712 34.1221 61.9908 34.1814 61.9316C34.2406 61.8724 34.3209 61.8391 34.4047 61.8391H39.2767C39.3605 61.8391 39.4408 61.8724 39.5 61.9316C39.5593 61.9908 39.5925 62.0712 39.5925 62.155C39.5925 62.2389 39.5593 62.3194 39.5001 62.3789C39.441 62.4384 39.3606 62.472 39.2767 62.4725Z" fill="#263238"/>
<path d="M43.848 62.4725H40.4258C40.3419 62.472 40.2616 62.4384 40.2024 62.3789C40.1432 62.3194 40.11 62.2389 40.11 62.155C40.11 62.0712 40.1433 61.9908 40.2025 61.9316C40.2617 61.8724 40.3421 61.8391 40.4258 61.8391H43.848C43.9318 61.8391 44.0121 61.8724 44.0713 61.9316C44.1305 61.9908 44.1638 62.0712 44.1638 62.155C44.1638 62.2389 44.1306 62.3194 44.0714 62.3789C44.0122 62.4384 43.9319 62.472 43.848 62.4725Z" fill="#263238"/>
<path opacity="0.4" d="M40.945 61.0629H34.393C34.3092 61.0629 34.2289 61.0296 34.1697 60.9704C34.1104 60.9112 34.0771 60.8308 34.0771 60.7471C34.0771 60.6632 34.1104 60.5827 34.1696 60.5232C34.2287 60.4637 34.3091 60.43 34.393 60.4296H40.945C41.0289 60.43 41.1092 60.4637 41.1684 60.5232C41.2276 60.5827 41.2608 60.6632 41.2608 60.7471C41.2608 60.8308 41.2276 60.9112 41.1683 60.9704C41.1091 61.0296 41.0288 61.0629 40.945 61.0629Z" fill="white"/>
<path opacity="0.4" d="M45.8641 61.0629H42.1362C42.0524 61.0629 41.9721 61.0296 41.9128 60.9704C41.8536 60.9112 41.8203 60.8308 41.8203 60.7471C41.8203 60.6632 41.8535 60.5827 41.9127 60.5232C41.9719 60.4637 42.0522 60.43 42.1362 60.4296H45.8641C45.948 60.43 46.0283 60.4637 46.0875 60.5232C46.1467 60.5827 46.1799 60.6632 46.1799 60.7471C46.1799 60.8308 46.1466 60.9112 46.0874 60.9704C46.0282 61.0296 45.9478 61.0629 45.8641 61.0629Z" fill="white"/>
<path opacity="0.4" d="M39.2767 62.4725H34.4047C34.3208 62.472 34.2405 62.4384 34.1813 62.3789C34.1221 62.3194 34.0889 62.2389 34.0889 62.155C34.0889 62.0712 34.1221 61.9908 34.1814 61.9316C34.2406 61.8724 34.3209 61.8391 34.4047 61.8391H39.2767C39.3605 61.8391 39.4408 61.8724 39.5 61.9316C39.5593 61.9908 39.5925 62.0712 39.5925 62.155C39.5925 62.2389 39.5593 62.3194 39.5001 62.3789C39.441 62.4384 39.3606 62.472 39.2767 62.4725Z" fill="white"/>
<path opacity="0.4" d="M43.848 62.4725H40.4258C40.3419 62.472 40.2616 62.4384 40.2024 62.3789C40.1432 62.3194 40.11 62.2389 40.11 62.155C40.11 62.0712 40.1433 61.9908 40.2025 61.9316C40.2617 61.8724 40.3421 61.8391 40.4258 61.8391H43.848C43.9318 61.8391 44.0121 61.8724 44.0713 61.9316C44.1305 61.9908 44.1638 62.0712 44.1638 62.155C44.1638 62.2389 44.1306 62.3194 44.0714 62.3789C44.0122 62.4384 43.9319 62.472 43.848 62.4725Z" fill="white"/>
<path opacity="0.5" d="M52.4816 45.7094H48.6462C48.5343 45.7094 48.4271 45.665 48.348 45.5859C48.2689 45.5069 48.2245 45.3996 48.2245 45.2878C48.2245 45.1759 48.2689 45.0687 48.348 44.9896C48.4271 44.9105 48.5343 44.8661 48.6462 44.8661H52.4816C52.5934 44.8661 52.7007 44.9105 52.7798 44.9896C52.8589 45.0687 52.9033 45.1759 52.9033 45.2878C52.9033 45.3996 52.8589 45.5069 52.7798 45.5859C52.7007 45.665 52.5934 45.7094 52.4816 45.7094Z" fill="white"/>
<path d="M32.4342 53.3014H20.1635V63.5024H32.4342V53.3014Z" fill="#368268"/>
<path opacity="0.8" d="M32.4342 53.3014H20.1635V63.5024H32.4342V53.3014Z" fill="white"/>
<path d="M30.188 54.4521H22.4113V59.5644H30.188V54.4521Z" fill="#368268"/>
<path opacity="0.4" d="M30.188 54.4521H22.4113V59.5644H30.188V54.4521Z" fill="white"/>
<path d="M25.0707 57.241L22.7456 59.5661H27.3958L25.0707 57.241Z" fill="#368268"/>
<path opacity="0.2" d="M25.0707 57.241L22.7456 59.5661H27.3958L25.0707 57.241Z" fill="black"/>
<path d="M30.109 59.5661L27.8007 55.6282L25.494 59.5661H30.109Z" fill="#368268"/>
<path opacity="0.8" d="M26.1509 56.0885C26.1509 56.1809 26.1235 56.2712 26.0722 56.348C26.0208 56.4248 25.9479 56.4846 25.8626 56.52C25.7772 56.5553 25.6833 56.5646 25.5927 56.5466C25.5021 56.5285 25.4189 56.4841 25.3536 56.4188C25.2883 56.3534 25.2438 56.2702 25.2258 56.1796C25.2078 56.089 25.217 55.9951 25.2523 55.9098C25.2877 55.8244 25.3476 55.7515 25.4244 55.7002C25.5012 55.6489 25.5915 55.6215 25.6838 55.6215C25.7452 55.6212 25.8061 55.6332 25.8628 55.6566C25.9196 55.68 25.9712 55.7144 26.0146 55.7578C26.058 55.8012 26.0924 55.8528 26.1158 55.9095C26.1392 55.9663 26.1511 56.0271 26.1509 56.0885Z" fill="white"/>
<path d="M49.8154 48.6629H49.6474C49.6474 48.5511 49.603 48.4438 49.5239 48.3647C49.4448 48.2857 49.3375 48.2412 49.2257 48.2412H48.9569C48.9571 48.1857 48.9464 48.1307 48.9253 48.0793C48.9042 48.028 48.8732 47.9813 48.834 47.942C48.7948 47.9026 48.7483 47.8714 48.697 47.8501C48.6457 47.8288 48.5907 47.8179 48.5352 47.8179H45.9413C45.8858 47.8179 45.8308 47.8288 45.7795 47.8501C45.7283 47.8714 45.6817 47.9026 45.6425 47.942C45.6034 47.9813 45.5723 48.028 45.5512 48.0793C45.5301 48.1307 45.5194 48.1857 45.5196 48.2412H45.2508C45.139 48.2412 45.0317 48.2857 44.9527 48.3647C44.8736 48.4438 44.8291 48.5511 44.8291 48.6629H43.9589C43.854 48.6723 43.7564 48.7206 43.6853 48.7983C43.6142 48.8761 43.5748 48.9776 43.5748 49.0829C43.5748 49.1882 43.6142 49.2898 43.6853 49.3675C43.7564 49.4452 43.854 49.4935 43.9589 49.5029H49.8154C49.9203 49.4935 50.0179 49.4452 50.089 49.3675C50.16 49.2898 50.1995 49.1882 50.1995 49.0829C50.1995 48.9776 50.16 48.8761 50.089 48.7983C50.0179 48.7206 49.9203 48.6723 49.8154 48.6629Z" fill="#368268"/>
<path opacity="0.8" d="M49.8154 48.6629H49.6474C49.6474 48.5511 49.603 48.4438 49.5239 48.3647C49.4448 48.2857 49.3375 48.2412 49.2257 48.2412H48.9569C48.9571 48.1857 48.9464 48.1307 48.9253 48.0793C48.9042 48.028 48.8732 47.9813 48.834 47.942C48.7948 47.9026 48.7483 47.8714 48.697 47.8501C48.6457 47.8288 48.5907 47.8179 48.5352 47.8179H45.9413C45.8858 47.8179 45.8308 47.8288 45.7795 47.8501C45.7283 47.8714 45.6817 47.9026 45.6425 47.942C45.6034 47.9813 45.5723 48.028 45.5512 48.0793C45.5301 48.1307 45.5194 48.1857 45.5196 48.2412H45.2508C45.139 48.2412 45.0317 48.2857 44.9527 48.3647C44.8736 48.4438 44.8291 48.5511 44.8291 48.6629H43.9589C43.854 48.6723 43.7564 48.7206 43.6853 48.7983C43.6142 48.8761 43.5748 48.9776 43.5748 49.0829C43.5748 49.1882 43.6142 49.2898 43.6853 49.3675C43.7564 49.4452 43.854 49.4935 43.9589 49.5029H49.8154C49.9203 49.4935 50.0179 49.4452 50.089 49.3675C50.16 49.2898 50.1995 49.1882 50.1995 49.0829C50.1995 48.9776 50.16 48.8761 50.089 48.7983C50.0179 48.7206 49.9203 48.6723 49.8154 48.6629Z" fill="white"/>
<path d="M27.92 51.7911H27.7738C27.7738 51.6966 27.7363 51.606 27.6695 51.5392C27.6027 51.4724 27.5121 51.4349 27.4176 51.4349H27.1908C27.1908 51.3404 27.1533 51.2498 27.0865 51.183C27.0197 51.1163 26.9291 51.0787 26.8347 51.0787H26.0736C25.9792 51.0787 25.8886 51.1163 25.8218 51.183C25.755 51.2498 25.7175 51.3404 25.7175 51.4349H25.4907C25.444 51.4349 25.3977 51.4441 25.3546 51.462C25.3115 51.48 25.2724 51.5062 25.2394 51.5393C25.2065 51.5724 25.1804 51.6117 25.1627 51.6549C25.145 51.6981 25.136 51.7444 25.1362 51.7911H24.4004C24.3059 51.7911 24.2153 51.8286 24.1485 51.8954C24.0817 51.9622 24.0442 52.0528 24.0442 52.1472C24.0442 52.2417 24.0817 52.3323 24.1485 52.3991C24.2153 52.4659 24.3059 52.5034 24.4004 52.5034H27.92C28.0144 52.5034 28.105 52.4659 28.1718 52.3991C28.2386 52.3323 28.2761 52.2417 28.2761 52.1472C28.2761 52.0528 28.2386 51.9622 28.1718 51.8954C28.105 51.8286 28.0144 51.7911 27.92 51.7911Z" fill="#368268"/>
<path opacity="0.8" d="M27.92 51.7911H27.7738C27.7738 51.6966 27.7363 51.606 27.6695 51.5392C27.6027 51.4724 27.5121 51.4349 27.4176 51.4349H27.1908C27.1908 51.3404 27.1533 51.2498 27.0865 51.183C27.0197 51.1163 26.9291 51.0787 26.8347 51.0787H26.0736C25.9792 51.0787 25.8886 51.1163 25.8218 51.183C25.755 51.2498 25.7175 51.3404 25.7175 51.4349H25.4907C25.444 51.4349 25.3977 51.4441 25.3546 51.462C25.3115 51.48 25.2724 51.5062 25.2394 51.5393C25.2065 51.5724 25.1804 51.6117 25.1627 51.6549C25.145 51.6981 25.136 51.7444 25.1362 51.7911H24.4004C24.3059 51.7911 24.2153 51.8286 24.1485 51.8954C24.0817 51.9622 24.0442 52.0528 24.0442 52.1472C24.0442 52.2417 24.0817 52.3323 24.1485 52.3991C24.2153 52.4659 24.3059 52.5034 24.4004 52.5034H27.92C28.0144 52.5034 28.105 52.4659 28.1718 52.3991C28.2386 52.3323 28.2761 52.2417 28.2761 52.1472C28.2761 52.0528 28.2386 51.9622 28.1718 51.8954C28.105 51.8286 28.0144 51.7911 27.92 51.7911Z" fill="white"/>
<path d="M40.0832 52.92H39.9152C39.9152 52.8081 39.8708 52.7009 39.7917 52.6218C39.7126 52.5427 39.6054 52.4983 39.4935 52.4983H39.2247C39.2244 52.4239 39.2047 52.351 39.1676 52.2866C39.2049 52.2226 39.2247 52.15 39.2248 52.0759C39.225 52.0019 39.2056 51.9291 39.1686 51.865C39.1316 51.8008 39.0783 51.7476 39.0141 51.7107C38.9499 51.6739 38.8771 51.6546 38.803 51.6549H37.9026C37.7907 51.6549 37.6835 51.6993 37.6044 51.7784C37.5253 51.8575 37.4809 51.9648 37.4809 52.0766H37.1281C37.0162 52.0766 36.909 52.121 36.8299 52.2001C36.7508 52.2792 36.7064 52.3864 36.7064 52.4983H36.4393C36.3838 52.498 36.3287 52.5088 36.2774 52.5299C36.226 52.551 36.1793 52.582 36.14 52.6212C36.1007 52.6604 36.0695 52.7069 36.0482 52.7582C36.0269 52.8095 36.0159 52.8644 36.0159 52.92H35.1457C35.0408 52.9293 34.9432 52.9777 34.8721 53.0554C34.801 53.1331 34.7616 53.2346 34.7616 53.34C34.7616 53.4453 34.801 53.5468 34.8721 53.6245C34.9432 53.7022 35.0408 53.7506 35.1457 53.76H40.0815C40.1864 53.7506 40.284 53.7022 40.3551 53.6245C40.4262 53.5468 40.4656 53.4453 40.4656 53.34C40.4656 53.2346 40.4262 53.1331 40.3551 53.0554C40.284 52.9777 40.1864 52.9293 40.0815 52.92H40.0832Z" fill="#368268"/>
<path opacity="0.8" d="M40.0832 52.92H39.9152C39.9152 52.8081 39.8708 52.7009 39.7917 52.6218C39.7126 52.5427 39.6054 52.4983 39.4935 52.4983H39.2247C39.2244 52.4239 39.2047 52.351 39.1676 52.2866C39.2049 52.2226 39.2247 52.15 39.2248 52.0759C39.225 52.0019 39.2056 51.9291 39.1686 51.865C39.1316 51.8008 39.0783 51.7476 39.0141 51.7107C38.9499 51.6739 38.8771 51.6546 38.803 51.6549H37.9026C37.7907 51.6549 37.6835 51.6993 37.6044 51.7784C37.5253 51.8575 37.4809 51.9648 37.4809 52.0766H37.1281C37.0162 52.0766 36.909 52.121 36.8299 52.2001C36.7508 52.2792 36.7064 52.3864 36.7064 52.4983H36.4393C36.3838 52.498 36.3287 52.5088 36.2774 52.5299C36.226 52.551 36.1793 52.582 36.14 52.6212C36.1007 52.6604 36.0695 52.7069 36.0482 52.7582C36.0269 52.8095 36.0159 52.8644 36.0159 52.92H35.1457C35.0408 52.9293 34.9432 52.9777 34.8721 53.0554C34.801 53.1331 34.7616 53.2346 34.7616 53.34C34.7616 53.4453 34.801 53.5468 34.8721 53.6245C34.9432 53.7022 35.0408 53.7506 35.1457 53.76H40.0815C40.1864 53.7506 40.284 53.7022 40.3551 53.6245C40.4262 53.5468 40.4656 53.4453 40.4656 53.34C40.4656 53.2346 40.4262 53.1331 40.3551 53.0554C40.284 52.9777 40.1864 52.9293 40.0815 52.92H40.0832Z" fill="white"/>
<path d="M29.647 60.7908H22.591C22.5672 60.791 22.5437 60.7865 22.5217 60.7776C22.4997 60.7686 22.4797 60.7554 22.4628 60.7387C22.4459 60.722 22.4325 60.7021 22.4234 60.6802C22.4143 60.6583 22.4095 60.6348 22.4095 60.611C22.4095 60.5629 22.4287 60.5167 22.4627 60.4827C22.4967 60.4487 22.5429 60.4296 22.591 60.4296H29.647C29.6708 60.4296 29.6944 60.4343 29.7164 60.4434C29.7384 60.4525 29.7584 60.4659 29.7753 60.4827C29.7921 60.4996 29.8055 60.5196 29.8146 60.5416C29.8237 60.5636 29.8284 60.5872 29.8284 60.611C29.8284 60.6348 29.8237 60.6583 29.8146 60.6802C29.8054 60.7021 29.7921 60.722 29.7752 60.7387C29.7583 60.7554 29.7383 60.7686 29.7163 60.7776C29.6943 60.7865 29.6707 60.791 29.647 60.7908Z" fill="#263238"/>
<path opacity="0.4" d="M29.647 60.7908H22.591C22.5672 60.791 22.5437 60.7865 22.5217 60.7776C22.4997 60.7686 22.4797 60.7554 22.4628 60.7387C22.4459 60.722 22.4325 60.7021 22.4234 60.6802C22.4143 60.6583 22.4095 60.6348 22.4095 60.611C22.4095 60.5629 22.4287 60.5167 22.4627 60.4827C22.4967 60.4487 22.5429 60.4296 22.591 60.4296H29.647C29.6708 60.4296 29.6944 60.4343 29.7164 60.4434C29.7384 60.4525 29.7584 60.4659 29.7753 60.4827C29.7921 60.4996 29.8055 60.5196 29.8146 60.5416C29.8237 60.5636 29.8284 60.5872 29.8284 60.611C29.8284 60.6348 29.8237 60.6583 29.8146 60.6802C29.8054 60.7021 29.7921 60.722 29.7752 60.7387C29.7583 60.7554 29.7383 60.7686 29.7163 60.7776C29.6943 60.7865 29.6707 60.791 29.647 60.7908Z" fill="white"/>
<path d="M28.5029 61.5149H22.5927C22.5689 61.5149 22.5453 61.5102 22.5233 61.5011C22.5012 61.492 22.4812 61.4786 22.4644 61.4618C22.4476 61.4449 22.4342 61.4249 22.4251 61.4029C22.4159 61.3809 22.4113 61.3573 22.4113 61.3335C22.4113 61.3097 22.416 61.2862 22.4251 61.2643C22.4342 61.2424 22.4476 61.2225 22.4645 61.2057C22.4814 61.189 22.5014 61.1758 22.5234 61.1669C22.5454 61.158 22.5689 61.1535 22.5927 61.1537H28.5029C28.5506 61.1537 28.5963 61.1726 28.63 61.2063C28.6638 61.2401 28.6827 61.2858 28.6827 61.3335C28.6829 61.3572 28.6784 61.3808 28.6695 61.4028C28.6606 61.4248 28.6474 61.4448 28.6306 61.4616C28.6139 61.4785 28.594 61.4919 28.5721 61.5011C28.5502 61.5102 28.5267 61.5149 28.5029 61.5149Z" fill="#263238"/>
<path opacity="0.4" d="M28.5029 61.5149H22.5927C22.5689 61.5149 22.5453 61.5102 22.5233 61.5011C22.5012 61.492 22.4812 61.4786 22.4644 61.4618C22.4476 61.4449 22.4342 61.4249 22.4251 61.4029C22.4159 61.3809 22.4113 61.3573 22.4113 61.3335C22.4113 61.3097 22.416 61.2862 22.4251 61.2643C22.4342 61.2424 22.4476 61.2225 22.4645 61.2057C22.4814 61.189 22.5014 61.1758 22.5234 61.1669C22.5454 61.158 22.5689 61.1535 22.5927 61.1537H28.5029C28.5506 61.1537 28.5963 61.1726 28.63 61.2063C28.6638 61.2401 28.6827 61.2858 28.6827 61.3335C28.6829 61.3572 28.6784 61.3808 28.6695 61.4028C28.6606 61.4248 28.6474 61.4448 28.6306 61.4616C28.6139 61.4785 28.594 61.4919 28.5721 61.5011C28.5502 61.5102 28.5267 61.5149 28.5029 61.5149Z" fill="white"/>
<path d="M28.8759 62.2373H22.5927C22.5689 62.2375 22.5454 62.233 22.5234 62.2241C22.5014 62.2152 22.4814 62.202 22.4645 62.1852C22.4476 62.1685 22.4342 62.1486 22.4251 62.1267C22.416 62.1048 22.4113 62.0813 22.4113 62.0575C22.4113 62.0337 22.4159 62.0101 22.4251 61.9881C22.4342 61.9661 22.4476 61.9461 22.4644 61.9292C22.4812 61.9124 22.5012 61.899 22.5233 61.8899C22.5453 61.8808 22.5689 61.8761 22.5927 61.8761H28.8759C28.8996 61.8761 28.9232 61.8808 28.9451 61.8899C28.967 61.8991 28.9869 61.9125 29.0036 61.9293C29.0203 61.9462 29.0335 61.9662 29.0425 61.9882C29.0514 62.0102 29.0559 62.0338 29.0557 62.0575C29.0557 62.1052 29.0367 62.1509 29.003 62.1846C28.9693 62.2184 28.9236 62.2373 28.8759 62.2373Z" fill="#263238"/>
<path opacity="0.4" d="M28.8759 62.2373H22.5927C22.5689 62.2375 22.5454 62.233 22.5234 62.2241C22.5014 62.2152 22.4814 62.202 22.4645 62.1852C22.4476 62.1685 22.4342 62.1486 22.4251 62.1267C22.416 62.1048 22.4113 62.0813 22.4113 62.0575C22.4113 62.0337 22.4159 62.0101 22.4251 61.9881C22.4342 61.9661 22.4476 61.9461 22.4644 61.9292C22.4812 61.9124 22.5012 61.899 22.5233 61.8899C22.5453 61.8808 22.5689 61.8761 22.5927 61.8761H28.8759C28.8996 61.8761 28.9232 61.8808 28.9451 61.8899C28.967 61.8991 28.9869 61.9125 29.0036 61.9293C29.0203 61.9462 29.0335 61.9662 29.0425 61.9882C29.0514 62.0102 29.0559 62.0338 29.0557 62.0575C29.0557 62.1052 29.0367 62.1509 29.003 62.1846C28.9693 62.2184 28.9236 62.2373 28.8759 62.2373Z" fill="white"/>
<path d="M25.1513 42.3629C25.0872 42.3051 25.0035 42.2741 24.9172 42.2764C24.831 42.2786 24.749 42.314 24.6881 42.3751C24.6272 42.4362 24.5921 42.5183 24.5902 42.6046C24.5882 42.6908 24.6195 42.7745 24.6775 42.8383C24.733 42.8934 24.806 42.9274 24.8839 42.9345C24.9618 42.9415 25.0397 42.9212 25.1042 42.8769C25.1059 42.8943 25.1129 42.9108 25.1244 42.924L25.3512 43.1491C25.3586 43.1565 25.3673 43.1624 25.377 43.1664C25.3867 43.1704 25.397 43.1724 25.4075 43.1724C25.4179 43.1724 25.4283 43.1704 25.4379 43.1664C25.4476 43.1624 25.4564 43.1565 25.4637 43.1491C25.4711 43.1417 25.477 43.1329 25.481 43.1233C25.485 43.1136 25.4871 43.1033 25.4871 43.0928C25.4871 43.0824 25.485 43.072 25.481 43.0624C25.477 43.0527 25.4711 43.0439 25.4637 43.0365L25.2386 42.8097C25.2254 42.7983 25.209 42.7912 25.1916 42.7896C25.2356 42.7249 25.2557 42.6469 25.2483 42.569C25.2409 42.4911 25.2066 42.4182 25.1513 42.3629ZM25.0841 42.7694C25.0508 42.803 25.0083 42.8259 24.9619 42.8353C24.9156 42.8446 24.8676 42.84 24.8238 42.822C24.7801 42.804 24.7428 42.7734 24.7165 42.7342C24.6902 42.6949 24.6761 42.6487 24.6761 42.6014C24.6761 42.5542 24.6902 42.508 24.7165 42.4687C24.7428 42.4294 24.7801 42.3988 24.8238 42.3808C24.8676 42.3628 24.9156 42.3582 24.9619 42.3676C25.0083 42.377 25.0508 42.3999 25.0841 42.4334C25.128 42.4783 25.1526 42.5386 25.1526 42.6014C25.1526 42.6642 25.128 42.7245 25.0841 42.7694Z" fill="#368268"/>
<path opacity="0.2" d="M25.1513 42.3629C25.0872 42.3051 25.0035 42.2741 24.9172 42.2764C24.831 42.2786 24.749 42.314 24.6881 42.3751C24.6272 42.4362 24.5921 42.5183 24.5902 42.6046C24.5882 42.6908 24.6195 42.7745 24.6775 42.8383C24.733 42.8934 24.806 42.9274 24.8839 42.9345C24.9618 42.9415 25.0397 42.9212 25.1042 42.8769C25.1059 42.8943 25.1129 42.9108 25.1244 42.924L25.3512 43.1491C25.3586 43.1565 25.3673 43.1624 25.377 43.1664C25.3867 43.1704 25.397 43.1724 25.4075 43.1724C25.4179 43.1724 25.4283 43.1704 25.4379 43.1664C25.4476 43.1624 25.4564 43.1565 25.4637 43.1491C25.4711 43.1417 25.477 43.1329 25.481 43.1233C25.485 43.1136 25.4871 43.1033 25.4871 43.0928C25.4871 43.0824 25.485 43.072 25.481 43.0624C25.477 43.0527 25.4711 43.0439 25.4637 43.0365L25.2386 42.8097C25.2254 42.7983 25.209 42.7912 25.1916 42.7896C25.2356 42.7249 25.2557 42.6469 25.2483 42.569C25.2409 42.4911 25.2066 42.4182 25.1513 42.3629ZM25.0841 42.7694C25.0508 42.803 25.0083 42.8259 24.9619 42.8353C24.9156 42.8446 24.8676 42.84 24.8238 42.822C24.7801 42.804 24.7428 42.7734 24.7165 42.7342C24.6902 42.6949 24.6761 42.6487 24.6761 42.6014C24.6761 42.5542 24.6902 42.508 24.7165 42.4687C24.7428 42.4294 24.7801 42.3988 24.8238 42.3808C24.8676 42.3628 24.9156 42.3582 24.9619 42.3676C25.0083 42.377 25.0508 42.3999 25.0841 42.4334C25.128 42.4783 25.1526 42.5386 25.1526 42.6014C25.1526 42.6642 25.128 42.7245 25.0841 42.7694Z" fill="black"/>
<path d="M61.4308 52.92C61.3417 52.92 61.2563 52.9554 61.1932 53.0185C61.1302 53.0815 61.0948 53.1669 61.0948 53.256V56.5253H58.3497L58.8856 55.9894C58.9169 55.9582 58.9417 55.9211 58.9586 55.8804C58.9755 55.8396 58.9842 55.7958 58.9842 55.7517C58.9842 55.7075 58.9755 55.6638 58.9586 55.623C58.9417 55.5822 58.9169 55.5452 58.8856 55.514C58.8227 55.4514 58.7375 55.4163 58.6488 55.4163C58.56 55.4163 58.4748 55.4514 58.4119 55.514L57.0679 56.858L58.4119 58.202C58.4748 58.2645 58.56 58.2997 58.6488 58.2997C58.7375 58.2997 58.8227 58.2645 58.8856 58.202C58.9169 58.1708 58.9417 58.1337 58.9586 58.0929C58.9755 58.0521 58.9842 58.0084 58.9842 57.9642C58.9842 57.9201 58.9755 57.8764 58.9586 57.8356C58.9417 57.7948 58.9169 57.7577 58.8856 57.7265L58.3497 57.1906H61.7668V53.256C61.7668 53.1669 61.7314 53.0815 61.6684 53.0185C61.6054 52.9554 61.5199 52.92 61.4308 52.92Z" fill="#368268"/>
<path opacity="0.7" d="M61.4308 52.92C61.3417 52.92 61.2563 52.9554 61.1932 53.0185C61.1302 53.0815 61.0948 53.1669 61.0948 53.256V56.5253H58.3497L58.8856 55.9894C58.9169 55.9582 58.9417 55.9211 58.9586 55.8804C58.9755 55.8396 58.9842 55.7958 58.9842 55.7517C58.9842 55.7075 58.9755 55.6638 58.9586 55.623C58.9417 55.5822 58.9169 55.5452 58.8856 55.514C58.8227 55.4514 58.7375 55.4163 58.6488 55.4163C58.56 55.4163 58.4748 55.4514 58.4119 55.514L57.0679 56.858L58.4119 58.202C58.4748 58.2645 58.56 58.2997 58.6488 58.2997C58.7375 58.2997 58.8227 58.2645 58.8856 58.202C58.9169 58.1708 58.9417 58.1337 58.9586 58.0929C58.9755 58.0521 58.9842 58.0084 58.9842 57.9642C58.9842 57.9201 58.9755 57.8764 58.9586 57.8356C58.9417 57.7948 58.9169 57.7577 58.8856 57.7265L58.3497 57.1906H61.7668V53.256C61.7668 53.1669 61.7314 53.0815 61.6684 53.0185C61.6054 52.9554 61.5199 52.92 61.4308 52.92Z" fill="white"/>
<path opacity="0.4" d="M70.6306 17.5258V19.115H72.2199L70.6306 17.5258Z" fill="white"/>
<path d="M72.2854 19.7601L72.2972 26.6481C72.2972 26.6913 72.2807 26.7328 72.251 26.764C72.2213 26.7953 72.1807 26.814 72.1376 26.8161L65.7637 26.8279C65.7191 26.8279 65.6764 26.8102 65.6449 26.7787C65.6134 26.7472 65.5957 26.7044 65.5957 26.6599L65.5789 17.692C65.5789 17.6475 65.5966 17.6048 65.6281 17.5733C65.6596 17.5417 65.7023 17.524 65.7469 17.524H70.0409L72.2854 19.7601Z" fill="#368268"/>
<g opacity="0.7">
<path d="M72.2854 19.7601L72.2972 26.6481C72.2972 26.6913 72.2807 26.7328 72.251 26.764C72.2213 26.7953 72.1807 26.814 72.1376 26.8161L65.7637 26.8279C65.7191 26.8279 65.6764 26.8102 65.6449 26.7787C65.6134 26.7472 65.5957 26.7044 65.5957 26.6599L65.5789 17.692C65.5789 17.6475 65.5966 17.6048 65.6281 17.5733C65.6596 17.5417 65.7023 17.524 65.7469 17.524H70.0409L72.2854 19.7601Z" fill="white"/>
</g>
<path d="M70.0443 17.5258V19.6056C70.0443 19.6502 70.062 19.6929 70.0935 19.7244C70.125 19.7559 70.1678 19.7736 70.2123 19.7736H72.2854L70.0443 17.5258Z" fill="#368268"/>
<path opacity="0.9" d="M70.0443 17.5258V19.6056C70.0443 19.6502 70.062 19.6929 70.0935 19.7244C70.125 19.7559 70.1678 19.7736 70.2123 19.7736H72.2854L70.0443 17.5258Z" fill="white"/>
<g opacity="0.8">
<path d="M70.6575 21.6904H67.2656C67.2131 21.6904 67.1626 21.6695 67.1254 21.6324C67.0883 21.5952 67.0674 21.5448 67.0674 21.4922C67.0674 21.4662 67.0725 21.4404 67.0825 21.4163C67.0924 21.3923 67.107 21.3704 67.1254 21.352C67.1439 21.3336 67.1657 21.319 67.1898 21.309C67.2138 21.2991 67.2396 21.2939 67.2656 21.2939H70.6575C70.6836 21.2939 70.7094 21.2991 70.7334 21.309C70.7575 21.319 70.7793 21.3336 70.7977 21.352C70.8161 21.3704 70.8307 21.3923 70.8407 21.4163C70.8507 21.4404 70.8558 21.4662 70.8558 21.4922C70.8558 21.5448 70.8349 21.5952 70.7977 21.6324C70.7605 21.6695 70.7101 21.6904 70.6575 21.6904Z" fill="white"/>
<path d="M70.6189 22.8278H67.2589C67.233 22.828 67.2072 22.8231 67.1832 22.8133C67.1591 22.8035 67.1373 22.7891 67.1188 22.7708C67.1004 22.7525 67.0858 22.7308 67.0758 22.7068C67.0658 22.6829 67.0607 22.6572 67.0607 22.6312C67.0607 22.5786 67.0816 22.5282 67.1187 22.491C67.1559 22.4539 67.2063 22.433 67.2589 22.433H70.6189C70.6715 22.433 70.7219 22.4539 70.7591 22.491C70.7963 22.5282 70.8171 22.5786 70.8171 22.6312C70.8171 22.6572 70.812 22.6829 70.802 22.7068C70.792 22.7308 70.7774 22.7525 70.759 22.7708C70.7406 22.7891 70.7187 22.8035 70.6946 22.8133C70.6706 22.8231 70.6449 22.828 70.6189 22.8278Z" fill="white"/>
<path d="M70.5467 24.0373H67.2656C67.2131 24.0373 67.1626 24.0165 67.1254 23.9793C67.0883 23.9421 67.0674 23.8917 67.0674 23.8391C67.0674 23.7865 67.0883 23.7361 67.1254 23.6989C67.1626 23.6618 67.2131 23.6409 67.2656 23.6409H70.5467C70.5992 23.6409 70.6497 23.6618 70.6868 23.6989C70.724 23.7361 70.7449 23.7865 70.7449 23.8391C70.7449 23.8917 70.724 23.9421 70.6868 23.9793C70.6497 24.0165 70.5992 24.0373 70.5467 24.0373Z" fill="white"/>
</g>
<path d="M50.0002 20.7076H40.735V26.7993H50.0002V20.7076Z" fill="#368268"/>
<path opacity="0.7" d="M50.0002 20.7076H40.735V26.7993H50.0002V20.7076Z" fill="white"/>
<path d="M43.9035 24.0291L41.1332 26.7994H46.6738L43.9035 24.0291Z" fill="#368268"/>
<path opacity="0.3" d="M43.9035 24.0291L41.1332 26.7994H46.6738L43.9035 24.0291Z" fill="white"/>
<path d="M49.9044 26.7993L47.156 22.1088L44.4075 26.7993H49.9044Z" fill="#368268"/>
<path opacity="0.5" d="M49.9044 26.7993L47.156 22.1088L44.4075 26.7993H49.9044Z" fill="white"/>
<path opacity="0.8" d="M44.6359 23.2142C44.943 23.2142 45.192 22.9652 45.192 22.6581C45.192 22.351 44.943 22.1021 44.6359 22.1021C44.3288 22.1021 44.0798 22.351 44.0798 22.6581C44.0798 22.9652 44.3288 23.2142 44.6359 23.2142Z" fill="white"/>
<path d="M37.9159 29.4487C37.9159 29.3815 37.9159 29.316 37.9075 29.2488L38.7475 28.6709C38.7023 28.4702 38.6393 28.274 38.5593 28.0846L37.5345 28.1131C37.4645 27.9992 37.3859 27.8908 37.2993 27.7889L37.6353 26.8263C37.4787 26.6901 37.31 26.5687 37.1313 26.4634L36.3199 27.0867C36.196 27.0357 36.0686 26.9941 35.9385 26.9623L35.6495 25.9829C35.5465 25.9728 35.444 25.9678 35.3421 25.9678C35.2379 25.9678 35.1355 25.9678 35.033 25.9829L34.744 26.9623C34.614 26.9941 34.4865 27.0357 34.3627 27.0867L33.5512 26.4634C33.3725 26.5687 33.2038 26.6901 33.0472 26.8263L33.3832 27.7889C33.2972 27.8912 33.2186 27.9996 33.148 28.1131L32.1249 28.0846C32.0443 28.274 31.9808 28.4702 31.9351 28.6709L32.7751 29.2488C32.7751 29.316 32.7667 29.3815 32.7667 29.4487C32.7667 29.5159 32.7667 29.5831 32.7751 29.6503L31.9351 30.2283C31.981 30.4289 32.0446 30.6251 32.1249 30.8146L33.148 30.786C33.2186 30.8996 33.2972 31.0079 33.3832 31.1103L33.0472 32.0729C33.2042 32.2084 33.3729 32.3299 33.5512 32.4358L34.3627 31.8125C34.4862 31.8637 34.6138 31.9047 34.744 31.9351L35.033 32.9163C35.1355 32.9163 35.2379 32.9314 35.3421 32.9314C35.4463 32.9314 35.5471 32.9314 35.6495 32.9163L35.9385 31.9351C36.0687 31.9047 36.1963 31.8637 36.3199 31.8125L37.1313 32.4358C37.3096 32.3299 37.4783 32.2084 37.6353 32.0729L37.2993 31.1103C37.3859 31.0083 37.4645 30.9 37.5345 30.786L38.5593 30.8146C38.6391 30.625 38.702 30.4288 38.7475 30.2283L37.9075 29.6503C37.9125 29.5831 37.9159 29.5176 37.9159 29.4487ZM35.3589 30.6247C35.1263 30.6247 34.8989 30.5558 34.7055 30.4265C34.5122 30.2973 34.3614 30.1137 34.2724 29.8988C34.1834 29.6839 34.1601 29.4474 34.2055 29.2193C34.2509 28.9912 34.3629 28.7816 34.5273 28.6172C34.6918 28.4527 34.9014 28.3407 35.1295 28.2953C35.3576 28.25 35.594 28.2732 35.8089 28.3623C36.0238 28.4513 36.2075 28.602 36.3367 28.7954C36.4659 28.9888 36.5349 29.2161 36.5349 29.4487C36.5349 29.7606 36.411 30.0597 36.1905 30.2803C35.9699 30.5008 35.6708 30.6247 35.3589 30.6247Z" fill="#368268"/>
<path opacity="0.7" d="M37.9159 29.4487C37.9159 29.3815 37.9159 29.316 37.9075 29.2488L38.7475 28.6709C38.7023 28.4702 38.6393 28.274 38.5593 28.0846L37.5345 28.1131C37.4645 27.9992 37.3859 27.8908 37.2993 27.7889L37.6353 26.8263C37.4787 26.6901 37.31 26.5687 37.1313 26.4634L36.3199 27.0867C36.196 27.0357 36.0686 26.9941 35.9385 26.9623L35.6495 25.9829C35.5465 25.9728 35.444 25.9678 35.3421 25.9678C35.2379 25.9678 35.1355 25.9678 35.033 25.9829L34.744 26.9623C34.614 26.9941 34.4865 27.0357 34.3627 27.0867L33.5512 26.4634C33.3725 26.5687 33.2038 26.6901 33.0472 26.8263L33.3832 27.7889C33.2972 27.8912 33.2186 27.9996 33.148 28.1131L32.1249 28.0846C32.0443 28.274 31.9808 28.4702 31.9351 28.6709L32.7751 29.2488C32.7751 29.316 32.7667 29.3815 32.7667 29.4487C32.7667 29.5159 32.7667 29.5831 32.7751 29.6503L31.9351 30.2283C31.981 30.4289 32.0446 30.6251 32.1249 30.8146L33.148 30.786C33.2186 30.8996 33.2972 31.0079 33.3832 31.1103L33.0472 32.0729C33.2042 32.2084 33.3729 32.3299 33.5512 32.4358L34.3627 31.8125C34.4862 31.8637 34.6138 31.9047 34.744 31.9351L35.033 32.9163C35.1355 32.9163 35.2379 32.9314 35.3421 32.9314C35.4463 32.9314 35.5471 32.9314 35.6495 32.9163L35.9385 31.9351C36.0687 31.9047 36.1963 31.8637 36.3199 31.8125L37.1313 32.4358C37.3096 32.3299 37.4783 32.2084 37.6353 32.0729L37.2993 31.1103C37.3859 31.0083 37.4645 30.9 37.5345 30.786L38.5593 30.8146C38.6391 30.625 38.702 30.4288 38.7475 30.2283L37.9075 29.6503C37.9125 29.5831 37.9159 29.5176 37.9159 29.4487ZM35.3589 30.6247C35.1263 30.6247 34.8989 30.5558 34.7055 30.4265C34.5122 30.2973 34.3614 30.1137 34.2724 29.8988C34.1834 29.6839 34.1601 29.4474 34.2055 29.2193C34.2509 28.9912 34.3629 28.7816 34.5273 28.6172C34.6918 28.4527 34.9014 28.3407 35.1295 28.2953C35.3576 28.25 35.594 28.2732 35.8089 28.3623C36.0238 28.4513 36.2075 28.602 36.3367 28.7954C36.4659 28.9888 36.5349 29.2161 36.5349 29.4487C36.5349 29.7606 36.411 30.0597 36.1905 30.2803C35.9699 30.5008 35.6708 30.6247 35.3589 30.6247Z" fill="white"/>
<path d="M41.128 33.5647C41.128 33.5227 41.128 33.479 41.128 33.437L41.6723 33.0641C41.6429 32.9346 41.6018 32.8081 41.5497 32.6861L40.8911 32.7045C40.8455 32.6313 40.7944 32.5617 40.7382 32.4962L40.9583 31.8746C40.8584 31.7882 40.7517 31.7101 40.6391 31.6411L40.1166 32.0426C40.0364 32.01 39.9539 31.9836 39.8697 31.9637L39.6849 31.332C39.5525 31.3185 39.4191 31.3185 39.2867 31.332L39.1002 31.9637C39.0166 31.9839 38.9346 32.0103 38.8549 32.0426L38.3325 31.6411C38.2193 31.7101 38.112 31.7882 38.0116 31.8746L38.2333 32.4962C38.1772 32.5617 38.1261 32.6313 38.0805 32.7045L37.4219 32.6861C37.3697 32.8081 37.3287 32.9346 37.2993 33.0641L37.8436 33.437C37.8436 33.479 37.8436 33.5227 37.8436 33.5647C37.8436 33.6067 37.8436 33.6521 37.8436 33.6941L37.2959 34.067C37.3253 34.1964 37.3664 34.323 37.4185 34.445L38.0771 34.4265C38.1227 34.4998 38.1738 34.5694 38.23 34.6349L38.0082 35.2565C38.1087 35.3429 38.216 35.421 38.3291 35.49L38.8516 35.0868C38.9314 35.1207 39.0141 35.1477 39.0985 35.1674L39.2833 35.7991C39.3489 35.7991 39.4161 35.7991 39.4816 35.7991C39.5471 35.7991 39.616 35.7991 39.6815 35.7991L39.8663 35.1674C39.9508 35.1477 40.0334 35.1207 40.1133 35.0868L40.6357 35.49C40.7483 35.4209 40.8551 35.3428 40.9549 35.2565L40.7349 34.6349C40.791 34.5694 40.8421 34.4998 40.8877 34.4265L41.5463 34.445C41.5985 34.323 41.6395 34.1964 41.6689 34.067L41.1246 33.6941C41.1263 33.6521 41.128 33.6084 41.128 33.5647ZM39.4799 34.3224C39.33 34.3224 39.1836 34.2779 39.059 34.1947C38.9344 34.1114 38.8372 33.9931 38.7799 33.8547C38.7225 33.7162 38.7075 33.5639 38.7368 33.4169C38.766 33.2699 38.8382 33.1349 38.9441 33.0289C39.0501 32.923 39.1851 32.8508 39.3321 32.8216C39.4791 32.7923 39.6314 32.8073 39.7699 32.8647C39.9083 32.922 40.0266 33.0192 40.1099 33.1438C40.1931 33.2684 40.2376 33.4148 40.2376 33.5647C40.2378 33.6643 40.2184 33.7629 40.1804 33.8549C40.1424 33.9469 40.0866 34.0306 40.0162 34.101C39.9458 34.1714 39.8621 34.2272 39.7701 34.2652C39.6781 34.3032 39.5795 34.3226 39.4799 34.3224Z" fill="#368268"/>
<path opacity="0.7" d="M41.128 33.5647C41.128 33.5227 41.128 33.479 41.128 33.437L41.6723 33.0641C41.6429 32.9346 41.6018 32.8081 41.5497 32.6861L40.8911 32.7045C40.8455 32.6313 40.7944 32.5617 40.7382 32.4962L40.9583 31.8746C40.8584 31.7882 40.7517 31.7101 40.6391 31.6411L40.1166 32.0426C40.0364 32.01 39.9539 31.9836 39.8697 31.9637L39.6849 31.332C39.5525 31.3185 39.4191 31.3185 39.2867 31.332L39.1002 31.9637C39.0166 31.9839 38.9346 32.0103 38.8549 32.0426L38.3325 31.6411C38.2193 31.7101 38.112 31.7882 38.0116 31.8746L38.2333 32.4962C38.1772 32.5617 38.1261 32.6313 38.0805 32.7045L37.4219 32.6861C37.3697 32.8081 37.3287 32.9346 37.2993 33.0641L37.8436 33.437C37.8436 33.479 37.8436 33.5227 37.8436 33.5647C37.8436 33.6067 37.8436 33.6521 37.8436 33.6941L37.2959 34.067C37.3253 34.1964 37.3664 34.323 37.4185 34.445L38.0771 34.4265C38.1227 34.4998 38.1738 34.5694 38.23 34.6349L38.0082 35.2565C38.1087 35.3429 38.216 35.421 38.3291 35.49L38.8516 35.0868C38.9314 35.1207 39.0141 35.1477 39.0985 35.1674L39.2833 35.7991C39.3489 35.7991 39.4161 35.7991 39.4816 35.7991C39.5471 35.7991 39.616 35.7991 39.6815 35.7991L39.8663 35.1674C39.9508 35.1477 40.0334 35.1207 40.1133 35.0868L40.6357 35.49C40.7483 35.4209 40.8551 35.3428 40.9549 35.2565L40.7349 34.6349C40.791 34.5694 40.8421 34.4998 40.8877 34.4265L41.5463 34.445C41.5985 34.323 41.6395 34.1964 41.6689 34.067L41.1246 33.6941C41.1263 33.6521 41.128 33.6084 41.128 33.5647ZM39.4799 34.3224C39.33 34.3224 39.1836 34.2779 39.059 34.1947C38.9344 34.1114 38.8372 33.9931 38.7799 33.8547C38.7225 33.7162 38.7075 33.5639 38.7368 33.4169C38.766 33.2699 38.8382 33.1349 38.9441 33.0289C39.0501 32.923 39.1851 32.8508 39.3321 32.8216C39.4791 32.7923 39.6314 32.8073 39.7699 32.8647C39.9083 32.922 40.0266 33.0192 40.1099 33.1438C40.1931 33.2684 40.2376 33.4148 40.2376 33.5647C40.2378 33.6643 40.2184 33.7629 40.1804 33.8549C40.1424 33.9469 40.0866 34.0306 40.0162 34.101C39.9458 34.1714 39.8621 34.2272 39.7701 34.2652C39.6781 34.3032 39.5795 34.3226 39.4799 34.3224Z" fill="white"/>
<path d="M35.831 33.7949V37.2103L35.2934 36.6744C35.2304 36.6118 35.1453 36.5767 35.0565 36.5767C34.9677 36.5767 34.8826 36.6118 34.8196 36.6744C34.7884 36.7056 34.7636 36.7426 34.7467 36.7834C34.7298 36.8242 34.7211 36.8679 34.7211 36.9121C34.7211 36.9563 34.7298 37 34.7467 37.0408C34.7636 37.0816 34.7884 37.1186 34.8196 37.1498L36.1636 38.4938L37.5076 37.1498C37.5389 37.1186 37.5636 37.0816 37.5805 37.0408C37.5975 37 37.6062 36.9563 37.6062 36.9121C37.6062 36.8679 37.5975 36.8242 37.5805 36.7834C37.5636 36.7426 37.5389 36.7056 37.5076 36.6744C37.4447 36.6118 37.3595 36.5767 37.2707 36.5767C37.182 36.5767 37.0968 36.6118 37.0339 36.6744L36.4979 37.2103V33.7949C36.4979 33.7057 36.4625 33.6203 36.3995 33.5573C36.3365 33.4943 36.251 33.4589 36.1619 33.4589C36.0737 33.4602 35.9895 33.4962 35.9276 33.559C35.8657 33.6219 35.831 33.7066 35.831 33.7949Z" fill="#368268"/>
<path opacity="0.7" d="M35.831 33.7949V37.2103L35.2934 36.6744C35.2304 36.6118 35.1453 36.5767 35.0565 36.5767C34.9677 36.5767 34.8826 36.6118 34.8196 36.6744C34.7884 36.7056 34.7636 36.7426 34.7467 36.7834C34.7298 36.8242 34.7211 36.8679 34.7211 36.9121C34.7211 36.9563 34.7298 37 34.7467 37.0408C34.7636 37.0816 34.7884 37.1186 34.8196 37.1498L36.1636 38.4938L37.5076 37.1498C37.5389 37.1186 37.5636 37.0816 37.5805 37.0408C37.5975 37 37.6062 36.9563 37.6062 36.9121C37.6062 36.8679 37.5975 36.8242 37.5805 36.7834C37.5636 36.7426 37.5389 36.7056 37.5076 36.6744C37.4447 36.6118 37.3595 36.5767 37.2707 36.5767C37.182 36.5767 37.0968 36.6118 37.0339 36.6744L36.4979 37.2103V33.7949C36.4979 33.7057 36.4625 33.6203 36.3995 33.5573C36.3365 33.4943 36.251 33.4589 36.1619 33.4589C36.0737 33.4602 35.9895 33.4962 35.9276 33.559C35.8657 33.6219 35.831 33.7066 35.831 33.7949Z" fill="white"/>
<path d="M30.0602 35.7874H20.0088C19.3723 35.7874 18.8563 36.3033 18.8563 36.9398V38.7089C18.8563 39.3454 19.3723 39.8614 20.0088 39.8614H30.0602C30.6967 39.8614 31.2127 39.3454 31.2127 38.7089V36.9398C31.2127 36.3033 30.6967 35.7874 30.0602 35.7874Z" fill="#368268"/>
<path opacity="0.7" d="M30.0602 35.7874H20.0088C19.3723 35.7874 18.8563 36.3033 18.8563 36.9398V38.7089C18.8563 39.3454 19.3723 39.8614 20.0088 39.8614H30.0602C30.6967 39.8614 31.2127 39.3454 31.2127 38.7089V36.9398C31.2127 36.3033 30.6967 35.7874 30.0602 35.7874Z" fill="white"/>
<path opacity="0.8" d="M25.4083 36.6962C25.2656 36.5533 25.0852 36.454 24.8881 36.4099C24.6911 36.3657 24.4855 36.3786 24.2955 36.447C24.1055 36.5154 23.9389 36.6365 23.8152 36.7961C23.6915 36.9557 23.6158 37.1472 23.5969 37.3483C23.5781 37.5493 23.6168 37.7516 23.7087 37.9314C23.8006 38.1112 23.9418 38.2612 24.1157 38.3637C24.2897 38.4663 24.4893 38.5172 24.6911 38.5104C24.8929 38.5037 25.0886 38.4397 25.2554 38.3258C25.2607 38.3807 25.2844 38.4322 25.3226 38.472L26.04 39.1893C26.0878 39.2354 26.1517 39.2609 26.2181 39.2604C26.2844 39.2598 26.3479 39.2333 26.395 39.1865C26.442 39.1397 26.4688 39.0763 26.4697 39.0099C26.4705 38.9436 26.4453 38.8795 26.3995 38.8315L25.6821 38.1141C25.6421 38.0751 25.5899 38.0508 25.5343 38.0453C25.6737 37.8409 25.7374 37.5943 25.7144 37.348C25.6914 37.1017 25.5832 36.8712 25.4083 36.6962ZM25.2 37.9814C25.0943 38.0872 24.9596 38.1593 24.8129 38.1886C24.6662 38.2178 24.5142 38.2029 24.376 38.1457C24.2378 38.0885 24.1196 37.9916 24.0365 37.8673C23.9534 37.743 23.9091 37.5967 23.9091 37.4472C23.9091 37.2976 23.9534 37.1514 24.0365 37.0271C24.1196 36.9027 24.2378 36.8058 24.376 36.7486C24.5142 36.6914 24.6662 36.6765 24.8129 36.7058C24.9596 36.735 25.0943 36.8071 25.2 36.9129C25.2703 36.983 25.326 37.0663 25.3641 37.158C25.4022 37.2496 25.4218 37.3479 25.4218 37.4472C25.4218 37.5464 25.4022 37.6447 25.3641 37.7364C25.326 37.8281 25.2703 37.9113 25.2 37.9814Z" fill="white"/>
</svg>
